<?xml version="1.0" encoding="UTF-8" standalone="no"?>
<!-- Created with Inkscape (http://www.inkscape.org/) -->
<svg
   xmlns:dc="http://purl.org/dc/elements/1.1/"
   xmlns:cc="http://web.resource.org/cc/"
   xmlns:rdf="http://www.w3.org/1999/02/22-rdf-syntax-ns#"
   xmlns:svg="http://www.w3.org/2000/svg"
   xmlns="http://www.w3.org/2000/svg"
   xmlns:xlink="http://www.w3.org/1999/xlink"
   xmlns:sodipodi="http://sodipodi.sourceforge.net/DTD/sodipodi-0.dtd"
   xmlns:inkscape="http://www.inkscape.org/namespaces/inkscape"
   id="svg2241"
   sodipodi:version="0.32"
   inkscape:version="0.45.1"
   width="128"
   height="128"
   version="1.0"
   sodipodi:docbase="."
   sodipodi:docname="fileicon128.svg"
   inkscape:output_extension="org.inkscape.output.svg.inkscape">
  <metadata
     id="metadata2246">
    <rdf:RDF>
      <cc:Work
         rdf:about="">
        <dc:format>image/svg+xml</dc:format>
        <dc:type
           rdf:resource="http://purl.org/dc/dcmitype/StillImage" />
      </cc:Work>
    </rdf:RDF>
  </metadata>
  <defs
     id="defs2244">
    <radialGradient
       fy="-2.3514588"
       fx="57.331705"
       r="84.038879"
       cy="-2.3514588"
       cx="57.331705"
       id="radialGradient1582"
       xlink:href="#linearGradient2163"
       inkscape:collect="always"
       gradientTransform="scale(1.3230281,0.7558419)"
       gradientUnits="userSpaceOnUse" />
    <linearGradient
       id="linearGradient2163">
      <stop
         id="stop2164"
         offset="0.0000000"
         style="stop-color:#ffffff;stop-opacity:1.0000000;" />
      <stop
         id="stop2165"
         offset="1.0000000"
         style="stop-color:#fffdff;stop-opacity:0.41292134;" />
    </linearGradient>
  </defs>
  <sodipodi:namedview
     inkscape:cy="57.849475"
     inkscape:cx="232"
     inkscape:zoom="1"
     inkscape:window-height="682"
     inkscape:window-width="922"
     inkscape:pageshadow="2"
     inkscape:pageopacity="0.0"
     guidetolerance="10.0"
     gridtolerance="10.0"
     objecttolerance="10.0"
     borderopacity="1.0"
     bordercolor="#666666"
     pagecolor="#ffffff"
     id="base"
     inkscape:window-x="104"
     inkscape:window-y="203"
     inkscape:current-layer="layer1" />
  <image
     xlink:href="fileiconbase128.tiff"
     sodipodi:absref="./fileiconbase128.tiff"
     width="128"
     height="128"
     id="image2248"
     x="0"
     y="0" />
  <g
     inkscape:groupmode="layer"
     id="layer1"
     inkscape:label="poedit icon"
     style="display:inline">
    <g
       id="g2365"
       transform="matrix(0.403868,0,0,0.403868,33.155369,44.826375)">
      <path
         transform="matrix(0.518153,0,0,0.518153,-80.76139,-54.23278)"
         d="M 429.71071 251.24321 A 128.84123 128.84123 0 1 1  172.02824,251.24321 A 128.84123 128.84123 0 1 1  429.71071 251.24321 z"
         sodipodi:ry="128.84123"
         sodipodi:rx="128.84123"
         sodipodi:cy="251.24321"
         sodipodi:cx="300.86948"
         id="path919"
         style="fill:#284ddd;fill-opacity:0.9807692;fill-rule:evenodd;stroke:#1e004d;stroke-width:11.26319313;stroke-linecap:butt;stroke-linejoin:miter;stroke-miterlimit:4;stroke-opacity:1"
         sodipodi:type="arc" />
      <path
         transform="matrix(0.506881,0,0,0.506881,-71.16755,-49.57648)"
         d="M 263.71875,118.375 C 231.75698,124.50717 203.96232,142.20429 184.71875,166.9375 L 193.4375,163.28125 L 195.03125,168.15625 L 200.78125,160.34375 L 200.40625,158.15625 L 203.59375,157.3125 L 203.59375,161.21875 C 203.59375,161.21875 207.2385,161.57399 206.75,162.0625 C 206.26149,162.55101 199.6875,166.21875 199.6875,166.21875 L 200.53125,170 L 203.59375,166.59375 L 208.09375,162.78125 L 211.15625,158.53125 L 208.96875,157.53125 L 220.375,148.5625 L 218.375,146.5625 L 227.65625,138.84375 L 219.8125,140.8125 L 217.03125,144 L 210.53125,145.8125 L 230.34375,131.53125 L 236.6875,131.03125 L 232.03125,134.71875 L 236.8125,133 C 236.8125,133 243.4005,132.63901 243.15625,131.90625 C 242.91199,131.17349 242.40625,130.78125 242.40625,130.78125 L 246.34375,128.96875 L 246.21875,127.5 L 250.59375,123.21875 L 253.90625,122 L 253.65625,124.3125 L 259.25,123.84375 C 259.25001,123.84375 268.56586,120.84375 267.875,120.84375 C 267.18415,120.84375 258.375,122.125 258.375,122.125 L 263.71875,118.375 z M 311.53125,118.0625 L 320.65625,126.71875 L 327.875,131.03125 L 322.46875,131.75 L 324.25,133.90625 L 317.78125,133.90625 L 316,137.53125 L 319.59375,141.125 L 318.875,144 L 321.375,146.5 L 327.5,152.28125 L 328.21875,156.9375 L 325.34375,156.9375 L 324.625,153 L 316.34375,146.5 L 318.5,153 L 322.8125,154.4375 L 316,154.78125 L 317.4375,156.9375 L 311.3125,158.03125 L 302.65625,168.8125 L 295.84375,164.875 L 301.9375,164.5 C 301.9375,164.50001 305.53331,163.78332 304.09375,162.34375 C 302.65417,160.90418 293.3125,158.03125 293.3125,158.03125 L 288.625,158.03125 L 273.53125,170.625 L 271,170.625 L 268.125,174.21875 L 265.96875,180.34375 L 271.71875,180 L 274.59375,186.46875 L 280.71875,183.59375 L 283.59375,177.46875 L 281.78125,174.59375 L 287.1875,165.9375 L 290.4375,168.46875 L 284.3125,173.5 L 287.1875,178.53125 L 288.28125,183.59375 L 285.75,183.21875 L 284.6875,188.25 L 280.34375,190.40625 L 280.34375,187.90625 L 274.96875,191.875 L 272.8125,190.0625 L 270.28125,190.0625 L 269.5625,185.75 L 272.0625,185.375 L 271,182.875 L 268.125,183.59375 L 267.75,190.40625 L 264.53125,190.40625 L 260.5625,192.9375 L 256.96875,193.65625 L 253,197.25 L 246.875,197.25 L 248.3125,205.90625 L 245.09375,210.5625 L 235.71875,206.96875 L 233.21875,213.09375 L 229.25,217.40625 L 229.625,222.09375 L 233.5625,224.25 L 233.5625,227.125 L 236.4375,225.34375 L 240.40625,226.40625 L 245.8125,223.15625 L 244.71875,218.84375 L 251.5625,215.96875 L 252.65625,212.75 L 258.03125,214.1875 L 263.8125,210.5625 L 265.59375,217.40625 C 265.59374,217.40625 274.59478,220.65315 273.875,222.8125 C 273.15523,224.97184 273.53125,227.84375 273.53125,227.84375 L 275.3125,225.6875 L 275.625,223.03125 L 278.5625,223.90625 L 276.28125,220.40625 L 268.84375,212.375 L 271,209.84375 L 280.71875,219.5625 L 280.34375,223.90625 L 283.59375,227.125 L 288.28125,227.84375 L 286.125,222.09375 L 288.625,223.15625 C 288.62501,223.15625 290.43647,218.84065 291.15625,221 C 291.87604,223.15935 294.75,224.25 294.75,224.25 L 296.90625,221 L 295.84375,216.34375 L 297.84375,212 L 300.5,206.625 L 305.1875,206.96875 L 304.09375,210.5625 L 307.34375,212.375 L 308.78125,210.21875 L 307.34375,207.6875 L 312.03125,203.75 L 310.21875,211.28125 L 316,210.9375 L 321.375,217.0625 L 318.5,219.21875 L 312.03125,219.21875 L 307.71875,217.40625 L 304.84375,217.40625 L 302.65625,221 L 299.4375,221 L 295.125,225.6875 L 295.84375,230 L 300.5,232.875 L 304.09375,231.4375 L 307.34375,232.53125 L 309.15625,231.09375 L 312.75,231.09375 L 312.375,237.9375 L 310.59375,244.03125 L 304.46875,244.03125 L 299.78125,247.28125 L 289,242.96875 L 285.40625,240.8125 L 281.78125,243.3125 L 279.28125,249.09375 L 274.25,245.5 L 271.71875,242.96875 L 268.84375,239 L 262.71875,238.65625 L 261.65625,236.5 L 263.09375,234.6875 C 263.09376,234.6875 264.15935,229.28228 262,228.5625 C 259.84066,227.84273 246.15625,228.5625 246.15625,228.5625 L 240.0625,230.71875 L 234.65625,228.21875 L 227.8125,232.53125 L 223.84375,234.34375 L 223.5,237.9375 L 217.75,243.3125 L 214.84375,240.8125 L 205.5,252.3125 L 204.40625,265.625 L 199.375,274.28125 L 205.5,278.25 L 213.78125,297.3125 L 226,299.09375 L 231.0625,301.625 L 238.59375,300.1875 L 246.875,305.9375 L 255.875,307.75 L 254.09375,321.4375 L 260.1875,326.09375 L 264.15625,337.625 L 265.96875,340.5 L 263.4375,343 L 261.28125,350.5625 L 268.84375,357.0625 L 271,363.15625 C 271,363.15625 277.46875,366.05837 277.46875,368.9375 C 277.46874,371.81663 278.1875,372.875 278.1875,372.875 L 295.84375,371.09375 L 308.0625,362.8125 L 308.0625,360.28125 L 315.25,357.78125 L 314.53125,353.8125 L 327.5,344.8125 L 328.59375,334.375 L 325.34375,330.0625 L 326.0625,323.9375 L 335.78125,311.71875 C 335.78124,311.71875 347.28021,303.78435 348,301.625 C 348.71979,299.46565 351.625,282.90625 351.625,282.90625 L 337.9375,290.84375 L 333.25,288.3125 L 334.34375,286.875 L 326.40625,281.84375 L 319.21875,272.46875 L 319.21875,265.625 L 313.8125,262.75 L 306.625,249.09375 L 310.9375,251.96875 L 312.75,249.09375 L 318.5,259.53125 L 323.1875,262.03125 L 322.8125,266.71875 L 333.25,276.4375 L 335.78125,285.78125 L 348.75,278.59375 L 355.9375,268.15625 L 365.28125,253.40625 L 355.21875,249.4375 L 345.84375,256.65625 L 348,249.8125 L 345.125,251.96875 L 337.59375,243.6875 L 342.96875,242.59375 L 349.8125,247.28125 L 355.5625,246.5625 L 360.25,248 L 372.5625,243.875 L 377.15625,244.125 L 380.4375,244.125 L 377.65625,248.46875 L 381.96875,248.1875 C 381.96876,248.1875 384.01332,243.88833 385.03125,244.90625 C 386.04919,245.92419 397.75,270.34375 397.75,270.34375 L 400.03125,261.6875 L 398,253.8125 L 403.59375,226.3125 L 409.46875,234.46875 L 411,230.625 L 413.28125,236.75 L 416.0625,233.6875 L 417.09375,235.46875 L 417.34375,226.3125 L 410.46875,216.65625 L 412.71875,203.875 C 397.11043,159.68961 358.67291,126.35571 311.53125,118.0625 z M 249.07705,182.63813 L 246.45133,183.61515 L 243.88667,184.10365 L 244.25305,186.42406 L 241.5052,189.04978 L 244.06986,191.18699 L 247.79472,186.91256 L 250.17619,184.22578 L 249.07705,182.63813 z M 255.91613,176.89819 C 255.91613,176.89819 251.6417,180.07348 251.6417,180.56198 C 251.6417,181.05049 252.3134,183.06558 252.3134,183.06558 L 251.1532,184.77535 L 251.94702,188.31702 L 248.22216,190.33211 L 250.35938,191.79762 L 246.45133,193.87377 C 246.45133,193.87377 250.05406,193.14102 250.54257,193.38527 C 251.03107,193.62952 254.51167,193.62952 254.51167,193.62952 L 256.89315,191.0038 L 255.54975,188.74446 L 255.9772,186.60725 L 254.38955,183.43196 L 257.19846,179.89029 L 255.36656,179.21859 L 255.91613,176.89819 z M 247.24515,157.11369 L 249.50449,158.02964 L 248.58854,159.31197 C 248.58854,159.31197 253.53467,159.31197 253.53467,159.9226 C 253.53467,160.53323 250.17619,164.38022 250.17619,164.38022 C 250.17619,164.38022 247.42834,164.19703 245.59644,162.18194 C 243.76454,160.16685 247.36728,158.70134 247.36728,158.70134 L 247.24515,157.41901 M 273.44129,136.04687 L 275.88382,138.24514 L 272.22002,139.71066 L 264.40393,146.794 L 260.25162,146.42762 L 256.58783,152.04544 L 255.61082,148.01527 L 253.65679,149.96929 L 254.38955,151.92331 L 237.04759,152.28969 L 227.03321,158.51815 C 227.03321,158.51815 226.91108,154.24372 227.39959,153.51096 C 227.8881,152.7782 237.90247,144.22934 237.90247,144.22934 C 237.90247,144.22934 239.36799,144.4736 240.83351,144.22934 C 242.29903,143.98509 258.05335,135.06985 258.05335,135.06985 L 258.05335,132.87158 L 261.9614,131.03968 L 266.96858,132.9937 C 266.96858,132.9937 268.55623,132.62732 269.65537,132.62732 C 270.75451,132.62732 276.2502,134.58135 276.2502,134.58135 L 276.49445,136.77962 L 273.44129,136.04687 z M 256.22145,130.18479 C 256.22145,130.18479 264.77031,129.32991 265.25881,130.06267 C 265.74732,130.79543 266.72433,131.65031 266.72433,131.65031 L 270.99876,131.1618 L 270.99876,128.59715 C 270.99876,128.59715 268.4341,125.42186 267.45709,125.66611 C 266.48008,125.91036 263.06053,128.23077 263.06053,128.23077 L 257.44271,129.08565 L 256.22145,130.18479 z M 232.47168,136.81063 C 231.78083,137.50149 226.77215,143.20101 226.77215,143.20101 L 234.71695,139.31497 L 233.85339,142.16474 L 253.62902,128.95219 L 249.74298,125.58429 L 248.27492,129.38397 L 245.77058,130.50661 L 245.07973,133.01095 L 236.35772,137.32877 L 232.47168,136.81063 z M 287.48077,141.47388 C 286.6172,141.6466 283.33566,142.51016 283.33566,142.51016 L 283.68108,146.82799 C 283.68108,146.82799 289.98511,141.90567 289.29425,141.90567 C 288.6034,141.90567 287.48077,141.47388 287.48077,141.47388 z M 309.67439,142.76923 C 309.67439,142.76923 300.26153,148.90054 310.53795,153.99558 C 306.73827,148.55512 309.67439,142.76923 309.67439,142.76923 z M 347.23946,334.567 L 334.02692,345.1025 L 334.89048,348.29769 L 331.95436,353.13365 L 333.16335,356.50155 C 333.16335,356.50155 339.29466,354.25629 339.64009,353.56543 C 339.98552,352.87458 349.22566,338.62576 349.05295,338.10762 C 348.88024,337.58948 347.23946,334.567 347.23946,334.567 z "
         style="fill:#36d100;fill-opacity:0.86538463;fill-rule:evenodd;stroke:#00ae00;stroke-width:0.92852128;stroke-linecap:butt;stroke-linejoin:miter;stroke-miterlimit:4;stroke-opacity:1"
         id="path1586" />
      <path
         transform="matrix(0.506881,0,0,0.506881,-71.16755,-49.57648)"
         sodipodi:nodetypes="cc"
         id="path1624"
         d="M 159.93528,216.43985 C 175.18878,320.94902 417.43258,294.51968 416.3754,220.06445"
         style="fill:none;fill-opacity:0.75;fill-rule:evenodd;stroke:#000000;stroke-width:2.47605667pt;stroke-linecap:butt;stroke-linejoin:miter;stroke-opacity:0.43269234" />
      <path
         transform="matrix(0.518153,0,0,0.518153,-80.76139,-54.23278)"
         d="M 429.71071 251.24321 A 128.84123 128.84123 0 1 1  172.02824,251.24321 A 128.84123 128.84123 0 1 1  429.71071 251.24321 z"
         sodipodi:ry="128.84123"
         sodipodi:rx="128.84123"
         sodipodi:cy="251.24321"
         sodipodi:cx="300.86948"
         id="path1625"
         style="fill:none;fill-opacity:0.71634617;fill-rule:evenodd;stroke:#1e004d;stroke-width:11.26319313;stroke-linecap:butt;stroke-linejoin:miter;stroke-miterlimit:4;stroke-opacity:1"
         sodipodi:type="arc" />
      <path
         sodipodi:nodetypes="cccc"
         id="path1535"
         d="M 137.93415,75.263515 C 105.11665,110.10054 64.725913,29.319031 11.713046,75.263515 C 11.713046,40.426486 39.986576,12.152957 74.823599,12.152957 C 109.66062,12.152957 137.93415,40.426486 137.93415,75.263515 z "
         style="fill:url(#radialGradient1582);fill-opacity:0.75;fill-rule:evenodd;stroke:none;stroke-width:0.89576788pt;stroke-linecap:butt;stroke-linejoin:miter;stroke-opacity:1" />
    </g>
  </g>
</svg>
