/* XPM */
static char * poedit_comment_xpm[] = {
"20 20 29 1",
" 	c None",
".	c #B6B6B6",
"+	c #626262",
"@	c #000000",
"#	c #B1FFFF",
"$	c #FFB1B1",
"%	c #CECECE",
"&	c #7A7A7A",
"*	c #E6E6E6",
"=	c #FFFFFF",
"-	c #565656",
";	c #3E3E3E",
">	c #FFD4D4",
",	c #FF6B6B",
"'	c #FFAA00",
")	c #960000",
"!	c #FFFFD4",
"~	c #FEFE00",
"{	c #FFB848",
"]	c #FFAA25",
"^	c #DADADA",
"/	c #503200",
"(	c #FFE2B1",
"_	c #FFF0D4",
":	c #868686",
"<	c #734A00",
"[	c #FFD48E",
"}	c #6E6E6E",
"|	c #FFC66B",
"  .+++++++++++.     ",
"  +@@@@@@@@@@@+.    ",
"  +@#$####%@%&@+..  ",
"  +@.$%***%@=%&@-;. ",
"  +@#$####%@==%;@@;.",
"  +@.$%**=%@==;@>$@;",
"  +@#$####%@@;@@$$,@",
"  +@.$%**==%;@';@$)@",
"  +@#$#####;@'!~;@@;",
"  +@.$%**=;@'!~{]@;.",
"  +@#$###;@'!~{]@;. ",
"  +@.$%^;@'!~{]@;+. ",
"  +@#$#;@@;~{]@;@+. ",
"  +@.$;/(_@;]@;*@+. ",
"  +@#$:<_([@@;##@+. ",
"  +@.$}<([|@;===@+. ",
"  +@#$+@<</;####@+. ",
"  +@.$;+}:;^****@+. ",
"  +@@@@@@@@@@@@@@+. ",
"  .++++++++++++++.  "};
