/* XPM */
static char * poedit_prj_new_xpm[] = {
"20 20 21 1",
" 	c None",
".	c #7F7F7F",
"+	c #DC9200",
"@	c #626262",
"#	c #4A4A4A",
"$	c #FFC66B",
"%	c #000000",
"&	c #FFFF00",
"*	c #0000E8",
"=	c #0000CE",
"-	c #0000BF",
";	c #00009E",
">	c #000081",
",	c #FFAA00",
"'	c #DCDC00",
")	c #FFFFFF",
"!	c #00005E",
"~	c #00003F",
"{	c #000030",
"]	c #00001C",
"^	c #BCBCBC",
"   .+@@@@@@@@@@@.   ",
" @#+$+%%%%%%%%%%%.  ",
" #+$&$+*=---;;;>%@  ",
" +,'&',+-;;;>>>>%@  ",
"+,'')'',+;>>>>>>%@  ",
"&&&))&&&&$>>>>>!%@  ",
"+,''&'',+>>>>>>!%@  ",
" +,'&',+>>>>>>>~%@  ",
"  +$&$+>>>>>>>!~%@  ",
"  @,&,;>>>>>>>!~%@  ",
"  @,&,;>>>>>>!~{%@  ",
"  @,&,;>>>>>>!~{%@  ",
"  @+$+>>>>>!!!~]%@  ",
"  @%+%>>>!!~~~{]%@  ",
"  @%{%>!!~~{{]]]%@  ",
"  @%]%%%%%%%%%%%%@  ",
"  @%%)^)^)^)^)^)@.  ",
"  @%%^)^)^)^)^)^@.  ",
"  .@%%%%%%%%%%%%%.  ",
"   .@@@@@@@@@@@@.   "};
