/* XPM */
static char * poedit_fileopen_xpm[] = {
"20 20 24 1",
" 	c None",
".	c #B6B6B6",
"+	c #000000",
"@	c #6E6E6E",
"#	c #8EFFFF",
"$	c #FFB1B1",
"%	c #B1FFFF",
"&	c #3E3E3E",
"*	c #DADADA",
"=	c #868686",
"-	c #CECECE",
";	c #E6E6E6",
">	c #F2F2F2",
",	c #FFFFFF",
"'	c #D1C96B",
")	c #FFF0D4",
"!	c #C3B848",
"~	c #AF9200",
"{	c #FF8F6B",
"]	c #929292",
"^	c #C2C2C2",
"/	c #937A00",
"(	c #BDAA25",
"_	c #626200",
"    .+++++++++@.    ",
"  ..@+#$%%%&*@&@.   ",
" .=@@+.$-;>&,*@+@.  ",
".=@+++#$%%%&,,*+@.. ",
".@+')+.$-;>@@@@+@@@.",
".@+)'+#$%%%%%%%++++@",
".@+)!+.$-;>,,,>+'~+@",
".@+)!+%{%%%%%%%+'~+@",
"]@+)!+^/////////'~+@",
"@++////))))))))/'~+@",
"+)))))!!!!!!!!!/~/+@",
"+(!!!!!!!!!!!!!~//+@",
"+/!!!!!!!!!!!!!!//+@",
"@+(!!!!!!!!!!!!!//+@",
"]+/!!!!!!!!!!!!!~/+@",
".@+~~~~~~~~~~~~~~_+@",
".]+++++++++++++++++@",
" .@@@@@@@@@@@@@@@@@.",
"  ................. ",
"                    "};
