/* XPM */
static char * poedit_prj_edit_xpm[] = {
"20 20 34 1",
" 	c None",
".	c #7F7F7F",
"+	c #626262",
"@	c #565656",
"#	c #3E3E3E",
"$	c #B6B6B6",
"%	c #000000",
"&	c #232323",
"*	c #0000E8",
"=	c #0000CE",
"-	c #0000BF",
";	c #00009E",
">	c #FFD4D4",
",	c #FFB1B1",
"'	c #000081",
")	c #FF6B6B",
"!	c #FFAA00",
"~	c #960000",
"{	c #FFFFD4",
"]	c #FEFE00",
"^	c #FFB848",
"/	c #FFAA25",
"(	c #503200",
"_	c #FFE2B1",
":	c #FFF0D4",
"<	c #000030",
"[	c #734A00",
"}	c #FFD48E",
"|	c #00003F",
"1	c #00005E",
"2	c #FFC66B",
"3	c #00001C",
"4	c #FFFFFF",
"5	c #BCBCBC",
"   .++++++++++++@#$ ",
"  .+%%%%%%%%%%%#%%#$",
"  +&*%**=---;;#%>,%#",
"  +%*%*=-;;;'#%%,,)%",
"  +%=%=-;;''#%!#%,~%",
"  +%-%=;;''#%!{]#%%#",
"  +%;%-;;'#%!{]^/%#$",
"  +%'%-;'#%!{]^/%#  ",
"  +%'%;'#%!{]^/%#+  ",
"  +%'%;#%%#]^/%#%+  ",
"  +%'%;(_:%#/%#<%+  ",
"  +%'%=[:_}%%#|<%+  ",
"  +%1%=[_}2%#1|3%+  ",
"  +%|%=%[[(#||<3%+  ",
"  +%<%===;;<<333%+  ",
"  +%3%%%%%%%%%%%%+  ",
"  +%%45454545454+.  ",
"  +%%54545454545+.  ",
"  .+%%%%%%%%%%%%%.  ",
"   .++++++++++++.   "};
