/* XPM */
static char * poedit_fuzzy_xpm[] = {
"20 20 92 2",
"  	c None",
". 	c #131313",
"+ 	c #151515",
"@ 	c #6C6C6C",
"# 	c #EFEFEF",
"$ 	c #FFFFFF",
"% 	c #F3F3F3",
"& 	c #7A7A7A",
"* 	c #2E2E2E",
"= 	c #8E8E8E",
"- 	c #FAFAFA",
"; 	c #FBFBFB",
"> 	c #A4A4A4",
", 	c #313131",
"' 	c #D6D6D6",
") 	c #E7E7E7",
"! 	c #383838",
"~ 	c #545454",
"{ 	c #ECECEC",
"] 	c #595959",
"^ 	c #727272",
"/ 	c #878787",
"( 	c #4D4D4D",
"_ 	c #E4E4E4",
": 	c #676767",
"< 	c #2C2C2C",
"[ 	c #444444",
"} 	c #575757",
"| 	c #E1E1E1",
"1 	c #242424",
"2 	c #393939",
"3 	c #525252",
"4 	c #1A1A1A",
"5 	c #D1D1D1",
"6 	c #686868",
"7 	c #000000",
"8 	c #0B0B0B",
"9 	c #B0B0B0",
"0 	c #F0F0F0",
"a 	c #D7D7D7",
"b 	c #FEFEFE",
"c 	c #E9E9E9",
"d 	c #EEEEEE",
"e 	c #F1F1F1",
"f 	c #FDFDFD",
"g 	c #898989",
"h 	c #CECECE",
"i 	c #848484",
"j 	c #9A9A9A",
"k 	c #CCCCCC",
"l 	c #1B1B1B",
"m 	c #8F8F8F",
"n 	c #F9F9F9",
"o 	c #9E9E9E",
"p 	c #5F5F5F",
"q 	c #191919",
"r 	c #363636",
"s 	c #BFBFBF",
"t 	c #C7C7C7",
"u 	c #212121",
"v 	c #939393",
"w 	c #ACACAC",
"x 	c #CBCBCB",
"y 	c #353535",
"z 	c #999999",
"A 	c #F8F8F8",
"B 	c #F5F5F5",
"C 	c #515151",
"D 	c #DADADA",
"E 	c #F6F6F6",
"F 	c #A3A3A3",
"G 	c #7D7D7D",
"H 	c #BDBDBD",
"I 	c #8A8A8A",
"J 	c #E2E2E2",
"K 	c #D9D9D9",
"L 	c #F4F4F4",
"M 	c #E5E5E5",
"N 	c #4A4A4A",
"O 	c #ABABAB",
"P 	c #646464",
"Q 	c #404040",
"R 	c #BCBCBC",
"S 	c #818181",
"T 	c #A0A0A0",
"U 	c #787878",
"V 	c #2F2F2F",
"W 	c #141414",
"X 	c #121212",
"Y 	c #474747",
"Z 	c #343434",
"` 	c #181818",
"                  . + .                 ",
"                @ # $ % & *             ",
"              = - $ $ $ ; >             ",
"            , ' $ $ $ $ $ ) !           ",
"            ~ { ] ^ $ / ( _ :           ",
"        < [ } | 1 2 $ 3 4 5 6 7         ",
"      8 9 0 a b c d $ e ) f g h i       ",
"      8 j ; $ $ $ $ $ $ $ $ e $ k l     ",
"        8 m n $ $ $ $ $ $ $ f o p q     ",
"          r s $ $ $ $ $ $ $ t u         ",
"            v $ $ $ $ $ $ $ w 7         ",
"            v $ $ $ $ $ $ $ x y         ",
"            v $ $ $ $ $ $ $ ) 6         ",
"            z $ b A $ $ $ B A ' C       ",
"          r D $ E F # $ A G H $ t [     ",
"          I E $ J C K L M N O L | P     ",
"        Q R $ ) S u T T / l U T T [     ",
"        , j > U V   W W .   X Q Y       ",
"          Z y `                         ",
"                                        "};
