/* XPM */
static char * poedit_status_comment_xpm[] = {
"16 16 42 1",
" 	c None",
".	c #040404",
"+	c #542F2F",
"@	c #7D6868",
"#	c #EB9393",
"$	c #603535",
"%	c #CC9393",
"&	c #FFAAAA",
"*	c #EB7777",
"=	c #542323",
"-	c #0C0800",
";	c #855F11",
">	c #A2872F",
",	c #1E1E14",
"'	c #CC6C6C",
")	c #7D3434",
"!	c #FFE066",
"~	c #FEED44",
"{	c #A2812F",
"]	c #7D5300",
"^	c #FFE477",
"/	c #FFBE30",
"(	c #855A16",
"_	c #F5DA88",
":	c #FEF32D",
"<	c #FFBC34",
"[	c #0C0802",
"}	c #F5AC3A",
"|	c #7D5312",
"1	c #504328",
"2	c #9A7C4A",
"3	c #FFEAC5",
"4	c #5C5445",
"5	c #50432E",
"6	c #271900",
"7	c #AB8A4F",
"8	c #FFE5B9",
"9	c #FFE2B1",
"0	c #0E0900",
"a	c #60481C",
"b	c #AB8747",
"c	c #9A7B47",
"            .   ",
"           .+.  ",
"          .@#$. ",
"         ..%&*=.",
"        -;>,'). ",
"       .;!~{..  ",
"      .]^~/(.   ",
"     .]_:<([    ",
"    -;^:}|.     ",
"   .;!~<|.      ",
"  .]^~/(.       ",
" ..1:<([        ",
" 2345|.         ",
"6789..          ",
"0abc.           ",
".06             "};
