/* XPM */
static char * poedit_fullscreen_xpm[] = {
"20 20 8 1",
" 	c None",
".	c #BBBBBB",
"+	c #666666",
"@	c #505050",
"#	c #000000",
"$	c #FFFFFF",
"%	c #9999FF",
"&	c #666699",
"                    ",
"                    ",
" .+++++++++++++++.  ",
" @###############@  ",
" @#$%%%%%%%%%%%%#@  ",
" @#&&&&&&&&&&&&&#@  ",
" @#$$$$$$$$$$$$$#@  ",
" @#$$$$$$$$$$$$$#@  ",
" @#$$$$$$$$$$$$$#@  ",
" @#$$$$$$$$$$$$$#@  ",
" @#$$$$$$$$$$$$$#@  ",
" @#$$$$$$$$$$$$$#@  ",
" @#$$$$$$$$$$$$$#@  ",
" @#$$$$$$$$$$$$$#@  ",
" @#$$$$$$$$$$$$$#@  ",
" @###############@  ",
" .+++++++++++++++.  ",
"                    ",
"                    ",
"                    "};
