<?xml version="1.0" encoding="UTF-8"?>
<!--Generator: Apple Native CoreSVG 341-->
<!DOCTYPE svg
PUBLIC "-//W3C//DTD SVG 1.1//EN"
       "http://www.w3.org/Graphics/SVG/1.1/DTD/svg11.dtd">
<svg version="1.1" xmlns="http://www.w3.org/2000/svg" xmlns:xlink="http://www.w3.org/1999/xlink" viewBox="0 0 3300 2200">
 <!--glyph: "", point size: 100.0, font version: "20.0d10e1", template writer version: "138.0.0"-->
 <style>.monochrome-0 {-sfsymbols-motion-group:0;-sfsymbols-layer-tags:-690468b97a9d64f2}

.multicolor-0:tintColor {-sfsymbols-motion-group:0;-sfsymbols-layer-tags:-690468b97a9d64f2}

.hierarchical-0:primary {-sfsymbols-motion-group:0;-sfsymbols-layer-tags:-690468b97a9d64f2}

.SFSymbolsPreviewWireframe {fill:none;opacity:1.0;stroke:black;stroke-width:0.5}
</style>
 <g id="Notes">
  <rect height="2200" id="artboard" style="fill:white;opacity:1" width="3300" x="0" y="0"/>
  <line style="fill:none;stroke:black;opacity:1;stroke-width:0.5;" x1="263" x2="3036" y1="292" y2="292"/>
  <text style="stroke:none;fill:black;font-family:sans-serif;font-size:13;font-weight:bold;" transform="matrix(1 0 0 1 263 322)">Weight/Scale Variations</text>
  <text style="stroke:none;fill:black;font-family:sans-serif;font-size:13;text-anchor:middle;" transform="matrix(1 0 0 1 559.711 322)">Ultralight</text>
  <text style="stroke:none;fill:black;font-family:sans-serif;font-size:13;text-anchor:middle;" transform="matrix(1 0 0 1 856.422 322)">Thin</text>
  <text style="stroke:none;fill:black;font-family:sans-serif;font-size:13;text-anchor:middle;" transform="matrix(1 0 0 1 1153.13 322)">Light</text>
  <text style="stroke:none;fill:black;font-family:sans-serif;font-size:13;text-anchor:middle;" transform="matrix(1 0 0 1 1449.84 322)">Regular</text>
  <text style="stroke:none;fill:black;font-family:sans-serif;font-size:13;text-anchor:middle;" transform="matrix(1 0 0 1 1746.56 322)">Medium</text>
  <text style="stroke:none;fill:black;font-family:sans-serif;font-size:13;text-anchor:middle;" transform="matrix(1 0 0 1 2043.27 322)">Semibold</text>
  <text style="stroke:none;fill:black;font-family:sans-serif;font-size:13;text-anchor:middle;" transform="matrix(1 0 0 1 2339.98 322)">Bold</text>
  <text style="stroke:none;fill:black;font-family:sans-serif;font-size:13;text-anchor:middle;" transform="matrix(1 0 0 1 2636.69 322)">Heavy</text>
  <text style="stroke:none;fill:black;font-family:sans-serif;font-size:13;text-anchor:middle;" transform="matrix(1 0 0 1 2933.4 322)">Black</text>
  <line style="fill:none;stroke:black;opacity:1;stroke-width:0.5;" x1="263" x2="3036" y1="1903" y2="1903"/>
  <g transform="matrix(0.2 0 0 0.2 263 1933)">
   <path d="m46.2402 4.15039c21.7773 0 39.4531-17.627 39.4531-39.4043s-17.6758-39.4043-39.4531-39.4043c-21.7285 0-39.4043 17.627-39.4043 39.4043s17.6758 39.4043 39.4043 39.4043Zm0-7.42188c-17.6758 0-31.9336-14.3066-31.9336-31.9824s14.2578-31.9824 31.9336-31.9824 31.9824 14.3066 31.9824 31.9824-14.3066 31.9824-31.9824 31.9824Zm-17.9688-31.9824c0 2.14844 1.51367 3.61328 3.75977 3.61328h10.498v10.5957c0 2.19727 1.46484 3.71094 3.61328 3.71094 2.24609 0 3.71094-1.51367 3.71094-3.71094v-10.5957h10.5957c2.19727 0 3.71094-1.46484 3.71094-3.61328 0-2.19727-1.51367-3.71094-3.71094-3.71094h-10.5957v-10.5469c0-2.24609-1.46484-3.75977-3.71094-3.75977-2.14844 0-3.61328 1.51367-3.61328 3.75977v10.5469h-10.498c-2.24609 0-3.75977 1.51367-3.75977 3.71094Z"/>
  </g>
  <g transform="matrix(0.2 0 0 0.2 281.506 1933)">
   <path d="m58.5449 14.5508c27.4902 0 49.8047-22.3145 49.8047-49.8047s-22.3145-49.8047-49.8047-49.8047-49.8047 22.3145-49.8047 49.8047 22.3145 49.8047 49.8047 49.8047Zm0-8.30078c-22.9492 0-41.5039-18.5547-41.5039-41.5039s18.5547-41.5039 41.5039-41.5039 41.5039 18.5547 41.5039 41.5039-18.5547 41.5039-41.5039 41.5039Zm-22.6562-41.5039c0 2.39258 1.66016 4.00391 4.15039 4.00391h14.3555v14.4043c0 2.44141 1.66016 4.15039 4.05273 4.15039 2.44141 0 4.15039-1.66016 4.15039-4.15039v-14.4043h14.4043c2.44141 0 4.15039-1.61133 4.15039-4.00391 0-2.44141-1.70898-4.15039-4.15039-4.15039h-14.4043v-14.3555c0-2.49023-1.70898-4.19922-4.15039-4.19922-2.39258 0-4.05273 1.70898-4.05273 4.19922v14.3555h-14.3555c-2.49023 0-4.15039 1.70898-4.15039 4.15039Z"/>
  </g>
  <g transform="matrix(0.2 0 0 0.2 304.924 1933)">
   <path d="m74.8535 28.3203c35.1074 0 63.623-28.4668 63.623-63.5742s-28.5156-63.623-63.623-63.623-63.5742 28.5156-63.5742 63.623 28.4668 63.5742 63.5742 63.5742Zm0-9.08203c-30.127 0-54.4922-24.3652-54.4922-54.4922s24.3652-54.4922 54.4922-54.4922 54.4922 24.3652 54.4922 54.4922-24.3652 54.4922-54.4922 54.4922Zm-28.8574-54.4922c0 2.58789 1.85547 4.39453 4.58984 4.39453h19.7266v19.7754c0 2.68555 1.85547 4.58984 4.44336 4.58984 2.68555 0 4.54102-1.85547 4.54102-4.58984v-19.7754h19.7754c2.68555 0 4.58984-1.80664 4.58984-4.39453 0-2.73438-1.85547-4.58984-4.58984-4.58984h-19.7754v-19.7266c0-2.73438-1.85547-4.63867-4.54102-4.63867-2.58789 0-4.44336 1.9043-4.44336 4.63867v19.7266h-19.7266c-2.73438 0-4.58984 1.85547-4.58984 4.58984Z"/>
  </g>
  <text style="stroke:none;fill:black;font-family:sans-serif;font-size:13;font-weight:bold;" transform="matrix(1 0 0 1 263 1953)">Design Variations</text>
  <text style="stroke:none;fill:black;font-family:sans-serif;font-size:13;" transform="matrix(1 0 0 1 263 1971)">Symbols are supported in up to nine weights and three scales.</text>
  <text style="stroke:none;fill:black;font-family:sans-serif;font-size:13;" transform="matrix(1 0 0 1 263 1989)">For optimal layout with text and other symbols, vertically align</text>
  <text style="stroke:none;fill:black;font-family:sans-serif;font-size:13;" transform="matrix(1 0 0 1 263 2007)">symbols with the adjacent text.</text>
  <line style="fill:none;stroke:#00AEEF;stroke-width:0.5;opacity:1.0;" x1="776" x2="776" y1="1919" y2="1933"/>
  <g transform="matrix(0.2 0 0 0.2 776 1933)">
   <path d="m16.5527 0.78125c2.58789 0 3.85742-0.976562 4.78516-3.71094l6.29883-17.2363h28.8086l6.29883 17.2363c0.927734 2.73438 2.19727 3.71094 4.73633 3.71094 2.58789 0 4.24805-1.5625 4.24805-4.00391 0-0.830078-0.146484-1.61133-0.537109-2.63672l-22.9004-60.9863c-1.12305-2.97852-3.125-4.49219-6.25-4.49219-3.02734 0-5.07812 1.46484-6.15234 4.44336l-22.9004 61.084c-0.390625 1.02539-0.537109 1.80664-0.537109 2.63672 0 2.44141 1.5625 3.95508 4.10156 3.95508Zm13.4766-28.3691 11.8652-32.8613h0.244141l11.8652 32.8613Z"/>
  </g>
  <line style="fill:none;stroke:#00AEEF;stroke-width:0.5;opacity:1.0;" x1="792.836" x2="792.836" y1="1919" y2="1933"/>
  <text style="stroke:none;fill:black;font-family:sans-serif;font-size:13;font-weight:bold;" transform="matrix(1 0 0 1 776 1953)">Margins</text>
  <text style="stroke:none;fill:black;font-family:sans-serif;font-size:13;" transform="matrix(1 0 0 1 776 1971)">Leading and trailing margins on the left and right side of each symbol</text>
  <text style="stroke:none;fill:black;font-family:sans-serif;font-size:13;" transform="matrix(1 0 0 1 776 1989)">can be adjusted by modifying the x-location of the margin guidelines.</text>
  <text style="stroke:none;fill:black;font-family:sans-serif;font-size:13;" transform="matrix(1 0 0 1 776 2007)">Modifications are automatically applied proportionally to all</text>
  <text style="stroke:none;fill:black;font-family:sans-serif;font-size:13;" transform="matrix(1 0 0 1 776 2025)">scales and weights.</text>
  <g transform="matrix(0.2 0 0 0.2 1289 1933)">
   <path d="m14.209 9.32617 8.49609 8.54492c4.29688 4.3457 9.22852 4.05273 13.8672-1.07422l53.4668-58.9355-4.83398-4.88281-53.0762 58.3984c-1.75781 2.00195-3.41797 2.49023-5.76172 0.146484l-5.85938-5.81055c-2.34375-2.29492-1.80664-4.00391 0.195312-5.81055l57.373-54.0039-4.88281-4.83398-57.959 54.4434c-4.93164 4.58984-5.32227 9.47266-1.02539 13.8184Zm32.0801-90.9668c-2.09961 2.05078-2.24609 4.93164-1.07422 6.88477 1.17188 1.80664 3.4668 2.97852 6.68945 2.14844 7.32422-1.70898 14.9414-2.00195 22.0703 2.68555l-2.92969 7.27539c-1.70898 4.15039-0.830078 7.08008 1.85547 9.81445l11.4746 11.5723c2.44141 2.44141 4.49219 2.53906 7.32422 2.05078l5.32227-0.976562 3.32031 3.36914-0.195312 2.7832c-0.195312 2.49023 0.439453 4.39453 2.88086 6.78711l3.80859 3.71094c2.39258 2.39258 5.46875 2.53906 7.8125 0.195312l14.5508-14.5996c2.34375-2.34375 2.24609-5.32227-0.146484-7.71484l-3.85742-3.80859c-2.39258-2.39258-4.24805-3.17383-6.64062-2.97852l-2.88086 0.244141-3.22266-3.17383 1.2207-5.61523c0.634766-2.83203-0.146484-5.0293-3.07617-7.95898l-10.9863-10.9375c-16.6992-16.6016-38.8672-16.2109-53.3203-1.75781Zm7.4707 1.85547c12.1582-8.88672 28.6133-7.37305 39.7461 3.75977l12.1582 12.0605c1.17188 1.17188 1.36719 2.09961 1.02539 3.80859l-1.61133 7.42188 7.51953 7.42188 4.93164-0.292969c1.26953-0.0488281 1.66016 0.0488281 2.63672 1.02539l2.88086 2.88086-12.207 12.207-2.88086-2.88086c-0.976562-0.976562-1.12305-1.36719-1.07422-2.68555l0.341797-4.88281-7.4707-7.42188-7.61719 1.26953c-1.61133 0.341797-2.34375 0.195312-3.56445-0.976562l-10.0098-10.0098c-1.26953-1.17188-1.41602-2.00195-0.634766-3.85742l4.39453-10.4492c-7.8125-7.27539-17.9688-10.4004-28.125-7.42188-0.78125 0.195312-1.07422-0.439453-0.439453-0.976562Z"/>
  </g>
  <text style="stroke:none;fill:black;font-family:sans-serif;font-size:13;font-weight:bold;" transform="matrix(1 0 0 1 1289 1953)">Exporting</text>
  <text style="stroke:none;fill:black;font-family:sans-serif;font-size:13;" transform="matrix(1 0 0 1 1289 1971)">Symbols should be outlined when exporting to ensure the</text>
  <text style="stroke:none;fill:black;font-family:sans-serif;font-size:13;" transform="matrix(1 0 0 1 1289 1989)">design is preserved when submitting to Xcode.</text>
  <text id="template-version" style="stroke:none;fill:black;font-family:sans-serif;font-size:13;text-anchor:end;" transform="matrix(1 0 0 1 3036 1933)">Template v.6.0</text>
  <text style="stroke:none;fill:black;font-family:sans-serif;font-size:13;text-anchor:end;" transform="matrix(1 0 0 1 3036 1951)">Requires Xcode 16 or greater</text>
  <text id="descriptive-name" style="stroke:none;fill:black;font-family:sans-serif;font-size:13;text-anchor:end;" transform="matrix(1 0 0 1 3036 1969)">Generated from poedit.upload</text>
  <text style="stroke:none;fill:black;font-family:sans-serif;font-size:13;text-anchor:end;" transform="matrix(1 0 0 1 3036 1987)">Typeset at 100.0 points</text>
  <text style="stroke:none;fill:black;font-family:sans-serif;font-size:13;" transform="matrix(1 0 0 1 263 726)">Small</text>
  <text style="stroke:none;fill:black;font-family:sans-serif;font-size:13;" transform="matrix(1 0 0 1 263 1156)">Medium</text>
  <text style="stroke:none;fill:black;font-family:sans-serif;font-size:13;" transform="matrix(1 0 0 1 263 1586)">Large</text>
 </g>
 <g id="Guides">
  <g id="H-reference" style="fill:#27AAE1;stroke:none;" transform="matrix(1 0 0 1 339 696)">
   <path d="M0.993654 0L3.63775 0L29.3281-67.1323L30.0303-67.1323L30.0303-70.459L28.1226-70.459ZM11.6885-24.4799L46.9815-24.4799L46.2315-26.7285L12.4385-26.7285ZM55.1196 0L57.7637 0L30.6382-70.459L29.4326-70.459L29.4326-67.1323Z"/>
  </g>
  <line id="Baseline-S" style="fill:none;stroke:#27AAE1;opacity:1;stroke-width:0.5;" x1="263" x2="3036" y1="696" y2="696"/>
  <line id="Capline-S" style="fill:none;stroke:#27AAE1;opacity:1;stroke-width:0.5;" x1="263" x2="3036" y1="625.541" y2="625.541"/>
  <g id="H-reference" style="fill:#27AAE1;stroke:none;" transform="matrix(1 0 0 1 339 1126)">
   <path d="M0.993654 0L3.63775 0L29.3281-67.1323L30.0303-67.1323L30.0303-70.459L28.1226-70.459ZM11.6885-24.4799L46.9815-24.4799L46.2315-26.7285L12.4385-26.7285ZM55.1196 0L57.7637 0L30.6382-70.459L29.4326-70.459L29.4326-67.1323Z"/>
  </g>
  <line id="Baseline-M" style="fill:none;stroke:#27AAE1;opacity:1;stroke-width:0.5;" x1="263" x2="3036" y1="1126" y2="1126"/>
  <line id="Capline-M" style="fill:none;stroke:#27AAE1;opacity:1;stroke-width:0.5;" x1="263" x2="3036" y1="1055.54" y2="1055.54"/>
  <g id="H-reference" style="fill:#27AAE1;stroke:none;" transform="matrix(1 0 0 1 339 1556)">
   <path d="M0.993654 0L3.63775 0L29.3281-67.1323L30.0303-67.1323L30.0303-70.459L28.1226-70.459ZM11.6885-24.4799L46.9815-24.4799L46.2315-26.7285L12.4385-26.7285ZM55.1196 0L57.7637 0L30.6382-70.459L29.4326-70.459L29.4326-67.1323Z"/>
  </g>
  <line id="Baseline-L" style="fill:none;stroke:#27AAE1;opacity:1;stroke-width:0.5;" x1="263" x2="3036" y1="1556" y2="1556"/>
  <line id="Capline-L" style="fill:none;stroke:#27AAE1;opacity:1;stroke-width:0.5;" x1="263" x2="3036" y1="1485.54" y2="1485.54"/>
  <line id="right-margin-Regular-M" style="fill:none;stroke:#00AEEF;stroke-width:0.5;opacity:1.0;" x1="1526.43" x2="1526.43" y1="1030.79" y2="1150.12"/>
  <line id="left-margin-Regular-M" style="fill:none;stroke:#00AEEF;stroke-width:0.5;opacity:1.0;" x1="1373.26" x2="1373.26" y1="1030.79" y2="1150.12"/>
 </g>
 <g id="Symbols">
  <g id="Black-L" transform="matrix(1 0 0 1 2833.57 1556)">
   <path class="SFSymbolsPreviewWireframe" d="M84.319-38.1111C89.986-38.1111 93.071-31.4921 89.426-27.1531L104.933-45.6151C102.269-42.4421 97.386-42.4421 94.72-45.6151L110.228-27.1531C106.584-31.4921 109.668-38.1111 115.335-38.1111L84.319-38.1111ZM84.319-30.2901C83.34-30.2901 82.807-31.4341 83.437-32.1841L98.945-50.6451C99.405-51.1941 100.249-51.1941 100.71-50.6451L116.217-32.1841C116.847-31.4341 116.314-30.2901 115.335-30.2901L84.319-30.2901Z"/>
   <path class="monochrome-0 multicolor-0:tintColor hierarchical-0:primary SFSymbolsPreviewWireframe" d="M82.538-14.5851L56.192-14.5851C45.169-14.5851 36.233-23.5211 36.233-34.5441C36.233-45.5671 45.169-54.5021 56.192-54.5021C57.6-54.5021 58.982-54.3581 60.329-54.0751C66.186-52.8451 71.946-56.5451 73.262-62.3841C76.036-74.6911 87.032-83.5921 99.827-83.5921C114.795-83.5921 126.955-71.5101 127.058-56.5531C127.109-49.0271 134.561-43.7951 141.656-46.3031C143.383-46.9141 145.212-47.2301 147.099-47.2301C156.113-47.2301 163.421-39.9221 163.421-30.9081C163.421-21.8931 156.113-14.5851 147.099-14.5851L117.117-14.5851L117.117 7.3149L147.099 7.3149C168.208 7.3149 185.321-9.7981 185.321-30.9081C185.321-52.0171 168.208-69.1301 147.099-69.1301C142.717-69.1301 138.421-68.3881 134.358-66.9521L138.007-56.6281L148.957-56.7021C148.773-83.6941 126.834-105.492 99.827-105.492C76.737-105.492 56.911-89.4431 51.898-67.1991L62.58-64.7911L64.831-75.5071C62.007-76.1011 59.115-76.4021 56.192-76.4021C33.074-76.4021 14.333-57.6621 14.333-34.5441C14.333-11.4261 33.074 7.3149 56.192 7.3149L82.538 7.3149L82.538-14.5851ZM84.319-22.4691L115.335-22.4691C122.959-22.4691 127.11-31.3761 122.206-37.2141L106.698-55.6761C103.112-59.9451 96.542-59.9451 92.955-55.6761L77.448-37.2151C72.543-31.3771 76.694-22.4691 84.319-22.4691ZM88.877-32.8971L88.877 29.8459C88.877 35.8929 93.78 40.7959 99.827 40.7959C105.875 40.7959 110.777 35.8929 110.777 29.8459L110.777-32.8971C110.777-38.9451 105.875-43.8471 99.827-43.8471C93.78-43.8471 88.877-38.9451 88.877-32.8971Z"/>
  </g>
  <g id="Heavy-L" transform="matrix(1 0 0 1 2537.9 1556)">
   <path class="SFSymbolsPreviewWireframe" d="M83.281-37.3701C88.318-37.3701 91.06-31.4861 87.82-27.6291L103.328-46.0911C100.959-43.2711 96.619-43.2711 94.25-46.0911L109.758-27.6301C106.518-31.4871 109.26-37.3701 114.297-37.3701L83.281-37.3701ZM83.281-30.2901C82.302-30.2901 81.769-31.4341 82.399-32.1841L97.907-50.6451C98.367-51.1941 99.211-51.1941 99.672-50.6451L115.179-32.1841C115.809-31.4341 115.276-30.2901 114.297-30.2901L83.281-30.2901Z"/>
   <path class="monochrome-0 multicolor-0:tintColor hierarchical-0:primary SFSymbolsPreviewWireframe" d="M81.5-13.5481L55.154-13.5481C43.558-13.5481 34.158-22.9481 34.158-34.5441C34.158-46.1391 43.558-55.5401 55.154-55.5401C56.633-55.5401 58.088-55.3881 59.504-55.0901C64.806-53.9761 70.021-57.3261 71.212-62.6121C74.092-75.3901 85.506-84.6301 98.789-84.6301C114.328-84.6301 126.951-72.0871 127.057-56.5601C127.103-49.7471 133.85-45.0111 140.273-47.2821C142.11-47.9311 144.055-48.2671 146.061-48.2671C155.648-48.2671 163.421-40.4951 163.421-30.9081C163.421-21.3201 155.648-13.5481 146.061-13.5481L116.079-13.5481L116.079 6.2769L146.061 6.2769C166.597 6.2769 183.246-10.3711 183.246-30.9081C183.246-51.4441 166.597-68.0921 146.061-68.0921C141.797-68.0921 137.618-67.3701 133.666-65.9741L136.969-56.6281L146.882-56.6951C146.701-83.1171 125.226-104.455 98.789-104.455C76.187-104.455 56.779-88.7441 51.872-66.9711L61.542-64.7911L63.58-74.4921C60.826-75.0711 58.005-75.3651 55.154-75.3651C32.609-75.3651 14.333-57.0891 14.333-34.5441C14.333-11.9991 32.609 6.2769 55.154 6.2769L81.5 6.2769L81.5-13.5481ZM83.281-23.2101L114.297-23.2101C121.292-23.2101 125.1-31.3811 120.601-36.7381L105.093-55.1991C101.803-59.1161 95.775-59.1161 92.485-55.1991L76.977-36.7381C72.478-31.3821 76.286-23.2101 83.281-23.2101ZM88.876-32.8971L88.876 29.8459C88.876 35.3199 93.315 39.7579 98.789 39.7579C104.264 39.7579 108.702 35.3199 108.702 29.8459L108.702-32.8971C108.702-38.3721 104.264-42.8101 98.789-42.8101C93.315-42.8101 88.876-38.3721 88.876-32.8971Z"/>
  </g>
  <g id="Bold-L" transform="matrix(1 0 0 1 2242.23 1556)">
   <path class="SFSymbolsPreviewWireframe" d="M82.244-36.6301C86.652-36.6301 89.051-31.4811 86.216-28.1061L101.724-46.5681C99.651-44.1001 95.853-44.1001 93.78-46.5681L109.288-28.1061C106.453-31.4811 108.853-36.6301 113.26-36.6301L82.244-36.6301ZM82.244-30.2901C81.265-30.2901 80.732-31.4341 81.362-32.1841L96.87-50.6451C97.33-51.1941 98.174-51.1941 98.635-50.6451L114.142-32.1841C114.772-31.4341 114.239-30.2901 113.26-30.2901L82.244-30.2901Z"/>
   <path class="monochrome-0 multicolor-0:tintColor hierarchical-0:primary SFSymbolsPreviewWireframe" d="M80.463-12.5111L54.117-12.5111C41.948-12.5111 32.084-22.3751 32.084-34.5441C32.084-46.7121 41.948-56.5771 54.117-56.5771C55.668-56.5771 57.194-56.4181 58.68-56.1061C63.428-55.1081 68.097-58.1081 69.163-62.8401C72.149-76.0891 83.981-85.6671 97.752-85.6671C113.861-85.6671 126.947-72.6641 127.057-56.5671C127.099-50.4671 133.139-46.2271 138.89-48.2601C140.838-48.9481 142.9-49.3041 145.024-49.3041C155.184-49.3041 163.421-41.0681 163.421-30.9081C163.421-20.7471 155.184-12.5111 145.024-12.5111L115.042-12.5111L115.042 5.2399L145.024 5.2399C164.988 5.2399 181.171-10.9441 181.171-30.9081C181.171-50.8711 164.988-67.0551 145.024-67.0551C140.878-67.0551 136.816-66.3531 132.974-64.9951L135.932-56.6281L144.807-56.6881C144.631-82.5401 123.619-103.418 97.752-103.418C75.637-103.418 56.647-88.0451 51.847-66.7421L60.505-64.7911L62.33-73.4771C59.645-74.0411 56.897-74.3281 54.117-74.3281C32.145-74.3281 14.333-56.5161 14.333-34.5441C14.333-12.5721 32.145 5.2399 54.117 5.2399L80.463 5.2399L80.463-12.5111ZM82.244-23.9511L113.26-23.9511C119.625-23.9511 123.091-31.3871 118.997-36.2611L103.489-54.7231C100.495-58.2871 95.009-58.2871 92.015-54.7231L76.508-36.2611C72.413-31.3881 75.878-23.9511 82.244-23.9511ZM88.877-32.8971L88.877 29.8459C88.877 34.7469 92.85 38.7209 97.752 38.7209C102.654 38.7209 106.627 34.7469 106.627 29.8459L106.627-32.8971C106.627-37.7991 102.654-41.7721 97.752-41.7721C92.85-41.7721 88.877-37.7991 88.877-32.8971Z"/>
  </g>
  <g id="Semibold-L" transform="matrix(1 0 0 1 1946.55 1556)">
   <path class="SFSymbolsPreviewWireframe" d="M81.207-35.8891C84.985-35.8891 87.042-31.4751 84.612-28.5831L100.119-47.0441C98.343-44.9291 95.087-44.9291 93.311-47.0451L108.818-28.5831C106.389-31.4761 108.445-35.8891 112.223-35.8891L81.207-35.8891ZM81.207-30.2901C80.228-30.2901 79.695-31.4341 80.325-32.1841L95.833-50.6451C96.293-51.1941 97.137-51.1941 97.598-50.6451L113.105-32.1841C113.735-31.4341 113.202-30.2901 112.223-30.2901L81.207-30.2901Z"/>
   <path class="monochrome-0 multicolor-0:tintColor hierarchical-0:primary SFSymbolsPreviewWireframe" d="M79.426-11.4731L53.08-11.4731C40.338-11.4731 30.009-21.8021 30.009-34.5441C30.009-47.2851 40.338-57.6141 53.08-57.6141C54.703-57.6141 56.3-57.4481 57.856-57.1211C62.049-56.2401 66.172-58.8891 67.114-63.0681C70.206-76.7871 82.457-86.7041 96.715-86.7041C113.394-86.7041 126.944-73.2421 127.058-56.5741C127.094-51.1871 132.429-47.4421 137.507-49.2381C139.566-49.9651 141.745-50.3421 143.987-50.3421C154.72-50.3421 163.421-41.6411 163.421-30.9081C163.421-20.1741 154.72-11.4731 143.987-11.4731L114.005-11.4731L114.005 4.2029L143.987 4.2029C163.378 4.2029 179.097-11.5171 179.097-30.9081C179.097-50.2981 163.378-66.0181 143.987-66.0181C139.959-66.0181 136.014-65.3361 132.283-64.0171L134.895-56.6281L142.733-56.6811C142.56-81.9631 122.011-102.38 96.715-102.38C75.088-102.38 56.516-87.3471 51.822-66.5141L59.468-64.7911L61.079-72.4621C58.465-73.0111 55.788-73.2901 53.08-73.2901C31.681-73.2901 14.333-55.9431 14.333-34.5441C14.333-13.1451 31.681 4.2029 53.08 4.2029L79.426 4.2029L79.426-11.4731ZM81.207-24.6921L112.223-24.6921C117.959-24.6921 121.081-31.3921 117.392-35.7851L101.884-54.2461C99.187-57.4581 94.243-57.4581 91.546-54.2461L76.038-35.7851C72.348-31.3931 75.471-24.6921 81.207-24.6921ZM88.877-32.8971L88.877 29.8459C88.877 34.1749 92.386 37.6839 96.715 37.6839C101.044 37.6839 104.553 34.1749 104.553 29.8459L104.553-32.8971C104.553-37.2261 101.044-40.7351 96.715-40.7351C92.386-40.7351 88.877-37.2261 88.877-32.8971Z"/>
  </g>
  <g id="Medium-L" transform="matrix(1 0 0 1 1650.88 1556)">
   <path class="SFSymbolsPreviewWireframe" d="M80.169-35.1481C83.318-35.1481 85.031-31.4701 83.006-29.0591L98.514-47.5211C97.033-45.7581 94.321-45.7581 92.84-47.5211L108.348-29.0601C106.323-31.4701 108.037-35.1481 111.185-35.1481L80.169-35.1481ZM80.169-30.2901C79.19-30.2901 78.657-31.4341 79.287-32.1841L94.795-50.6451C95.255-51.1941 96.099-51.1941 96.56-50.6451L112.067-32.1841C112.697-31.4341 112.164-30.2901 111.185-30.2901L80.169-30.2901Z"/>
   <path class="monochrome-0 multicolor-0:tintColor hierarchical-0:primary SFSymbolsPreviewWireframe" d="M78.388-10.4361L52.042-10.4361C38.727-10.4361 27.934-21.2291 27.934-34.5441C27.934-47.8581 38.727-58.6521 52.042-58.6521C53.737-58.6521 55.405-58.4781 57.032-58.1361C60.669-57.3721 64.247-59.6701 65.064-63.2961C68.262-77.4861 80.931-87.7421 95.677-87.7421C112.926-87.7421 126.939-73.8191 127.057-56.5811C127.089-51.9071 131.717-48.6581 136.124-50.2161C138.293-50.9821 140.589-51.3791 142.949-51.3791C154.255-51.3791 163.421-42.2141 163.421-30.9081C163.421-19.6011 154.255-10.4361 142.949-10.4361L112.967-10.4361L112.967 3.1649L142.949 3.1649C161.767 3.1649 177.022-12.0901 177.022-30.9081C177.022-49.7251 161.767-64.9801 142.949-64.9801C139.039-64.9801 135.211-64.3191 131.591-63.0391L133.857-56.6281L140.658-56.6741C140.489-81.3861 120.403-101.343 95.677-101.343C74.538-101.343 56.384-86.6481 51.796-66.2861L58.43-64.7911L59.828-71.4471C57.284-71.9811 54.678-72.2531 52.042-72.2531C31.216-72.2531 14.333-55.3701 14.333-34.5441C14.333-13.7181 31.216 3.1649 52.042 3.1649L78.388 3.1649L78.388-10.4361ZM80.169-25.4321L111.185-25.4321C116.291-25.4321 119.071-31.3981 115.787-35.3081L100.279-53.7701C97.877-56.6291 93.477-56.6291 91.075-53.7701L75.568-35.3081C72.283-31.3981 75.063-25.4321 80.169-25.4321ZM88.877-32.8971L88.877 29.8459C88.877 33.6019 91.921 36.6459 95.677 36.6459C99.433 36.6459 102.478 33.6019 102.478 29.8459L102.478-32.8971C102.478-36.6531 99.433-39.6981 95.677-39.6981C91.921-39.6981 88.877-36.6531 88.877-32.8971Z"/>
  </g>
  <g id="Regular-L" transform="matrix(1 0 0 1 1355.2 1556)">
   <path class="SFSymbolsPreviewWireframe" d="M79.132-34.4071C81.651-34.4071 83.022-31.4641 81.402-29.5361L96.91-47.9981C95.725-46.5871 93.555-46.5871 92.37-47.9981L107.878-29.5361C106.258-31.4651 107.629-34.4071 110.148-34.4071L79.132-34.4071ZM79.132-30.2901C78.153-30.2901 77.62-31.4341 78.25-32.1841L93.758-50.6451C94.218-51.1941 95.062-51.1941 95.523-50.6451L111.03-32.1841C111.66-31.4341 111.127-30.2901 110.148-30.2901L79.132-30.2901Z"/>
   <path class="monochrome-0 multicolor-0:tintColor hierarchical-0:primary SFSymbolsPreviewWireframe" d="M77.351-9.3991L51.005-9.3991C37.117-9.3991 25.86-20.6561 25.86-34.5441C25.86-48.4311 37.117-59.6891 51.005-59.6891C52.771-59.6891 54.512-59.5081 56.208-59.1511C59.291-58.5041 62.323-60.4511 63.015-63.5241C66.319-78.1851 79.406-88.7791 94.64-88.7791C112.46-88.7791 126.936-74.3961 127.057-56.5881C127.084-52.6271 131.006-49.8741 134.741-51.1941C137.021-52.0001 139.434-52.4161 141.912-52.4161C153.791-52.4161 163.421-42.7871 163.421-30.9081C163.421-19.0291 153.791-9.3991 141.912-9.3991L111.93-9.3991L111.93 2.1279L141.912 2.1279C160.157 2.1279 174.947-12.6631 174.947-30.9081C174.947-49.1521 160.157-63.9431 141.912-63.9431C138.121-63.9431 134.409-63.3021 130.9-62.0611L132.82-56.6281L138.583-56.6671C138.419-80.8091 118.796-100.306 94.64-100.306C73.988-100.306 56.253-85.9491 51.771-66.0581L57.393-64.7911L58.578-70.4311C56.104-70.9511 53.569-71.2151 51.005-71.2151C30.752-71.2151 14.333-54.7971 14.333-34.5441C14.333-14.2911 30.752 2.1279 51.005 2.1279L77.351 2.1279L77.351-9.3991ZM79.132-26.1731L110.148-26.1731C114.625-26.1731 117.062-31.4031 114.182-34.8321L98.675-53.2931C96.569-55.8001 92.711-55.8001 90.605-53.2931L75.098-34.8321C72.218-31.4041 74.655-26.1731 79.132-26.1731ZM88.877-32.8971L88.877 29.8459C88.877 33.0289 91.457 35.6089 94.64 35.6089C97.823 35.6089 100.403 33.0289 100.403 29.8459L100.403-32.8971C100.403-36.0801 97.823-38.6601 94.64-38.6601C91.457-38.6601 88.877-36.0801 88.877-32.8971Z"/>
  </g>
  <g id="Light-L" transform="matrix(1 0 0 1 1059.84 1556)">
   <path class="SFSymbolsPreviewWireframe" d="M77.787-33.4461C79.49-33.4461 80.416-31.4571 79.321-30.1541L94.829-48.6151C94.029-47.6621 92.562-47.6621 91.761-48.6161L107.269-30.1541C106.174-31.4581 107.1-33.4461 108.803-33.4461L77.787-33.4461ZM77.787-30.2901C76.808-30.2901 76.275-31.4341 76.905-32.1841L92.413-50.6451C92.873-51.1941 93.717-51.1941 94.178-50.6451L109.685-32.1841C110.315-31.4341 109.782-30.2901 108.803-30.2901L77.787-30.2901Z"/>
   <path class="monochrome-0 multicolor-0:tintColor hierarchical-0:primary SFSymbolsPreviewWireframe" d="M76.006-8.0541L49.66-8.0541C35.03-8.0541 23.17-19.9141 23.17-34.5441C23.17-49.1741 35.03-61.0341 49.66-61.0341C51.52-61.0341 53.352-60.8431 55.139-60.4671C57.503-59.9711 59.827-61.4641 60.358-63.8201C63.8-79.0911 77.429-90.1241 93.295-90.1241C111.854-90.1241 126.93-75.1441 127.057-56.5971C127.078-53.5611 130.085-51.4501 132.948-52.4621C135.371-53.3181 137.936-53.7611 140.567-53.7611C153.189-53.7611 163.421-43.5291 163.421-30.9081C163.421-18.2861 153.189-8.0541 140.567-8.0541L110.585-8.0541L110.585 0.7829L140.567 0.7829C158.069 0.7829 172.258-13.4051 172.258-30.9081C172.258-48.4101 158.069-62.5981 140.567-62.5981C136.929-62.5981 133.369-61.9831 130.003-60.7931L131.475-56.6281L135.894-56.6581C135.734-80.0601 116.712-98.9611 93.295-98.9611C73.275-98.9611 56.083-85.0431 51.738-65.7631L56.048-64.7911L56.956-69.1151C54.573-69.6161 52.131-69.8711 49.66-69.8711C30.149-69.8711 14.333-54.0541 14.333-34.5441C14.333-15.0331 30.149 0.7829 49.66 0.7829L76.006 0.7829L76.006-8.0541ZM77.787-27.1341L108.803-27.1341C112.463-27.1341 114.456-31.4111 112.102-34.2141L96.594-52.6751C94.872-54.7251 91.718-54.7251 89.996-52.6751L74.488-34.2141C72.134-31.4111 74.126-27.1341 77.787-27.1341ZM88.877-32.8971L88.877 29.8459C88.877 32.2859 90.855 34.2639 93.295 34.2639C95.735 34.2639 97.714 32.2859 97.714 29.8459L97.714-32.8971C97.714-35.3371 95.735-37.3161 93.295-37.3161C90.855-37.3161 88.877-35.3371 88.877-32.8971Z"/>
  </g>
  <g id="Thin-L" transform="matrix(1 0 0 1 764.472 1556)">
   <path class="SFSymbolsPreviewWireframe" d="M76.442-32.4861C77.329-32.4861 77.811-31.4501 77.241-30.7721L92.749-49.2331C92.332-48.7371 91.568-48.7371 91.151-49.2331L106.659-30.7721C106.089-31.4501 106.571-32.4861 107.458-32.4861L76.442-32.4861ZM76.442-30.2901C75.463-30.2901 74.93-31.4341 75.56-32.1841L91.068-50.6451C91.528-51.1941 92.372-51.1941 92.833-50.6451L108.34-32.1841C108.97-31.4341 108.437-30.2901 107.458-30.2901L76.442-30.2901Z"/>
   <path class="monochrome-0 multicolor-0:tintColor hierarchical-0:primary SFSymbolsPreviewWireframe" d="M74.661-6.7091L48.315-6.7091C32.942-6.7091 20.48-19.1711 20.48-34.5441C20.48-49.9161 32.942-62.3791 48.315-62.3791C50.268-62.3791 52.193-62.1781 54.071-61.7831C55.715-61.4381 57.332-62.4771 57.701-64.1161C61.28-79.9971 75.452-91.4691 91.95-91.4691C111.248-91.4691 126.925-75.8921 127.057-56.6071C127.071-54.4941 129.163-53.0261 131.155-53.7301C133.721-54.6371 136.437-55.1061 139.222-55.1061C152.586-55.1061 163.421-44.2721 163.421-30.9081C163.421-17.5431 152.586-6.7091 139.222-6.7091L109.24-6.7091L109.24-0.5621L139.222-0.5621C155.981-0.5621 169.568-14.1481 169.568-30.9081C169.568-47.6671 155.981-61.2531 139.222-61.2531C135.737-61.2531 132.328-60.6641 129.106-59.5261L130.13-56.6281L133.204-56.6491C133.049-79.3121 114.627-97.6161 91.95-97.6161C72.563-97.6161 55.912-84.1371 51.704-65.4671L54.703-64.7911L55.335-67.7991C53.042-68.2811 50.693-68.5261 48.315-68.5261C29.547-68.5261 14.333-53.3121 14.333-34.5441C14.333-15.7761 29.547-0.5621 48.315-0.5621L74.661-0.5621L74.661-6.7091ZM76.442-28.0951L107.458-28.0951C110.302-28.0951 111.851-31.4181 110.021-33.5961L94.514-52.0571C93.176-53.6501 90.724-53.6501 89.386-52.0571L73.879-33.5961C72.049-31.4181 73.598-28.0951 76.442-28.0951ZM88.876-32.8971L88.876 29.8459C88.876 31.5429 90.253 32.9189 91.95 32.9189C93.648 32.9189 95.024 31.5429 95.024 29.8459L95.024-32.8971C95.024-34.5951 93.648-35.9711 91.95-35.9711C90.253-35.9711 88.876-34.5951 88.876-32.8971Z"/>
  </g>
  <g id="Ultralight-L" transform="matrix(1 0 0 1 469.105 1556)">
   <path class="SFSymbolsPreviewWireframe" d="M75.098-31.5251C75.168-31.5251 75.207-31.4431 75.162-31.3901L90.669-49.8511C90.636-49.8121 90.576-49.8121 90.543-49.8511L106.051-31.3901C106.006-31.4431 106.044-31.5251 106.114-31.5251L75.098-31.5251ZM75.098-30.2901C74.119-30.2901 73.586-31.4341 74.216-32.1841L89.724-50.6451C90.184-51.1941 91.028-51.1941 91.489-50.6451L106.996-32.1841C107.626-31.4341 107.093-30.2901 106.114-30.2901L75.098-30.2901Z"/>
   <path class="monochrome-0 multicolor-0:tintColor hierarchical-0:primary SFSymbolsPreviewWireframe" d="M73.317-5.3641L46.971-5.3641C30.855-5.3641 17.791-18.4281 17.791-34.5441C17.791-50.6591 30.855-63.7231 46.971-63.7231C49.017-63.7231 51.035-63.5131 53.003-63.0991C53.928-62.9051 54.838-63.4891 55.046-64.4111C58.762-80.9021 73.476-92.8131 90.606-92.8131C110.643-92.8131 126.921-76.6401 127.057-56.6161C127.065-55.4271 128.242-54.6011 129.362-54.9971C132.073-55.9551 134.94-56.4511 137.878-56.4511C151.985-56.4511 163.421-45.0151 163.421-30.9081C163.421-16.8001 151.985-5.3641 137.878-5.3641L107.896-5.3641L107.896-1.9061L137.878-1.9061C153.895-1.9061 166.879-14.8911 166.879-30.9081C166.879-46.9241 153.895-59.9091 137.878-59.9091C134.546-59.9091 131.289-59.3461 128.21-58.2581L130.515-56.6391C130.366-78.5641 112.544-96.2711 90.606-96.2711C71.851-96.2711 55.742-83.2321 51.672-65.1711L53.714-66.4831C51.512-66.9461 49.256-67.1811 46.971-67.1811C28.946-67.1811 14.333-52.5691 14.333-34.5441C14.333-16.5191 28.946-1.9061 46.971-1.9061L73.317-1.9061L73.317-5.3641ZM75.098-29.0551L106.114-29.0551C108.142-29.0551 109.247-31.4251 107.942-32.9781L92.434-51.4401C91.48-52.5761 89.732-52.5761 88.778-51.4401L73.27-32.9781C71.965-31.4251 73.07-29.0551 75.098-29.0551ZM88.877-32.8971L88.877 29.8459C88.877 30.8009 89.651 31.5749 90.606 31.5749C91.561 31.5749 92.335 30.8009 92.335 29.8459L92.335-32.8971C92.335-33.8521 91.561-34.6261 90.606-34.6261C89.651-34.6261 88.877-33.8521 88.877-32.8971Z"/>
  </g>
  <g id="Black-M" transform="matrix(1 0 0 1 2852.79 1126)">
   <path class="SFSymbolsPreviewWireframe" d="M68.585-37.4639C72.978-37.4639 75.369-32.3319 72.544-28.9689L84.565-43.2799C82.499-40.8209 78.714-40.8209 76.648-43.2799L88.67-28.9689C85.845-32.3329 88.236-37.4639 92.628-37.4639L68.585-37.4639ZM68.585-31.4009C67.826-31.4009 67.413-32.2879 67.901-32.8689L79.923-47.1799C80.28-47.6049 80.934-47.6049 81.291-47.1799L93.312-32.8689C93.801-32.2879 93.387-31.4009 92.628-31.4009L68.585-31.4009Z"/>
   <path class="monochrome-0 multicolor-0:tintColor hierarchical-0:primary SFSymbolsPreviewWireframe" d="M67.204-19.2269L46.781-19.2269C38.236-19.2269 31.309-26.1539 31.309-34.6979C31.309-43.2429 38.236-50.1699 46.781-50.1699C47.872-50.1699 48.944-50.0579 49.988-49.8389C54.529-48.8849 58.994-51.7539 60.014-56.2799C62.164-65.8199 70.688-72.7199 80.607-72.7199C92.21-72.7199 101.637-63.3539 101.716-51.7589C101.756-45.9259 107.532-41.8699 113.033-43.8139C114.371-44.2869 115.789-44.5319 117.252-44.5319C124.24-44.5319 129.905-38.8669 129.905-31.8789C129.905-24.8919 124.24-19.2269 117.252-19.2269L94.01-19.2269L94.01-2.24989L117.252-2.24989C133.616-2.24989 146.881-15.5149 146.881-31.8789C146.881-48.2429 133.616-61.5089 117.252-61.5089C113.855-61.5089 110.524-60.9339 107.375-59.8209L110.204-51.8169L118.692-51.8749C118.549-72.7989 101.543-89.6969 80.607-89.6969C62.708-89.6969 47.338-77.2559 43.452-60.0119L51.733-58.1459L53.478-66.4529C51.289-66.9129 49.047-67.1469 46.781-67.1469C28.86-67.1469 14.333-52.6189 14.333-34.6979C14.333-16.7769 28.86-2.24989 46.781-2.24989L67.204-2.24989L67.204-19.2269ZM68.585-25.3379L92.628-25.3379C98.539-25.3379 101.757-32.2419 97.955-36.7689L85.934-51.0799C83.154-54.3889 78.06-54.3889 75.28-51.0799L63.259-36.7689C59.457-32.2429 62.674-25.3379 68.585-25.3379ZM72.119-33.4219L72.119 15.2161C72.119 19.9041 75.919 23.7051 80.607 23.7051C85.295 23.7051 89.095 19.9041 89.095 15.2161L89.095-33.4219C89.095-38.1099 85.295-41.9099 80.607-41.9099C75.919-41.9099 72.119-38.1099 72.119-33.4219Z"/>
  </g>
  <g id="Heavy-M" transform="matrix(1 0 0 1 2556.89 1126)">
   <path class="SFSymbolsPreviewWireframe" d="M67.781-36.8889C71.686-36.8889 73.812-32.3279 71.3-29.3379L83.321-43.6499C81.485-41.4639 78.121-41.4639 76.284-43.6499L88.306-29.3389C85.794-32.3279 87.92-36.8889 91.824-36.8889L67.781-36.8889ZM67.781-31.4009C67.022-31.4009 66.609-32.2879 67.097-32.8689L79.119-47.1799C79.476-47.6049 80.13-47.6049 80.487-47.1799L92.508-32.8689C92.997-32.2879 92.583-31.4009 91.824-31.4009L67.781-31.4009Z"/>
   <path class="monochrome-0 multicolor-0:tintColor hierarchical-0:primary SFSymbolsPreviewWireframe" d="M66.4-18.4219L45.977-18.4219C36.988-18.4219 29.701-25.7089 29.701-34.6979C29.701-43.6869 36.988-50.9739 45.977-50.9739C47.124-50.9739 48.251-50.8569 49.349-50.6259C53.46-49.7619 57.502-52.3589 58.425-56.4569C60.658-66.3619 69.506-73.5249 79.803-73.5249C91.848-73.5249 101.634-63.8019 101.716-51.7649C101.752-46.4839 106.982-42.8119 111.961-44.5719C113.385-45.0759 114.893-45.3359 116.448-45.3359C123.88-45.3359 129.905-39.3109 129.905-31.8789C129.905-24.4469 123.88-18.4219 116.448-18.4219L93.206-18.4219L93.206-3.05389L116.448-3.05389C132.368-3.05389 145.273-15.9599 145.273-31.8789C145.273-47.7989 132.368-60.7049 116.448-60.7049C113.142-60.7049 109.902-60.1449 106.839-59.0619L109.4-51.8169L117.084-51.8699C116.944-72.3519 100.296-88.8929 79.803-88.8929C62.282-88.8929 47.237-76.7139 43.433-59.8349L50.929-58.1459L52.509-65.6659C50.374-66.1149 48.188-66.3419 45.977-66.3419C28.5-66.3419 14.333-52.1749 14.333-34.6979C14.333-17.2219 28.5-3.05389 45.977-3.05389L66.4-3.05389L66.4-18.4219ZM67.781-25.9119L91.824-25.9119C97.247-25.9119 100.199-32.2469 96.711-36.3989L84.69-50.7099C82.139-53.7469 77.466-53.7469 74.916-50.7099L62.895-36.3989C59.407-32.2469 62.359-25.9119 67.781-25.9119ZM72.119-33.4219L72.119 15.2161C72.119 19.4601 75.559 22.9001 79.803 22.9001C84.047 22.9001 87.487 19.4601 87.487 15.2161L87.487-33.4219C87.487-37.6659 84.047-41.1059 79.803-41.1059C75.559-41.1059 72.119-37.6659 72.119-33.4219Z"/>
  </g>
  <g id="Bold-M" transform="matrix(1 0 0 1 2260.98 1126)">
   <path class="SFSymbolsPreviewWireframe" d="M66.977-36.3149C70.394-36.3149 72.254-32.3239 70.056-29.7079L82.078-44.0189C80.471-42.1059 77.527-42.1059 75.92-44.0189L87.942-29.7079C85.744-32.3239 87.604-36.3149 91.02-36.3149L66.977-36.3149ZM66.977-31.4009C66.218-31.4009 65.805-32.2879 66.293-32.8689L78.315-47.1799C78.672-47.6049 79.326-47.6049 79.683-47.1799L91.704-32.8689C92.193-32.2879 91.779-31.4009 91.02-31.4009L66.977-31.4009Z"/>
   <path class="monochrome-0 multicolor-0:tintColor hierarchical-0:primary SFSymbolsPreviewWireframe" d="M65.596-17.6179L45.173-17.6179C35.74-17.6179 28.093-25.2649 28.093-34.6979C28.093-44.1309 35.74-51.7779 45.173-51.7779C46.376-51.7779 47.558-51.6549 48.711-51.4129C52.391-50.6399 56.01-52.9649 56.837-56.6329C59.151-66.9029 68.324-74.3289 78.999-74.3289C91.486-74.3289 101.631-64.2489 101.716-51.7699C101.748-47.0419 106.431-43.7549 110.889-45.3309C112.399-45.8639 113.997-46.1409 115.644-46.1409C123.52-46.1409 129.905-39.7559 129.905-31.8789C129.905-24.0029 123.52-17.6179 115.644-17.6179L92.402-17.6179L92.402-3.85789L115.644-3.85789C131.119-3.85789 143.665-16.4039 143.665-31.8789C143.665-47.3549 131.119-59.9009 115.644-59.9009C112.43-59.9009 109.281-59.3569 106.303-58.3039L108.596-51.8169L115.476-51.8639C115.339-71.9049 99.05-88.0889 78.999-88.0889C61.856-88.0889 47.135-76.1719 43.413-59.6579L50.125-58.1459L51.54-64.8789C49.459-65.3159 47.328-65.5379 45.173-65.5379C28.141-65.5379 14.333-51.7309 14.333-34.6979C14.333-17.6659 28.141-3.85789 45.173-3.85789L65.596-3.85789L65.596-17.6179ZM66.977-26.4859L91.02-26.4859C95.955-26.4859 98.641-32.2509 95.467-36.0299L83.446-50.3409C81.125-53.1039 76.873-53.1039 74.552-50.3409L62.53-36.0299C59.356-32.2519 62.043-26.4859 66.977-26.4859ZM72.119-33.4219L72.119 15.2161C72.119 19.0161 75.199 22.0961 78.999 22.0961C82.799 22.0961 85.879 19.0161 85.879 15.2161L85.879-33.4219C85.879-37.2209 82.799-40.3019 78.999-40.3019C75.199-40.3019 72.119-37.2209 72.119-33.4219Z"/>
  </g>
  <g id="Semibold-M" transform="matrix(1 0 0 1 1965.07 1126)">
   <path class="SFSymbolsPreviewWireframe" d="M66.173-35.7409C69.102-35.7409 70.696-32.3189 68.812-30.0769L80.834-44.3889C79.457-42.7489 76.933-42.7489 75.556-44.3889L87.577-30.0769C85.694-32.3199 87.288-35.7409 90.216-35.7409L66.173-35.7409ZM66.173-31.4009C65.414-31.4009 65.001-32.2879 65.489-32.8689L77.511-47.1799C77.868-47.6049 78.522-47.6049 78.879-47.1799L90.9-32.8689C91.389-32.2879 90.975-31.4009 90.216-31.4009L66.173-31.4009Z"/>
   <path class="monochrome-0 multicolor-0:tintColor hierarchical-0:primary SFSymbolsPreviewWireframe" d="M64.792-16.8139L44.369-16.8139C34.492-16.8139 26.485-24.8209 26.485-34.6979C26.485-44.5749 34.492-52.5819 44.369-52.5819C45.627-52.5819 46.866-52.4529 48.072-52.1999C51.322-51.5169 54.518-53.5699 55.248-56.8099C57.645-67.4449 67.142-75.1329 78.195-75.1329C91.124-75.1329 101.628-64.6969 101.716-51.7759C101.745-47.5999 105.88-44.6969 109.817-46.0889C111.412-46.6529 113.102-46.9449 114.84-46.9449C123.16-46.9449 129.905-40.1999 129.905-31.8789C129.905-23.5589 123.16-16.8139 114.84-16.8139L91.598-16.8139L91.598-4.66189L114.84-4.66189C129.871-4.66189 142.057-16.8479 142.057-31.8789C142.057-46.9109 129.871-59.0959 114.84-59.0959C111.717-59.0959 108.659-58.5679 105.767-57.5459L107.792-51.8169L113.868-51.8589C113.734-71.4569 97.804-87.2849 78.195-87.2849C61.43-87.2849 47.033-75.6309 43.394-59.4819L49.321-58.1459L50.57-64.0919C48.544-64.5179 46.468-64.7339 44.369-64.7339C27.781-64.7339 14.333-51.2869 14.333-34.6979C14.333-18.1099 27.781-4.66189 44.369-4.66189L64.792-4.66189L64.792-16.8139ZM66.173-27.0609L90.216-27.0609C94.663-27.0609 97.084-32.2549 94.224-35.6599L82.202-49.9709C80.111-52.4609 76.279-52.4609 74.188-49.9709L62.166-35.6599C59.306-32.2559 61.727-27.0609 66.173-27.0609ZM72.119-33.4219L72.119 15.2161C72.119 18.5721 74.839 21.2921 78.195 21.2921C81.551 21.2921 84.271 18.5721 84.271 15.2161L84.271-33.4219C84.271-36.7769 81.551-39.4979 78.195-39.4979C74.839-39.4979 72.119-36.7769 72.119-33.4219Z"/>
  </g>
  <g id="Medium-M" transform="matrix(1 0 0 1 1669.16 1126)">
   <path class="SFSymbolsPreviewWireframe" d="M65.369-35.1659C67.81-35.1659 69.138-32.3149 67.568-30.4469L79.59-44.7579C78.442-43.3919 76.339-43.3919 75.192-44.7579L87.213-30.4469C85.644-32.3159 86.972-35.1659 89.412-35.1659L65.369-35.1659ZM65.369-31.4009C64.61-31.4009 64.197-32.2879 64.685-32.8689L76.707-47.1799C77.064-47.6049 77.718-47.6049 78.075-47.1799L90.096-32.8689C90.585-32.2879 90.171-31.4009 89.412-31.4009L65.369-31.4009Z"/>
   <path class="monochrome-0 multicolor-0:tintColor hierarchical-0:primary SFSymbolsPreviewWireframe" d="M63.988-16.0099L43.565-16.0099C33.244-16.0099 24.877-24.3769 24.877-34.6979C24.877-45.0189 33.244-53.3869 43.565-53.3869C44.879-53.3869 46.173-53.2519 47.433-52.9869C50.253-52.3939 53.026-54.1759 53.66-56.9869C56.139-67.9869 65.96-75.9369 77.391-75.9369C90.762-75.9369 101.625-65.1439 101.716-51.7809C101.741-48.1579 105.329-45.6399 108.745-46.8469C110.426-47.4409 112.206-47.7489 114.036-47.7489C122.8-47.7489 129.905-40.6439 129.905-31.8789C129.905-23.1149 122.8-16.0099 114.036-16.0099L90.794-16.0099L90.794-5.46589L114.036-5.46589C128.623-5.46589 140.449-17.2919 140.449-31.8789C140.449-46.4669 128.623-58.2919 114.036-58.2919C111.005-58.2919 108.037-57.7799 105.231-56.7879L106.988-51.8169L112.26-51.8529C112.129-71.0099 96.558-86.4809 77.391-86.4809C61.004-86.4809 46.931-75.0889 43.374-59.3049L48.517-58.1459L49.601-63.3049C47.629-63.7189 45.609-63.9299 43.565-63.9299C27.421-63.9299 14.333-50.8419 14.333-34.6979C14.333-18.5539 27.421-5.46589 43.565-5.46589L63.988-5.46589L63.988-16.0099ZM65.369-27.6349L89.412-27.6349C93.371-27.6349 95.526-32.2599 92.98-35.2909L80.958-49.6019C79.096-51.8189 75.685-51.8189 73.823-49.6019L61.802-35.2909C59.256-32.2599 61.411-27.6349 65.369-27.6349ZM72.119-33.4219L72.119 15.2161C72.119 18.1281 74.479 20.4881 77.391 20.4881C80.302 20.4881 82.663 18.1281 82.663 15.2161L82.663-33.4219C82.663-36.3329 80.302-38.6929 77.391-38.6929C74.479-38.6929 72.119-36.3329 72.119-33.4219Z"/>
  </g>
  <g id="Regular-M" transform="matrix(1 0 0 1 1373.26 1126)">
   <path class="SFSymbolsPreviewWireframe" d="M64.565-34.5919C66.518-34.5919 67.581-32.3109 66.325-30.8159L78.346-45.1279C77.428-44.0339 75.746-44.0339 74.827-45.1279L86.849-30.8159C85.593-32.3109 86.656-34.5919 88.608-34.5919L64.565-34.5919ZM64.565-31.4009C63.806-31.4009 63.393-32.2879 63.881-32.8689L75.903-47.1799C76.26-47.6049 76.914-47.6049 77.271-47.1799L89.292-32.8689C89.781-32.2879 89.367-31.4009 88.608-31.4009L64.565-31.4009Z"/>
   <path class="monochrome-0 multicolor-0:tintColor hierarchical-0:primary SFSymbolsPreviewWireframe" d="M63.184-15.2059L42.761-15.2059C31.996-15.2059 23.269-23.9329 23.269-34.6979C23.269-45.4639 31.996-54.1909 42.761-54.1909C44.131-54.1909 45.48-54.0499 46.795-53.7739C49.184-53.2719 51.535-54.7819 52.071-57.1639C54.633-68.5289 64.778-76.7409 76.587-76.7409C90.4-76.7409 101.622-65.5909 101.716-51.7869C101.737-48.7169 104.778-46.5819 107.673-47.6049C109.44-48.2299 111.311-48.5529 113.232-48.5529C122.44-48.5529 129.905-41.0879 129.905-31.8789C129.905-22.6709 122.44-15.2059 113.232-15.2059L89.99-15.2059L89.99-6.27089L113.232-6.27089C127.375-6.27089 138.841-17.7359 138.841-31.8789C138.841-46.0229 127.375-57.4879 113.232-57.4879C110.293-57.4879 107.415-56.9909 104.695-56.0299L106.184-51.8169L110.651-51.8479C110.524-70.5619 95.312-85.6759 76.587-85.6759C60.578-85.6759 46.83-74.5469 43.355-59.1279L47.713-58.1459L48.632-62.5179C46.714-62.9209 44.749-63.1259 42.761-63.1259C27.061-63.1259 14.333-50.3979 14.333-34.6979C14.333-18.9979 27.061-6.27089 42.761-6.27089L63.184-6.27089L63.184-15.2059ZM64.565-28.2099L88.608-28.2099C92.079-28.2099 93.968-32.2639 91.736-34.9209L79.714-49.2329C78.082-51.1759 75.091-51.1759 73.459-49.2319L61.438-34.9209C59.206-32.2639 61.095-28.2099 64.565-28.2099ZM72.119-33.4219L72.119 15.2161C72.119 17.6841 74.12 19.6841 76.587 19.6841C79.054 19.6841 81.054 17.6841 81.054 15.2161L81.054-33.4219C81.054-35.8889 79.054-37.8889 76.587-37.8889C74.12-37.8889 72.119-35.8889 72.119-33.4219Z"/>
  </g>
  <g id="Light-M" transform="matrix(1 0 0 1 1077.59 1126)">
   <path class="SFSymbolsPreviewWireframe" d="M63.522-33.8469C64.842-33.8469 65.56-32.3059 64.712-31.2949L76.733-45.6059C76.112-44.8679 74.975-44.8679 74.355-45.6069L86.376-31.2949C85.527-32.3059 86.246-33.8469 87.565-33.8469L63.522-33.8469ZM63.522-31.4009C62.763-31.4009 62.35-32.2879 62.838-32.8689L74.86-47.1799C75.217-47.6049 75.871-47.6049 76.228-47.1799L88.249-32.8689C88.738-32.2879 88.324-31.4009 87.565-31.4009L63.522-31.4009Z"/>
   <path class="monochrome-0 multicolor-0:tintColor hierarchical-0:primary SFSymbolsPreviewWireframe" d="M62.141-14.1629L41.718-14.1629C30.377-14.1629 21.183-23.3569 21.183-34.6979C21.183-46.0389 30.377-55.2329 41.718-55.2329C43.16-55.2329 44.581-55.0849 45.966-54.7939C47.798-54.4089 49.6-55.5669 50.011-57.3929C52.679-69.2309 63.245-77.7839 75.544-77.7839C89.931-77.7839 101.618-66.1709 101.716-51.7939C101.732-49.4399 104.063-47.8039 106.282-48.5879C108.161-49.2519 110.149-49.5949 112.189-49.5949C121.973-49.5949 129.905-41.6639 129.905-31.8789C129.905-22.0949 121.973-14.1629 112.189-14.1629L88.947-14.1629L88.947-7.31289L112.189-7.31289C125.756-7.31289 136.755-18.3119 136.755-31.8789C136.755-45.4469 125.756-56.4459 112.189-56.4459C109.368-56.4459 106.609-55.9689 103.999-55.0469L105.141-51.8169L108.566-51.8409C108.442-69.9819 93.696-84.6339 75.544-84.6339C60.025-84.6339 46.697-73.8449 43.329-58.8989L46.67-58.1459L47.374-61.4979C45.527-61.8859 43.634-62.0829 41.718-62.0829C26.594-62.0829 14.333-49.8229 14.333-34.6979C14.333-19.5739 26.594-7.31289 41.718-7.31289L62.141-7.31289L62.141-14.1629ZM63.522-28.9539L87.565-28.9539C90.403-28.9539 91.948-32.2689 90.123-34.4419L78.101-48.7539C76.767-50.3429 74.321-50.3429 72.986-48.7539L60.965-34.4419C59.14-32.2699 60.684-28.9539 63.522-28.9539ZM72.119-33.4219L72.119 15.2161C72.119 17.1081 73.652 18.6411 75.544 18.6411C77.436 18.6411 78.969 17.1081 78.969 15.2161L78.969-33.4219C78.969-35.3129 77.436-36.8469 75.544-36.8469C73.652-36.8469 72.119-35.3129 72.119-33.4219Z"/>
  </g>
  <g id="Thin-M" transform="matrix(1 0 0 1 781.92 1126)">
   <path class="SFSymbolsPreviewWireframe" d="M62.48-33.1029C63.167-33.1029 63.541-32.2999 63.099-31.7739L75.121-46.0849C74.798-45.7009 74.206-45.7009 73.883-46.0849L85.904-31.7739C85.462-32.2999 85.836-33.1029 86.523-33.1029L62.48-33.1029ZM62.48-31.4009C61.721-31.4009 61.308-32.2879 61.796-32.8689L73.818-47.1799C74.175-47.6049 74.829-47.6049 75.186-47.1799L87.207-32.8689C87.696-32.2879 87.282-31.4009 86.523-31.4009L62.48-31.4009Z"/>
   <path class="monochrome-0 multicolor-0:tintColor hierarchical-0:primary SFSymbolsPreviewWireframe" d="M61.099-13.1209L40.676-13.1209C28.759-13.1209 19.099-22.7809 19.099-34.6979C19.099-46.6149 28.759-56.2759 40.676-56.2759C42.19-56.2759 43.683-56.1199 45.138-55.8139C46.413-55.5459 47.666-56.3519 47.953-57.6219C50.727-69.9329 61.713-78.8259 74.502-78.8259C89.462-78.8259 101.614-66.7509 101.716-51.8009C101.727-50.1639 103.349-49.0249 104.893-49.5709C106.883-50.2739 108.988-50.6379 111.147-50.6379C121.507-50.6379 129.905-42.2389 129.905-31.8789C129.905-21.5189 121.507-13.1209 111.147-13.1209L87.905-13.1209L87.905-8.35589L111.147-8.35589C124.139-8.35589 134.671-18.8879 134.671-31.8789C134.671-44.8709 124.139-55.4029 111.147-55.4029C108.445-55.4029 105.803-54.9469 103.305-54.0639L104.099-51.8169L106.482-51.8339C106.362-69.4019 92.081-83.5909 74.502-83.5909C59.473-83.5909 46.565-73.1429 43.304-58.6699L45.628-58.1459L46.118-60.4779C44.341-60.8509 42.52-61.0409 40.676-61.0409C26.127-61.0409 14.333-49.2469 14.333-34.6979C14.333-20.1499 26.127-8.35589 40.676-8.35589L61.099-8.35589L61.099-13.1209ZM62.48-29.6989L86.523-29.6989C88.728-29.6989 89.929-32.2749 88.511-33.9639L76.489-48.2749C75.452-49.5089 73.552-49.5089 72.515-48.2749L60.493-33.9639C59.075-32.2749 60.275-29.6989 62.48-29.6989ZM72.119-33.4219L72.119 15.2161C72.119 16.5321 73.186 17.5991 74.502 17.5991C75.818 17.5991 76.885 16.5321 76.885 15.2161L76.885-33.4219C76.885-34.7379 75.818-35.8039 74.502-35.8039C73.186-35.8039 72.119-34.7379 72.119-33.4219Z"/>
  </g>
  <g id="Ultralight-M" transform="matrix(1 0 0 1 486.252 1126)">
   <path class="SFSymbolsPreviewWireframe" d="M61.437-32.3579C61.492-32.3579 61.521-32.2949 61.486-32.2529L73.508-46.5639C73.482-46.5339 73.435-46.5339 73.41-46.5639L85.431-32.2529C85.396-32.2949 85.426-32.3579 85.48-32.3579L61.437-32.3579ZM61.437-31.4009C60.678-31.4009 60.265-32.2879 60.753-32.8689L72.775-47.1799C73.132-47.6049 73.786-47.6049 74.143-47.1799L86.164-32.8689C86.653-32.2879 86.239-31.4009 85.48-31.4009L61.437-31.4009Z"/>
   <path class="monochrome-0 multicolor-0:tintColor hierarchical-0:primary SFSymbolsPreviewWireframe" d="M60.056-12.0789L39.633-12.0789C27.141-12.0789 17.013-22.2059 17.013-34.6979C17.013-47.1909 27.141-57.3179 39.633-57.3179C41.219-57.3179 42.784-57.1549 44.31-56.8339C45.027-56.6839 45.732-57.1369 45.893-57.8509C48.774-70.6349 60.18-79.8689 73.459-79.8689C88.992-79.8689 101.61-67.3309 101.716-51.8079C101.722-50.8869 102.634-50.2469 103.503-50.5539C105.603-51.2959 107.826-51.6799 110.104-51.6799C121.039-51.6799 129.905-42.8149 129.905-31.8789C129.905-20.9439 121.039-12.0789 110.104-12.0789L86.862-12.0789L86.862-9.39789L110.104-9.39789C122.52-9.39789 132.585-19.4629 132.585-31.8789C132.585-44.2959 122.52-54.3609 110.104-54.3609C107.521-54.3609 104.996-53.9249 102.609-53.0809L104.396-51.8269C104.28-68.8229 90.465-82.5489 73.459-82.5489C58.92-82.5489 46.433-72.4409 43.278-58.4409L44.861-59.4579C43.154-59.8159 41.405-59.9989 39.633-59.9989C25.66-59.9989 14.333-48.6709 14.333-34.6979C14.333-20.7249 25.66-9.39789 39.633-9.39789L60.056-9.39789L60.056-12.0789ZM61.437-30.4429L85.48-30.4429C87.053-30.4429 87.909-32.2799 86.897-33.4849L74.876-47.7959C74.136-48.6759 72.781-48.6759 72.042-47.7959L60.02-33.4849C59.009-32.2809 59.865-30.4429 61.437-30.4429ZM72.119-33.4219L72.119 15.2161C72.119 15.9561 72.719 16.5561 73.459 16.5561C74.199 16.5561 74.799 15.9561 74.799 15.2161L74.799-33.4219C74.799-34.1619 74.199-34.7619 73.459-34.7619C72.719-34.7619 72.119-34.1619 72.119-33.4219Z"/>
  </g>
  <g id="Black-S" transform="matrix(1 0 0 1 2867.17 696)">
   <path class="SFSymbolsPreviewWireframe" d="M56.813-36.9785C60.252-36.9785 62.125-32.9605 59.912-30.3275L69.325-41.5335C67.707-39.6075 64.744-39.6075 63.126-41.5335L72.539-30.3275C70.327-32.9615 72.199-36.9785 75.638-36.9785L56.813-36.9785ZM56.813-32.2315C56.218-32.2315 55.895-32.9255 56.277-33.3815L65.69-44.5865C65.969-44.9195 66.482-44.9195 66.761-44.5865L76.174-33.3815C76.556-32.9255 76.233-32.2315 75.638-32.2315L56.813-32.2315Z"/>
   <path class="monochrome-0 multicolor-0:tintColor hierarchical-0:primary SFSymbolsPreviewWireframe" d="M55.731-22.6995L39.74-22.6995C33.049-22.6995 27.626-28.1225 27.626-34.8135C27.626-41.5045 33.049-46.9275 39.74-46.9275C40.594-46.9275 41.434-46.8405 42.251-46.6685C45.806-45.9215 49.303-48.1675 50.101-51.7115C51.785-59.1815 58.459-64.5845 66.226-64.5845C75.311-64.5845 82.692-57.2515 82.754-48.1725C82.785-43.6045 87.308-40.4295 91.615-41.9515C92.663-42.3215 93.773-42.5135 94.918-42.5135C100.39-42.5135 104.826-38.0775 104.826-32.6065C104.826-27.1345 100.39-22.6995 94.918-22.6995L76.72-22.6995L76.72-9.40653L94.918-9.40653C107.731-9.40653 118.118-19.7935 118.118-32.6065C118.118-45.4195 107.731-55.8065 94.918-55.8065C92.259-55.8065 89.651-55.3555 87.185-54.4845L89.4-48.2175L96.046-48.2635C95.934-64.6465 82.618-77.8775 66.226-77.8775C52.21-77.8775 40.176-68.1355 37.134-54.6345L43.617-53.1735L44.984-59.6775C43.27-60.0375 41.514-60.2205 39.74-60.2205C25.708-60.2205 14.333-48.8455 14.333-34.8135C14.333-20.7815 25.708-9.40653 39.74-9.40653L55.731-9.40653L55.731-22.6995ZM56.813-27.4845L75.638-27.4845C80.266-27.4845 82.786-32.8905 79.809-36.4345L70.396-47.6405C68.22-50.2315 64.231-50.2315 62.055-47.6405L52.642-36.4345C49.665-32.8915 52.184-27.4845 56.813-27.4845ZM59.579-33.8145L59.579 4.26947C59.579 7.94047 62.555 10.9155 66.226 10.9155C69.896 10.9155 72.872 7.94047 72.872 4.26947L72.872-33.8145C72.872-37.4845 69.896-40.4605 66.226-40.4605C62.555-40.4605 59.579-37.4845 59.579-33.8145Z"/>
  </g>
  <g id="Heavy-S" transform="matrix(1 0 0 1 2571.09 696)">
   <path class="SFSymbolsPreviewWireframe" d="M56.184-36.5295C59.241-36.5295 60.905-32.9575 58.939-30.6165L68.352-41.8225C66.914-40.1105 64.279-40.1105 62.841-41.8225L72.254-30.6165C70.288-32.9575 71.952-36.5295 75.009-36.5295L56.184-36.5295ZM56.184-32.2315C55.589-32.2315 55.266-32.9255 55.648-33.3815L65.061-44.5865C65.34-44.9195 65.853-44.9195 66.132-44.5865L75.545-33.3815C75.927-32.9255 75.604-32.2315 75.009-32.2315L56.184-32.2315Z"/>
   <path class="monochrome-0 multicolor-0:tintColor hierarchical-0:primary SFSymbolsPreviewWireframe" d="M55.102-22.0695L39.111-22.0695C32.073-22.0695 26.367-27.7755 26.367-34.8135C26.367-41.8515 32.073-47.5575 39.111-47.5575C40.009-47.5575 40.892-47.4655 41.751-47.2845C44.97-46.6085 48.135-48.6415 48.858-51.8505C50.606-59.6065 57.534-65.2145 65.597-65.2145C75.028-65.2145 82.69-57.6015 82.754-48.1765C82.783-44.0415 86.877-41.1665 90.776-42.5455C91.891-42.9395 93.072-43.1435 94.289-43.1435C100.109-43.1435 104.826-38.4255 104.826-32.6065C104.826-26.7875 100.109-22.0695 94.289-22.0695L76.091-22.0695L76.091-10.0365L94.289-10.0365C106.755-10.0365 116.86-20.1415 116.86-32.6065C116.86-45.0715 106.755-55.1765 94.289-55.1765C91.701-55.1765 89.165-54.7385 86.766-53.8905L88.771-48.2175L94.788-48.2585C94.678-64.2965 81.643-77.2485 65.597-77.2485C51.877-77.2485 40.097-67.7115 37.119-54.4955L42.988-53.1735L44.225-59.0615C42.554-59.4125 40.842-59.5905 39.111-59.5905C25.427-59.5905 14.333-48.4975 14.333-34.8135C14.333-21.1295 25.427-10.0365 39.111-10.0365L55.102-10.0365L55.102-22.0695ZM56.184-27.9335L75.009-27.9335C79.255-27.9335 81.567-32.8945 78.836-36.1455L69.423-47.3515C67.426-49.7285 63.767-49.7285 61.77-47.3505L52.357-36.1455C49.626-32.8945 51.938-27.9335 56.184-27.9335ZM59.58-33.8145L59.58 4.26947C59.58 7.59247 62.274 10.2865 65.597 10.2865C68.92 10.2865 71.613 7.59247 71.613 4.26947L71.613-33.8145C71.613-37.1365 68.92-39.8305 65.597-39.8305C62.274-39.8305 59.58-37.1365 59.58-33.8145Z"/>
  </g>
  <g id="Bold-S" transform="matrix(1 0 0 1 2275.01 696)">
   <path class="SFSymbolsPreviewWireframe" d="M55.554-36.0795C58.229-36.0795 59.685-32.9545 57.964-30.9055L67.377-42.1115C66.119-40.6135 63.814-40.6135 62.556-42.1115L71.969-30.9065C70.248-32.9545 71.704-36.0795 74.379-36.0795L55.554-36.0795ZM55.554-32.2315C54.959-32.2315 54.636-32.9255 55.018-33.3815L64.431-44.5865C64.71-44.9195 65.223-44.9195 65.502-44.5865L74.915-33.3815C75.297-32.9255 74.974-32.2315 74.379-32.2315L55.554-32.2315Z"/>
   <path class="monochrome-0 multicolor-0:tintColor hierarchical-0:primary SFSymbolsPreviewWireframe" d="M54.472-21.4395L38.481-21.4395C31.095-21.4395 25.107-27.4275 25.107-34.8135C25.107-42.1995 31.095-48.1875 38.481-48.1875C39.423-48.1875 40.349-48.0905 41.251-47.9015C44.132-47.2955 46.966-49.1165 47.614-51.9885C49.426-60.0305 56.608-65.8445 64.967-65.8445C74.744-65.8445 82.687-57.9515 82.754-48.1815C82.779-44.4785 86.446-41.9045 89.936-43.1385C91.119-43.5565 92.37-43.7725 93.659-43.7725C99.827-43.7725 104.826-38.7735 104.826-32.6065C104.826-26.4395 99.827-21.4395 93.659-21.4395L75.461-21.4395L75.461-10.6655L93.659-10.6655C105.777-10.6655 115.6-20.4885 115.6-32.6065C115.6-44.7235 105.777-54.5465 93.659-54.5465C91.143-54.5465 88.677-54.1215 86.346-53.2965L88.141-48.2175L93.528-48.2545C93.421-63.9465 80.667-76.6185 64.967-76.6185C51.543-76.6185 40.017-67.2875 37.103-54.3575L42.358-53.1735L43.466-58.4455C41.837-58.7875 40.168-58.9615 38.481-58.9615C25.144-58.9615 14.333-48.1495 14.333-34.8135C14.333-21.4775 25.144-10.6655 38.481-10.6655L54.472-10.6655L54.472-21.4395ZM55.554-28.3835L74.379-28.3835C78.243-28.3835 80.347-32.8975 77.861-35.8555L68.449-47.0615C66.631-49.2255 63.302-49.2255 61.484-47.0615L52.072-35.8565C49.586-32.8975 51.69-28.3835 55.554-28.3835ZM59.579-33.8145L59.579 4.26947C59.579 7.24447 61.991 9.65647 64.967 9.65647C67.942 9.65647 70.354 7.24447 70.354 4.26947L70.354-33.8145C70.354-36.7895 67.942-39.2015 64.967-39.2015C61.991-39.2015 59.579-36.7895 59.579-33.8145Z"/>
  </g>
  <g id="Semibold-S" transform="matrix(1 0 0 1 1978.93 696)">
   <path class="SFSymbolsPreviewWireframe" d="M54.924-35.6295C57.217-35.6295 58.465-32.9505 56.99-31.1955L66.403-42.4015C65.324-41.1175 63.349-41.1175 62.27-42.4015L71.683-31.1955C70.208-32.9515 71.456-35.6295 73.749-35.6295L54.924-35.6295ZM54.924-32.2315C54.329-32.2315 54.006-32.9255 54.388-33.3815L63.801-44.5865C64.08-44.9195 64.593-44.9195 64.872-44.5865L74.285-33.3815C74.667-32.9255 74.344-32.2315 73.749-32.2315L54.924-32.2315Z"/>
   <path class="monochrome-0 multicolor-0:tintColor hierarchical-0:primary SFSymbolsPreviewWireframe" d="M53.842-20.8105L37.851-20.8105C30.117-20.8105 23.848-27.0795 23.848-34.8135C23.848-42.5475 30.117-48.8165 37.851-48.8165C38.836-48.8165 39.806-48.7155 40.75-48.5175C43.295-47.9825 45.798-49.5905 46.369-52.1275C48.246-60.4545 55.682-66.4735 64.337-66.4735C74.46-66.4735 82.685-58.3025 82.754-48.1855C82.776-44.9155 86.014-42.6425 89.096-43.7325C90.346-44.1735 91.669-44.4025 93.029-44.4025C99.544-44.4025 104.826-39.1215 104.826-32.6065C104.826-26.0915 99.544-20.8105 93.029-20.8105L74.831-20.8105L74.831-11.2955L93.029-11.2955C104.799-11.2955 114.341-20.8365 114.341-32.6065C114.341-44.3765 104.799-53.9175 93.029-53.9175C90.585-53.9175 88.19-53.5035 85.926-52.7035L87.511-48.2175L92.268-48.2505C92.164-63.5955 79.691-75.9885 64.337-75.9885C51.209-75.9885 39.937-66.8635 37.087-54.2185L41.728-53.1735L42.707-57.8285C41.12-58.1625 39.495-58.3315 37.851-58.3315C24.862-58.3315 14.333-47.8025 14.333-34.8135C14.333-21.8245 24.862-11.2955 37.851-11.2955L53.842-11.2955L53.842-20.8105ZM54.924-28.8335L73.749-28.8335C77.231-28.8335 79.126-32.9005 76.887-35.5665L67.474-46.7725C65.837-48.7215 62.836-48.7215 61.199-46.7725L51.786-35.5665C49.547-32.9015 51.442-28.8335 54.924-28.8335ZM59.579-33.8145L59.579 4.26947C59.579 6.89647 61.709 9.02647 64.337 9.02647C66.964 9.02647 69.094 6.89647 69.094 4.26947L69.094-33.8145C69.094-36.4415 66.964-38.5715 64.337-38.5715C61.709-38.5715 59.579-36.4415 59.579-33.8145Z"/>
  </g>
  <g id="Medium-S" transform="matrix(1 0 0 1 1682.85 696)">
   <path class="SFSymbolsPreviewWireframe" d="M54.295-35.1795C56.206-35.1795 57.246-32.9475 56.017-31.4845L65.429-42.6905C64.531-41.6205 62.884-41.6205 61.985-42.6905L71.398-31.4845C70.169-32.9475 71.21-35.1795 73.12-35.1795L54.295-35.1795ZM54.295-32.2315C53.7-32.2315 53.377-32.9255 53.759-33.3815L63.172-44.5865C63.451-44.9195 63.964-44.9195 64.243-44.5865L73.656-33.3815C74.038-32.9255 73.715-32.2315 73.12-32.2315L54.295-32.2315Z"/>
   <path class="monochrome-0 multicolor-0:tintColor hierarchical-0:primary SFSymbolsPreviewWireframe" d="M53.213-20.1805L37.222-20.1805C29.14-20.1805 22.589-26.7315 22.589-34.8135C22.589-42.8955 29.14-49.4465 37.222-49.4465C38.251-49.4465 39.264-49.3405 40.251-49.1335C42.459-48.6695 44.63-50.0645 45.126-52.2655C47.067-60.8785 54.757-67.1035 63.708-67.1035C74.177-67.1035 82.683-58.6525 82.754-48.1895C82.774-45.3525 85.583-43.3805 88.258-44.3265C89.574-44.7915 90.968-45.0325 92.4-45.0325C99.263-45.0325 104.826-39.4685 104.826-32.6065C104.826-25.7435 99.263-20.1805 92.4-20.1805L74.202-20.1805L74.202-11.9255L92.4-11.9255C103.822-11.9255 113.082-21.1845 113.082-32.6065C113.082-44.0285 103.822-53.2875 92.4-53.2875C90.027-53.2875 87.704-52.8865 85.506-52.1095L86.882-48.2175L91.01-48.2455C90.907-63.2455 78.716-75.3595 63.708-75.3595C50.876-75.3595 39.858-66.4395 37.073-54.0805L41.099-53.1735L41.948-57.2125C40.404-57.5375 38.822-57.7015 37.222-57.7015C24.581-57.7015 14.333-47.4545 14.333-34.8135C14.333-22.1725 24.581-11.9255 37.222-11.9255L53.213-11.9255L53.213-20.1805ZM54.295-29.2835L73.12-29.2835C76.22-29.2835 77.907-32.9045 75.914-35.2775L66.501-46.4835C65.043-48.2185 62.372-48.2185 60.914-46.4835L51.502-35.2775C49.508-32.9045 51.195-29.2835 54.295-29.2835ZM59.58-33.8145L59.58 4.26947C59.58 6.54947 61.428 8.39747 63.708 8.39747C65.987 8.39747 67.835 6.54947 67.835 4.26947L67.835-33.8145C67.835-36.0935 65.987-37.9415 63.708-37.9415C61.428-37.9415 59.58-36.0935 59.58-33.8145Z"/>
  </g>
  <g id="Regular-S" transform="matrix(1 0 0 1 1386.77 696)">
   <path class="SFSymbolsPreviewWireframe" d="M53.665-34.7305C55.193-34.7305 56.026-32.9445 55.042-31.7735L64.455-42.9795C63.736-42.1235 62.419-42.1235 61.7-42.9795L71.113-31.7745C70.13-32.9445 70.962-34.7305 72.49-34.7305L53.665-34.7305ZM53.665-32.2315C53.07-32.2315 52.747-32.9255 53.129-33.3815L62.542-44.5865C62.821-44.9195 63.334-44.9195 63.613-44.5865L73.026-33.3815C73.408-32.9255 73.085-32.2315 72.49-32.2315L53.665-32.2315Z"/>
   <path class="monochrome-0 multicolor-0:tintColor hierarchical-0:primary SFSymbolsPreviewWireframe" d="M52.583-19.5505L36.592-19.5505C28.163-19.5505 21.329-26.3845 21.329-34.8135C21.329-43.2425 28.163-50.0765 36.592-50.0765C37.664-50.0765 38.721-49.9655 39.75-49.7495C41.621-49.3565 43.462-50.5385 43.882-52.4045C45.887-61.3025 53.831-67.7335 63.078-67.7335C73.894-67.7335 82.68-59.0025 82.754-48.1935C82.77-45.7895 85.151-44.1185 87.418-44.9195C88.802-45.4085 90.266-45.6615 91.77-45.6615C98.981-45.6615 104.826-39.8165 104.826-32.6065C104.826-25.3965 98.981-19.5505 91.77-19.5505L73.572-19.5505L73.572-12.5545L91.77-12.5545C102.845-12.5545 111.822-21.5325 111.822-32.6065C111.822-43.6805 102.845-52.6585 91.77-52.6585C89.469-52.6585 87.216-52.2685 85.086-51.5155L86.252-48.2175L89.75-48.2415C89.65-62.8955 77.739-74.7295 63.078-74.7295C50.542-74.7295 39.778-66.0155 37.057-53.9425L40.469-53.1735L41.189-56.5965C39.687-56.9115 38.148-57.0725 36.592-57.0725C24.299-57.0725 14.333-47.1065 14.333-34.8135C14.333-22.5205 24.299-12.5545 36.592-12.5545L52.583-12.5545L52.583-19.5505ZM53.665-29.7325L72.49-29.7325C75.208-29.7325 76.687-32.9075 74.939-34.9885L65.526-46.1935C64.248-47.7155 61.907-47.7155 60.629-46.1935L51.216-34.9885C49.468-32.9075 50.947-29.7325 53.665-29.7325ZM59.579-33.8145L59.579 4.26947C59.579 6.20147 61.146 7.76747 63.078 7.76747C65.01 7.76747 66.576 6.20147 66.576 4.26947L66.576-33.8145C66.576-35.7455 65.01-37.3125 63.078-37.3125C61.146-37.3125 59.579-35.7455 59.579-33.8145Z"/>
  </g>
  <g id="Light-S" transform="matrix(1 0 0 1 1090.87 696)">
   <path class="SFSymbolsPreviewWireframe" d="M52.849-34.1475C53.882-34.1475 54.445-32.9405 53.78-32.1485L63.193-43.3545C62.707-42.7765 61.816-42.7765 61.33-43.3545L70.743-32.1495C70.079-32.9405 70.641-34.1475 71.674-34.1475L52.849-34.1475ZM52.849-32.2315C52.254-32.2315 51.931-32.9255 52.313-33.3815L61.726-44.5865C62.005-44.9195 62.518-44.9195 62.797-44.5865L72.21-33.3815C72.592-32.9255 72.269-32.2315 71.674-32.2315L52.849-32.2315Z"/>
   <path class="monochrome-0 multicolor-0:tintColor hierarchical-0:primary SFSymbolsPreviewWireframe" d="M51.767-18.7345L35.776-18.7345C26.896-18.7345 19.697-25.9335 19.697-34.8135C19.697-43.6935 26.896-50.8925 35.776-50.8925C36.905-50.8925 38.017-50.7765 39.102-50.5485C40.537-50.2475 41.947-51.1535 42.27-52.5835C44.358-61.8525 52.631-68.5495 62.262-68.5495C73.526-68.5495 82.677-59.4565 82.754-48.1995C82.767-46.3565 84.592-45.0745 86.33-45.6895C87.801-46.2095 89.357-46.4785 90.954-46.4785C98.616-46.4785 104.826-40.2675 104.826-32.6065C104.826-24.9455 98.616-18.7345 90.954-18.7345L72.756-18.7345L72.756-13.3705L90.954-13.3705C101.578-13.3705 110.19-21.9825 110.19-32.6065C110.19-43.2295 101.578-51.8415 90.954-51.8415C88.746-51.8415 86.585-51.4685 84.542-50.7465L85.436-48.2175L88.118-48.2365C88.021-62.4415 76.475-73.9135 62.262-73.9135C50.11-73.9135 39.674-65.4655 37.037-53.7625L39.653-53.1735L40.205-55.7975C38.758-56.1015 37.276-56.2565 35.776-56.2565C23.934-56.2565 14.333-46.6555 14.333-34.8135C14.333-22.9715 23.934-13.3705 35.776-13.3705L51.767-13.3705L51.767-18.7345ZM52.849-30.3155L71.674-30.3155C73.896-30.3155 75.106-32.9115 73.677-34.6135L64.264-45.8185C63.219-47.0635 61.304-47.0635 60.259-45.8185L50.846-34.6135C49.417-32.9115 50.627-30.3155 52.849-30.3155ZM59.58-33.8145L59.58 4.26947C59.58 5.75047 60.78 6.95147 62.262 6.95147C63.743 6.95147 64.943 5.75047 64.943 4.26947L64.943-33.8145C64.943-35.2955 63.743-36.4955 62.262-36.4955C60.78-36.4955 59.58-35.2955 59.58-33.8145Z"/>
  </g>
  <g id="Thin-S" transform="matrix(1 0 0 1 794.977 696)">
   <path class="SFSymbolsPreviewWireframe" d="M52.032-33.5645C52.57-33.5645 52.862-32.9355 52.516-32.5235L61.929-43.7295C61.676-43.4285 61.213-43.4285 60.96-43.7295L70.373-32.5245C70.027-32.9355 70.319-33.5645 70.857-33.5645L52.032-33.5645ZM52.032-32.2315C51.437-32.2315 51.114-32.9255 51.496-33.3815L60.909-44.5865C61.188-44.9195 61.701-44.9195 61.98-44.5865L71.393-33.3815C71.775-32.9255 71.452-32.2315 70.857-32.2315L52.032-32.2315Z"/>
   <path class="monochrome-0 multicolor-0:tintColor hierarchical-0:primary SFSymbolsPreviewWireframe" d="M50.95-17.9185L34.959-17.9185C25.628-17.9185 18.064-25.4825 18.064-34.8135C18.064-44.1445 25.628-51.7085 34.959-51.7085C36.144-51.7085 37.313-51.5865 38.453-51.3475C39.451-51.1375 40.432-51.7685 40.656-52.7625C42.829-62.4025 51.431-69.3655 61.445-69.3655C73.158-69.3655 82.674-59.9115 82.753-48.2055C82.762-46.9225 84.032-46.0315 85.241-46.4585C86.799-47.0095 88.447-47.2945 90.137-47.2945C98.249-47.2945 104.825-40.7185 104.825-32.6065C104.825-24.4945 98.249-17.9185 90.137-17.9185L71.939-17.9185L71.939-14.1875L90.137-14.1875C100.31-14.1875 108.557-22.4335 108.557-32.6065C108.557-42.7785 100.31-51.0255 90.137-51.0255C88.022-51.0255 85.953-50.6685 83.997-49.9765L84.619-48.2175L86.485-48.2305C86.391-61.9865 75.209-73.0965 61.445-73.0965C49.677-73.0965 39.57-64.9155 37.016-53.5835L38.836-53.1735L39.22-54.9985C37.828-55.2915 36.402-55.4395 34.959-55.4395C23.567-55.4395 14.333-46.2055 14.333-34.8135C14.333-23.4215 23.567-14.1875 34.959-14.1875L50.95-14.1875L50.95-17.9185ZM52.032-30.8985L70.857-30.8985C72.584-30.8985 73.524-32.9165 72.413-34.2385L63.001-45.4435C62.188-46.4105 60.701-46.4105 59.888-45.4435L50.476-34.2385C49.365-32.9165 50.305-30.8985 52.032-30.8985ZM59.579-33.8145L59.579 4.26947C59.579 5.29947 60.414 6.13547 61.445 6.13547C62.475 6.13547 63.31 5.29947 63.31 4.26947L63.31-33.8145C63.31-34.8445 62.475-35.6795 61.445-35.6795C60.414-35.6795 59.579-34.8445 59.579-33.8145Z"/>
  </g>
  <g id="Ultralight-S" transform="matrix(1 0 0 1 499.082 696)">
   <path class="SFSymbolsPreviewWireframe" d="M51.216-32.9815C51.258-32.9815 51.281-32.9315 51.254-32.8985L60.667-44.1045C60.647-44.0805 60.61-44.0805 60.59-44.1045L70.003-32.8995C69.976-32.9315 69.999-32.9815 70.041-32.9815L51.216-32.9815ZM51.216-32.2315C50.621-32.2315 50.298-32.9255 50.68-33.3815L60.093-44.5865C60.372-44.9195 60.885-44.9195 61.164-44.5865L70.577-33.3815C70.959-32.9255 70.636-32.2315 70.041-32.2315L51.216-32.2315Z"/>
   <path class="monochrome-0 multicolor-0:tintColor hierarchical-0:primary SFSymbolsPreviewWireframe" d="M50.134-17.1025L34.143-17.1025C24.361-17.1025 16.432-25.0315 16.432-34.8135C16.432-44.5955 24.361-52.5245 34.143-52.5245C35.385-52.5245 36.61-52.3975 37.805-52.1465C38.366-52.0285 38.918-52.3825 39.044-52.9425C41.3-62.9525 50.231-70.1815 60.629-70.1815C72.791-70.1815 82.671-60.3655 82.754-48.2105C82.759-47.4895 83.473-46.9885 84.153-47.2285C85.798-47.8095 87.538-48.1105 89.321-48.1105C97.884-48.1105 104.826-41.1695 104.826-32.6065C104.826-24.0435 97.884-17.1025 89.321-17.1025L71.123-17.1025L71.123-15.0035L89.321-15.0035C99.043-15.0035 106.925-22.8845 106.925-32.6065C106.925-42.3285 99.043-50.2095 89.321-50.2095C87.299-50.2095 85.322-49.8675 83.453-49.2075L84.852-48.2245C84.762-61.5325 73.944-72.2805 60.629-72.2805C49.244-72.2805 39.467-64.3655 36.997-53.4035L38.236-54.2005C36.9-54.4805 35.53-54.6235 34.143-54.6235C23.202-54.6235 14.333-45.7545 14.333-34.8135C14.333-23.8725 23.202-15.0035 34.143-15.0035L50.134-15.0035L50.134-17.1025ZM51.216-31.4815L70.041-31.4815C71.273-31.4815 71.943-32.9205 71.151-33.8635L61.738-45.0685C61.159-45.7585 60.098-45.7585 59.519-45.0685L50.106-33.8635C49.314-32.9205 49.984-31.4815 51.216-31.4815ZM59.579-33.8145L59.579 4.26947C59.579 4.84947 60.049 5.31847 60.629 5.31847C61.208 5.31847 61.678 4.84947 61.678 4.26947L61.678-33.8145C61.678-34.3935 61.208-34.8635 60.629-34.8635C60.049-34.8635 59.579-34.3935 59.579-33.8145Z"/>
  </g>
 </g>
</svg>
