/* XPM */
static char * poedit_help_xpm[] = {
"20 20 10 1",
" 	c None",
".	c #B6B6B6",
"+	c #626262",
"@	c #000000",
"#	c #FFFFFF",
"$	c #323232",
"%	c #3E3E3E",
"&	c #1A1A1A",
"*	c #262626",
"=	c #6E6E6E",
" .++++++++++++++++. ",
".+@@@@@@@@@@@@@@@@+.",
"+@++............++@+",
"+@+.#############+@+",
"+@.####.$+%$.####.@+",
"+@.###.%$.+@&.###.@+",
"+@.###.@$#.@@$###.@+",
"+@.####$+#.@@$###.@+",
"+@.#######$@%.###.@+",
"+@.#######*+.####.@+",
"+@.######=.######.@+",
"+@.#####.%.######.@+",
"+@.#####+@@######.@+",
"+@.#####.@%######.@+",
"+@+.############.+@+",
"+@++####........++@+",
" +@@###.+@@@@@@@@@+.",
"  +@..+@@%++++++++. ",
"  +@+@@%+           ",
"  +@@@+.            "};
