/* XPM */
static char * poedit_filesave_xpm[] = {
"20 20 16 1",
" 	c None",
".	c #6E6E6E",
"+	c #4A4A4A",
"@	c #000000",
"#	c #7A7A7A",
"$	c #929292",
"%	c #9E9E9E",
"&	c #B6B6B6",
"*	c #C2C2C2",
"=	c #AAAAAA",
"-	c #565656",
";	c #626262",
">	c #FFFFFF",
",	c #DADADA",
"'	c #3E3E3E",
")	c #CECECE",
".++..............++.",
"+++@@@@@@@@@@@@@@+++",
"++#$............%#++",
"+@#$............%#@+",
"+@#$............%#@+",
"+@#$............&#@+",
"+@#$............*#@+",
"+@#$............*#@+",
"+@#$............&#@+",
"+@##$$$$$==&&&*&##@+",
"+@################@+",
"+@##--------;;;;##@+",
"+@#->>,,,,,,*'-;%#@+",
"+@#->;-'>)*),'-;%#@+",
"+@#-,;-'>*)*,'-;%#@+",
"+@#-,;-'>)*),'-;%#@+",
"+@#-,;-'>*)*,'-;%#@+",
"+@+-,===****,'-;%#@+",
"=+@@@@@@@@@@@@@@@@@+",
" =+++++++++++++++++."};
