/* XPM */
static char * appicon_xpm[] = {
"32 32 424 2",
"  	c None",
". 	c #1B1748",
"+ 	c #1B2345",
"@ 	c #1D0E55",
"# 	c #1E085D",
"$ 	c #1F0A60",
"% 	c #1F0960",
"& 	c #1D0D56",
"* 	c #1D2246",
"= 	c #1C094E",
"- 	c #1E2346",
"; 	c #213F3E",
"> 	c #4B826A",
", 	c #8ABDB0",
"' 	c #B4D4D0",
") 	c #CBD3F6",
"! 	c #DFE3FA",
"~ 	c #DDE2F9",
"{ 	c #CAD2F6",
"] 	c #B5C1F3",
"^ 	c #87B0BF",
"/ 	c #4C8C59",
"( 	c #203841",
"_ 	c #1E2446",
": 	c #1D2146",
"< 	c #23374E",
"[ 	c #70AE94",
"} 	c #C1E0D0",
"| 	c #D1DFEB",
"1 	c #D4EADC",
"2 	c #D6EED9",
"3 	c #D8E6EA",
"4 	c #DADFF9",
"5 	c #D9DFF9",
"6 	c #D7E6E8",
"7 	c #D6EFD6",
"8 	c #C5ECBE",
"9 	c #76C869",
"0 	c #25463E",
"a 	c #1D174B",
"b 	c #1D1E46",
"c 	c #56A36B",
"d 	c #B3D1D4",
"e 	c #C3DCD9",
"f 	c #C8E1DA",
"g 	c #CDECCB",
"h 	c #CFEECB",
"i 	c #CFE6D9",
"j 	c #D0D9F4",
"k 	c #D0E1E6",
"l 	c #D1D9F6",
"m 	c #D2D8F7",
"n 	c #CFDCED",
"o 	c #CEE1E3",
"p 	c #D0EFCB",
"q 	c #CFEFC9",
"r 	c #CCEEC7",
"s 	c #B7E7AF",
"t 	c #58AD54",
"u 	c #1E2444",
"v 	c #1F2549",
"w 	c #7BCB73",
"x 	c #B8D6D1",
"y 	c #BCCDE8",
"z 	c #BEE1C7",
"A 	c #C2E0D0",
"B 	c #C3DFD3",
"C 	c #C5D6E6",
"D 	c #C8D0F6",
"E 	c #C8D1F6",
"F 	c #C9D2F6",
"G 	c #C6DCE0",
"H 	c #C4DFD7",
"I 	c #C5E5CD",
"J 	c #C7ECC1",
"K 	c #C5ECBF",
"L 	c #C3EBBC",
"M 	c #C0E9B9",
"N 	c #70C962",
"O 	c #1F333F",
"P 	c #1E2A44",
"Q 	c #7FC395",
"R 	c #ADD6C0",
"S 	c #B3BEF2",
"T 	c #B5C6E7",
"U 	c #B7C4F0",
"V 	c #B9C6EF",
"W 	c #B8D8CF",
"X 	c #BEC8F4",
"Y 	c #BFC9F4",
"Z 	c #C0CAF5",
"` 	c #C0D6DF",
" .	c #C0E1CD",
"..	c #BFD6DE",
"+.	c #BFD9D8",
"@.	c #C1E8BF",
"#.	c #C0E7BD",
"$.	c #BEE9B7",
"%.	c #BDE8B5",
"&.	c #BAE8B2",
"*.	c #B8E7B0",
"=.	c #79D26A",
"-.	c #1F2D42",
";.	c #1D0D50",
">.	c #6793B2",
",.	c #A2C7CA",
"'.	c #A9B9EC",
").	c #ACB9F1",
"!.	c #AEBBF2",
"~.	c #B1BDF2",
"{.	c #B4C0F0",
"].	c #B6C1F3",
"^.	c #B6C4EE",
"/.	c #B7D5CF",
"(.	c #B7DFBE",
"_.	c #BAE6B5",
":.	c #B6DDC1",
"<.	c #BAE7B4",
"[.	c #BBE8B3",
"}.	c #B9E7B2",
"|.	c #B9E7B1",
"1.	c #B5E6AC",
"2.	c #B3E5AB",
"3.	c #B1E5A8",
"4.	c #AEE4A5",
"5.	c #61C252",
"6.	c #1E0456",
"7.	c #4D5ABF",
"8.	c #9DACEF",
"9.	c #9FAFEF",
"0.	c #A3B1F0",
"a.	c #A4B3F0",
"b.	c #A7B5F1",
"c.	c #A9B7F1",
"d.	c #ABB8F1",
"e.	c #ABBFE6",
"f.	c #ACBFE8",
"g.	c #ACD2C5",
"h.	c #B3E5AA",
"i.	c #ADD8BB",
"j.	c #B4E6AB",
"k.	c #B2E5AA",
"l.	c #AFE4A6",
"m.	c #ADE4A4",
"n.	c #ACE3A3",
"o.	c #AAE3A0",
"p.	c #A7E29D",
"q.	c #A2E098",
"r.	c #44A73C",
"s.	c #1D1F47",
"t.	c #221067",
"u.	c #889BEC",
"v.	c #96A7EE",
"w.	c #98A9EE",
"x.	c #9BABEF",
"y.	c #9EADEF",
"z.	c #A1B0F0",
"A.	c #A1C1D0",
"B.	c #9FD1B3",
"C.	c #A3B9E3",
"D.	c #A3C6CD",
"E.	c #A4CFBE",
"F.	c #A4CCC4",
"G.	c #ABE3A2",
"H.	c #AAE3A1",
"I.	c #A9E29F",
"J.	c #A8E29E",
"K.	c #A6E29C",
"L.	c #A5E19B",
"M.	c #A1E096",
"N.	c #9EDF93",
"O.	c #85D777",
"P.	c #21413D",
"Q.	c #1E0557",
"R.	c #5568D0",
"S.	c #8C9FEC",
"T.	c #8EA1ED",
"U.	c #91A3ED",
"V.	c #93A5EE",
"W.	c #98A8EE",
"X.	c #99AAEF",
"Y.	c #99B2DE",
"Z.	c #96CBB0",
"`.	c #9BCDB2",
" +	c #9FDB9F",
".+	c #9FD9A2",
"++	c #A2E09B",
"@+	c #A4E19A",
"#+	c #A3E199",
"$+	c #A2E097",
"%+	c #A0E095",
"&+	c #9FDF94",
"*+	c #9BDE90",
"=+	c #9ADE8E",
"-+	c #97DD8C",
";+	c #95DC89",
">+	c #4EB740",
",+	c #1E1C4A",
"'+	c #1F0A61",
")+	c #7A90EA",
"!+	c #8599EB",
"~+	c #8A9DEC",
"{+	c #8EA0ED",
"]+	c #90A2ED",
"^+	c #93A4ED",
"/+	c #96D894",
"(+	c #9ADE8F",
"_+	c #9CDE91",
":+	c #9ADC92",
"<+	c #99DD8D",
"[+	c #96DC8A",
"}+	c #94DC88",
"|+	c #92DB86",
"1+	c #90DB84",
"2+	c #8EDA82",
"3+	c #77D368",
"4+	c #213C3D",
"5+	c #36379A",
"6+	c #8196EB",
"7+	c #8296EB",
"8+	c #8498EB",
"9+	c #869AEB",
"0+	c #87BAB4",
"a+	c #8AC3A7",
"b+	c #8ED689",
"c+	c #8ED291",
"d+	c #8DD292",
"e+	c #91D68D",
"f+	c #94DB87",
"g+	c #8ABCB6",
"h+	c #8AC3AA",
"i+	c #90D294",
"j+	c #92DB85",
"k+	c #91DB84",
"l+	c #8FDB83",
"m+	c #8DDA80",
"n+	c #8BD97E",
"o+	c #89D97C",
"p+	c #87D87A",
"q+	c #86D879",
"r+	c #2B6C47",
"s+	c #1D0454",
"t+	c #546EDC",
"u+	c #7B91EA",
"v+	c #6D86E8",
"w+	c #5E84D2",
"x+	c #59C74D",
"y+	c #5EC45C",
"z+	c #6C9AC0",
"A+	c #7F96E9",
"B+	c #82BBA9",
"C+	c #81BDA5",
"D+	c #89D87F",
"E+	c #86D285",
"F+	c #83AEC1",
"G+	c #86BDAA",
"H+	c #84C0A3",
"I+	c #8AD97D",
"J+	c #8AD97C",
"K+	c #88D87B",
"L+	c #4AAA63",
"M+	c #1E0555",
"N+	c #1E0758",
"O+	c #647DE1",
"P+	c #7F94EA",
"Q+	c #5D79E5",
"R+	c #3356DE",
"S+	c #284DDD",
"T+	c #208D5F",
"U+	c #218A66",
"V+	c #257590",
"W+	c #247196",
"X+	c #3759DF",
"Y+	c #4C8DA8",
"Z+	c #73B2A3",
"`+	c #7CA9C0",
" @	c #87D879",
".@	c #82CF83",
"+@	c #60CB4F",
"@@	c #6D83DE",
"#@	c #269557",
"$@	c #33BE1C",
"%@	c #34BF1D",
"&@	c #2AB12B",
"*@	c #2457C6",
"=@	c #294EDD",
"-@	c #4565E1",
";@	c #6894C5",
">@	c #7CADBA",
",@	c #80BAA7",
"'@	c #5B979C",
")@	c #1D1C4E",
"!@	c #4C69DB",
"~@	c #274BD5",
"{@	c #2562B1",
"]@	c #27A045",
"^@	c #2FB528",
"/@	c #2466A9",
"(@	c #269753",
"_@	c #267E80",
":@	c #236F98",
"<@	c #3C9F67",
"[@	c #6FD15F",
"}@	c #85D77A",
"|@	c #7FBE9F",
"1@	c #83D181",
"2@	c #84D47C",
"3@	c #81C792",
"4@	c #80C396",
"5@	c #84D37E",
"6@	c #7EACB9",
"7@	c #677FDF",
"8@	c #2548CF",
"9@	c #274BD7",
"0@	c #274DDC",
"a@	c #2BAA38",
"b@	c #30BB21",
"c@	c #239A4B",
"d@	c #2DB32A",
"e@	c #45C430",
"f@	c #6BD05B",
"g@	c #7DC78B",
"h@	c #7EB9A7",
"i@	c #7FBE9E",
"j@	c #7F99E1",
"k@	c #7F9AE0",
"l@	c #7FA3CF",
"m@	c #83D07A",
"n@	c #6E96C1",
"o@	c #3457DF",
"p@	c #2549D1",
"q@	c #2649D2",
"r@	c #2554CA",
"s@	c #31BE1B",
"t@	c #2CAC35",
"u@	c #237A84",
"v@	c #30BA21",
"w@	c #36BF21",
"x@	c #53C840",
"y@	c #67B586",
"z@	c #6D85E7",
"A@	c #6B84E7",
"B@	c #677EDA",
"C@	c #4DA277",
"D@	c #29719D",
"E@	c #1E075A",
"F@	c #216C86",
"G@	c #31B51B",
"H@	c #289854",
"I@	c #279951",
"J@	c #2EB42A",
"K@	c #2256B4",
"L@	c #2547CE",
"M@	c #2560B5",
"N@	c #255EB8",
"O@	c #2647D3",
"P@	c #257294",
"Q@	c #2EB521",
"R@	c #30B01A",
"S@	c #30B11A",
"T@	c #32BB1C",
"U@	c #2FB626",
"V@	c #2260A5",
"W@	c #279740",
"X@	c #2CAC1E",
"Y@	c #226D83",
"Z@	c #222390",
"`@	c #27925D",
" #	c #30B21B",
".#	c #30B31B",
"+#	c #31B41B",
"@#	c #2BAB2E",
"##	c #218968",
"$#	c #217D7E",
"%#	c #23778A",
"&#	c #2366AA",
"*#	c #2EBB1D",
"=#	c #2FBA20",
"-#	c #32BE1C",
";#	c #25758F",
">#	c #263FC4",
",#	c #2555CA",
"'#	c #246B9F",
")#	c #267D82",
"!#	c #289657",
"~#	c #2DAE32",
"{#	c #255AC1",
"]#	c #1F0D65",
"^#	c #2260B2",
"/#	c #2EBA1F",
"(#	c #2BA540",
"_#	c #255BC0",
":#	c #2435B1",
"<#	c #235DB9",
"[#	c #2DAF30",
"}#	c #2643CB",
"|#	c #268476",
"1#	c #278477",
"2#	c #1E075B",
"3#	c #264BD9",
"4#	c #2558C6",
"5#	c #30BA22",
"6#	c #29A049",
"7#	c #257295",
"8#	c #245CBB",
"9#	c #2558C4",
"0#	c #2FB726",
"a#	c #268F62",
"b#	c #257C83",
"c#	c #29A73B",
"d#	c #2750D5",
"e#	c #265CBD",
"f#	c #258572",
"g#	c #274DDB",
"h#	c #259653",
"i#	c #256BA4",
"j#	c #256BA1",
"k#	c #32BD1D",
"l#	c #258C65",
"m#	c #2654CC",
"n#	c #248671",
"o#	c #2BB02E",
"p#	c #2AA73D",
"q#	c #257989",
"                      . + @ # $ % # & * =                       ",
"                  - ; > , ' ) ! ~ { ] ^ / ( _                   ",
"              : < [ } | 1 2 3 4 4 4 5 6 7 8 9 0 a               ",
"            b c d e f g h i j k l m n o p q r s t u             ",
"          v w x y z A B C D E F F F G H I J K L M N O           ",
"        P Q R S T U V W X Y Z `  ...+.@.#.M $.%.&.*.=.-.        ",
"      ;.>.,.'.).!.~.S {.].^./.(._.:.<.[.}.|.s 1.2.3.4.5.u       ",
"    6.7.8.9.0.a.b.c.d.e.f.g.h.i.j.j.j.2.k.3.l.m.n.o.p.q.r.s.    ",
"    t.u.v.w.x.y.9.z.A.B.C.D.E.F.G.n.n.G.H.I.J.K.L.q.M.N.O.P.    ",
"  Q.R.S.T.U.V.v.W.X.Y.Z.`. +.+++@+@+@+#+q.$+%+&+N.*+=+-+;+>+,+  ",
"  '+)+!+u.~+S.{+]+U.^+/+(+*+*+_+_+_+:+*+(+=+<+-+[+}+|+1+2+3+4+  ",
"  5+6+6+6+7+8+9+u.0+a+b+c+d+e+}+f+g+h+i+|+j+k+l+2+m+n+o+p+q+r+  ",
"s+t+6+6+6+6+u+v+w+x+y+z+A+B+C+D+E+F+G+H+I+J+o+K+p+p+p+p+p+p+L+M+",
"N+O+6+P+Q+R+S+S+S+T+U+V+W+X+Y+Z+`+q+ @p+p+p+p+p+p+p+p+p+p+.@+@: ",
"# @@v+R+S+S+S+S+#@$@%@%@&@*@S+=@-@;@>@p+p+p+p+p+p+p+p+p+p+,@'@)@",
"% !@~@S+S+S+{@]@$@%@%@%@%@^@/@(@_@:@<@[@p+}@|@1@2@3@4@5@p+6@7@% ",
"% S+8@9@S+0@a@%@%@%@%@%@%@%@b@%@%@%@c@d@e@f@g@h@i@j@k@l@m@n@o@% ",
"# S+S+p@q@r@s@%@%@%@%@%@%@%@%@%@%@%@t@u@v@%@w@x@y@z@A@B@C@D@S+# ",
"E@S+S+S+9@F@G@%@%@%@%@%@%@%@%@%@%@%@%@H@I@%@%@J@K@L@L@S+M@N@S+E@",
"Q.O@S+S+S+P@Q@R@R@S@T@%@%@%@%@%@%@%@%@U@V@W@X@Y@9@S+S+S+S+S+O@Q.",
"  Z@S+S+S+S+`@%@%@%@G@ # # #.#+#+#+#.# #@###$#%#S+S+S+S+S+S+Z@  ",
"  '+S+S+S+S+&#*#%@%@%@%@%@%@%@%@%@%@%@%@%@=#-#;#S+S+S+S+S+S+'+  ",
"  Q.>#S+S+S+S+,#'#)#!#-#%@%@%@%@%@%@%@%@%@%@~#{#S+S+S+S+S+>#Q.  ",
"    ]#S+S+S+S+S+S+S+S+^#/#%@%@%@%@%@%@%@%@(#_#S+S+S+S+S+S+]#    ",
"    6.:#S+S+S+S+S+S+S+<#-#%@%@%@%@%@%@%@[#_#S+S+S+S+S+S+:#6.    ",
"      6.}#S+S+S+S+S+S+S+|#%@%@%@%@%@%@%@1#S+S+S+S+S+S+}#6.      ",
"        2#3#S+S+S+S+S+S+4#5#%@%@%@%@%@%@6#S+7#8#S+S+3#2#        ",
"          2#}#S+S+S+S+S+9#0#%@%@%@%@%@%@a#b#c#d#S+}#2#          ",
"            6.:#S+S+S+S+e#[#%@%@%@%@%@f#g#h#i#S+:#6.            ",
"              6.]#>#S+S+S+j#k#%@%@$@l#m#S+g#>#]#6.              ",
"                  Q.'+Z@O@S+n#o#p#q#S+O@Z@'+Q.                  ",
"                        Q.E@# % % # E@Q.                        "};
