/* XPM */
static char * poedit_status_cat_mid_xpm[] = {
"16 16 18 1",
" 	c None",
".	c #848484",
"+	c #646464",
"@	c #FFFFFF",
"#	c #040404",
"$	c #9A9A9A",
"%	c #4F5A4F",
"&	c #6F6F6F",
"*	c #8F8F8F",
"=	c #4F444F",
"-	c #3A3A3A",
";	c #6F6F04",
">	c #FAFAFA",
",	c #FAFA8F",
"'	c #DADA04",
")	c #8F9A04",
"!	c #1A4F04",
"~	c #4FDA04",
".++++++++++++++.",
"@.+#$%########+@",
"@@+#$&########+@",
"@.+#*&=#####-#+@",
".+##*&%#####=##.",
"+###*%###;;####-",
".+##.%##>,')##-.",
"@.+#.%#,,,''##+@",
"@@+#.&#)''')##+@",
"@.+#.&=#)')#-#+@",
".+##.&%#####=##.",
"+###.%###!!####-",
".+##.%##~!!!##-.",
"@.+#.%#!!!!!##+@",
"@@+#.&#!!!!!##+@",
"@@+++++++++++++@"};
