/* XPM */
static char * poedit_update_xpm[] = {
"20 20 14 1",
" 	c None",
".	c #AAAAAA",
"+	c #868686",
"@	c #6E6E6E",
"#	c #000000",
"$	c #323232",
"%	c #B6B6B6",
"&	c #565656",
"*	c #C2C2C2",
"=	c #DADADA",
"-	c #CECECE",
";	c #F2F2F2",
">	c #E6E6E6",
",	c #929292",
"       .+@@+.       ",
"    ...+#$$#+...    ",
"   %&+.+$**$+.+&%   ",
"  %$##+&$==$&+##$%  ",
" .&#.-$#;;;;#$-.#&. ",
" .+#->;;;;;;;;>-#+. ",
" ..+$;;;;;;;;;;$+.. ",
".++&#;;;;;;;;;;#&++.",
"+#$$>;;;,$$,;;>>$$#+",
"@$*>>;;;$##$;;>==*$@",
"@$*>>>;;$##$;>>==*$@",
"+#$$>>>;,$$,>>==$$#+",
".++&#>>>>>>>>==#&++.",
" ..+$=>>>>>====$+.. ",
" .+#-==========-#+. ",
" .&#.-$#====#$-.#&. ",
"  %$##+&$==$&+##$%  ",
"   %&+.+$**$+.+&%   ",
"    ...+#$$#+...    ",
"       .+@@+.       "};
