/* XPM */
static char * poedit_status_cat_ok_xpm[] = {
"16 16 17 1",
" 	c None",
".	c #FFFFFF",
"+	c #646464",
"@	c #848484",
"#	c #040404",
"$	c #8F8F8F",
"%	c #6F6F6F",
"&	c #4F444F",
"*	c #3A3A3A",
"=	c #4F5A4F",
"-	c #4F4F04",
";	c #DADA04",
">	c #246F04",
",	c #FAFAFA",
"'	c #4FFA4F",
")	c #4FDA04",
"!	c #049A04",
"..++++++++++++..",
".@+#$%&#####*#+.",
"@+##$%=#####=##@",
"+###$=###--####=",
"@+##@=##;---##=@",
".@+#@=#-----##+.",
"..+#@%#-----##+.",
".@+#@%&#---#*#+.",
"@+##@%=#####=##@",
"+###@=###>>####=",
"@+##@=##,')!##=@",
".@+#@=#'''))##+.",
"..+#@%#!)))!##+.",
"..+#+%&#>!>#&#+.",
"..@+##########+.",
"....++++++++++.."};
