/* XPM */
static char * poedit_status_modified_xpm[] = {
"16 16 10 1",
" 	c None",
".	c #848684",
"+	c #040404",
"@	c #4F454F",
"#	c #BAB5BA",
"$	c #4F584F",
"%	c #047424",
"&	c #04BE04",
"*	c #FADAFA",
"=	c #04992F",
"                ",
"                ",
"                ",
"                ",
"      .+@#      ",
"     $%&&+#     ",
"    .%*&&=+#    ",
"    +&&&&&%.    ",
"    @&&&&=%#    ",
"    #+&&=%$     ",
"     #+%%$      ",
"      #.#       ",
"                ",
"                ",
"                ",
"                "};
