/* XPM */
static char * poedit_quotes_xpm[] = {
"20 20 24 1",
" 	c None",
".	c #B6B6B6",
"+	c #AAAAAA",
"@	c #868686",
"#	c #6E6E6E",
"$	c #4A4A4A",
"%	c #323232",
"&	c #000000",
"*	c #505000",
"=	c #565656",
"-	c #737300",
";	c #B9B900",
">	c #DCDC00",
",	c #FFFF25",
"'	c #FFFF6B",
")	c #FFAA47",
"!	c #FFC753",
"~	c #FF5523",
"{	c #FF0000",
"]	c #FF1D0C",
"^	c #FF3917",
"/	c #FFE35F",
"(	c #FF722F",
"_	c #FEFE00",
"     ..+@##@+..     ",
"    .@$%&**&%$@.    ",
"   .=&-;>>>>;-&=.   ",
"  .=&>,,'''',,>&=.  ",
" .=&>,'''''''',>&=. ",
".@&>,'''''''''',>&@.",
".$-,'')!'''')!'',-$.",
"+%;,'~{{)''~{{)',;%+",
"@&>''{{{]''{{{]''>&@",
"#*>''^{{{''^{{{''>*#",
"#*>''/)~{''/)~{''>*#",
"@&>''''^(''''^(''>&@",
"+%;,''!]/'''!]/',;%+",
".$-,'/^/'''/^/'',-$.",
".@&>,/'''''/''',>&@.",
" .=&>,'''''''',>&=. ",
"  .=&>,_''''_,>&=.  ",
"   .=&-;>>>>;-&=.   ",
"    .@$%&**&%$@.    ",
"     ..+@##@+..     "};
