/* XPM */
static char *poedit_status_modified_xpm[] = {
/* width height num_colors chars_per_pixel */
"    16    16       16            1",
/* colors */
"` c None",
". c #848684",
"# c #040404",
"a c #4f454f",
"b c #bab5ba",
"c c #4f584f",
"d c #047424",
"e c #04be04",
"f c #fadafa",
"g c #04992f",
"h c #000084",
"i c #de1200",
"j c #420000",
"k c #000000",
"l c #000068",
"m c #de1200",
/* pixels */
"````````````````",
"````````````````",
"````````````````",
"``````####``````",
"`````#...b#`````",
"````#.gee.b#````",
"```#.gfeeg.b#```",
"```#.eeeeedb#```",
"```#.eeeegdb#```",
"```#..eegd.b#```",
"````#b.dd.b#````",
"`````#bbbb#`````",
"``````####``````",
"````````````````",
"````````````````",
"````````````````"
};
