/* XPM */
static char * poedit_xpm[] = {
"20 20 26 1",
" 	c None",
".	c #FFFFFF",
"+	c #B6B6B6",
"@	c #AAAAAA",
"#	c #868686",
"$	c #48FFFF",
"%	c #48B8FF",
"&	c #25AAFF",
"*	c #0092DC",
"=	c #007AB9",
"-	c #006296",
";	c #C5AA00",
">	c #800000",
",	c #6E6E6E",
"'	c #565656",
")	c #4A4A4A",
"!	c #004A73",
"~	c #00734A",
"{	c #005050",
"]	c #003250",
"^	c #626200",
"/	c #4A4A00",
"(	c #3E3E3E",
"_	c #323232",
":	c #323200",
"<	c #000000",
"     ++@#,,#@++     ",
"    +#)_<''<_)#+    ",
"   +'<_*%$%%~:<'+   ",
"  +'<;^;~%%^;^^<'+  ",
" +'<;^;^$&~;^^^^<'+ ",
"+#<;;^~$&%~~&^^^/<#+",
"+);;^^$&%%%&%&^^/:)+",
"@_;^~^&$&&&^^^^//:_@",
"#<^~%^%%%%^;^^//::<#",
",(^%$%%%%%~;;^^/:!],",
",(/^%%%%%&^;^^/:=!],",
"#<^~%%%*&*&^^^:*=]<#",
"@_/^%&*&*&**^^:=!]_@",
"+):^~********^/=]])+",
"+#</~*~*=*=*#^{!]<#+",
" +'<]~~#===+.#:]<'+ ",
"  +'<]_++.++#!]<'+  ",
"   +'<]_...+#]<'+   ",
"    +#)_<__<_)#+    ",
"     ++@#,,#@++     "};
