<?xml version="1.0" encoding="UTF-8"?>
<!--Generator: Apple Native CoreSVG 341-->
<!DOCTYPE svg
PUBLIC "-//W3C//DTD SVG 1.1//EN"
       "http://www.w3.org/Graphics/SVG/1.1/DTD/svg11.dtd">
<svg version="1.1" xmlns="http://www.w3.org/2000/svg" xmlns:xlink="http://www.w3.org/1999/xlink" viewBox="0 0 3300 2200">
 <!--glyph: "", point size: 100.0, font version: "20.0d10e1", template writer version: "138.0.0"-->
 <style>.monochrome-0 {-sfsymbols-motion-group:0;-sfsymbols-layer-tags:594c7935113c3183}

.multicolor-0:tintColor {-sfsymbols-motion-group:0;-sfsymbols-layer-tags:594c7935113c3183}

.hierarchical-0:primary {-sfsymbols-motion-group:0;-sfsymbols-layer-tags:594c7935113c3183}

.SFSymbolsPreviewWireframe {fill:none;opacity:1.0;stroke:black;stroke-width:0.5}
</style>
 <g id="Notes">
  <rect height="2200" id="artboard" style="fill:white;opacity:1" width="3300" x="0" y="0"/>
  <line style="fill:none;stroke:black;opacity:1;stroke-width:0.5;" x1="263" x2="3036" y1="292" y2="292"/>
  <text style="stroke:none;fill:black;font-family:sans-serif;font-size:13;font-weight:bold;" transform="matrix(1 0 0 1 263 322)">Weight/Scale Variations</text>
  <text style="stroke:none;fill:black;font-family:sans-serif;font-size:13;text-anchor:middle;" transform="matrix(1 0 0 1 559.711 322)">Ultralight</text>
  <text style="stroke:none;fill:black;font-family:sans-serif;font-size:13;text-anchor:middle;" transform="matrix(1 0 0 1 856.422 322)">Thin</text>
  <text style="stroke:none;fill:black;font-family:sans-serif;font-size:13;text-anchor:middle;" transform="matrix(1 0 0 1 1153.13 322)">Light</text>
  <text style="stroke:none;fill:black;font-family:sans-serif;font-size:13;text-anchor:middle;" transform="matrix(1 0 0 1 1449.84 322)">Regular</text>
  <text style="stroke:none;fill:black;font-family:sans-serif;font-size:13;text-anchor:middle;" transform="matrix(1 0 0 1 1746.56 322)">Medium</text>
  <text style="stroke:none;fill:black;font-family:sans-serif;font-size:13;text-anchor:middle;" transform="matrix(1 0 0 1 2043.27 322)">Semibold</text>
  <text style="stroke:none;fill:black;font-family:sans-serif;font-size:13;text-anchor:middle;" transform="matrix(1 0 0 1 2339.98 322)">Bold</text>
  <text style="stroke:none;fill:black;font-family:sans-serif;font-size:13;text-anchor:middle;" transform="matrix(1 0 0 1 2636.69 322)">Heavy</text>
  <text style="stroke:none;fill:black;font-family:sans-serif;font-size:13;text-anchor:middle;" transform="matrix(1 0 0 1 2933.4 322)">Black</text>
  <line style="fill:none;stroke:black;opacity:1;stroke-width:0.5;" x1="263" x2="3036" y1="1903" y2="1903"/>
  <g transform="matrix(0.2 0 0 0.2 263 1933)">
   <path d="m46.2402 4.15039c21.7773 0 39.4531-17.627 39.4531-39.4043s-17.6758-39.4043-39.4531-39.4043c-21.7285 0-39.4043 17.627-39.4043 39.4043s17.6758 39.4043 39.4043 39.4043Zm0-7.42188c-17.6758 0-31.9336-14.3066-31.9336-31.9824s14.2578-31.9824 31.9336-31.9824 31.9824 14.3066 31.9824 31.9824-14.3066 31.9824-31.9824 31.9824Zm-17.9688-31.9824c0 2.14844 1.51367 3.61328 3.75977 3.61328h10.498v10.5957c0 2.19727 1.46484 3.71094 3.61328 3.71094 2.24609 0 3.71094-1.51367 3.71094-3.71094v-10.5957h10.5957c2.19727 0 3.71094-1.46484 3.71094-3.61328 0-2.19727-1.51367-3.71094-3.71094-3.71094h-10.5957v-10.5469c0-2.24609-1.46484-3.75977-3.71094-3.75977-2.14844 0-3.61328 1.51367-3.61328 3.75977v10.5469h-10.498c-2.24609 0-3.75977 1.51367-3.75977 3.71094Z"/>
  </g>
  <g transform="matrix(0.2 0 0 0.2 281.506 1933)">
   <path d="m58.5449 14.5508c27.4902 0 49.8047-22.3145 49.8047-49.8047s-22.3145-49.8047-49.8047-49.8047-49.8047 22.3145-49.8047 49.8047 22.3145 49.8047 49.8047 49.8047Zm0-8.30078c-22.9492 0-41.5039-18.5547-41.5039-41.5039s18.5547-41.5039 41.5039-41.5039 41.5039 18.5547 41.5039 41.5039-18.5547 41.5039-41.5039 41.5039Zm-22.6562-41.5039c0 2.39258 1.66016 4.00391 4.15039 4.00391h14.3555v14.4043c0 2.44141 1.66016 4.15039 4.05273 4.15039 2.44141 0 4.15039-1.66016 4.15039-4.15039v-14.4043h14.4043c2.44141 0 4.15039-1.61133 4.15039-4.00391 0-2.44141-1.70898-4.15039-4.15039-4.15039h-14.4043v-14.3555c0-2.49023-1.70898-4.19922-4.15039-4.19922-2.39258 0-4.05273 1.70898-4.05273 4.19922v14.3555h-14.3555c-2.49023 0-4.15039 1.70898-4.15039 4.15039Z"/>
  </g>
  <g transform="matrix(0.2 0 0 0.2 304.924 1933)">
   <path d="m74.8535 28.3203c35.1074 0 63.623-28.4668 63.623-63.5742s-28.5156-63.623-63.623-63.623-63.5742 28.5156-63.5742 63.623 28.4668 63.5742 63.5742 63.5742Zm0-9.08203c-30.127 0-54.4922-24.3652-54.4922-54.4922s24.3652-54.4922 54.4922-54.4922 54.4922 24.3652 54.4922 54.4922-24.3652 54.4922-54.4922 54.4922Zm-28.8574-54.4922c0 2.58789 1.85547 4.39453 4.58984 4.39453h19.7266v19.7754c0 2.68555 1.85547 4.58984 4.44336 4.58984 2.68555 0 4.54102-1.85547 4.54102-4.58984v-19.7754h19.7754c2.68555 0 4.58984-1.80664 4.58984-4.39453 0-2.73438-1.85547-4.58984-4.58984-4.58984h-19.7754v-19.7266c0-2.73438-1.85547-4.63867-4.54102-4.63867-2.58789 0-4.44336 1.9043-4.44336 4.63867v19.7266h-19.7266c-2.73438 0-4.58984 1.85547-4.58984 4.58984Z"/>
  </g>
  <text style="stroke:none;fill:black;font-family:sans-serif;font-size:13;font-weight:bold;" transform="matrix(1 0 0 1 263 1953)">Design Variations</text>
  <text style="stroke:none;fill:black;font-family:sans-serif;font-size:13;" transform="matrix(1 0 0 1 263 1971)">Symbols are supported in up to nine weights and three scales.</text>
  <text style="stroke:none;fill:black;font-family:sans-serif;font-size:13;" transform="matrix(1 0 0 1 263 1989)">For optimal layout with text and other symbols, vertically align</text>
  <text style="stroke:none;fill:black;font-family:sans-serif;font-size:13;" transform="matrix(1 0 0 1 263 2007)">symbols with the adjacent text.</text>
  <line style="fill:none;stroke:#00AEEF;stroke-width:0.5;opacity:1.0;" x1="776" x2="776" y1="1919" y2="1933"/>
  <g transform="matrix(0.2 0 0 0.2 776 1933)">
   <path d="m16.5527 0.78125c2.58789 0 3.85742-0.976562 4.78516-3.71094l6.29883-17.2363h28.8086l6.29883 17.2363c0.927734 2.73438 2.19727 3.71094 4.73633 3.71094 2.58789 0 4.24805-1.5625 4.24805-4.00391 0-0.830078-0.146484-1.61133-0.537109-2.63672l-22.9004-60.9863c-1.12305-2.97852-3.125-4.49219-6.25-4.49219-3.02734 0-5.07812 1.46484-6.15234 4.44336l-22.9004 61.084c-0.390625 1.02539-0.537109 1.80664-0.537109 2.63672 0 2.44141 1.5625 3.95508 4.10156 3.95508Zm13.4766-28.3691 11.8652-32.8613h0.244141l11.8652 32.8613Z"/>
  </g>
  <line style="fill:none;stroke:#00AEEF;stroke-width:0.5;opacity:1.0;" x1="792.836" x2="792.836" y1="1919" y2="1933"/>
  <text style="stroke:none;fill:black;font-family:sans-serif;font-size:13;font-weight:bold;" transform="matrix(1 0 0 1 776 1953)">Margins</text>
  <text style="stroke:none;fill:black;font-family:sans-serif;font-size:13;" transform="matrix(1 0 0 1 776 1971)">Leading and trailing margins on the left and right side of each symbol</text>
  <text style="stroke:none;fill:black;font-family:sans-serif;font-size:13;" transform="matrix(1 0 0 1 776 1989)">can be adjusted by modifying the x-location of the margin guidelines.</text>
  <text style="stroke:none;fill:black;font-family:sans-serif;font-size:13;" transform="matrix(1 0 0 1 776 2007)">Modifications are automatically applied proportionally to all</text>
  <text style="stroke:none;fill:black;font-family:sans-serif;font-size:13;" transform="matrix(1 0 0 1 776 2025)">scales and weights.</text>
  <g transform="matrix(0.2 0 0 0.2 1289 1933)">
   <path d="m14.209 9.32617 8.49609 8.54492c4.29688 4.3457 9.22852 4.05273 13.8672-1.07422l53.4668-58.9355-4.83398-4.88281-53.0762 58.3984c-1.75781 2.00195-3.41797 2.49023-5.76172 0.146484l-5.85938-5.81055c-2.34375-2.29492-1.80664-4.00391 0.195312-5.81055l57.373-54.0039-4.88281-4.83398-57.959 54.4434c-4.93164 4.58984-5.32227 9.47266-1.02539 13.8184Zm32.0801-90.9668c-2.09961 2.05078-2.24609 4.93164-1.07422 6.88477 1.17188 1.80664 3.4668 2.97852 6.68945 2.14844 7.32422-1.70898 14.9414-2.00195 22.0703 2.68555l-2.92969 7.27539c-1.70898 4.15039-0.830078 7.08008 1.85547 9.81445l11.4746 11.5723c2.44141 2.44141 4.49219 2.53906 7.32422 2.05078l5.32227-0.976562 3.32031 3.36914-0.195312 2.7832c-0.195312 2.49023 0.439453 4.39453 2.88086 6.78711l3.80859 3.71094c2.39258 2.39258 5.46875 2.53906 7.8125 0.195312l14.5508-14.5996c2.34375-2.34375 2.24609-5.32227-0.146484-7.71484l-3.85742-3.80859c-2.39258-2.39258-4.24805-3.17383-6.64062-2.97852l-2.88086 0.244141-3.22266-3.17383 1.2207-5.61523c0.634766-2.83203-0.146484-5.0293-3.07617-7.95898l-10.9863-10.9375c-16.6992-16.6016-38.8672-16.2109-53.3203-1.75781Zm7.4707 1.85547c12.1582-8.88672 28.6133-7.37305 39.7461 3.75977l12.1582 12.0605c1.17188 1.17188 1.36719 2.09961 1.02539 3.80859l-1.61133 7.42188 7.51953 7.42188 4.93164-0.292969c1.26953-0.0488281 1.66016 0.0488281 2.63672 1.02539l2.88086 2.88086-12.207 12.207-2.88086-2.88086c-0.976562-0.976562-1.12305-1.36719-1.07422-2.68555l0.341797-4.88281-7.4707-7.42188-7.61719 1.26953c-1.61133 0.341797-2.34375 0.195312-3.56445-0.976562l-10.0098-10.0098c-1.26953-1.17188-1.41602-2.00195-0.634766-3.85742l4.39453-10.4492c-7.8125-7.27539-17.9688-10.4004-28.125-7.42188-0.78125 0.195312-1.07422-0.439453-0.439453-0.976562Z"/>
  </g>
  <text style="stroke:none;fill:black;font-family:sans-serif;font-size:13;font-weight:bold;" transform="matrix(1 0 0 1 1289 1953)">Exporting</text>
  <text style="stroke:none;fill:black;font-family:sans-serif;font-size:13;" transform="matrix(1 0 0 1 1289 1971)">Symbols should be outlined when exporting to ensure the</text>
  <text style="stroke:none;fill:black;font-family:sans-serif;font-size:13;" transform="matrix(1 0 0 1 1289 1989)">design is preserved when submitting to Xcode.</text>
  <text id="template-version" style="stroke:none;fill:black;font-family:sans-serif;font-size:13;text-anchor:end;" transform="matrix(1 0 0 1 3036 1933)">Template v.6.0</text>
  <text style="stroke:none;fill:black;font-family:sans-serif;font-size:13;text-anchor:end;" transform="matrix(1 0 0 1 3036 1951)">Requires Xcode 16 or greater</text>
  <text id="descriptive-name" style="stroke:none;fill:black;font-family:sans-serif;font-size:13;text-anchor:end;" transform="matrix(1 0 0 1 3036 1969)">Generated from poedit.sidebar</text>
  <text style="stroke:none;fill:black;font-family:sans-serif;font-size:13;text-anchor:end;" transform="matrix(1 0 0 1 3036 1987)">Typeset at 100.0 points</text>
  <text style="stroke:none;fill:black;font-family:sans-serif;font-size:13;" transform="matrix(1 0 0 1 263 726)">Small</text>
  <text style="stroke:none;fill:black;font-family:sans-serif;font-size:13;" transform="matrix(1 0 0 1 263 1156)">Medium</text>
  <text style="stroke:none;fill:black;font-family:sans-serif;font-size:13;" transform="matrix(1 0 0 1 263 1586)">Large</text>
 </g>
 <g id="Guides">
  <g id="H-reference" style="fill:#27AAE1;stroke:none;" transform="matrix(1 0 0 1 339 696)">
   <path d="M0.993654 0L3.63775 0L29.3281-67.1323L30.0303-67.1323L30.0303-70.459L28.1226-70.459ZM11.6885-24.4799L46.9815-24.4799L46.2315-26.7285L12.4385-26.7285ZM55.1196 0L57.7637 0L30.6382-70.459L29.4326-70.459L29.4326-67.1323Z"/>
  </g>
  <line id="Baseline-S" style="fill:none;stroke:#27AAE1;opacity:1;stroke-width:0.5;" x1="263" x2="3036" y1="696" y2="696"/>
  <line id="Capline-S" style="fill:none;stroke:#27AAE1;opacity:1;stroke-width:0.5;" x1="263" x2="3036" y1="625.541" y2="625.541"/>
  <g id="H-reference" style="fill:#27AAE1;stroke:none;" transform="matrix(1 0 0 1 339 1126)">
   <path d="M0.993654 0L3.63775 0L29.3281-67.1323L30.0303-67.1323L30.0303-70.459L28.1226-70.459ZM11.6885-24.4799L46.9815-24.4799L46.2315-26.7285L12.4385-26.7285ZM55.1196 0L57.7637 0L30.6382-70.459L29.4326-70.459L29.4326-67.1323Z"/>
  </g>
  <line id="Baseline-M" style="fill:none;stroke:#27AAE1;opacity:1;stroke-width:0.5;" x1="263" x2="3036" y1="1126" y2="1126"/>
  <line id="Capline-M" style="fill:none;stroke:#27AAE1;opacity:1;stroke-width:0.5;" x1="263" x2="3036" y1="1055.54" y2="1055.54"/>
  <g id="H-reference" style="fill:#27AAE1;stroke:none;" transform="matrix(1 0 0 1 339 1556)">
   <path d="M0.993654 0L3.63775 0L29.3281-67.1323L30.0303-67.1323L30.0303-70.459L28.1226-70.459ZM11.6885-24.4799L46.9815-24.4799L46.2315-26.7285L12.4385-26.7285ZM55.1196 0L57.7637 0L30.6382-70.459L29.4326-70.459L29.4326-67.1323Z"/>
  </g>
  <line id="Baseline-L" style="fill:none;stroke:#27AAE1;opacity:1;stroke-width:0.5;" x1="263" x2="3036" y1="1556" y2="1556"/>
  <line id="Capline-L" style="fill:none;stroke:#27AAE1;opacity:1;stroke-width:0.5;" x1="263" x2="3036" y1="1485.54" y2="1485.54"/>
  <line id="right-margin-Regular-M" style="fill:none;stroke:#00AEEF;stroke-width:0.5;opacity:1.0;" x1="1526.43" x2="1526.43" y1="1030.79" y2="1150.12"/>
  <line id="left-margin-Regular-M" style="fill:none;stroke:#00AEEF;stroke-width:0.5;opacity:1.0;" x1="1373.26" x2="1373.26" y1="1030.79" y2="1150.12"/>
 </g>
 <g id="Symbols">
  <g id="Black-L" transform="matrix(1 0 0 1 2834.82 1556)">
   <path class="monochrome-0 multicolor-0:tintColor hierarchical-0:primary SFSymbolsPreviewWireframe" d="M40.826-56.8011C40.826-68.2431 41.05-70.9841 41.751-72.3601C42.564-73.9561 43.862-75.2541 45.459-76.0681C46.834-76.7681 49.575-76.9921 61.018-76.9921L136.153-76.9921C147.596-76.9921 150.337-76.7681 151.712-76.0671C153.308-75.2541 154.606-73.9571 155.418-72.3611C156.121-70.9841 156.345-68.2431 156.345-56.8011L156.345-13.6921C156.345-2.2501 156.121 0.4909 155.42 1.8659C154.606 3.4639 153.308 4.7609 151.712 5.5749C150.337 6.2759 147.596 6.4999 136.153 6.4999L61.018 6.4999C49.575 6.4999 46.834 6.2759 45.459 5.5749C43.862 4.7609 42.564 3.4629 41.751 1.8669C41.05 0.4919 40.826-2.2491 40.826-13.6921L40.826-56.8011ZM18.77-56.8011L18.77-13.6921C18.77 2.1849 19.077 5.9509 22.098 11.8809C25.026 17.6269 29.699 22.2989 35.445 25.2269C41.374 28.2479 45.141 28.5559 61.018 28.5559L136.153 28.5559C152.03 28.5559 155.797 28.2479 161.726 25.2269C167.473 22.2989 172.145 17.6259 175.072 11.8789C178.093 5.9519 178.401 2.1859 178.401-13.6921L178.401-56.8011C178.401-72.6781 178.093-76.4451 175.071-82.3741C172.145-88.1191 167.473-92.7921 161.726-95.7201C155.796-98.7411 152.03-99.0491 136.153-99.0491L61.018-99.0491C45.141-99.0491 41.374-98.7411 35.445-95.7201C29.699-92.7921 25.026-88.1201 22.098-82.3731C19.077-76.4441 18.77-72.6781 18.77-56.8011ZM108.329-87.9221L108.329 17.4619L129.76 17.4619L129.76-87.9221L108.329-87.9221Z"/>
  </g>
  <g id="Heavy-L" transform="matrix(1 0 0 1 2539.15 1556)">
   <path class="monochrome-0 multicolor-0:tintColor hierarchical-0:primary SFSymbolsPreviewWireframe" d="M38.737-56.8011C38.737-68.4531 38.965-71.2431 39.776-72.8341C40.69-74.6271 42.147-76.0851 43.94-76.9981C45.531-77.8091 48.321-78.0371 59.974-78.0371L135.109-78.0371C146.762-78.0371 149.551-77.8091 151.142-76.9981C152.935-76.0851 154.393-74.6271 155.305-72.8351C156.117-71.2421 156.345-68.4531 156.345-56.8011L156.345-13.6921C156.345-2.0401 156.117 0.7499 155.307 2.3399C154.393 4.1349 152.935 5.5919 151.142 6.5059C149.551 7.3159 146.762 7.5439 135.109 7.5439L59.974 7.5439C48.321 7.5439 45.531 7.3159 43.94 6.5059C42.147 5.5919 40.69 4.1339 39.776 2.3409C38.965 0.7499 38.737-2.0391 38.737-13.6921L38.737-56.8011ZM18.77-56.8011L18.77-13.6921C18.77 1.9749 19.074 5.6929 21.985 11.4059C24.813 16.9559 29.325 21.4679 34.875 24.2959C40.589 27.2069 44.307 27.5109 59.974 27.5109L135.109 27.5109C150.776 27.5109 154.494 27.2069 160.207 24.2959C165.758 21.4679 170.27 16.9549 173.097 11.4049C176.008 5.6939 176.312 1.9749 176.312-13.6921L176.312-56.8011C176.312-72.4681 176.008-76.1861 173.096-81.9001C170.27-87.4481 165.758-91.9611 160.207-94.7891C154.494-97.7001 150.776-98.0041 135.109-98.0041L59.974-98.0041C44.307-98.0041 40.589-97.7001 34.875-94.7891C29.325-91.9611 24.813-87.4491 21.985-81.8991C19.074-76.1861 18.77-72.4681 18.77-56.8011ZM108.3-87.9221L108.3 17.4619L127.701 17.4619L127.701-87.9221L108.3-87.9221Z"/>
  </g>
  <g id="Bold-L" transform="matrix(1 0 0 1 2243.49 1556)">
   <path class="monochrome-0 multicolor-0:tintColor hierarchical-0:primary SFSymbolsPreviewWireframe" d="M36.648-56.8011C36.648-68.6631 36.879-71.5021 37.8-73.3081C38.814-75.2981 40.431-76.9161 42.421-77.9291C44.228-78.8501 47.066-79.0821 58.929-79.0821L134.064-79.0821C145.927-79.0821 148.765-78.8501 150.572-77.9291C152.561-76.9161 154.178-75.2981 155.191-73.3101C156.113-71.5011 156.345-68.6631 156.345-56.8011L156.345-13.6921C156.345-1.8301 156.113 1.0079 155.193 2.8149C154.178 4.8059 152.561 6.4229 150.572 7.4369C148.765 8.3569 145.927 8.5889 134.064 8.5889L58.929 8.5889C47.066 8.5889 44.228 8.3569 42.421 7.4369C40.431 6.4229 38.814 4.8049 37.8 2.8159C36.879 1.0089 36.648-1.8291 36.648-13.6921L36.648-56.8011ZM18.77-56.8011L18.77-13.6921C18.77 1.7649 19.07 5.4339 21.871 10.9319C24.599 16.2849 28.951 20.6379 34.305 23.3649C39.802 26.1669 43.472 26.4659 58.929 26.4659L134.064 26.4659C149.521 26.4659 153.19 26.1669 158.688 23.3649C164.042 20.6369 168.394 16.2849 171.121 10.9309C173.923 5.4349 174.223 1.7649 174.223-13.6921L174.223-56.8011C174.223-72.2581 173.923-75.9281 171.12-81.4261C168.394-86.7771 164.042-91.1301 158.688-93.8581C153.19-96.6591 149.521-96.9591 134.064-96.9591L58.929-96.9591C43.472-96.9591 39.802-96.6591 34.305-93.8581C28.951-91.1301 24.599-86.7781 21.871-81.4251C19.07-75.9271 18.77-72.2581 18.77-56.8011ZM108.27-87.9221L108.27 17.4619L125.641 17.4619L125.641-87.9221L108.27-87.9221Z"/>
  </g>
  <g id="Semibold-L" transform="matrix(1 0 0 1 1947.82 1556)">
   <path class="monochrome-0 multicolor-0:tintColor hierarchical-0:primary SFSymbolsPreviewWireframe" d="M34.558-56.8011C34.558-68.8731 34.794-71.7601 35.824-73.7831C36.938-75.9691 38.715-77.7461 40.902-78.8601C42.924-79.8911 45.811-80.1271 57.884-80.1271L133.019-80.1271C145.092-80.1271 147.979-79.8911 150.001-78.8601C152.187-77.7461 153.964-75.9691 155.077-73.7841C156.109-71.7601 156.345-68.8731 156.345-56.8011L156.345-13.6921C156.345-1.6201 156.109 1.2669 155.078 3.2889C153.964 5.4759 152.187 7.2539 150.001 8.3679C147.979 9.3979 145.092 9.6339 133.019 9.6339L57.884 9.6339C45.811 9.6339 42.924 9.3979 40.902 8.3679C38.715 7.2539 36.938 5.4759 35.824 3.2899C34.794 1.2679 34.558-1.6191 34.558-13.6921L34.558-56.8011ZM18.77-56.8011L18.77-13.6921C18.77 1.5549 19.066 5.1759 21.757 10.4579C24.385 15.6139 28.577 19.8069 33.734 22.4339C39.016 25.1259 42.637 25.4219 57.884 25.4219L133.019 25.4219C148.266 25.4219 151.887 25.1259 157.169 22.4349C162.326 19.8069 166.519 15.6139 169.145 10.4569C171.837 5.1759 172.133 1.5549 172.133-13.6921L172.133-56.8011C172.133-72.0481 171.837-75.6691 169.144-80.9511C166.519-86.1061 162.326-90.2991 157.169-92.9271C151.887-95.6191 148.266-95.9141 133.019-95.9141L57.884-95.9141C42.637-95.9141 39.016-95.6191 33.734-92.9271C28.577-90.3001 24.385-86.1071 21.757-80.9501C19.066-75.6681 18.77-72.0481 18.77-56.8011ZM108.241-87.9221L108.241 17.4619L123.581 17.4619L123.581-87.9221L108.241-87.9221Z"/>
  </g>
  <g id="Medium-L" transform="matrix(1 0 0 1 1652.16 1556)">
   <path class="monochrome-0 multicolor-0:tintColor hierarchical-0:primary SFSymbolsPreviewWireframe" d="M32.468-56.8011C32.468-69.0841 32.708-72.0191 33.848-74.2571C35.062-76.6401 37-78.5771 39.382-79.7911C41.62-80.9321 44.556-81.1711 56.839-81.1711L131.974-81.1711C144.257-81.1711 147.192-80.9321 149.43-79.7911C151.813-78.5771 153.75-76.6401 154.963-74.2581C156.105-72.0181 156.345-69.0831 156.345-56.8011L156.345-13.6921C156.345-1.4091 156.105 1.5259 154.964 3.7639C153.75 6.1469 151.813 8.0839 149.43 9.2979C147.192 10.4389 144.257 10.6789 131.974 10.6789L56.839 10.6789C44.556 10.6789 41.62 10.4389 39.382 9.2979C37 8.0839 35.062 6.1469 33.848 3.7639C32.708 1.5259 32.468-1.4091 32.468-13.6921L32.468-56.8011ZM18.77-56.8011L18.77-13.6921C18.77 1.3449 19.062 4.9169 21.643 9.9829C24.17 14.9429 28.203 18.9759 33.163 21.5039C38.23 24.0849 41.802 24.3769 56.839 24.3769L131.974 24.3769C147.011 24.3769 150.583 24.0849 155.649 21.5039C160.61 18.9759 164.643 14.9429 167.169 9.9819C169.751 4.9169 170.043 1.3449 170.043-13.6921L170.043-56.8011C170.043-71.8381 169.751-75.4101 167.169-80.4771C164.643-85.4361 160.61-89.4691 155.649-91.9961C150.583-94.5781 147.011-94.8701 131.974-94.8701L56.839-94.8701C41.802-94.8701 38.23-94.5781 33.163-91.9961C28.203-89.4691 24.17-85.4361 21.643-80.4761C19.062-75.4101 18.77-71.8381 18.77-56.8011ZM108.211-87.9221L108.211 17.4619L121.52 17.4619L121.52-87.9221L108.211-87.9221Z"/>
  </g>
  <g id="Regular-L" transform="matrix(1 0 0 1 1356.49 1556)">
   <path class="monochrome-0 multicolor-0:tintColor hierarchical-0:primary SFSymbolsPreviewWireframe" d="M30.378-56.8011C30.378-69.2941 30.622-72.2771 31.872-74.7311C33.187-77.3111 35.284-79.4081 37.863-80.7221C40.317-81.9721 43.301-82.2161 55.794-82.2161L130.929-82.2161C143.422-82.2161 146.406-81.9721 148.86-80.7221C151.439-79.4081 153.536-77.3111 154.849-74.7321C156.101-72.2771 156.345-69.2931 156.345-56.8011L156.345-13.6921C156.345-1.1991 156.101 1.7839 154.85 4.2379C153.536 6.8179 151.439 8.9149 148.86 10.2289C146.406 11.4799 143.422 11.7229 130.929 11.7229L55.794 11.7229C43.301 11.7229 40.317 11.4799 37.863 10.2289C35.284 8.9149 33.187 6.8179 31.872 4.2389C30.622 1.7849 30.378-1.1991 30.378-13.6921L30.378-56.8011ZM18.77-56.8011L18.77-13.6921C18.77 1.1349 19.057 4.6579 21.529 9.5089C23.956 14.2729 27.829 18.1449 32.593 20.5729C37.443 23.0439 40.967 23.3319 55.794 23.3319L130.929 23.3319C145.756 23.3319 149.279 23.0439 154.13 20.5729C158.894 18.1449 162.767 14.2719 165.193 9.5079C167.665 4.6589 167.953 1.1349 167.953-13.6921L167.953-56.8011C167.953-71.6281 167.665-75.1511 165.193-80.0021C162.767-84.7651 158.894-88.6381 154.13-91.0651C149.279-93.5371 145.756-93.8251 130.929-93.8251L55.794-93.8251C40.967-93.8251 37.443-93.5371 32.593-91.0651C27.829-88.6381 23.956-84.7651 21.529-80.0021C19.057-75.1511 18.77-71.6271 18.77-56.8011ZM108.181-87.9221L108.181 17.4619L119.46 17.4619L119.46-87.9221L108.181-87.9221Z"/>
  </g>
  <g id="Light-L" transform="matrix(1 0 0 1 1061.13 1556)">
   <path class="monochrome-0 multicolor-0:tintColor hierarchical-0:primary SFSymbolsPreviewWireframe" d="M27.67-56.8011C27.67-69.5661 27.919-72.6131 29.312-75.3461C30.756-78.1801 33.06-80.4851 35.894-81.9291C38.628-83.3221 41.674-83.5701 54.44-83.5701L129.575-83.5701C142.34-83.5701 145.387-83.3221 148.121-81.9291C150.955-80.4851 153.259-78.1801 154.702-75.3471C156.096-72.6121 156.345-69.5661 156.345-56.8011L156.345-13.6921C156.345-0.9271 156.096 2.1199 154.703 4.8529C153.259 7.6879 150.955 9.9919 148.121 11.4359C145.387 12.8289 142.34 13.0779 129.575 13.0779L54.44 13.0779C41.674 13.0779 38.628 12.8289 35.894 11.4359C33.06 9.9919 30.756 7.6879 29.312 4.8539C27.919 2.1199 27.67-0.9271 27.67-13.6921L27.67-56.8011ZM18.77-56.8011L18.77-13.6921C18.77 0.8619 19.053 4.3229 21.382 8.8939C23.679 13.4029 27.345 17.0689 31.854 19.3659C36.425 21.6949 39.885 21.9779 54.44 21.9779L129.575 21.9779C144.13 21.9779 147.59 21.6949 152.161 19.3659C156.67 17.0679 160.336 13.4019 162.633 8.8939C164.962 4.3229 165.245 0.8629 165.245-13.6921L165.245-56.8011C165.245-71.3551 164.962-74.8161 162.632-79.3871C160.336-83.8951 156.67-87.5611 152.161-89.8591C147.59-92.1881 144.13-92.4701 129.575-92.4701L54.44-92.4701C39.885-92.4701 36.425-92.1881 31.854-89.8591C27.345-87.5611 23.679-83.8961 21.382-79.3871C19.053-74.8161 18.77-71.3551 18.77-56.8011ZM108.143-87.9221L108.143 17.4619L116.79 17.4619L116.79-87.9221L108.143-87.9221Z"/>
  </g>
  <g id="Thin-L" transform="matrix(1 0 0 1 765.775 1556)">
   <path class="monochrome-0 multicolor-0:tintColor hierarchical-0:primary SFSymbolsPreviewWireframe" d="M24.962-56.8011C24.962-69.8381 25.216-72.9481 26.751-75.9611C28.325-79.0501 30.836-81.5621 33.925-83.1351C36.938-84.6711 40.048-84.9251 53.086-84.9251L128.221-84.9251C141.259-84.9251 144.368-84.6711 147.381-83.1351C150.471-81.5611 152.982-79.0501 154.555-75.9621C156.091-72.9481 156.345-69.8381 156.345-56.8011L156.345-13.6921C156.345-0.6551 156.091 2.4549 154.555 5.4679C152.982 8.5569 150.471 11.0689 147.381 12.6429C144.368 14.1779 141.259 14.4319 128.221 14.4319L53.086 14.4319C40.048 14.4319 36.938 14.1779 33.925 12.6429C30.836 11.0689 28.325 8.5569 26.751 5.4679C25.216 2.4549 24.962-0.6551 24.962-13.6921L24.962-56.8011ZM18.77-56.8011L18.77-13.6921C18.77 0.5899 19.048 3.9879 21.234 8.2789C23.402 12.5329 26.86 15.9919 31.114 18.1589C35.406 20.3459 38.803 20.6229 53.086 20.6229L128.221 20.6229C142.503 20.6229 145.901 20.3459 150.192 18.1589C154.447 15.9919 157.905 12.5329 160.072 8.2789C162.259 3.9879 162.536 0.5899 162.536-13.6921L162.536-56.8011C162.536-71.0831 162.259-74.4811 160.071-78.7721C157.905-83.0261 154.447-86.4841 150.192-88.6521C145.901-90.8391 142.503-91.1161 128.221-91.1161L53.086-91.1161C38.803-91.1161 35.406-90.8391 31.114-88.6521C26.86-86.4841 23.402-83.0261 21.234-78.7721C19.048-74.4811 18.77-71.0831 18.77-56.8011ZM108.105-87.9221L108.105 17.4619L114.12 17.4619L114.12-87.9221L108.105-87.9221Z"/>
  </g>
  <g id="Ultralight-L" transform="matrix(1 0 0 1 470.419 1556)">
   <path class="monochrome-0 multicolor-0:tintColor hierarchical-0:primary SFSymbolsPreviewWireframe" d="M22.252-56.8011C22.252-70.1101 22.511-73.2831 24.189-76.5761C25.893-79.9201 28.612-82.6381 31.955-84.3421C35.248-86.0201 38.421-86.2791 51.731-86.2791L126.866-86.2791C140.176-86.2791 143.349-86.0201 146.641-84.3421C149.985-82.6381 152.704-79.9201 154.407-76.5761C156.085-73.2831 156.345-70.1101 156.345-56.8011L156.345-13.6921C156.345-0.3821 156.085 2.7899 154.407 6.0829C152.704 9.4269 149.985 12.1459 146.641 13.8489C143.349 15.5269 140.176 15.7859 126.866 15.7859L51.731 15.7859C38.421 15.7859 35.248 15.5269 31.955 13.8489C28.612 12.1459 25.893 9.4269 24.189 6.0829C22.511 2.7909 22.252-0.3821 22.252-13.6921L22.252-56.8011ZM18.77-56.8011L18.77-13.6921C18.77 0.3179 19.042 3.6529 21.086 7.6639C23.124 11.6629 26.375 14.9149 30.374 16.9529C34.386 18.9969 37.721 19.2689 51.731 19.2689L126.866 19.2689C140.876 19.2689 144.211 18.9969 148.222 16.9529C152.222 14.9149 155.473 11.6629 157.51 7.6639C159.555 3.6529 159.827 0.3179 159.827-13.6921L159.827-56.8011C159.827-70.8111 159.555-74.1451 157.51-78.1571C155.473-82.1561 152.222-85.4071 148.222-87.4451C144.211-89.4891 140.876-89.7621 126.866-89.7621L51.731-89.7621C37.721-89.7621 34.386-89.4891 30.374-87.4451C26.375-85.4081 23.124-82.1561 21.086-78.1571C19.042-74.1451 18.77-70.8111 18.77-56.8011ZM108.066-87.9221L108.066 17.4619L111.449 17.4619L111.449-87.9221L108.066-87.9221Z"/>
  </g>
  <g id="Black-M" transform="matrix(1 0 0 1 2852.76 1126)">
   <path class="monochrome-0 multicolor-0:tintColor hierarchical-0:primary SFSymbolsPreviewWireframe" d="M35.868-51.9519C35.868-60.8219 36.041-62.9469 36.585-64.0129C37.215-65.2499 38.221-66.2569 39.459-66.8869C40.525-67.4299 42.65-67.6039 51.52-67.6039L109.764-67.6039C118.635-67.6039 120.76-67.4299 121.826-66.8869C123.063-66.2569 124.069-65.2509 124.699-64.0139C125.243-62.9459 125.417-60.8219 125.417-51.9519L125.417-18.5339C125.417-9.66389 125.243-7.53989 124.7-6.47389C124.069-5.23489 123.063-4.22889 121.826-3.59889C120.76-3.05489 118.635-2.88189 109.764-2.88189L51.52-2.88189C42.65-2.88189 40.525-3.05489 39.459-3.59889C38.221-4.22889 37.215-5.23489 36.585-6.47289C36.041-7.53889 35.868-9.66389 35.868-18.5339L35.868-51.9519ZM18.77-51.9519L18.77-18.5339C18.77-6.22589 19.008-3.30689 21.35 1.29011C23.62 5.74411 27.242 9.36611 31.696 11.6361C36.293 13.9781 39.212 14.2161 51.52 14.2161L109.764 14.2161C122.072 14.2161 124.992 13.9781 129.588 11.6361C134.043 9.36611 137.665 5.74411 139.935 1.28911C142.276-3.30589 142.515-6.22589 142.515-18.5339L142.515-51.9519C142.515-64.2599 142.276-67.1799 139.933-71.7759C137.665-76.2289 134.043-79.8519 129.588-82.1219C124.992-84.4629 122.072-84.7019 109.764-84.7019L51.52-84.7019C39.212-84.7019 36.293-84.4629 31.696-82.1219C27.242-79.8519 23.62-76.2299 21.35-71.7749C19.008-67.1789 18.77-64.2589 18.77-51.9519ZM88.196-76.0759L88.196 5.61611L104.809 5.61611L104.809-76.0759L88.196-76.0759Z"/>
  </g>
  <g id="Heavy-M" transform="matrix(1 0 0 1 2556.86 1126)">
   <path class="monochrome-0 multicolor-0:tintColor hierarchical-0:primary SFSymbolsPreviewWireframe" d="M34.248-51.9519C34.248-60.9849 34.424-63.1469 35.053-64.3809C35.761-65.7709 36.891-66.9009 38.281-67.6089C39.514-68.2369 41.677-68.4139 50.71-68.4139L108.954-68.4139C117.988-68.4139 120.15-68.2369 121.384-67.6089C122.773-66.9009 123.903-65.7709 124.611-64.3819C125.24-63.1469 125.417-60.9839 125.417-51.9519L125.417-18.5339C125.417-9.50089 125.24-7.33889 124.612-6.10589C123.903-4.71489 122.773-3.58489 121.384-2.87689C120.15-2.24789 117.988-2.07189 108.954-2.07189L50.71-2.07189C41.677-2.07189 39.514-2.24789 38.281-2.87689C36.891-3.58489 35.761-4.71489 35.053-6.10489C34.424-7.33789 34.248-9.50089 34.248-18.5339L34.248-51.9519ZM18.77-51.9519L18.77-18.5339C18.77-6.38889 19.005-3.50689 21.262 0.922105C23.454 5.22411 26.952 8.72211 31.254 10.9141C35.683 13.1711 38.565 13.4061 50.71 13.4061L108.954 13.4061C121.099 13.4061 123.982 13.1711 128.411 10.9141C132.713 8.72211 136.211 5.22411 138.403 0.921105C140.659-3.50689 140.895-6.38889 140.895-18.5339L140.895-51.9519C140.895-64.0969 140.659-66.9789 138.402-71.4089C136.211-75.7089 132.713-79.2079 128.411-81.3999C123.982-83.6569 121.099-83.8919 108.954-83.8919L50.71-83.8919C38.565-83.8919 35.683-83.6569 31.254-81.3999C26.952-79.2079 23.454-75.7099 21.262-71.4079C19.005-66.9789 18.77-64.0969 18.77-51.9519ZM88.173-76.0759L88.173 5.61611L103.212 5.61611L103.212-76.0759L88.173-76.0759Z"/>
  </g>
  <g id="Bold-M" transform="matrix(1 0 0 1 2260.96 1126)">
   <path class="monochrome-0 multicolor-0:tintColor hierarchical-0:primary SFSymbolsPreviewWireframe" d="M32.629-51.9519C32.629-61.1479 32.809-63.3479 33.522-64.7479C34.308-66.2909 35.562-67.5449 37.104-68.3299C38.505-69.0439 40.705-69.2239 49.901-69.2239L108.145-69.2239C117.341-69.2239 119.542-69.0439 120.942-68.3299C122.484-67.5449 123.738-66.2909 124.523-64.7489C125.238-63.3469 125.418-61.1469 125.418-51.9519L125.418-18.5339C125.418-9.33789 125.238-7.13789 124.524-5.73789C123.738-4.19489 122.484-2.94089 120.942-2.15489C119.542-1.44189 117.341-1.26189 108.145-1.26189L49.901-1.26189C40.705-1.26189 38.505-1.44189 37.104-2.15489C35.562-2.94089 34.308-4.19489 33.522-5.73689C32.809-7.13789 32.629-9.33789 32.629-18.5339L32.629-51.9519ZM18.77-51.9519L18.77-18.5339C18.77-6.55189 19.003-3.70789 21.174 0.554105C23.289 4.70411 26.663 8.07811 30.813 10.1931C35.075 12.3641 37.919 12.5971 49.901 12.5971L108.145 12.5971C120.128 12.5971 122.972 12.3641 127.234 10.1931C131.384 8.07811 134.758 4.70411 136.872 0.553105C139.044-3.70689 139.276-6.55189 139.276-18.5339L139.276-51.9519C139.276-63.9339 139.044-66.7789 136.871-71.0409C134.758-75.1889 131.384-78.5639 127.234-80.6779C122.972-82.8499 120.128-83.0819 108.145-83.0819L49.901-83.0819C37.919-83.0819 35.075-82.8499 30.813-80.6779C26.663-78.5639 23.289-75.1899 21.174-71.0399C19.003-66.7779 18.77-63.9339 18.77-51.9519ZM88.151-76.0759L88.151 5.61611L101.616 5.61611L101.616-76.0759L88.151-76.0759Z"/>
  </g>
  <g id="Semibold-M" transform="matrix(1 0 0 1 1965.06 1126)">
   <path class="monochrome-0 multicolor-0:tintColor hierarchical-0:primary SFSymbolsPreviewWireframe" d="M31.009-51.9519C31.009-61.3099 31.192-63.5479 31.991-65.1159C32.854-66.8109 34.232-68.1889 35.927-69.0519C37.494-69.8509 39.732-70.0339 49.091-70.0339L107.335-70.0339C116.694-70.0339 118.932-69.8509 120.5-69.0519C122.195-68.1889 123.572-66.8109 124.435-65.1169C125.235-63.5479 125.418-61.3099 125.418-51.9519L125.418-18.5339C125.418-9.17589 125.235-6.93789 124.436-5.36989C123.572-3.67489 122.195-2.29689 120.5-1.43389C118.932-0.634895 116.694-0.451895 107.335-0.451895L49.091-0.451895C39.732-0.451895 37.494-0.634895 35.927-1.43389C34.232-2.29689 32.854-3.67489 31.991-5.36989C31.192-6.93689 31.009-9.17489 31.009-18.5339L31.009-51.9519ZM18.77-51.9519L18.77-18.5339C18.77-6.71489 19-3.90789 21.086 0.187105C23.123 4.18411 26.373 7.43411 30.37 9.47111C34.465 11.5571 37.272 11.7871 49.091 11.7871L107.335 11.7871C119.155 11.7871 121.962 11.5571 126.056 9.47111C130.054 7.43411 133.304 4.18411 135.34 0.186105C137.427-3.90789 137.656-6.71489 137.656-18.5339L137.656-51.9519C137.656-63.7709 137.427-66.5779 135.34-70.6729C133.304-74.6689 130.054-77.9199 126.056-79.9569C121.962-82.0429 119.155-82.2719 107.335-82.2719L49.091-82.2719C37.272-82.2719 34.465-82.0429 30.37-79.9569C26.373-77.9199 23.123-74.6699 21.086-70.6719C19-66.5779 18.77-63.7709 18.77-51.9519ZM88.127-76.0759L88.127 5.61611L100.019 5.61611L100.019-76.0759L88.127-76.0759Z"/>
  </g>
  <g id="Medium-M" transform="matrix(1 0 0 1 1669.16 1126)">
   <path class="monochrome-0 multicolor-0:tintColor hierarchical-0:primary SFSymbolsPreviewWireframe" d="M29.389-51.9519C29.389-61.4729 29.575-63.7489 30.459-65.4839C31.4-67.3309 32.902-68.8329 34.749-69.7739C36.484-70.6579 38.759-70.8439 48.281-70.8439L106.525-70.8439C116.047-70.8439 118.323-70.6579 120.058-69.7739C121.905-68.8329 123.406-67.3309 124.347-65.4839C125.232-63.7479 125.418-61.4729 125.418-51.9519L125.418-18.5339C125.418-9.01289 125.232-6.73689 124.347-5.00289C123.406-3.15489 121.905-1.65289 120.058-0.711895C118.323 0.172105 116.047 0.358105 106.525 0.358105L48.281 0.358105C38.759 0.358105 36.484 0.172105 34.749-0.711895C32.902-1.65289 31.4-3.15489 30.459-5.00189C29.575-6.73689 29.389-9.01189 29.389-18.5339L29.389-51.9519ZM18.77-51.9519L18.77-18.5339C18.77-6.87789 18.997-4.10889 20.998-0.180895C22.957 3.66411 26.083 6.79011 29.928 8.74911C33.855 10.7501 36.625 10.9771 48.281 10.9771L106.525 10.9771C118.182 10.9771 120.951 10.7501 124.878 8.74911C128.724 6.79011 131.85 3.66411 133.809-0.181895C135.81-4.10789 136.036-6.87689 136.036-18.5339L136.036-51.9519C136.036-63.6079 135.81-66.3779 133.808-70.3049C131.85-74.1489 128.724-77.2759 124.878-79.2349C120.951-81.2359 118.182-81.4619 106.525-81.4619L48.281-81.4619C36.625-81.4619 33.855-81.2359 29.928-79.2349C26.083-77.2759 22.957-74.1499 20.998-70.3049C18.997-66.3769 18.77-63.6079 18.77-51.9519ZM88.104-76.0759L88.104 5.61611L98.422 5.61611L98.422-76.0759L88.104-76.0759Z"/>
  </g>
  <g id="Regular-M" transform="matrix(1 0 0 1 1373.26 1126)">
   <path class="monochrome-0 multicolor-0:tintColor hierarchical-0:primary SFSymbolsPreviewWireframe" d="M27.769-51.9519C27.769-61.6359 27.958-63.9489 28.927-65.8509C29.946-67.8509 31.572-69.4769 33.571-70.4949C35.474-71.4649 37.787-71.6539 47.471-71.6539L105.715-71.6539C115.4-71.6539 117.713-71.4649 119.615-70.4949C121.615-69.4769 123.24-67.8509 124.258-65.8519C125.228-63.9489 125.417-61.6359 125.417-51.9519L125.417-18.5339C125.417-8.84989 125.228-6.53689 124.259-4.63489C123.24-2.63489 121.615-1.00889 119.615 0.0101055C117.713 0.979105 115.4 1.16811 105.715 1.16811L47.471 1.16811C37.787 1.16811 35.474 0.979105 33.571 0.0101055C31.572-1.00889 29.946-2.63489 28.927-4.63389C27.958-6.53689 27.769-8.84989 27.769-18.5339L27.769-51.9519ZM18.77-51.9519L18.77-18.5339C18.77-7.03989 18.993-4.30889 20.909-0.548895C22.791 3.14411 25.793 6.14611 29.486 8.02811C33.246 9.94411 35.977 10.1671 47.471 10.1671L105.715 10.1671C117.209 10.1671 119.941 9.94411 123.701 8.02811C127.394 6.14611 130.396 3.14411 132.277-0.548895C134.193-4.30889 134.416-7.03989 134.416-18.5339L134.416-51.9519C134.416-63.4449 134.193-66.1769 132.277-69.9369C130.396-73.6289 127.394-76.6319 123.701-78.5129C119.941-80.4289 117.209-80.6529 105.715-80.6529L47.471-80.6529C35.977-80.6529 33.246-80.4289 29.486-78.5129C25.793-76.6319 22.791-73.6299 20.909-69.9369C18.993-66.1769 18.77-63.4449 18.77-51.9519ZM88.081-76.0759L88.081 5.61611L96.825 5.61611L96.825-76.0759L88.081-76.0759Z"/>
  </g>
  <g id="Light-M" transform="matrix(1 0 0 1 1077.6 1126)">
   <path class="monochrome-0 multicolor-0:tintColor hierarchical-0:primary SFSymbolsPreviewWireframe" d="M25.669-51.9519C25.669-61.8469 25.862-64.2089 26.942-66.3279C28.061-68.5249 29.848-70.3109 32.045-71.4309C34.164-72.5099 36.526-72.7029 46.421-72.7029L104.665-72.7029C114.561-72.7029 116.923-72.5099 119.042-71.4309C121.239-70.3109 123.025-68.5249 124.144-66.3279C125.224-64.2089 125.417-61.8469 125.417-51.9519L125.417-18.5339C125.417-8.63889 125.224-6.27689 124.144-4.15789C123.025-1.96089 121.239-0.173895 119.042 0.945105C116.923 2.02511 114.561 2.21811 104.665 2.21811L46.421 2.21811C36.526 2.21811 34.164 2.02511 32.045 0.945105C29.848-0.173895 28.061-1.96089 26.942-4.15789C25.862-6.27689 25.669-8.63889 25.669-18.5339L25.669-51.9519ZM18.77-51.9519L18.77-18.5339C18.77-7.25189 18.989-4.56889 20.795-1.02489C22.576 2.47011 25.417 5.31111 28.912 7.09211C32.456 8.89811 35.138 9.11711 46.421 9.11711L104.665 9.11711C115.948 9.11711 118.631 8.89811 122.174 7.09211C125.67 5.31111 128.511 2.46911 130.292-1.02589C132.097-4.56889 132.317-7.25089 132.317-18.5339L132.317-51.9519C132.317-63.2339 132.097-65.9169 130.291-69.4609C128.511-72.9549 125.67-75.7969 122.174-77.5779C118.631-79.3829 115.948-79.6029 104.665-79.6029L46.421-79.6029C35.138-79.6029 32.456-79.3829 28.912-77.5779C25.417-75.7969 22.576-72.9549 20.795-69.4599C18.989-65.9169 18.77-63.2339 18.77-51.9519ZM88.051-76.0759L88.051 5.61611L94.755 5.61611L94.755-76.0759L88.051-76.0759Z"/>
  </g>
  <g id="Thin-M" transform="matrix(1 0 0 1 781.935 1126)">
   <path class="monochrome-0 multicolor-0:tintColor hierarchical-0:primary SFSymbolsPreviewWireframe" d="M23.569-51.9519C23.569-62.0579 23.766-64.4689 24.956-66.8049C26.177-69.1989 28.123-71.1459 30.518-72.3659C32.854-73.5559 35.264-73.7529 45.371-73.7529L103.615-73.7529C113.722-73.7529 116.133-73.5559 118.469-72.3659C120.863-71.1459 122.81-69.1989 124.029-66.8049C125.22-64.4689 125.417-62.0579 125.417-51.9519L125.417-18.5339C125.417-8.42789 125.22-6.01689 124.03-3.68089C122.81-1.28589 120.863 0.660105 118.469 1.88011C116.133 3.07111 113.722 3.26811 103.615 3.26811L45.371 3.26811C35.264 3.26811 32.854 3.07111 30.518 1.88011C28.123 0.660105 26.177-1.28589 24.956-3.68089C23.766-6.01689 23.569-8.42689 23.569-18.5339L23.569-51.9519ZM18.77-51.9519L18.77-18.5339C18.77-7.46289 18.985-4.82889 20.68-1.50189C22.36 1.79611 25.041 4.47711 28.339 6.15711C31.666 7.85211 34.3 8.06711 45.371 8.06711L103.615 8.06711C114.687 8.06711 117.321 7.85211 120.648 6.15711C123.945 4.47611 126.626 1.79511 128.306-1.50189C130.001-4.82889 130.217-7.46189 130.217-18.5339L130.217-51.9519C130.217-63.0229 130.001-65.6569 128.306-68.9839C126.626-72.2809 123.945-74.9619 120.648-76.6429C117.321-78.3379 114.687-78.5529 103.615-78.5529L45.371-78.5529C34.3-78.5529 31.666-78.3379 28.339-76.6429C25.041-74.9619 22.36-72.2809 20.68-68.9839C18.985-65.6569 18.77-63.0229 18.77-51.9519ZM88.022-76.0759L88.022 5.61611L92.685 5.61611L92.685-76.0759L88.022-76.0759Z"/>
  </g>
  <g id="Ultralight-M" transform="matrix(1 0 0 1 486.274 1126)">
   <path class="monochrome-0 multicolor-0:tintColor hierarchical-0:primary SFSymbolsPreviewWireframe" d="M21.47-51.9519C21.47-62.2689 21.67-64.7289 22.971-67.2809C24.292-69.8729 26.399-71.9809 28.991-73.3019C31.544-74.6019 34.003-74.8029 44.321-74.8029L102.565-74.8029C112.883-74.8029 115.343-74.6019 117.895-73.3019C120.487-71.9809 122.595-69.8729 123.915-67.2819C125.216-64.7289 125.417-62.2689 125.417-51.9519L125.417-18.5339C125.417-8.21589 125.216-5.75689 123.915-3.20489C122.595-0.611895 120.487 1.49511 117.895 2.81611C115.343 4.11711 112.883 4.31711 102.565 4.31711L44.321 4.31711C34.003 4.31711 31.544 4.11711 28.991 2.81611C26.399 1.49511 24.292-0.611895 22.971-3.20389C21.67-5.75689 21.47-8.21589 21.47-18.5339L21.47-51.9519ZM18.77-51.9519L18.77-18.5339C18.77-7.67389 18.981-5.08889 20.566-1.97889C22.145 1.12111 24.666 3.64211 27.766 5.22111C30.876 6.80611 33.461 7.01711 44.321 7.01711L102.565 7.01711C113.426 7.01711 116.011 6.80611 119.121 5.22111C122.221 3.64211 124.742 1.12111 126.321-1.97889C127.906-5.08889 128.117-7.67389 128.117-18.5339L128.117-51.9519C128.117-62.8119 127.906-65.3969 126.32-68.5069C124.742-71.6069 122.221-74.1269 119.121-75.7069C116.011-77.2919 113.426-77.5029 102.565-77.5029L44.321-77.5029C33.461-77.5029 30.876-77.2919 27.766-75.7069C24.666-74.1269 22.145-71.6069 20.566-68.5069C18.981-65.3969 18.77-62.8119 18.77-51.9519ZM87.992-76.0759L87.992 5.61611L90.615 5.61611L90.615-76.0759L87.992-76.0759Z"/>
  </g>
  <g id="Black-S" transform="matrix(1 0 0 1 2866.19 696)">
   <path class="monochrome-0 multicolor-0:tintColor hierarchical-0:primary SFSymbolsPreviewWireframe" d="M32.158-48.3225C32.158-55.2685 32.294-56.9325 32.719-57.7665C33.213-58.7355 34.001-59.5235 34.97-60.0175C35.805-60.4425 37.468-60.5785 44.414-60.5785L90.019-60.5785C96.965-60.5785 98.628-60.4425 99.463-60.0175C100.432-59.5235 101.22-58.7365 101.713-57.7675C102.139-56.9315 102.275-55.2685 102.275-48.3225L102.275-22.1575C102.275-15.2115 102.139-13.5485 101.714-12.7135C101.22-11.7435 100.432-10.9565 99.463-10.4625C98.628-10.0375 96.965-9.90153 90.019-9.90153L44.414-9.90153C37.468-9.90153 35.805-10.0375 34.97-10.4625C34.001-10.9565 33.213-11.7435 32.719-12.7125C32.294-13.5475 32.158-15.2115 32.158-22.1575L32.158-48.3225ZM18.77-48.3225L18.77-22.1575C18.77-12.5195 18.957-10.2335 20.791-6.63553C22.568-3.14653 25.404-0.311534 28.892 1.46647C32.491 3.29947 34.777 3.48647 44.414 3.48647L90.019 3.48647C99.656 3.48647 101.942 3.29947 105.541 1.46647C109.03-0.311534 111.866-3.14753 113.642-6.63553C115.476-10.2335 115.663-12.5195 115.663-22.1575L115.663-48.3225C115.663-57.9605 115.476-60.2465 113.642-63.8455C111.866-67.3325 109.03-70.1685 105.541-71.9455C101.942-73.7795 99.656-73.9665 90.019-73.9665L44.414-73.9665C34.777-73.9665 32.491-73.7795 28.892-71.9455C25.404-70.1685 22.568-67.3325 20.791-63.8445C18.957-60.2465 18.77-57.9595 18.77-48.3225ZM73.131-67.2125L73.131-3.24753L86.139-3.24753L86.139-67.2125L73.131-67.2125Z"/>
  </g>
  <g id="Heavy-S" transform="matrix(1 0 0 1 2570.11 696)">
   <path class="monochrome-0 multicolor-0:tintColor hierarchical-0:primary SFSymbolsPreviewWireframe" d="M30.89-48.3225C30.89-55.3955 31.028-57.0895 31.52-58.0545C32.075-59.1435 32.96-60.0275 34.048-60.5825C35.014-61.0745 36.707-61.2125 43.78-61.2125L89.385-61.2125C96.458-61.2125 98.151-61.0745 99.117-60.5825C100.205-60.0275 101.09-59.1435 101.644-58.0555C102.137-57.0885 102.275-55.3955 102.275-48.3225L102.275-22.1575C102.275-15.0845 102.137-13.3915 101.645-12.4255C101.09-11.3365 100.205-10.4515 99.117-9.89753C98.151-9.40553 96.458-9.26653 89.385-9.26653L43.78-9.26653C36.707-9.26653 35.014-9.40553 34.048-9.89753C32.96-10.4515 32.075-11.3365 31.52-12.4255C31.028-13.3905 30.89-15.0845 30.89-22.1575L30.89-48.3225ZM18.77-48.3225L18.77-22.1575C18.77-12.6475 18.955-10.3905 20.722-6.92253C22.438-3.55453 25.177-0.815534 28.546 0.901466C32.014 2.66847 34.27 2.85247 43.78 2.85247L89.385 2.85247C98.895 2.85247 101.151 2.66847 104.619 0.901466C107.988-0.815534 110.727-3.55453 112.443-6.92353C114.21-10.3905 114.395-12.6475 114.395-22.1575L114.395-48.3225C114.395-57.8325 114.21-60.0895 112.443-63.5575C110.727-66.9255 107.988-69.6645 104.619-71.3805C101.151-73.1475 98.895-73.3325 89.385-73.3325L43.78-73.3325C34.27-73.3325 32.014-73.1475 28.546-71.3805C25.177-69.6645 22.438-66.9255 20.722-63.5565C18.955-60.0895 18.77-57.8325 18.77-48.3225ZM73.113-67.2125L73.113-3.24753L84.889-3.24753L84.889-67.2125L73.113-67.2125Z"/>
  </g>
  <g id="Bold-S" transform="matrix(1 0 0 1 2274.04 696)">
   <path class="monochrome-0 multicolor-0:tintColor hierarchical-0:primary SFSymbolsPreviewWireframe" d="M29.621-48.3225C29.621-55.5235 29.761-57.2465 30.32-58.3425C30.936-59.5505 31.917-60.5325 33.125-61.1475C34.222-61.7065 35.944-61.8475 43.145-61.8475L88.75-61.8475C95.951-61.8475 97.673-61.7065 98.77-61.1475C99.978-60.5325 100.959-59.5505 101.574-58.3435C102.134-57.2455 102.274-55.5235 102.274-48.3225L102.274-22.1575C102.274-14.9565 102.134-13.2345 101.575-12.1375C100.959-10.9295 99.978-9.94753 98.77-9.33253C97.673-8.77353 95.951-8.63253 88.75-8.63253L43.145-8.63253C35.944-8.63253 34.222-8.77353 33.125-9.33253C31.917-9.94753 30.936-10.9295 30.32-12.1375C29.761-13.2335 29.621-14.9565 29.621-22.1575L29.621-48.3225ZM18.77-48.3225L18.77-22.1575C18.77-12.7745 18.952-10.5475 20.652-7.21053C22.307-3.96153 24.949-1.31953 28.199 0.336466C31.536 2.03647 33.763 2.21847 43.145 2.21847L88.75 2.21847C98.132 2.21847 100.359 2.03647 103.696 0.336466C106.946-1.31953 109.588-3.96153 111.243-7.21153C112.943-10.5475 113.126-12.7745 113.126-22.1575L113.126-48.3225C113.126-57.7055 112.943-59.9325 111.243-63.2695C109.588-66.5185 106.946-69.1605 103.696-70.8155C100.359-72.5165 98.132-72.6985 88.75-72.6985L43.145-72.6985C33.763-72.6985 31.536-72.5165 28.199-70.8155C24.949-69.1605 22.307-66.5185 20.652-63.2695C18.952-59.9325 18.77-57.7045 18.77-48.3225ZM73.094-67.2125L73.094-3.24753L83.637-3.24753L83.637-67.2125L73.094-67.2125Z"/>
  </g>
  <g id="Semibold-S" transform="matrix(1 0 0 1 1977.96 696)">
   <path class="monochrome-0 multicolor-0:tintColor hierarchical-0:primary SFSymbolsPreviewWireframe" d="M28.353-48.3225C28.353-55.6505 28.496-57.4035 29.121-58.6305C29.797-59.9575 30.876-61.0365 32.203-61.7125C33.431-62.3385 35.183-62.4815 42.511-62.4815L88.116-62.4815C95.444-62.4815 97.196-62.3385 98.424-61.7125C99.751-61.0365 100.83-59.9575 101.505-58.6315C102.131-57.4025 102.275-55.6505 102.275-48.3225L102.275-22.1575C102.275-14.8295 102.131-13.0775 101.506-11.8495C100.83-10.5225 99.751-9.44353 98.424-8.76753C97.196-8.14153 95.444-7.99853 88.116-7.99853L42.511-7.99853C35.183-7.99853 33.431-8.14153 32.203-8.76753C30.876-9.44353 29.797-10.5225 29.121-11.8495C28.496-13.0765 28.353-14.8295 28.353-22.1575L28.353-48.3225ZM18.77-48.3225L18.77-22.1575C18.77-12.9025 18.949-10.7045 20.583-7.49853C22.178-4.36853 24.723-1.82353 27.853-0.229534C31.059 1.40447 33.256 1.58447 42.511 1.58447L88.116 1.58447C97.371 1.58447 99.568 1.40447 102.775-0.229534C105.905-1.82353 108.45-4.36953 110.044-7.49953C111.678-10.7045 111.857-12.9025 111.857-22.1575L111.857-48.3225C111.857-57.5775 111.678-59.7755 110.044-62.9815C108.45-66.1105 105.905-68.6555 102.775-70.2505C99.568-71.8845 97.371-72.0645 88.116-72.0645L42.511-72.0645C33.256-72.0645 31.059-71.8845 27.853-70.2505C24.723-68.6565 22.178-66.1115 20.583-62.9815C18.949-59.7755 18.77-57.5775 18.77-48.3225ZM73.076-67.2125L73.076-3.24753L82.387-3.24753L82.387-67.2125L73.076-67.2125Z"/>
  </g>
  <g id="Medium-S" transform="matrix(1 0 0 1 1681.88 696)">
   <path class="monochrome-0 multicolor-0:tintColor hierarchical-0:primary SFSymbolsPreviewWireframe" d="M27.084-48.3225C27.084-55.7785 27.23-57.5605 27.922-58.9185C28.659-60.3645 29.835-61.5405 31.281-62.2775C32.64-62.9695 34.421-63.1155 41.877-63.1155L87.482-63.1155C94.938-63.1155 96.719-62.9695 98.078-62.2775C99.524-61.5405 100.7-60.3645 101.436-58.9195C102.129-57.5595 102.275-55.7785 102.275-48.3225L102.275-22.1575C102.275-14.7015 102.129-12.9205 101.437-11.5615C100.7-10.1145 99.524-8.93953 98.078-8.20253C96.719-7.51053 94.938-7.36453 87.482-7.36453L41.877-7.36453C34.421-7.36453 32.64-7.51053 31.281-8.20253C29.835-8.93953 28.659-10.1155 27.922-11.5615C27.23-12.9195 27.084-14.7015 27.084-22.1575L27.084-48.3225ZM18.77-48.3225L18.77-22.1575C18.77-13.0295 18.947-10.8615 20.514-7.78653C22.048-4.77553 24.496-2.32853 27.506-0.794534C30.582 0.772466 32.75 0.949466 41.877 0.949466L87.482 0.949466C96.609 0.949466 98.777 0.772466 101.853-0.794534C104.864-2.32853 107.311-4.77653 108.845-7.78753C110.412-10.8615 110.589-13.0295 110.589-22.1575L110.589-48.3225C110.589-57.4505 110.412-59.6185 108.845-62.6935C107.311-65.7035 104.864-68.1515 101.853-69.6855C98.777-71.2525 96.609-71.4295 87.482-71.4295L41.877-71.4295C32.75-71.4295 30.582-71.2525 27.506-69.6855C24.496-68.1515 22.048-65.7035 20.514-62.6935C18.947-59.6185 18.77-57.4495 18.77-48.3225ZM73.059-67.2125L73.059-3.24753L81.137-3.24753L81.137-67.2125L73.059-67.2125Z"/>
  </g>
  <g id="Regular-S" transform="matrix(1 0 0 1 1385.81 696)">
   <path class="monochrome-0 multicolor-0:tintColor hierarchical-0:primary SFSymbolsPreviewWireframe" d="M25.816-48.3225C25.816-55.9055 25.964-57.7165 26.723-59.2065C27.521-60.7725 28.794-62.0445 30.359-62.8425C31.849-63.6015 33.66-63.7495 41.243-63.7495L86.848-63.7495C94.431-63.7495 96.242-63.6015 97.732-62.8425C99.297-62.0445 100.57-60.7725 101.367-59.2065C102.127-57.7165 102.275-55.9055 102.275-48.3225L102.275-22.1575C102.275-14.5745 102.127-12.7635 101.368-11.2735C100.57-9.70753 99.297-8.43453 97.732-7.63753C96.242-6.87853 94.431-6.73053 86.848-6.73053L41.243-6.73053C33.66-6.73053 31.849-6.87853 30.359-7.63753C28.794-8.43453 27.521-9.70753 26.723-11.2735C25.964-12.7625 25.816-14.5745 25.816-22.1575L25.816-48.3225ZM18.77-48.3225L18.77-22.1575C18.77-13.1575 18.945-11.0185 20.445-8.07453C21.918-5.18353 24.269-2.83253 27.16-1.35953C30.105 0.141466 32.243 0.315466 41.243 0.315466L86.848 0.315466C95.848 0.315466 97.987 0.141466 100.931-1.35953C103.822-2.83253 106.173-5.18353 107.646-8.07453C109.146-11.0185 109.321-13.1575 109.321-22.1575L109.321-48.3225C109.321-57.3225 109.146-59.4615 107.646-62.4055C106.173-65.2965 103.822-67.6475 100.931-69.1205C97.987-70.6205 95.848-70.7955 86.848-70.7955L41.243-70.7955C32.243-70.7955 30.105-70.6205 27.16-69.1205C24.269-67.6475 21.918-65.2965 20.445-62.4055C18.945-59.4615 18.77-57.3225 18.77-48.3225ZM73.041-67.2125L73.041-3.24753L79.887-3.24753L79.887-67.2125L73.041-67.2125Z"/>
  </g>
  <g id="Light-S" transform="matrix(1 0 0 1 1089.92 696)">
   <path class="monochrome-0 multicolor-0:tintColor hierarchical-0:primary SFSymbolsPreviewWireframe" d="M24.172-48.3225C24.172-56.0715 24.323-57.9205 25.169-59.5795C26.045-61.2995 27.444-62.6985 29.164-63.5755C30.823-64.4205 32.673-64.5715 40.421-64.5715L86.026-64.5715C93.774-64.5715 95.624-64.4205 97.283-63.5755C99.003-62.6985 100.402-61.2995 101.278-59.5795C102.124-57.9205 102.275-56.0705 102.275-48.3225L102.275-22.1575C102.275-14.4085 102.124-12.5595 101.278-10.9005C100.402-9.17953 99.003-7.78153 97.283-6.90453C95.624-6.05953 93.774-5.90853 86.026-5.90853L40.421-5.90853C32.673-5.90853 30.823-6.05953 29.164-6.90453C27.444-7.78153 26.045-9.17953 25.169-10.9005C24.323-12.5595 24.172-14.4085 24.172-22.1575L24.172-48.3225ZM18.77-48.3225L18.77-22.1575C18.77-13.3225 18.942-11.2225 20.355-8.44753C21.75-5.71153 23.975-3.48553 26.712-2.09153C29.486-0.677534 31.587-0.506534 40.421-0.506534L86.026-0.506534C94.861-0.506534 96.961-0.677534 99.736-2.09153C102.472-3.48653 104.697-5.71153 106.091-8.44853C107.505-11.2225 107.677-13.3225 107.677-22.1575L107.677-48.3225C107.677-57.1575 107.505-59.2575 106.091-62.0325C104.697-64.7685 102.472-66.9935 99.736-68.3885C96.961-69.8025 94.861-69.9735 86.026-69.9735L40.421-69.9735C31.587-69.9735 29.486-69.8025 26.712-68.3885C23.975-66.9935 21.75-64.7685 20.355-62.0325C18.942-59.2575 18.77-57.1575 18.77-48.3225ZM73.017-67.2125L73.017-3.24753L78.266-3.24753L78.266-67.2125L73.017-67.2125Z"/>
  </g>
  <g id="Thin-S" transform="matrix(1 0 0 1 794.027 696)">
   <path class="monochrome-0 multicolor-0:tintColor hierarchical-0:primary SFSymbolsPreviewWireframe" d="M22.528-48.3225C22.528-56.2365 22.682-58.1235 23.614-59.9525C24.57-61.8275 26.094-63.3525 27.969-64.3075C29.798-65.2395 31.685-65.3935 39.599-65.3935L85.204-65.3935C93.118-65.3935 95.005-65.2395 96.834-64.3075C98.709-63.3525 100.233-61.8275 101.188-59.9535C102.121-58.1235 102.275-56.2365 102.275-48.3225L102.275-22.1575C102.275-14.2435 102.121-12.3565 101.189-10.5275C100.233-8.65253 98.709-7.12753 96.834-6.17253C95.005-5.24053 93.118-5.08653 85.204-5.08653L39.599-5.08653C31.685-5.08653 29.798-5.24053 27.969-6.17253C26.094-7.12753 24.57-8.65253 23.614-10.5275C22.682-12.3555 22.528-14.2435 22.528-22.1575L22.528-48.3225ZM18.77-48.3225L18.77-22.1575C18.77-13.4875 18.939-11.4255 20.266-8.82053C21.581-6.23853 23.681-4.13953 26.263-2.82353C28.868-1.49653 30.93-1.32853 39.599-1.32853L85.204-1.32853C93.873-1.32853 95.936-1.49653 98.54-2.82353C101.123-4.13953 103.222-6.23953 104.537-8.82153C105.864-11.4255 106.033-13.4875 106.033-22.1575L106.033-48.3225C106.033-56.9915 105.864-59.0545 104.537-61.6595C103.222-64.2405 101.123-66.3405 98.54-67.6555C95.936-68.9835 93.873-69.1515 85.204-69.1515L39.599-69.1515C30.93-69.1515 28.868-68.9835 26.263-67.6555C23.681-66.3405 21.581-64.2405 20.266-61.6585C18.939-59.0545 18.77-56.9915 18.77-48.3225ZM72.994-67.2125L72.994-3.24753L76.646-3.24753L76.646-67.2125L72.994-67.2125Z"/>
  </g>
  <g id="Ultralight-S" transform="matrix(1 0 0 1 498.138 696)">
   <path class="monochrome-0 multicolor-0:tintColor hierarchical-0:primary SFSymbolsPreviewWireframe" d="M20.884-48.3225C20.884-56.4015 21.041-58.3275 22.06-60.3265C23.094-62.3555 24.744-64.0055 26.774-65.0395C28.772-66.0585 30.698-66.2155 38.777-66.2155L84.382-66.2155C92.461-66.2155 94.387-66.0585 96.385-65.0395C98.415-64.0055 100.065-62.3555 101.099-60.3265C102.118-58.3275 102.275-56.4015 102.275-48.3225L102.275-22.1575C102.275-14.0785 102.118-12.1525 101.099-10.1535C100.065-8.12453 98.415-6.47453 96.385-5.43953C94.387-4.42153 92.461-4.26453 84.382-4.26453L38.777-4.26453C30.698-4.26453 28.772-4.42153 26.774-5.43953C24.744-6.47453 23.094-8.12453 22.06-10.1535C21.041-12.1525 20.884-14.0785 20.884-22.1575L20.884-48.3225ZM18.77-48.3225L18.77-22.1575C18.77-13.6535 18.936-11.6295 20.176-9.19453C21.413-6.76653 23.387-4.79353 25.814-3.55653C28.249-2.31553 30.273-2.15053 38.777-2.15053L84.382-2.15053C92.886-2.15053 94.91-2.31553 97.345-3.55653C99.773-4.79353 101.746-6.76653 102.982-9.19453C104.223-11.6295 104.389-13.6535 104.389-22.1575L104.389-48.3225C104.389-56.8265 104.223-58.8505 102.982-61.2855C101.746-63.7125 99.773-65.6865 97.345-66.9235C94.91-68.1645 92.886-68.3295 84.382-68.3295L38.777-68.3295C30.273-68.3295 28.249-68.1645 25.814-66.9235C23.387-65.6865 21.413-63.7135 20.176-61.2855C18.936-58.8505 18.77-56.8265 18.77-48.3225ZM72.971-67.2125L72.971-3.24753L75.025-3.24753L75.025-67.2125L72.971-67.2125Z"/>
  </g>
 </g>
</svg>
