<?xml version="1.0" encoding="UTF-8"?>
<svg width="128px" height="128px" viewBox="0 0 128 128" version="1.1" xmlns="http://www.w3.org/2000/svg" xmlns:xlink="http://www.w3.org/1999/xlink">
    <title>Linux/128x128</title>
    <defs>
        <linearGradient x1="0%" y1="0%" x2="100%" y2="100%" id="linearGradient-1">
            <stop stop-color="#FFB822" offset="0%"></stop>
            <stop stop-color="#E26C00" offset="100%"></stop>
        </linearGradient>
        <path d="M25.1013686,11 L102.898631,11 C107.801984,11 109.580059,11.5105409 111.372651,12.4692299 C113.165244,13.4279189 114.572081,14.834756 115.53077,16.6273486 C116.489459,18.4199412 117,20.1980155 117,25.1013686 L117,102.898631 C117,107.801984 116.489459,109.580059 115.53077,111.372651 C114.572081,113.165244 113.165244,114.572081 111.372651,115.53077 C109.580059,116.489459 107.801984,117 102.898631,117 L25.1013686,117 C20.1980155,117 18.4199412,116.489459 16.6273486,115.53077 C14.834756,114.572081 13.4279189,113.165244 12.4692299,111.372651 C11.5105409,109.580059 11,107.801984 11,102.898631 L11,25.1013686 C11,20.1980155 11.5105409,18.4199412 12.4692299,16.6273486 C13.4279189,14.834756 14.834756,13.4279189 16.6273486,12.4692299 C18.4199412,11.5105409 20.1980155,11 25.1013686,11 Z" id="path-2"></path>
        <filter x="-5.2%" y="-3.3%" width="110.4%" height="110.4%" filterUnits="objectBoundingBox" id="filter-3">
            <feOffset dx="0" dy="2" in="SourceAlpha" result="shadowOffsetOuter1"></feOffset>
            <feGaussianBlur stdDeviation="1.5" in="shadowOffsetOuter1" result="shadowBlurOuter1"></feGaussianBlur>
            <feComposite in="shadowBlurOuter1" in2="SourceAlpha" operator="out" result="shadowBlurOuter1"></feComposite>
            <feColorMatrix values="0 0 0 0 0   0 0 0 0 0   0 0 0 0 0  0 0 0 0.3 0" type="matrix" in="shadowBlurOuter1"></feColorMatrix>
        </filter>
        <filter x="-4.2%" y="-2.4%" width="108.5%" height="108.5%" filterUnits="objectBoundingBox" id="filter-4">
            <feGaussianBlur stdDeviation="0.5" in="SourceAlpha" result="shadowBlurInner1"></feGaussianBlur>
            <feOffset dx="0" dy="2" in="shadowBlurInner1" result="shadowOffsetInner1"></feOffset>
            <feComposite in="shadowOffsetInner1" in2="SourceAlpha" operator="arithmetic" k2="-1" k3="1" result="shadowInnerInner1"></feComposite>
            <feColorMatrix values="0 0 0 0 1   0 0 0 0 0.804757108   0 0 0 0 0.249324743  0 0 0 1 0" type="matrix" in="shadowInnerInner1" result="shadowMatrixInner1"></feColorMatrix>
            <feGaussianBlur stdDeviation="0.5" in="SourceAlpha" result="shadowBlurInner2"></feGaussianBlur>
            <feOffset dx="0" dy="-2" in="shadowBlurInner2" result="shadowOffsetInner2"></feOffset>
            <feComposite in="shadowOffsetInner2" in2="SourceAlpha" operator="arithmetic" k2="-1" k3="1" result="shadowInnerInner2"></feComposite>
            <feColorMatrix values="0 0 0 0 0   0 0 0 0 0   0 0 0 0 0  0 0 0 0.4 0" type="matrix" in="shadowInnerInner2" result="shadowMatrixInner2"></feColorMatrix>
            <feMerge>
                <feMergeNode in="shadowMatrixInner1"></feMergeNode>
                <feMergeNode in="shadowMatrixInner2"></feMergeNode>
            </feMerge>
        </filter>
        <linearGradient x1="0%" y1="0%" x2="100%" y2="100%" id="linearGradient-5">
            <stop stop-color="#FFFFFF" offset="0%"></stop>
            <stop stop-color="#ECECEC" offset="100%"></stop>
        </linearGradient>
        <path d="M23.1277704,18 L104.87223,18 C106.655267,18 107.30184,18.1856512 107.953691,18.5342654 C108.605543,18.8828796 109.11712,19.3944567 109.465735,20.0463086 C109.814349,20.6981604 110,21.3447329 110,23.1277704 L110,104.87223 C110,106.655267 109.814349,107.30184 109.465735,107.953691 C109.11712,108.605543 108.605543,109.11712 107.953691,109.465735 C107.30184,109.814349 106.655267,110 104.87223,110 L23.1277704,110 C21.3447329,110 20.6981604,109.814349 20.0463086,109.465735 C19.3944567,109.11712 18.8828796,108.605543 18.5342654,107.953691 C18.1856512,107.30184 18,106.655267 18,104.87223 L18,23.1277704 C18,21.3447329 18.1856512,20.6981604 18.5342654,20.0463086 C18.8828796,19.3944567 19.3944567,18.8828796 20.0463086,18.5342654 C20.6981604,18.1856512 21.3447329,18 23.1277704,18 Z" id="path-6"></path>
        <filter x="-3.8%" y="-2.7%" width="107.6%" height="107.6%" filterUnits="objectBoundingBox" id="filter-7">
            <feOffset dx="0" dy="1" in="SourceAlpha" result="shadowOffsetOuter1"></feOffset>
            <feGaussianBlur stdDeviation="1" in="shadowOffsetOuter1" result="shadowBlurOuter1"></feGaussianBlur>
            <feColorMatrix values="0 0 0 0 0   0 0 0 0 0   0 0 0 0 0  0 0 0 0.4 0" type="matrix" in="shadowBlurOuter1"></feColorMatrix>
        </filter>
    </defs>
    <g id="Linux/128x128" stroke="none" stroke-width="1" fill="none" fill-rule="evenodd">
        <g id="Base">
            <use fill="black" fill-opacity="1" filter="url(#filter-3)" xlink:href="#path-2"></use>
            <use fill="url(#linearGradient-1)" fill-rule="evenodd" xlink:href="#path-2"></use>
            <use fill="black" fill-opacity="1" filter="url(#filter-4)" xlink:href="#path-2"></use>
            <path stroke-opacity="0.3" stroke="#411400" stroke-width="1" d="M102.898631,11.5 C107.660386,11.5 109.39414,11.9781241 111.136852,12.9101365 C112.841021,13.8215363 114.178464,15.1589785 115.089864,16.8631481 C116.021876,18.6058597 116.5,20.3396141 116.5,25.1013686 L116.5,25.1013686 L116.5,102.898631 C116.5,107.660386 116.021876,109.39414 115.089864,111.136852 C114.178464,112.841021 112.841021,114.178464 111.136852,115.089864 C109.39414,116.021876 107.660386,116.5 102.898631,116.5 L102.898631,116.5 L25.1013686,116.5 C20.3396141,116.5 18.6058597,116.021876 16.8631481,115.089864 C15.1589785,114.178464 13.8215363,112.841021 12.9101365,111.136852 C11.9781241,109.39414 11.5,107.660386 11.5,102.898631 L11.5,102.898631 L11.5,25.1013686 C11.5,20.3396141 11.9781241,18.6058597 12.9101365,16.8631481 C13.8215363,15.1589785 15.1589785,13.8215363 16.8631481,12.9101365 C18.6058597,11.9781241 20.3396141,11.5 25.1013686,11.5 L25.1013686,11.5 Z" stroke-linejoin="square"></path>
        </g>
        <g id="Paper">
            <use fill="black" fill-opacity="1" filter="url(#filter-7)" xlink:href="#path-6"></use>
            <use fill="url(#linearGradient-5)" fill-rule="evenodd" xlink:href="#path-6"></use>
        </g>
        <rect id="Separator" fill-opacity="0.1" fill="#000000" x="18" y="48" width="92" height="1"></rect>
        <rect id="Separator" fill-opacity="0.1" fill="#000000" x="18" y="79" width="92" height="1"></rect>
        <path d="M37.3366486,89.6405885 C37.3081081,89.6405885 37.2787027,89.6353765 37.2492973,89.6249525 L32.4198919,87.8980401 C32.2771892,87.8467886 32.1716757,87.7668712 32.0998919,87.6556816 C32.0324324,87.5514414 31.9987027,87.4220099 31.9987027,87.2717303 C31.9987027,87.2091862 32.003027,87.1553287 32.0142703,87.1066833 C32.0211892,87.0754113 32.0618378,86.9772518 32.0782703,86.9511917 L32.3731892,86.4204354 C32.4518919,86.2901352 32.540973,86.1902383 32.643027,86.1198762 C32.7545946,86.0399587 32.8834595,86 33.0157838,86 C33.0382703,86 33.1282162,86.010424 33.1515676,86.0165047 C33.1939459,86.0269287 33.2389189,86.0434334 33.2821622,86.0660188 L37.7085405,88.6633368 C37.8252973,88.7319616 37.8702703,88.8813725 37.8097297,89.0038547 L37.5692973,89.4955209 C37.5260541,89.5841251 37.4352432,89.6405885 37.3366486,89.6405885 L37.3366486,89.6405885 Z M35.8646486,93.0961507 C35.7937297,93.0970194 35.7305946,93.1421901 35.7055135,93.2099463 L34.5085405,96.4917748 C34.4895135,96.5438949 34.4972973,96.603833 34.5292973,96.6498724 C34.5621622,96.6967805 34.6149189,96.7245779 34.6711351,96.7245779 L37.1939459,96.7245779 C37.251027,96.7245779 37.3055135,96.6959118 37.3375135,96.6472664 C37.3695135,96.6003583 37.3755676,96.5386829 37.3548108,96.4856941 L36.0281081,93.2047342 C36.0021622,93.1387155 35.9381622,93.0961507 35.8681081,93.0961507 L35.8646486,93.0961507 Z M38.3917838,102 C37.8469189,102 37.5217297,101.940062 37.3375135,101.808024 C37.1342703,101.660351 37.0313514,101.41278 37.0313514,101.070525 C37.0313514,100.662251 37.212973,100.457245 37.3651892,100.35648 C37.5554595,100.230523 37.8694054,100.169716 38.3269189,100.169716 L38.544,100.169716 C38.6010811,100.169716 38.6547027,100.14105 38.6875676,100.092405 C38.7195676,100.045496 38.7256216,99.9838211 38.704,99.9308323 L38.1591351,98.5896086 C38.1323243,98.5244584 38.0691892,98.481025 37.9991351,98.481025 L33.8936216,98.481025 C33.820973,98.481025 33.7552432,98.5261958 33.731027,98.5956892 L33.2475676,99.936913 C33.2285405,99.9899017 33.2363243,100.048971 33.2683243,100.095879 C33.3003243,100.141919 33.3539459,100.169716 33.4101622,100.169716 L33.6921081,100.169716 C34.1539459,100.169716 34.4713514,100.229654 34.6650811,100.355611 C34.8908108,100.501547 35.0058378,100.742168 35.0058378,101.070525 C35.0058378,101.495304 34.8389189,101.70639 34.6988108,101.808024 C34.5171892,101.938325 34.1911351,102 33.6730811,102 L31.2402162,102 C30.7714595,102 30.4817297,101.940062 30.3001081,101.805418 C30.1003243,101.658613 30,101.411043 30,101.070525 C30,100.661382 30.1643243,100.457245 30.3027027,100.358217 C30.4627027,100.242684 30.7187027,100.181877 31.0845405,100.171453 C31.1545946,100.168847 31.2168649,100.124545 31.2410811,100.058527 L34.0605405,92.5584451 C34.0804324,92.5054563 34.0735135,92.4455182 34.0406486,92.3994788 C34.0086486,92.351702 33.9558919,92.3239047 33.8988108,92.3239047 L33.1740541,92.3239047 C32.7347027,92.3239047 32.4371892,92.2613606 32.2374054,92.126717 C32.0116757,91.9738314 31.8966486,91.7262609 31.8966486,91.3952983 C31.8966486,91.0591237 32.003027,90.8046039 32.2036757,90.6586677 C32.3351351,90.5631142 32.5859459,90.4658233 33.4421622,90.4658233 L36.0782703,90.4658233 C36.4838919,90.4658233 36.752,90.5257614 36.9223784,90.6517183 C37.0832432,90.7724632 37.2181622,90.9705196 37.3366486,91.2580488 L40.8471351,100.06287 C40.8722162,100.126283 40.9327568,100.169716 41.0010811,100.172322 C41.3254054,100.184483 41.5571892,100.246159 41.7111351,100.360823 C41.9022703,100.505891 42,100.743906 42,101.070525 C42,101.405831 41.9083243,101.649927 41.7284324,101.7976 C41.5597838,101.935719 41.2994595,102 40.9076757,102 L38.3917838,102 Z" id="3" fill="#E3450D"></path>
        <path d="M38.7498412,58.3770969 C38.0382372,58.3770969 37.4421533,58.7002634 36.9782245,59.3359213 C36.3978513,60.20061 36.1289205,61.6863996 36.1289205,64.0174685 C36.1289205,66.0273118 36.4311211,67.6635242 36.9782245,68.623319 C37.411656,69.2628587 38.0594929,69.6229031 38.7664761,69.6229031 C40.5436377,69.6229031 41.3707619,67.8362678 41.3707619,64 C41.3707619,61.6611673 41.1092243,60.1753778 40.5482585,59.3252461 C40.0787847,58.7012339 39.4595968,58.3770969 38.7498412,58.3770969 M38.7332063,71 C35.5494715,71 33.7011494,68.7388049 33.5283313,64.6327464 C33.5246347,64.5289061 33.4423843,64.4464162 33.3434991,64.4464162 L32.0154797,64.4464162 C31.913822,64.4464162 31.8306475,64.5337585 31.8306475,64.6414807 L31.8306475,68.3409122 C31.8306475,69.1211701 31.890718,69.2541245 31.9572576,69.3327326 C32.0385837,69.4084292 32.1522555,69.4666574 32.7557327,69.4666574 C32.9091434,69.4666574 33.032981,69.5976709 33.032981,69.7577984 L33.032981,70.4497435 C33.032981,70.6098711 32.9091434,70.7408845 32.7557327,70.7408845 L28.2772483,70.7408845 C28.1238376,70.7408845 28,70.6098711 28,70.4497435 L28,69.7577984 C28,69.5976709 28.1238376,69.4666574 28.2772483,69.4666574 C29.199561,69.4666574 29.2845838,69.3725218 29.2845838,68.3409122 L29.2845838,59.6600582 C29.2845838,58.876889 29.2263617,58.7487869 29.1561255,58.6711493 C29.0775718,58.5935117 28.958355,58.5323721 28.2772483,58.5323721 C28.1238376,58.5323721 28,58.4023291 28,58.2412311 L28,57.5502565 C28,57.3891585 28.1238376,57.2591155 28.2772483,57.2591155 L32.7557327,57.2591155 C32.9091434,57.2591155 33.032981,57.3891585 33.032981,57.5502565 L33.032981,58.2412311 C33.032981,58.4023291 32.9091434,58.5323721 32.7557327,58.5323721 C32.1587247,58.5323721 32.0432045,58.5867184 31.9766649,58.6420352 C31.8870213,58.7497574 31.8306475,58.8846527 31.8306475,59.6600582 L31.8306475,62.8237904 C31.8306475,62.9305421 31.913822,63.0178844 32.0154797,63.0178844 L33.3786172,63.0178844 C33.47473,63.0178844 33.5542078,62.9402468 33.5625253,62.8402884 C33.8702709,59.1282407 35.7611044,57 38.7498412,57 C42.0860625,57 44,59.5503951 44,64 C44,66.3650354 43.506498,68.1739914 42.5342806,69.3754332 C41.6054988,70.4371274 40.2904176,71 38.7332063,71" id="2" fill="#1595E0"></path>
        <path d="M35.1814776,27.2068966 C35.1611257,27.2068966 35.1416988,27.2105932 35.122272,27.2170623 C34.7161584,27.3547623 34.2286372,27.5007798 33.5866262,27.6754462 C33.5061436,27.6976261 33.4497132,27.7706348 33.4497132,27.8538093 L33.4497132,30.285277 C33.4497132,30.365679 33.5033683,30.4368394 33.5801506,30.4608676 C33.5986524,30.4673367 33.6171541,30.4701092 33.6356559,30.4701092 C33.6948615,30.4701092 33.752217,30.4414602 33.7873703,30.3897072 L34.4284561,29.4664703 C34.4719353,29.4036273 34.5403918,29.3620401 34.6153239,29.350026 L34.6347507,29.350026 C34.7272595,29.350026 34.7818397,29.3703575 34.8290192,29.407324 L35.8096122,30.1854676 C35.8429154,30.2113441 35.8836192,30.2261307 35.9243231,30.2261307 C35.9520757,30.2261307 35.9789033,30.2196615 36.0048057,30.2076474 C36.0686368,30.176226 36.1093407,30.1115347 36.1093407,30.0403743 L36.1093407,27.7475308 C36.1093407,27.6772945 36.1352431,27.6107549 36.1833477,27.5599261 C36.2379279,27.4998556 36.2481038,27.4120603 36.2064749,27.3418241 C36.1731717,27.2836019 36.1121159,27.249408 36.0473598,27.249408 C36.0334835,27.249408 36.0196071,27.2512563 36.0057308,27.2540288 C35.9196977,27.2734361 35.8262638,27.2836019 35.7272794,27.2836019 C35.5737148,27.2836019 35.4099743,27.2604979 35.2286571,27.2133657 C35.2129306,27.2087449 35.1972041,27.2068966 35.1814776,27.2068966 L35.1814776,27.2068966 Z M33.6356559,31.4663548 C33.5329711,31.4663548 33.4497132,31.5495293 33.4497132,31.651187 L33.4497132,32.6668399 C33.4497132,32.7490903 33.5042934,32.8202507 33.5820008,32.8442789 C34.5912716,33.149252 35.333192,33.5632762 35.7855599,34.0743372 C35.8216384,34.1150003 35.8725182,34.1371802 35.9243231,34.1371802 C35.9465252,34.1371802 35.9687273,34.1334835 35.9900043,34.1251661 C36.0621612,34.0983654 36.1093407,34.0290533 36.1093407,33.9523479 L36.1093407,31.616993 C36.1093407,31.5624675 36.0852884,31.5107145 36.0427343,31.4755964 C36.0094312,31.4478715 35.9678022,31.4321608 35.9243231,31.4321608 C35.9141471,31.4321608 35.902121,31.4340091 35.891945,31.4358574 C35.7559571,31.4608098 35.6162689,31.4663548 35.480281,31.4663548 L33.6356559,31.4663548 Z M38.5969017,29.1439381 C38.4951421,29.1439381 38.4118842,29.2271126 38.4118842,29.3287703 L38.4118842,37.7090626 C38.4118842,37.8107203 38.4951421,37.8938948 38.5969017,37.8938948 L40.7875096,37.8938948 C40.8892693,37.8938948 40.9725272,37.8107203 40.9725272,37.7090626 L40.9725272,29.3287703 C40.9725272,29.2271126 40.8892693,29.1439381 40.7875096,29.1439381 L38.5969017,29.1439381 Z M31.4589243,41 C31.3053597,41 31.181398,40.8761624 31.181398,40.7227517 L31.181398,36.1324438 C31.181398,36.052966 31.1295931,35.9818056 31.0537359,35.9568532 C31.034309,35.9503841 31.0148822,35.9476116 30.9963804,35.9476116 C30.9380999,35.9476116 30.8825946,35.9753365 30.8465162,36.024317 C30.2146812,36.8893317 29.4773863,37.6822619 28.6549832,38.3818518 C28.6050285,38.4243632 28.5411974,38.4483914 28.4745911,38.4483914 C28.3968837,38.4483914 28.3238018,38.4160457 28.2710718,38.3587478 L28.073103,38.1452666 C27.9852196,38.0491538 27.9750437,37.9031364 28.0509009,37.7968579 C29.126778,36.2738405 30.0268884,34.1057587 30.5856414,31.6927742 C30.5985927,31.6382487 30.5856414,31.5800266 30.5504881,31.536591 C30.5153348,31.4922313 30.4616797,31.4663548 30.4052493,31.4663548 L28.4579395,31.4663548 C28.3302774,31.4663548 28.2201919,31.3804078 28.188739,31.2565702 L28.1064061,30.9266447 C28.0860542,30.8434702 28.104556,30.7565991 28.157286,30.6891353 C28.210016,30.6216716 28.2895735,30.5828568 28.3765318,30.5828568 L30.9963804,30.5828568 C31.0981401,30.5828568 31.181398,30.4996823 31.181398,30.3980246 L31.181398,28.4545139 C31.181398,28.3999884 31.1564206,28.3473113 31.1147917,28.3121931 C31.0805634,28.2844683 31.0389345,28.2696817 30.9963804,28.2696817 C30.9843543,28.2696817 30.9741783,28.2706059 30.9621522,28.2724542 C30.1434495,28.4230925 29.2766422,28.5533992 28.4570144,28.6485878 L28.452389,28.6485878 C28.3006746,28.6485878 28.1961397,28.5700341 28.1600612,28.4545139 L28.0934549,28.2401086 C28.0499758,28.0959395 28.1267581,27.9453012 28.2692216,27.8972448 C30.2276325,27.2290764 32.7660734,25.9796107 34.0482451,25.0526772 C34.0963496,25.0184832 34.15278,25 34.2110605,25 C34.2748916,25 34.3350223,25.0212557 34.384977,25.0609946 L36.3628147,26.64131 C36.4238705,26.6902905 36.4617991,26.7642234 36.4664245,26.8427771 C36.47105,26.9213308 36.4414472,26.9980362 36.3850168,27.0534858 C36.3563391,27.083059 36.3248861,27.1098596 36.2906579,27.1320395 C36.2240515,27.1782476 36.1944487,27.2614221 36.2175759,27.3390516 C36.2407031,27.4157569 36.3110098,27.4693583 36.3924175,27.4702824 C36.4284959,27.4712066 36.4636493,27.4785999 36.4969524,27.4933865 L38.2388928,28.2456536 L40.8522658,28.2604401 C40.9105463,28.2604401 40.9660516,28.2327153 41.0012049,28.1865072 L41.5877106,27.4000462 C41.6404406,27.32981 41.7218483,27.2891469 41.8106567,27.2891469 C41.8698624,27.2891469 41.9262927,27.3076301 41.9734722,27.3418241 L43.8865538,28.741928 C44.0068152,28.8297233 44.0354929,28.9960723 43.9531601,29.1189857 C43.8532506,29.2686998 43.6710083,29.396234 43.4101335,29.4969676 C43.3379767,29.5237683 43.2907972,29.5930803 43.2907972,29.6688615 L43.2907972,39.6035927 C43.2907972,39.9593947 42.4184394,40.3577081 41.2500535,40.3577081 C41.096489,40.3577081 40.9725272,40.2338705 40.9725272,40.0813839 L40.9725272,38.9622249 C40.9725272,38.8605672 40.8892693,38.7773927 40.7875096,38.7773927 L38.5969017,38.7773927 C38.4951421,38.7773927 38.4118842,38.8605672 38.4118842,38.9622249 L38.4118842,39.7024779 C38.4118842,39.9067175 38.0686766,40.6709987 36.386867,40.6709987 C36.2342275,40.6709987 36.1093407,40.5471611 36.1093407,40.3937504 L36.1093407,36.3357593 C36.1093407,36.265523 36.0695619,36.2017559 36.0066559,36.1703344 C35.9807535,36.1573962 35.9520757,36.150927 35.9243231,36.150927 C35.8845443,36.150927 35.8447655,36.1638653 35.8123875,36.1897418 C35.6264448,36.3311385 35.4034987,36.4059955 35.1676013,36.4059955 C34.8650976,36.4059955 34.5690695,36.2701438 34.3118951,36.0123029 C34.269341,35.9697915 34.2415884,35.9143418 34.2332626,35.8542714 C34.1833079,35.4993935 34.0334436,35.0779761 33.7984713,34.6362271 C33.7660933,34.5743083 33.7022622,34.5373419 33.6356559,34.5373419 C33.6208545,34.5373419 33.605128,34.5391902 33.5903266,34.5428868 C33.5079938,34.5632184 33.4497132,34.6380754 33.4497132,34.7221741 L33.4497132,40.2292497 C33.3960582,40.6284873 32.6106586,41 31.771604,41 L31.4589243,41 Z" id="1" fill="#C057EA"></path>
    </g>
</svg>