<?xml version="1.0" encoding="UTF-8" standalone="no"?>
<!DOCTYPE svg PUBLIC "-//W3C//DTD SVG 20010904//EN"
"http://www.w3.org/TR/2001/REC-SVG-20010904/DTD/svg10.dtd">
<!-- Created with Inkscape (http://www.inkscape.org/) -->
<svg
   id="svg1"
   sodipodi:version="0.32"
   inkscape:version="0.39pre4"
   width="125.00000pt"
   height="125.00000pt"
   sodipodi:docbase="/home/lucas/imagen"
   sodipodi:docname="mundo.svg"
   inkscape:export-filename="/home/lucas/imagen/mundo.png"
   inkscape:export-xdpi="72.000000"
   inkscape:export-ydpi="72.000000"
   xmlns="http://www.w3.org/2000/svg"
   xmlns:cc="http://web.resource.org/cc/"
   xmlns:inkscape="http://www.inkscape.org/namespaces/inkscape"
   xmlns:sodipodi="http://sodipodi.sourceforge.net/DTD/sodipodi-0.dtd"
   xmlns:rdf="http://www.w3.org/1999/02/22-rdf-syntax-ns#"
   xmlns:dc="http://purl.org/dc/elements/1.1/"
   xmlns:xlink="http://www.w3.org/1999/xlink">
  <defs
     id="defs3">
    <linearGradient
       id="linearGradient2163">
      <stop
         style="stop-color:#ffffff;stop-opacity:1.0000000;"
         offset="0.0000000"
         id="stop2164" />
      <stop
         style="stop-color:#fffdff;stop-opacity:0.41292134;"
         offset="1.0000000"
         id="stop2165" />
    </linearGradient>
    <radialGradient
       inkscape:collect="always"
       xlink:href="#linearGradient2163"
       id="radialGradient1582"
       cx="0.50814331"
       cy="-0.19318181"
       r="0.88088119"
       fx="0.50814331"
       fy="-0.19318181" />
  </defs>
  <sodipodi:namedview
     id="base"
     pagecolor="#ffffff"
     bordercolor="#666666"
     borderopacity="1.0"
     inkscape:pageopacity="0.0"
     inkscape:pageshadow="2"
     inkscape:zoom="4.9776356"
     inkscape:cx="89.755217"
     inkscape:cy="66.185860"
     inkscape:window-width="1122"
     inkscape:window-height="789"
     inkscape:window-x="0"
     inkscape:window-y="26" />
  <metadata
     id="metadata4">
    <rdf:RDF
       id="RDF5">
      <cc:Work
         rdf:about=""
         id="Work6">
        <dc:format
           id="format7">image/svg+xml</dc:format>
        <dc:type
           id="type9"
           rdf:resource="http://purl.org/dc/dcmitype/StillImage" />
      </cc:Work>
    </rdf:RDF>
  </metadata>
  <path
     sodipodi:type="arc"
     style="fill:#284ddd;fill-opacity:0.98076922;fill-rule:evenodd;stroke:#1e004d;stroke-width:4.5488429;stroke-linecap:butt;stroke-linejoin:miter;stroke-miterlimit:4.0000000;stroke-opacity:1.0000000;"
     id="path919"
     sodipodi:cx="300.86948"
     sodipodi:cy="251.24321"
     sodipodi:rx="128.84123"
     sodipodi:ry="128.84123"
     d="M 429.71071 251.24321 A 128.84123 128.84123 0 1 0 172.02824,251.24321 A 128.84123 128.84123 0 1 0 429.71071 251.24321 z"
     transform="matrix(0.518153,0.000000,0.000000,0.518153,-80.76139,-54.23278)" />
  <path
     id="path1586"
     style="fill:#36d100;fill-opacity:0.86538464;fill-rule:evenodd;stroke:#00ae00;stroke-width:0.37500000;stroke-linecap:butt;stroke-linejoin:miter;stroke-miterlimit:4.0000000;stroke-opacity:1.0000000;"
     d="M 263.71875,118.37500 C 231.75698,124.50717 203.96232,142.20429 184.71875,166.93750 L 193.43750,163.28125 L 195.03125,168.15625 L 200.78125,160.34375 L 200.40625,158.15625 L 203.59375,157.31250 L 203.59375,161.21875 C 203.59375,161.21875 207.23850,161.57399 206.75000,162.06250 C 206.26149,162.55101 199.68750,166.21875 199.68750,166.21875 L 200.53125,170.00000 L 203.59375,166.59375 L 208.09375,162.78125 L 211.15625,158.53125 L 208.96875,157.53125 L 220.37500,148.56250 L 218.37500,146.56250 L 227.65625,138.84375 L 219.81250,140.81250 L 217.03125,144.00000 L 210.53125,145.81250 L 230.34375,131.53125 L 236.68750,131.03125 L 232.03125,134.71875 L 236.81250,133.00000 C 236.81250,133.00000 243.40050,132.63901 243.15625,131.90625 C 242.91199,131.17349 242.40625,130.78125 242.40625,130.78125 L 246.34375,128.96875 L 246.21875,127.50000 L 250.59375,123.21875 L 253.90625,122.00000 L 253.65625,124.31250 L 259.25000,123.84375 C 259.25001,123.84375 268.56586,120.84375 267.87500,120.84375 C 267.18415,120.84375 258.37500,122.12500 258.37500,122.12500 L 263.71875,118.37500 z M 311.53125,118.06250 L 320.65625,126.71875 L 327.87500,131.03125 L 322.46875,131.75000 L 324.25000,133.90625 L 317.78125,133.90625 L 316.00000,137.53125 L 319.59375,141.12500 L 318.87500,144.00000 L 321.37500,146.50000 L 327.50000,152.28125 L 328.21875,156.93750 L 325.34375,156.93750 L 324.62500,153.00000 L 316.34375,146.50000 L 318.50000,153.00000 L 322.81250,154.43750 L 316.00000,154.78125 L 317.43750,156.93750 L 311.31250,158.03125 L 302.65625,168.81250 L 295.84375,164.87500 L 301.93750,164.50000 C 301.93750,164.50001 305.53331,163.78332 304.09375,162.34375 C 302.65417,160.90418 293.31250,158.03125 293.31250,158.03125 L 288.62500,158.03125 L 273.53125,170.62500 L 271.00000,170.62500 L 268.12500,174.21875 L 265.96875,180.34375 L 271.71875,180.00000 L 274.59375,186.46875 L 280.71875,183.59375 L 283.59375,177.46875 L 281.78125,174.59375 L 287.18750,165.93750 L 290.43750,168.46875 L 284.31250,173.50000 L 287.18750,178.53125 L 288.28125,183.59375 L 285.75000,183.21875 L 284.68750,188.25000 L 280.34375,190.40625 L 280.34375,187.90625 L 274.96875,191.87500 L 272.81250,190.06250 L 270.28125,190.06250 L 269.56250,185.75000 L 272.06250,185.37500 L 271.00000,182.87500 L 268.12500,183.59375 L 267.75000,190.40625 L 264.53125,190.40625 L 260.56250,192.93750 L 256.96875,193.65625 L 253.00000,197.25000 L 246.87500,197.25000 L 248.31250,205.90625 L 245.09375,210.56250 L 235.71875,206.96875 L 233.21875,213.09375 L 229.25000,217.40625 L 229.62500,222.09375 L 233.56250,224.25000 L 233.56250,227.12500 L 236.43750,225.34375 L 240.40625,226.40625 L 245.81250,223.15625 L 244.71875,218.84375 L 251.56250,215.96875 L 252.65625,212.75000 L 258.03125,214.18750 L 263.81250,210.56250 L 265.59375,217.40625 C 265.59374,217.40625 274.59478,220.65315 273.87500,222.81250 C 273.15523,224.97184 273.53125,227.84375 273.53125,227.84375 L 275.31250,225.68750 L 275.62500,223.03125 L 278.56250,223.90625 L 276.28125,220.40625 L 268.84375,212.37500 L 271.00000,209.84375 L 280.71875,219.56250 L 280.34375,223.90625 L 283.59375,227.12500 L 288.28125,227.84375 L 286.12500,222.09375 L 288.62500,223.15625 C 288.62501,223.15625 290.43647,218.84065 291.15625,221.00000 C 291.87604,223.15935 294.75000,224.25000 294.75000,224.25000 L 296.90625,221.00000 L 295.84375,216.34375 L 297.84375,212.00000 L 300.50000,206.62500 L 305.18750,206.96875 L 304.09375,210.56250 L 307.34375,212.37500 L 308.78125,210.21875 L 307.34375,207.68750 L 312.03125,203.75000 L 310.21875,211.28125 L 316.00000,210.93750 L 321.37500,217.06250 L 318.50000,219.21875 L 312.03125,219.21875 L 307.71875,217.40625 L 304.84375,217.40625 L 302.65625,221.00000 L 299.43750,221.00000 L 295.12500,225.68750 L 295.84375,230.00000 L 300.50000,232.87500 L 304.09375,231.43750 L 307.34375,232.53125 L 309.15625,231.09375 L 312.75000,231.09375 L 312.37500,237.93750 L 310.59375,244.03125 L 304.46875,244.03125 L 299.78125,247.28125 L 289.00000,242.96875 L 285.40625,240.81250 L 281.78125,243.31250 L 279.28125,249.09375 L 274.25000,245.50000 L 271.71875,242.96875 L 268.84375,239.00000 L 262.71875,238.65625 L 261.65625,236.50000 L 263.09375,234.68750 C 263.09376,234.68750 264.15935,229.28228 262.00000,228.56250 C 259.84066,227.84273 246.15625,228.56250 246.15625,228.56250 L 240.06250,230.71875 L 234.65625,228.21875 L 227.81250,232.53125 L 223.84375,234.34375 L 223.50000,237.93750 L 217.75000,243.31250 L 214.84375,240.81250 L 205.50000,252.31250 L 204.40625,265.62500 L 199.37500,274.28125 L 205.50000,278.25000 L 213.78125,297.31250 L 226.00000,299.09375 L 231.06250,301.62500 L 238.59375,300.18750 L 246.87500,305.93750 L 255.87500,307.75000 L 254.09375,321.43750 L 260.18750,326.09375 L 264.15625,337.62500 L 265.96875,340.50000 L 263.43750,343.00000 L 261.28125,350.56250 L 268.84375,357.06250 L 271.00000,363.15625 C 271.00000,363.15625 277.46875,366.05837 277.46875,368.93750 C 277.46874,371.81663 278.18750,372.87500 278.18750,372.87500 L 295.84375,371.09375 L 308.06250,362.81250 L 308.06250,360.28125 L 315.25000,357.78125 L 314.53125,353.81250 L 327.50000,344.81250 L 328.59375,334.37500 L 325.34375,330.06250 L 326.06250,323.93750 L 335.78125,311.71875 C 335.78124,311.71875 347.28021,303.78435 348.00000,301.62500 C 348.71979,299.46565 351.62500,282.90625 351.62500,282.90625 L 337.93750,290.84375 L 333.25000,288.31250 L 334.34375,286.87500 L 326.40625,281.84375 L 319.21875,272.46875 L 319.21875,265.62500 L 313.81250,262.75000 L 306.62500,249.09375 L 310.93750,251.96875 L 312.75000,249.09375 L 318.50000,259.53125 L 323.18750,262.03125 L 322.81250,266.71875 L 333.25000,276.43750 L 335.78125,285.78125 L 348.75000,278.59375 L 355.93750,268.15625 L 365.28125,253.40625 L 355.21875,249.43750 L 345.84375,256.65625 L 348.00000,249.81250 L 345.12500,251.96875 L 337.59375,243.68750 L 342.96875,242.59375 L 349.81250,247.28125 L 355.56250,246.56250 L 360.25000,248.00000 L 372.56250,243.87500 L 377.15625,244.12500 L 380.43750,244.12500 L 377.65625,248.46875 L 381.96875,248.18750 C 381.96876,248.18750 384.01332,243.88833 385.03125,244.90625 C 386.04919,245.92419 397.75000,270.34375 397.75000,270.34375 L 400.03125,261.68750 L 398.00000,253.81250 L 403.59375,226.31250 L 409.46875,234.46875 L 411.00000,230.62500 L 413.28125,236.75000 L 416.06250,233.68750 L 417.09375,235.46875 L 417.34375,226.31250 L 410.46875,216.65625 L 412.71875,203.87500 C 397.11043,159.68961 358.67291,126.35571 311.53125,118.06250 z M 249.07705,182.63813 L 246.45133,183.61515 L 243.88667,184.10365 L 244.25305,186.42406 L 241.50520,189.04978 L 244.06986,191.18699 L 247.79472,186.91256 L 250.17619,184.22578 L 249.07705,182.63813 z M 255.91613,176.89819 C 255.91613,176.89819 251.64170,180.07348 251.64170,180.56198 C 251.64170,181.05049 252.31340,183.06558 252.31340,183.06558 L 251.15320,184.77535 L 251.94702,188.31702 L 248.22216,190.33211 L 250.35938,191.79762 L 246.45133,193.87377 C 246.45133,193.87377 250.05406,193.14102 250.54257,193.38527 C 251.03107,193.62952 254.51167,193.62952 254.51167,193.62952 L 256.89315,191.00380 L 255.54975,188.74446 L 255.97720,186.60725 L 254.38955,183.43196 L 257.19846,179.89029 L 255.36656,179.21859 L 255.91613,176.89819 z M 247.24515,157.11369 L 249.50449,158.02964 L 248.58854,159.31197 C 248.58854,159.31197 253.53467,159.31197 253.53467,159.92260 C 253.53467,160.53323 250.17619,164.38022 250.17619,164.38022 C 250.17619,164.38022 247.42834,164.19703 245.59644,162.18194 C 243.76454,160.16685 247.36728,158.70134 247.36728,158.70134 L 247.24515,157.41901 M 273.44129,136.04687 L 275.88382,138.24514 L 272.22002,139.71066 L 264.40393,146.79400 L 260.25162,146.42762 L 256.58783,152.04544 L 255.61082,148.01527 L 253.65679,149.96929 L 254.38955,151.92331 L 237.04759,152.28969 L 227.03321,158.51815 C 227.03321,158.51815 226.91108,154.24372 227.39959,153.51096 C 227.88810,152.77820 237.90247,144.22934 237.90247,144.22934 C 237.90247,144.22934 239.36799,144.47360 240.83351,144.22934 C 242.29903,143.98509 258.05335,135.06985 258.05335,135.06985 L 258.05335,132.87158 L 261.96140,131.03968 L 266.96858,132.99370 C 266.96858,132.99370 268.55623,132.62732 269.65537,132.62732 C 270.75451,132.62732 276.25020,134.58135 276.25020,134.58135 L 276.49445,136.77962 L 273.44129,136.04687 z M 256.22145,130.18479 C 256.22145,130.18479 264.77031,129.32991 265.25881,130.06267 C 265.74732,130.79543 266.72433,131.65031 266.72433,131.65031 L 270.99876,131.16180 L 270.99876,128.59715 C 270.99876,128.59715 268.43410,125.42186 267.45709,125.66611 C 266.48008,125.91036 263.06053,128.23077 263.06053,128.23077 L 257.44271,129.08565 L 256.22145,130.18479 z M 232.47168,136.81063 C 231.78083,137.50149 226.77215,143.20101 226.77215,143.20101 L 234.71695,139.31497 L 233.85339,142.16474 L 253.62902,128.95219 L 249.74298,125.58429 L 248.27492,129.38397 L 245.77058,130.50661 L 245.07973,133.01095 L 236.35772,137.32877 L 232.47168,136.81063 z M 287.48077,141.47388 C 286.61720,141.64660 283.33566,142.51016 283.33566,142.51016 L 283.68108,146.82799 C 283.68108,146.82799 289.98511,141.90567 289.29425,141.90567 C 288.60340,141.90567 287.48077,141.47388 287.48077,141.47388 z M 309.67439,142.76923 C 309.67439,142.76923 300.26153,148.90054 310.53795,153.99558 C 306.73827,148.55512 309.67439,142.76923 309.67439,142.76923 z M 347.23946,334.56700 L 334.02692,345.10250 L 334.89048,348.29769 L 331.95436,353.13365 L 333.16335,356.50155 C 333.16335,356.50155 339.29466,354.25629 339.64009,353.56543 C 339.98552,352.87458 349.22566,338.62576 349.05295,338.10762 C 348.88024,337.58948 347.23946,334.56700 347.23946,334.56700 z "
     transform="matrix(0.506881,0.000000,0.000000,0.506881,-71.16755,-49.57648)" />
  <path
     style="fill:none;fill-opacity:0.75000000;fill-rule:evenodd;stroke:#000000;stroke-width:1.0000000pt;stroke-linecap:butt;stroke-linejoin:miter;stroke-opacity:0.43269232;"
     d="M 159.93528,216.43985 C 175.18878,320.94902 417.43258,294.51968 416.37540,220.06445"
     id="path1624"
     sodipodi:nodetypes="cc"
     transform="matrix(0.506881,0.000000,0.000000,0.506881,-71.16755,-49.57648)" />
  <path
     sodipodi:type="arc"
     style="fill:none;fill-opacity:0.71634614;fill-rule:evenodd;stroke:#1e004d;stroke-width:4.5488429;stroke-linecap:butt;stroke-linejoin:miter;stroke-miterlimit:4.0000000;stroke-opacity:1.0000000;"
     id="path1625"
     sodipodi:cx="300.86948"
     sodipodi:cy="251.24321"
     sodipodi:rx="128.84123"
     sodipodi:ry="128.84123"
     d="M 429.71071 251.24321 A 128.84123 128.84123 0 1 0 172.02824,251.24321 A 128.84123 128.84123 0 1 0 429.71071 251.24321 z"
     transform="matrix(0.518153,0.000000,0.000000,0.518153,-80.76139,-54.23278)" />
  <path
     style="fill:url(#radialGradient1582);fill-opacity:0.75000000;fill-rule:evenodd;stroke:none;stroke-width:0.89576788pt;stroke-linecap:butt;stroke-linejoin:miter;stroke-opacity:1.0000000;"
     d="M 137.93415,75.263515 C 105.11665,110.10054 64.725913,29.319031 11.713046,75.263515 C 11.713046,40.426486 39.986576,12.152957 74.823599,12.152957 C 109.66062,12.152957 137.93415,40.426486 137.93415,75.263515 z "
     id="path1535"
     sodipodi:nodetypes="cccc" />
</svg>
