<?xml version="1.0" encoding="UTF-8"?>
<!--Generator: Apple Native CoreSVG 341-->
<!DOCTYPE svg
PUBLIC "-//W3C//DTD SVG 1.1//EN"
       "http://www.w3.org/Graphics/SVG/1.1/DTD/svg11.dtd">
<svg version="1.1" xmlns="http://www.w3.org/2000/svg" xmlns:xlink="http://www.w3.org/1999/xlink" viewBox="0 0 3300 2200">
 <!--glyph: "", point size: 100.0, font version: "20.0d10e1", template writer version: "138.0.0"-->
 <style>.monochrome-0 {-sfsymbols-motion-group:0;-sfsymbols-layer-tags:-189d7b5ed2af1046}

.multicolor-0:tintColor {-sfsymbols-motion-group:0;-sfsymbols-layer-tags:-189d7b5ed2af1046}

.hierarchical-0:primary {-sfsymbols-motion-group:0;-sfsymbols-layer-tags:-189d7b5ed2af1046}

.SFSymbolsPreviewWireframe {fill:none;opacity:1.0;stroke:black;stroke-width:0.5}
</style>
 <g id="Notes">
  <rect height="2200" id="artboard" style="fill:white;opacity:1" width="3300" x="0" y="0"/>
  <line style="fill:none;stroke:black;opacity:1;stroke-width:0.5;" x1="263" x2="3036" y1="292" y2="292"/>
  <text style="stroke:none;fill:black;font-family:sans-serif;font-size:13;font-weight:bold;" transform="matrix(1 0 0 1 263 322)">Weight/Scale Variations</text>
  <text style="stroke:none;fill:black;font-family:sans-serif;font-size:13;text-anchor:middle;" transform="matrix(1 0 0 1 559.711 322)">Ultralight</text>
  <text style="stroke:none;fill:black;font-family:sans-serif;font-size:13;text-anchor:middle;" transform="matrix(1 0 0 1 856.422 322)">Thin</text>
  <text style="stroke:none;fill:black;font-family:sans-serif;font-size:13;text-anchor:middle;" transform="matrix(1 0 0 1 1153.13 322)">Light</text>
  <text style="stroke:none;fill:black;font-family:sans-serif;font-size:13;text-anchor:middle;" transform="matrix(1 0 0 1 1449.84 322)">Regular</text>
  <text style="stroke:none;fill:black;font-family:sans-serif;font-size:13;text-anchor:middle;" transform="matrix(1 0 0 1 1746.56 322)">Medium</text>
  <text style="stroke:none;fill:black;font-family:sans-serif;font-size:13;text-anchor:middle;" transform="matrix(1 0 0 1 2043.27 322)">Semibold</text>
  <text style="stroke:none;fill:black;font-family:sans-serif;font-size:13;text-anchor:middle;" transform="matrix(1 0 0 1 2339.98 322)">Bold</text>
  <text style="stroke:none;fill:black;font-family:sans-serif;font-size:13;text-anchor:middle;" transform="matrix(1 0 0 1 2636.69 322)">Heavy</text>
  <text style="stroke:none;fill:black;font-family:sans-serif;font-size:13;text-anchor:middle;" transform="matrix(1 0 0 1 2933.4 322)">Black</text>
  <line style="fill:none;stroke:black;opacity:1;stroke-width:0.5;" x1="263" x2="3036" y1="1903" y2="1903"/>
  <g transform="matrix(0.2 0 0 0.2 263 1933)">
   <path d="m46.2402 4.15039c21.7773 0 39.4531-17.627 39.4531-39.4043s-17.6758-39.4043-39.4531-39.4043c-21.7285 0-39.4043 17.627-39.4043 39.4043s17.6758 39.4043 39.4043 39.4043Zm0-7.42188c-17.6758 0-31.9336-14.3066-31.9336-31.9824s14.2578-31.9824 31.9336-31.9824 31.9824 14.3066 31.9824 31.9824-14.3066 31.9824-31.9824 31.9824Zm-17.9688-31.9824c0 2.14844 1.51367 3.61328 3.75977 3.61328h10.498v10.5957c0 2.19727 1.46484 3.71094 3.61328 3.71094 2.24609 0 3.71094-1.51367 3.71094-3.71094v-10.5957h10.5957c2.19727 0 3.71094-1.46484 3.71094-3.61328 0-2.19727-1.51367-3.71094-3.71094-3.71094h-10.5957v-10.5469c0-2.24609-1.46484-3.75977-3.71094-3.75977-2.14844 0-3.61328 1.51367-3.61328 3.75977v10.5469h-10.498c-2.24609 0-3.75977 1.51367-3.75977 3.71094Z"/>
  </g>
  <g transform="matrix(0.2 0 0 0.2 281.506 1933)">
   <path d="m58.5449 14.5508c27.4902 0 49.8047-22.3145 49.8047-49.8047s-22.3145-49.8047-49.8047-49.8047-49.8047 22.3145-49.8047 49.8047 22.3145 49.8047 49.8047 49.8047Zm0-8.30078c-22.9492 0-41.5039-18.5547-41.5039-41.5039s18.5547-41.5039 41.5039-41.5039 41.5039 18.5547 41.5039 41.5039-18.5547 41.5039-41.5039 41.5039Zm-22.6562-41.5039c0 2.39258 1.66016 4.00391 4.15039 4.00391h14.3555v14.4043c0 2.44141 1.66016 4.15039 4.05273 4.15039 2.44141 0 4.15039-1.66016 4.15039-4.15039v-14.4043h14.4043c2.44141 0 4.15039-1.61133 4.15039-4.00391 0-2.44141-1.70898-4.15039-4.15039-4.15039h-14.4043v-14.3555c0-2.49023-1.70898-4.19922-4.15039-4.19922-2.39258 0-4.05273 1.70898-4.05273 4.19922v14.3555h-14.3555c-2.49023 0-4.15039 1.70898-4.15039 4.15039Z"/>
  </g>
  <g transform="matrix(0.2 0 0 0.2 304.924 1933)">
   <path d="m74.8535 28.3203c35.1074 0 63.623-28.4668 63.623-63.5742s-28.5156-63.623-63.623-63.623-63.5742 28.5156-63.5742 63.623 28.4668 63.5742 63.5742 63.5742Zm0-9.08203c-30.127 0-54.4922-24.3652-54.4922-54.4922s24.3652-54.4922 54.4922-54.4922 54.4922 24.3652 54.4922 54.4922-24.3652 54.4922-54.4922 54.4922Zm-28.8574-54.4922c0 2.58789 1.85547 4.39453 4.58984 4.39453h19.7266v19.7754c0 2.68555 1.85547 4.58984 4.44336 4.58984 2.68555 0 4.54102-1.85547 4.54102-4.58984v-19.7754h19.7754c2.68555 0 4.58984-1.80664 4.58984-4.39453 0-2.73438-1.85547-4.58984-4.58984-4.58984h-19.7754v-19.7266c0-2.73438-1.85547-4.63867-4.54102-4.63867-2.58789 0-4.44336 1.9043-4.44336 4.63867v19.7266h-19.7266c-2.73438 0-4.58984 1.85547-4.58984 4.58984Z"/>
  </g>
  <text style="stroke:none;fill:black;font-family:sans-serif;font-size:13;font-weight:bold;" transform="matrix(1 0 0 1 263 1953)">Design Variations</text>
  <text style="stroke:none;fill:black;font-family:sans-serif;font-size:13;" transform="matrix(1 0 0 1 263 1971)">Symbols are supported in up to nine weights and three scales.</text>
  <text style="stroke:none;fill:black;font-family:sans-serif;font-size:13;" transform="matrix(1 0 0 1 263 1989)">For optimal layout with text and other symbols, vertically align</text>
  <text style="stroke:none;fill:black;font-family:sans-serif;font-size:13;" transform="matrix(1 0 0 1 263 2007)">symbols with the adjacent text.</text>
  <line style="fill:none;stroke:#00AEEF;stroke-width:0.5;opacity:1.0;" x1="776" x2="776" y1="1919" y2="1933"/>
  <g transform="matrix(0.2 0 0 0.2 776 1933)">
   <path d="m16.5527 0.78125c2.58789 0 3.85742-0.976562 4.78516-3.71094l6.29883-17.2363h28.8086l6.29883 17.2363c0.927734 2.73438 2.19727 3.71094 4.73633 3.71094 2.58789 0 4.24805-1.5625 4.24805-4.00391 0-0.830078-0.146484-1.61133-0.537109-2.63672l-22.9004-60.9863c-1.12305-2.97852-3.125-4.49219-6.25-4.49219-3.02734 0-5.07812 1.46484-6.15234 4.44336l-22.9004 61.084c-0.390625 1.02539-0.537109 1.80664-0.537109 2.63672 0 2.44141 1.5625 3.95508 4.10156 3.95508Zm13.4766-28.3691 11.8652-32.8613h0.244141l11.8652 32.8613Z"/>
  </g>
  <line style="fill:none;stroke:#00AEEF;stroke-width:0.5;opacity:1.0;" x1="792.836" x2="792.836" y1="1919" y2="1933"/>
  <text style="stroke:none;fill:black;font-family:sans-serif;font-size:13;font-weight:bold;" transform="matrix(1 0 0 1 776 1953)">Margins</text>
  <text style="stroke:none;fill:black;font-family:sans-serif;font-size:13;" transform="matrix(1 0 0 1 776 1971)">Leading and trailing margins on the left and right side of each symbol</text>
  <text style="stroke:none;fill:black;font-family:sans-serif;font-size:13;" transform="matrix(1 0 0 1 776 1989)">can be adjusted by modifying the x-location of the margin guidelines.</text>
  <text style="stroke:none;fill:black;font-family:sans-serif;font-size:13;" transform="matrix(1 0 0 1 776 2007)">Modifications are automatically applied proportionally to all</text>
  <text style="stroke:none;fill:black;font-family:sans-serif;font-size:13;" transform="matrix(1 0 0 1 776 2025)">scales and weights.</text>
  <g transform="matrix(0.2 0 0 0.2 1289 1933)">
   <path d="m14.209 9.32617 8.49609 8.54492c4.29688 4.3457 9.22852 4.05273 13.8672-1.07422l53.4668-58.9355-4.83398-4.88281-53.0762 58.3984c-1.75781 2.00195-3.41797 2.49023-5.76172 0.146484l-5.85938-5.81055c-2.34375-2.29492-1.80664-4.00391 0.195312-5.81055l57.373-54.0039-4.88281-4.83398-57.959 54.4434c-4.93164 4.58984-5.32227 9.47266-1.02539 13.8184Zm32.0801-90.9668c-2.09961 2.05078-2.24609 4.93164-1.07422 6.88477 1.17188 1.80664 3.4668 2.97852 6.68945 2.14844 7.32422-1.70898 14.9414-2.00195 22.0703 2.68555l-2.92969 7.27539c-1.70898 4.15039-0.830078 7.08008 1.85547 9.81445l11.4746 11.5723c2.44141 2.44141 4.49219 2.53906 7.32422 2.05078l5.32227-0.976562 3.32031 3.36914-0.195312 2.7832c-0.195312 2.49023 0.439453 4.39453 2.88086 6.78711l3.80859 3.71094c2.39258 2.39258 5.46875 2.53906 7.8125 0.195312l14.5508-14.5996c2.34375-2.34375 2.24609-5.32227-0.146484-7.71484l-3.85742-3.80859c-2.39258-2.39258-4.24805-3.17383-6.64062-2.97852l-2.88086 0.244141-3.22266-3.17383 1.2207-5.61523c0.634766-2.83203-0.146484-5.0293-3.07617-7.95898l-10.9863-10.9375c-16.6992-16.6016-38.8672-16.2109-53.3203-1.75781Zm7.4707 1.85547c12.1582-8.88672 28.6133-7.37305 39.7461 3.75977l12.1582 12.0605c1.17188 1.17188 1.36719 2.09961 1.02539 3.80859l-1.61133 7.42188 7.51953 7.42188 4.93164-0.292969c1.26953-0.0488281 1.66016 0.0488281 2.63672 1.02539l2.88086 2.88086-12.207 12.207-2.88086-2.88086c-0.976562-0.976562-1.12305-1.36719-1.07422-2.68555l0.341797-4.88281-7.4707-7.42188-7.61719 1.26953c-1.61133 0.341797-2.34375 0.195312-3.56445-0.976562l-10.0098-10.0098c-1.26953-1.17188-1.41602-2.00195-0.634766-3.85742l4.39453-10.4492c-7.8125-7.27539-17.9688-10.4004-28.125-7.42188-0.78125 0.195312-1.07422-0.439453-0.439453-0.976562Z"/>
  </g>
  <text style="stroke:none;fill:black;font-family:sans-serif;font-size:13;font-weight:bold;" transform="matrix(1 0 0 1 1289 1953)">Exporting</text>
  <text style="stroke:none;fill:black;font-family:sans-serif;font-size:13;" transform="matrix(1 0 0 1 1289 1971)">Symbols should be outlined when exporting to ensure the</text>
  <text style="stroke:none;fill:black;font-family:sans-serif;font-size:13;" transform="matrix(1 0 0 1 1289 1989)">design is preserved when submitting to Xcode.</text>
  <text id="template-version" style="stroke:none;fill:black;font-family:sans-serif;font-size:13;text-anchor:end;" transform="matrix(1 0 0 1 3036 1933)">Template v.6.0</text>
  <text style="stroke:none;fill:black;font-family:sans-serif;font-size:13;text-anchor:end;" transform="matrix(1 0 0 1 3036 1951)">Requires Xcode 16 or greater</text>
  <text id="descriptive-name" style="stroke:none;fill:black;font-family:sans-serif;font-size:13;text-anchor:end;" transform="matrix(1 0 0 1 3036 1969)">Generated from poedit.pretranslate</text>
  <text style="stroke:none;fill:black;font-family:sans-serif;font-size:13;text-anchor:end;" transform="matrix(1 0 0 1 3036 1987)">Typeset at 100.0 points</text>
  <text style="stroke:none;fill:black;font-family:sans-serif;font-size:13;" transform="matrix(1 0 0 1 263 726)">Small</text>
  <text style="stroke:none;fill:black;font-family:sans-serif;font-size:13;" transform="matrix(1 0 0 1 263 1156)">Medium</text>
  <text style="stroke:none;fill:black;font-family:sans-serif;font-size:13;" transform="matrix(1 0 0 1 263 1586)">Large</text>
 </g>
 <g id="Guides">
  <g id="H-reference" style="fill:#27AAE1;stroke:none;" transform="matrix(1 0 0 1 339 696)">
   <path d="M0.993654 0L3.63775 0L29.3281-67.1323L30.0303-67.1323L30.0303-70.459L28.1226-70.459ZM11.6885-24.4799L46.9815-24.4799L46.2315-26.7285L12.4385-26.7285ZM55.1196 0L57.7637 0L30.6382-70.459L29.4326-70.459L29.4326-67.1323Z"/>
  </g>
  <line id="Baseline-S" style="fill:none;stroke:#27AAE1;opacity:1;stroke-width:0.5;" x1="263" x2="3036" y1="696" y2="696"/>
  <line id="Capline-S" style="fill:none;stroke:#27AAE1;opacity:1;stroke-width:0.5;" x1="263" x2="3036" y1="625.541" y2="625.541"/>
  <g id="H-reference" style="fill:#27AAE1;stroke:none;" transform="matrix(1 0 0 1 339 1126)">
   <path d="M0.993654 0L3.63775 0L29.3281-67.1323L30.0303-67.1323L30.0303-70.459L28.1226-70.459ZM11.6885-24.4799L46.9815-24.4799L46.2315-26.7285L12.4385-26.7285ZM55.1196 0L57.7637 0L30.6382-70.459L29.4326-70.459L29.4326-67.1323Z"/>
  </g>
  <line id="Baseline-M" style="fill:none;stroke:#27AAE1;opacity:1;stroke-width:0.5;" x1="263" x2="3036" y1="1126" y2="1126"/>
  <line id="Capline-M" style="fill:none;stroke:#27AAE1;opacity:1;stroke-width:0.5;" x1="263" x2="3036" y1="1055.54" y2="1055.54"/>
  <g id="H-reference" style="fill:#27AAE1;stroke:none;" transform="matrix(1 0 0 1 339 1556)">
   <path d="M0.993654 0L3.63775 0L29.3281-67.1323L30.0303-67.1323L30.0303-70.459L28.1226-70.459ZM11.6885-24.4799L46.9815-24.4799L46.2315-26.7285L12.4385-26.7285ZM55.1196 0L57.7637 0L30.6382-70.459L29.4326-70.459L29.4326-67.1323Z"/>
  </g>
  <line id="Baseline-L" style="fill:none;stroke:#27AAE1;opacity:1;stroke-width:0.5;" x1="263" x2="3036" y1="1556" y2="1556"/>
  <line id="Capline-L" style="fill:none;stroke:#27AAE1;opacity:1;stroke-width:0.5;" x1="263" x2="3036" y1="1485.54" y2="1485.54"/>
  <line id="right-margin-Regular-M" style="fill:none;stroke:#00AEEF;stroke-width:0.5;opacity:1.0;" x1="1526.43" x2="1526.43" y1="1030.79" y2="1150.12"/>
  <line id="left-margin-Regular-M" style="fill:none;stroke:#00AEEF;stroke-width:0.5;opacity:1.0;" x1="1373.26" x2="1373.26" y1="1030.79" y2="1150.12"/>
 </g>
 <g id="Symbols">
  <g id="Black-L" transform="matrix(1 0 0 1 2834.2 1556)">
   <path class="monochrome-0 multicolor-0:tintColor hierarchical-0:primary SFSymbolsPreviewWireframe" d="M115.013 23.2419L143.719-56.6301C141.528-50.5311 132.903-50.5311 130.711-56.6301L159.417 23.2419C161.477 28.9729 167.794 31.9499 173.526 29.8899C179.258 27.8299 182.234 21.5129 180.174 15.7819L151.467-64.0901C146.665-77.4531 127.766-77.4531 122.963-64.0901L94.2557 15.7819C92.1957 21.5129 95.1727 27.8299 100.904 29.8899C106.636 31.9499 112.953 28.9729 115.013 23.2419ZM114.66 4.2969L159.77 4.2969L159.77-17.7601L114.66-17.7601L114.66 4.2969ZM26.6937-72.3911L112.404-72.3911C118.495-72.3911 123.433-77.3281 123.433-83.4191C123.433-89.5101 118.495-94.4471 112.404-94.4471L26.6937-94.4471C20.6037-94.4471 15.6657-89.5101 15.6657-83.4191C15.6657-77.3281 20.6037-72.3911 26.6937-72.3911ZM83.5097-85.3921C78.2807-56.6341 58.8247-37.1781 23.4507-26.2941C17.6297-24.5031 14.3627-18.3321 16.1537-12.5101C17.9447-6.6891 24.1157-3.4221 29.9377-5.2131C72.7547-18.3881 98.4097-44.0421 105.21-81.4461C106.3-87.4391 102.325-93.1801 96.3327-94.2701C90.3397-95.3591 84.5987-91.3841 83.5097-85.3921ZM33.9567-81.4461C39.9697-48.3741 60.7987-24.3601 95.2877-10.1871L103.672-30.5881C75.8907-42.0041 60.2717-60.0121 55.6577-85.3921L33.9567-81.4461ZM58.5207-101.463L58.5207-85.6751C58.5207-79.5841 63.4587-74.6461 69.5487-74.6461C75.6397-74.6461 80.5777-79.5841 80.5777-85.6751L80.5777-101.463C80.5777-107.554 75.6397-112.492 69.5487-112.492C63.4587-112.492 58.5207-107.554 58.5207-101.463Z"/>
  </g>
  <g id="Heavy-L" transform="matrix(1 0 0 1 2538.53 1556)">
   <path class="monochrome-0 multicolor-0:tintColor hierarchical-0:primary SFSymbolsPreviewWireframe" d="M112.984 22.8879L141.691-56.9831C139.831-51.8061 132.509-51.8061 130.649-56.9831L159.356 22.8879C161.221 28.0769 166.939 30.7719 172.127 28.9069C177.316 27.0419 180.011 21.3239 178.146 16.1349L149.439-63.7361C144.968-76.1781 127.372-76.1781 122.901-63.7361L94.1941 16.1349C92.3291 21.3239 95.0241 27.0419 100.213 28.9069C105.401 30.7719 111.12 28.0769 112.984 22.8879ZM113.615 3.2519L158.725 3.2519L158.725-16.7151L113.615-16.7151L113.615 3.2519ZM25.6491-73.4361L111.359-73.4361C116.873-73.4361 121.343-77.9051 121.343-83.4191C121.343-88.9331 116.873-93.4031 111.359-93.4031L25.6491-93.4031C20.1361-93.4031 15.6661-88.9331 15.6661-83.4191C15.6661-77.9051 20.1361-73.4361 25.6491-73.4361ZM83.4931-85.2051C78.1901-56.0381 58.4401-36.2881 22.7131-25.2951C17.4441-23.6741 14.4861-18.0871 16.1071-12.8181C17.7291-7.5481 23.3161-4.5901 28.5851-6.2121C71.0501-19.2781 96.4111-44.6381 103.138-81.6331C104.124-87.0581 100.526-92.2551 95.1011-93.2421C89.6761-94.2281 84.4791-90.6301 83.4931-85.2051ZM33.9401-81.6331C39.8871-48.9251 60.4691-25.1961 94.6401-11.1531L102.23-29.6211C74.1321-41.1681 58.2651-59.4601 53.5851-85.2051L33.9401-81.6331ZM58.5211-101.463L58.5211-85.6751C58.5211-80.1611 62.9911-75.6911 68.5041-75.6911C74.0181-75.6911 78.4881-80.1611 78.4881-85.6751L78.4881-101.463C78.4881-106.977 74.0181-111.447 68.5041-111.447C62.9911-111.447 58.5211-106.977 58.5211-101.463Z"/>
  </g>
  <g id="Bold-L" transform="matrix(1 0 0 1 2242.87 1556)">
   <path class="monochrome-0 multicolor-0:tintColor hierarchical-0:primary SFSymbolsPreviewWireframe" d="M110.956 22.5349L139.663-57.3361C138.134-53.0821 132.116-53.0821 130.587-57.3371L159.294 22.5349C160.964 27.1809 166.083 29.5929 170.729 27.9229C175.375 26.2539 177.787 21.1339 176.118 16.4879L147.411-63.3831C143.271-74.9031 126.979-74.9031 122.839-63.3831L94.1329 16.4879C92.4629 21.1339 94.8749 26.2539 99.5209 27.9229C104.167 29.5929 109.286 27.1809 110.956 22.5349ZM112.57 2.2069L157.68 2.2069L157.68-15.6701L112.57-15.6701L112.57 2.2069ZM24.6039-74.4801L110.314-74.4801C115.251-74.4801 119.253-78.4821 119.253-83.4191C119.253-88.3561 115.251-92.3581 110.314-92.3581L24.6039-92.3581C19.6679-92.3581 15.6659-88.3561 15.6659-83.4191C15.6659-78.4821 19.6679-74.4801 24.6039-74.4801ZM83.4759-85.0181C78.0979-55.4411 58.0549-35.3981 21.9759-24.2971C17.2569-22.8451 14.6089-17.8431 16.0609-13.1251C17.5129-8.4061 22.5149-5.7581 27.2329-7.2101C69.3459-20.1681 94.4129-45.2351 101.065-81.8201C101.948-86.6771 98.7259-91.3311 93.8689-92.2141C89.0119-93.0971 84.3589-89.8751 83.4759-85.0181ZM33.9229-81.8201C39.8029-49.4771 60.1389-26.0321 93.9919-12.1201L100.788-28.6551C72.3719-40.3331 56.2589-58.9091 51.5119-85.0181L33.9229-81.8201ZM58.5209-101.463L58.5209-85.6751C58.5209-80.7381 62.5229-76.7361 67.4589-76.7361C72.3959-76.7361 76.3979-80.7381 76.3979-85.6751L76.3979-101.463C76.3979-106.4 72.3959-110.402 67.4589-110.402C62.5229-110.402 58.5209-106.4 58.5209-101.463Z"/>
  </g>
  <g id="Semibold-L" transform="matrix(1 0 0 1 1947.2 1556)">
   <path class="monochrome-0 multicolor-0:tintColor hierarchical-0:primary SFSymbolsPreviewWireframe" d="M108.927 22.1819L137.634-57.6901C136.436-54.3571 131.722-54.3571 130.524-57.6901L159.231 22.1819C160.706 26.2839 165.227 28.4149 169.33 26.9399C173.432 25.4659 175.563 20.9439 174.088 16.8419L145.382-63.0301C141.573-73.6271 126.585-73.6271 122.777-63.0301L94.0704 16.8419C92.5954 20.9439 94.7264 25.4659 98.8284 26.9399C102.931 28.4149 107.452 26.2839 108.927 22.1819ZM111.524 1.1629L156.634 1.1629L156.634-14.6251L111.524-14.6251L111.524 1.1629ZM23.5584-75.5251L109.268-75.5251C113.628-75.5251 117.162-79.0591 117.162-83.4191C117.162-87.7791 113.628-91.3131 109.268-91.3131L23.5584-91.3131C19.1994-91.3131 15.6654-87.7791 15.6654-83.4191C15.6654-79.0591 19.1994-75.5251 23.5584-75.5251ZM83.4584-84.8311C78.0054-54.8451 57.6694-34.5081 21.2374-23.2981C17.0704-22.0161 14.7324-17.5991 16.0144-13.4321C17.2964-9.2651 21.7134-6.9271 25.8804-8.2091C67.6404-21.0581 92.4134-45.8311 98.9914-82.0071C99.7714-86.2961 96.9264-90.4061 92.6364-91.1861C88.3474-91.9661 84.2374-89.1211 83.4584-84.8311ZM33.9054-82.0071C39.7194-50.0281 59.8084-26.8671 93.3444-13.0861L99.3454-27.6891C70.6114-39.4971 54.2514-58.3581 49.4384-84.8311L33.9054-82.0071ZM58.5194-101.463L58.5194-85.6751C58.5194-81.3151 62.0544-77.7811 66.4134-77.7811C70.7734-77.7811 74.3074-81.3151 74.3074-85.6751L74.3074-101.463C74.3074-105.823 70.7734-109.357 66.4134-109.357C62.0544-109.357 58.5194-105.823 58.5194-101.463Z"/>
  </g>
  <g id="Medium-L" transform="matrix(1 0 0 1 1651.53 1556)">
   <path class="monochrome-0 multicolor-0:tintColor hierarchical-0:primary SFSymbolsPreviewWireframe" d="M106.9 21.8279L135.607-58.0431C134.74-55.6321 131.33-55.6321 130.464-58.0431L159.17 21.8279C160.45 25.3879 164.373 27.2359 167.932 25.9569C171.492 24.6779 173.341 20.7549 172.061 17.1949L143.354-62.6761C139.877-72.3521 126.193-72.3521 122.716-62.6761L94.0087 17.1949C92.7297 20.7549 94.5777 24.6779 98.1377 25.9569C101.698 27.2359 105.62 25.3879 106.9 21.8279ZM110.48 0.1179L155.59 0.1179L155.59-13.5801L110.48-13.5801L110.48 0.1179ZM22.5137-76.5701L108.224-76.5701C112.007-76.5701 115.074-79.6371 115.074-83.4191C115.074-87.2021 112.007-90.2681 108.224-90.2681L22.5137-90.2681C18.7317-90.2681 15.6647-87.2021 15.6647-83.4191C15.6647-79.6371 18.7317-76.5701 22.5137-76.5701ZM83.4407-84.6441C77.9147-54.2481 57.2837-33.6181 20.4997-22.3001C16.8847-21.1871 14.8557-17.3551 15.9677-13.7391C17.0807-10.1241 20.9127-8.0951 24.5287-9.2071C65.9357-21.9481 90.4157-46.4281 96.9187-82.1941C97.5947-85.9161 95.1267-89.4811 91.4047-90.1581C87.6837-90.8341 84.1177-88.3661 83.4407-84.6441ZM33.8887-82.1941C39.6367-50.5791 59.4787-27.7031 92.6967-14.0521L97.9037-26.7221C68.8517-38.6611 52.2447-57.8071 47.3657-84.6441L33.8887-82.1941ZM58.5197-101.463L58.5197-85.6751C58.5197-81.8921 61.5867-78.8261 65.3687-78.8261C69.1517-78.8261 72.2177-81.8921 72.2177-85.6751L72.2177-101.463C72.2177-105.246 69.1517-108.313 65.3687-108.313C61.5867-108.313 58.5197-105.246 58.5197-101.463Z"/>
  </g>
  <g id="Regular-L" transform="matrix(1 0 0 1 1355.87 1556)">
   <path class="monochrome-0 multicolor-0:tintColor hierarchical-0:primary SFSymbolsPreviewWireframe" d="M104.871 21.4749L133.577-58.3971C133.042-56.9071 130.936-56.9071 130.401-58.3971L159.107 21.4749C160.192 24.4919 163.516 26.0579 166.533 24.9739C169.55 23.8899 171.116 20.5649 170.032 17.5479L141.325-62.3231C138.179-71.0771 125.799-71.0771 122.653-62.3231L93.9465 17.5479C92.8625 20.5649 94.4285 23.8899 97.4455 24.9739C100.462 26.0579 103.786 24.4919 104.871 21.4749ZM109.434-0.9271L154.544-0.9271L154.544-12.5361L109.434-12.5361L109.434-0.9271ZM21.4685-77.6151L107.178-77.6151C110.384-77.6151 112.983-80.2141 112.983-83.4191C112.983-86.6251 110.384-89.2231 107.178-89.2231L21.4685-89.2231C18.2635-89.2231 15.6645-86.6251 15.6645-83.4191C15.6645-80.2141 18.2635-77.6151 21.4685-77.6151ZM83.4235-84.4571C77.8225-53.6521 56.8985-32.7281 19.7625-21.3011C16.6985-20.3581 14.9785-17.1101 15.9215-14.0471C16.8645-10.9831 20.1125-9.2631 23.1755-10.2061C64.2305-22.8381 88.4165-47.0241 94.8455-82.3811C95.4185-85.5351 93.3265-88.5561 90.1725-89.1301C87.0185-89.7031 83.9975-87.6111 83.4235-84.4571ZM33.8715-82.3811C39.5525-51.1301 59.1485-28.5391 92.0485-15.0191L96.4605-25.7561C67.0915-37.8251 50.2385-57.2551 45.2925-84.4571L33.8715-82.3811ZM58.5195-101.463L58.5195-85.6751C58.5195-82.4691 61.1185-79.8701 64.3235-79.8701C67.5295-79.8701 70.1285-82.4691 70.1285-85.6751L70.1285-101.463C70.1285-104.669 67.5295-107.268 64.3235-107.268C61.1185-107.268 58.5195-104.669 58.5195-101.463Z"/>
  </g>
  <g id="Light-L" transform="matrix(1 0 0 1 1060.51 1556)">
   <path class="monochrome-0 multicolor-0:tintColor hierarchical-0:primary SFSymbolsPreviewWireframe" d="M102.242 21.0169L130.949-58.8551C130.843-58.5601 130.427-58.5601 130.321-58.8551L159.028 21.0169C159.859 23.3299 162.408 24.5309 164.721 23.6989C167.034 22.8679 168.235 20.3189 167.403 18.0069L138.697-61.8651C135.98-69.4241 125.29-69.4241 122.573-61.8651L93.8668 18.0059C93.0348 20.3189 94.2358 22.8679 96.5488 23.6989C98.8618 24.5309 101.411 23.3299 102.242 21.0169ZM108.08-2.2811L153.19-2.2811L153.19-11.1811L108.08-11.1811L108.08-2.2811ZM20.1138-78.9691L105.824-78.9691C108.282-78.9691 110.274-80.9621 110.274-83.4191C110.274-85.8771 108.282-87.8691 105.824-87.8691L20.1138-87.8691C17.6568-87.8691 15.6638-85.8771 15.6638-83.4191C15.6638-80.9621 17.6568-78.9691 20.1138-78.9691ZM83.4018-84.2151C77.7038-52.8791 56.3998-31.5741 18.8058-20.0071C16.4568-19.2841 15.1388-16.7941 15.8608-14.4451C16.5838-12.0961 19.0738-10.7781 21.4228-11.5001C62.0208-23.9921 85.8258-47.7971 92.1578-82.6231C92.5978-85.0411 90.9938-87.3581 88.5758-87.7971C86.1578-88.2371 83.8418-86.6331 83.4018-84.2151ZM33.8488-82.6231C39.4448-51.8451 58.7198-29.6221 91.2088-16.2711L94.5918-24.5031C64.8098-36.7421 47.6368-56.5411 42.6048-84.2151L33.8488-82.6231ZM58.5188-101.463L58.5188-85.6751C58.5188-83.2171 60.5118-81.2251 62.9688-81.2251C65.4268-81.2251 67.4188-83.2171 67.4188-85.6751L67.4188-101.463C67.4188-103.921 65.4268-105.913 62.9688-105.913C60.5118-105.913 58.5188-103.921 58.5188-101.463Z"/>
  </g>
  <g id="Thin-L" transform="matrix(1 0 0 1 765.154 1556)">
   <path class="monochrome-0 multicolor-0:tintColor hierarchical-0:primary SFSymbolsPreviewWireframe" d="M99.613 20.5589L128.319-59.3131C128.643-60.2141 129.917-60.2141 130.241-59.3131L158.947 20.5589C159.526 22.1679 161.299 23.0029 162.908 22.4249C164.517 21.8469 165.352 20.0739 164.774 18.4649L136.067-61.4071C133.78-67.7711 124.78-67.7711 122.493-61.4071L93.786 18.4649C93.208 20.0729 94.043 21.8469 95.652 22.4249C97.261 23.0029 99.034 22.1679 99.613 20.5589ZM106.725-3.6361L151.835-3.6361L151.835-9.8271L106.725-9.8271L106.725-3.6361ZM18.759-80.3241L104.469-80.3241C106.179-80.3241 107.565-81.7091 107.565-83.4191C107.565-85.1291 106.179-86.5151 104.469-86.5151L18.759-86.5151C17.05-86.5151 15.664-85.1291 15.664-83.4191C15.664-81.7091 17.05-80.3241 18.759-80.3241ZM83.379-83.9731C77.585-52.1051 55.9-30.4201 17.849-18.7121C16.215-18.2091 15.298-16.4771 15.801-14.8431C16.304-13.2091 18.036-12.2921 19.67-12.7951C59.81-25.1461 83.235-48.5711 89.471-82.8651C89.777-84.5471 88.661-86.1591 86.979-86.4651C85.297-86.7711 83.685-85.6551 83.379-83.9731ZM33.827-82.8651C39.337-52.5591 58.292-30.7061 90.368-17.5241L92.722-23.2511C62.529-35.6591 45.036-55.8261 39.918-83.9731L33.827-82.8651ZM58.519-101.463L58.519-85.6751C58.519-83.9651 59.905-82.5791 61.614-82.5791C63.324-82.5791 64.71-83.9651 64.71-85.6751L64.71-101.463C64.71-103.173 63.324-104.559 61.614-104.559C59.905-104.559 58.519-103.173 58.519-101.463Z"/>
  </g>
  <g id="Ultralight-L" transform="matrix(1 0 0 1 469.798 1556)">
   <path class="monochrome-0 multicolor-0:tintColor hierarchical-0:primary SFSymbolsPreviewWireframe" d="M96.9837 20.1009L125.691-59.7711C126.444-61.8671 129.408-61.8671 130.161-59.7711L158.868 20.1009C159.193 21.0059 160.191 21.4759 161.096 21.1499C162.001 20.8249 162.471 19.8279 162.145 18.9229L133.439-60.9491C131.581-66.1171 124.271-66.1171 122.414-60.9491L93.7067 18.9229C93.3807 19.8279 93.8507 20.8249 94.7557 21.1499C95.6607 21.4759 96.6587 21.0059 96.9837 20.1009ZM105.371-4.9901L150.481-4.9901L150.481-8.4731L105.371-8.4731L105.371-4.9901ZM17.4047-81.6781L103.115-81.6781C104.077-81.6781 104.857-82.4571 104.857-83.4191C104.857-84.3811 104.077-85.1601 103.115-85.1601L17.4047-85.1601C16.4437-85.1601 15.6637-84.3811 15.6637-83.4191C15.6637-82.4571 16.4437-81.6781 17.4047-81.6781ZM83.3577-83.7311C77.4667-51.3321 55.4007-29.2661 16.8927-17.4181C15.9737-17.1351 15.4577-16.1611 15.7407-15.2411C16.0237-14.3221 16.9977-13.8061 17.9177-14.0891C57.6007-26.2991 80.6447-49.3441 86.7837-83.1081C86.9557-84.0541 86.3287-84.9601 85.3827-85.1321C84.4357-85.3041 83.5297-84.6771 83.3577-83.7311ZM33.8047-83.1081C39.2287-53.2741 57.8647-31.7891 89.5287-18.7771L90.8527-21.9981C60.2477-34.5751 42.4347-55.1121 37.2307-83.7311L33.8047-83.1081ZM58.5187-101.463L58.5187-85.6751C58.5187-84.7131 59.2987-83.9331 60.2597-83.9331C61.2217-83.9331 62.0017-84.7131 62.0017-85.6751L62.0017-101.463C62.0017-102.425 61.2217-103.205 60.2597-103.205C59.2987-103.205 58.5187-102.425 58.5187-101.463Z"/>
  </g>
  <g id="Black-M" transform="matrix(1 0 0 1 2852.76 1126)">
   <path class="monochrome-0 multicolor-0:tintColor hierarchical-0:primary SFSymbolsPreviewWireframe" d="M92.6787 10.0971L114.932-51.8189C113.233-47.0909 106.547-47.0909 104.848-51.8189L127.101 10.0971C128.698 14.5401 133.594 16.8471 138.038 15.2501C142.481 13.6531 144.788 8.75711 143.191 4.31411L120.938-57.6019C117.215-67.9609 102.565-67.9609 98.8417-57.6019L76.5877 4.31411C74.9907 8.75711 77.2987 13.6531 81.7417 15.2501C86.1847 16.8471 91.0817 14.5401 92.6787 10.0971ZM92.4047-4.58889L127.375-4.58889L127.375-21.6869L92.4047-21.6869L92.4047-4.58889ZM24.2147-64.0369L90.6567-64.0369C95.3777-64.0369 99.2057-67.8649 99.2057-72.5859C99.2057-77.3079 95.3777-81.1349 90.6567-81.1349L24.2147-81.1349C19.4927-81.1349 15.6657-77.3079 15.6657-72.5859C15.6657-67.8649 19.4927-64.0369 24.2147-64.0369ZM68.2577-74.1149C64.2047-51.8229 49.1217-36.7399 21.7007-28.3029C17.1877-26.9149 14.6547-22.1309 16.0437-17.6179C17.4317-13.1049 22.2157-10.5729 26.7287-11.9609C59.9207-22.1739 79.8077-42.0609 85.0797-71.0569C85.9247-75.7019 82.8437-80.1529 78.1977-80.9969C73.5527-81.8419 69.1017-78.7609 68.2577-74.1149ZM29.8447-71.0569C34.5057-45.4189 50.6527-26.8039 77.3877-15.8169L83.8867-31.6319C62.3517-40.4819 50.2437-54.4409 46.6667-74.1149L29.8447-71.0569ZM48.8867-86.5739L48.8867-74.3349C48.8867-69.6129 52.7137-65.7859 57.4357-65.7859C62.1567-65.7859 65.9847-69.6129 65.9847-74.3349L65.9847-86.5739C65.9847-91.2949 62.1567-95.1229 57.4357-95.1229C52.7137-95.1229 48.8867-91.2949 48.8867-86.5739Z"/>
  </g>
  <g id="Heavy-M" transform="matrix(1 0 0 1 2556.86 1126)">
   <path class="monochrome-0 multicolor-0:tintColor hierarchical-0:primary SFSymbolsPreviewWireframe" d="M91.1055 9.82311L113.359-52.0929C111.917-48.0799 106.241-48.0799 104.799-52.0929L127.052 9.82311C128.498 13.8451 132.93 15.9341 136.953 14.4881C140.975 13.0431 143.064 8.61011 141.618 4.58811L119.365-57.3279C115.899-66.9729 102.259-66.9729 98.7935-57.3279L76.5395 4.58811C75.0945 8.61011 77.1835 13.0431 81.2055 14.4881C85.2275 15.9341 89.6605 13.8451 91.1055 9.82311ZM91.5945-5.39889L126.564-5.39889L126.564-20.8769L91.5945-20.8769L91.5945-5.39889ZM23.4045-64.8469L89.8465-64.8469C94.1205-64.8469 97.5855-68.3119 97.5855-72.5859C97.5855-76.8599 94.1205-80.3249 89.8465-80.3249L23.4045-80.3249C19.1305-80.3249 15.6655-76.8599 15.6655-72.5859C15.6655-68.3119 19.1305-64.8469 23.4045-64.8469ZM68.2445-73.9709C64.1335-51.3599 48.8235-36.0499 21.1285-27.5289C17.0435-26.2719 14.7505-21.9409 16.0075-17.8559C17.2645-13.7709 21.5955-11.4779 25.6805-12.7349C58.5995-22.8639 78.2585-42.5229 83.4725-71.2019C84.2375-75.4069 81.4485-79.4359 77.2425-80.1999C73.0375-80.9649 69.0085-78.1759 68.2445-73.9709ZM29.8315-71.2019C34.4415-45.8469 50.3965-27.4519 76.8855-16.5659L82.7695-30.8819C60.9875-39.8339 48.6885-54.0129 45.0595-73.9709L29.8315-71.2019ZM48.8865-86.5739L48.8865-74.3349C48.8865-70.0599 52.3515-66.5949 56.6255-66.5949C60.8995-66.5949 64.3645-70.0599 64.3645-74.3349L64.3645-86.5739C64.3645-90.8479 60.8995-94.3129 56.6255-94.3129C52.3515-94.3129 48.8865-90.8479 48.8865-86.5739Z"/>
  </g>
  <g id="Bold-M" transform="matrix(1 0 0 1 2260.96 1126)">
   <path class="monochrome-0 multicolor-0:tintColor hierarchical-0:primary SFSymbolsPreviewWireframe" d="M89.5333 9.54911L111.787-52.3669C110.601-49.0689 105.936-49.0689 104.751-52.3669L127.004 9.54911C128.299 13.1501 132.267 15.0201 135.869 13.7261C139.47 12.4321 141.34 8.46311 140.046 4.86211L117.793-57.0539C114.583-65.9839 101.954-65.9839 98.7453-57.0539L76.4923 4.86211C75.1973 8.46311 77.0673 12.4321 80.6693 13.7261C84.2703 15.0201 88.2393 13.1501 89.5333 9.54911ZM90.7843-6.20889L125.754-6.20889L125.754-20.0669L90.7843-20.0669L90.7843-6.20889ZM22.5943-65.6569L89.0363-65.6569C92.8633-65.6569 95.9653-68.7589 95.9653-72.5859C95.9653-76.4129 92.8633-79.5149 89.0363-79.5149L22.5943-79.5149C18.7673-79.5149 15.6653-76.4129 15.6653-72.5859C15.6653-68.7589 18.7673-65.6569 22.5943-65.6569ZM68.2303-73.8259C64.0623-50.8979 48.5243-35.3599 20.5563-26.7549C16.8983-25.6289 14.8463-21.7519 15.9713-18.0939C17.0973-14.4369 20.9743-12.3839 24.6323-13.5089C57.2773-23.5539 76.7093-42.9859 81.8653-71.3469C82.5503-75.1119 80.0533-78.7189 76.2873-79.4039C72.5223-80.0879 68.9153-77.5909 68.2303-73.8259ZM29.8173-71.3469C34.3763-46.2739 50.1403-28.0999 76.3833-17.3149L81.6513-30.1329C59.6233-39.1859 47.1323-53.5859 43.4523-73.8259L29.8173-71.3469ZM48.8863-86.5739L48.8863-74.3349C48.8863-70.5079 51.9883-67.4049 55.8153-67.4049C59.6423-67.4049 62.7443-70.5079 62.7443-74.3349L62.7443-86.5739C62.7443-90.4009 59.6423-93.5029 55.8153-93.5029C51.9883-93.5029 48.8863-90.4009 48.8863-86.5739Z"/>
  </g>
  <g id="Semibold-M" transform="matrix(1 0 0 1 1965.06 1126)">
   <path class="monochrome-0 multicolor-0:tintColor hierarchical-0:primary SFSymbolsPreviewWireframe" d="M87.9615 9.27511L110.214-52.6409C109.286-50.0569 105.632-50.0569 104.703-52.6409L126.956 9.27511C128.1 12.4551 131.604 14.1071 134.785 12.9641C137.965 11.8211 139.617 8.31611 138.474 5.13511L116.221-56.7799C113.268-64.9949 101.65-64.9949 98.6975-56.7799L76.4445 5.13511C75.3015 8.31611 76.9525 11.8211 80.1335 12.9641C83.3135 14.1071 86.8185 12.4551 87.9615 9.27511ZM89.9745-7.01889L124.944-7.01889L124.944-19.2579L89.9745-19.2579L89.9745-7.01889ZM21.7845-66.4669L88.2265-66.4669C91.6055-66.4669 94.3455-69.2069 94.3455-72.5859C94.3455-75.9659 91.6055-78.7049 88.2265-78.7049L21.7845-78.7049C18.4045-78.7049 15.6655-75.9659 15.6655-72.5859C15.6655-69.2069 18.4045-66.4669 21.7845-66.4669ZM68.2175-73.6809C63.9915-50.4359 48.2265-34.6699 19.9845-25.9809C16.7545-24.9869 14.9415-21.5629 15.9355-18.3329C16.9295-15.1019 20.3535-13.2899 23.5845-14.2829C55.9555-24.2439 75.1605-43.4479 80.2595-71.4909C80.8635-74.8169 78.6585-78.0019 75.3335-78.6069C72.0085-79.2109 68.8225-77.0059 68.2175-73.6809ZM29.8045-71.4909C34.3125-46.7009 49.8845-28.7479 75.8815-18.0639L80.5335-29.3839C58.2595-38.5379 45.5775-53.1589 41.8455-73.6809L29.8045-71.4909ZM48.8855-86.5739L48.8855-74.3349C48.8855-70.9549 51.6255-68.2149 55.0055-68.2149C58.3845-68.2149 61.1245-70.9549 61.1245-74.3349L61.1245-86.5739C61.1245-89.9539 58.3845-92.6929 55.0055-92.6929C51.6255-92.6929 48.8855-89.9539 48.8855-86.5739Z"/>
  </g>
  <g id="Medium-M" transform="matrix(1 0 0 1 1669.16 1126)">
   <path class="monochrome-0 multicolor-0:tintColor hierarchical-0:primary SFSymbolsPreviewWireframe" d="M86.3892 9.00111L108.642-52.9149C107.971-51.0459 105.327-51.0459 104.655-52.9149L126.909 9.00111C127.9 11.7601 130.941 13.1931 133.701 12.2021C136.46 11.2101 137.893 8.16911 136.902 5.40911L114.648-56.5059C111.953-64.0069 101.345-64.0069 98.6492-56.5059L76.3962 5.40911C75.4042 8.16911 76.8372 11.2101 79.5972 12.2021C82.3562 13.1931 85.3972 11.7601 86.3892 9.00111ZM89.1642-7.82889L124.134-7.82889L124.134-18.4479L89.1642-18.4479L89.1642-7.82889ZM20.9742-67.2769L87.4162-67.2769C90.3482-67.2769 92.7252-69.6539 92.7252-72.5859C92.7252-75.5179 90.3482-77.8959 87.4162-77.8959L20.9742-77.8959C18.0422-77.8959 15.6652-75.5179 15.6652-72.5859C15.6652-69.6539 18.0422-67.2769 20.9742-67.2769ZM68.2042-73.5359C63.9202-49.9729 47.9272-33.9799 19.4132-25.2069C16.6102-24.3439 15.0372-21.3729 15.8992-18.5709C16.7622-15.7679 19.7332-14.1949 22.5352-15.0579C54.6342-24.9339 73.6112-43.9109 78.6522-71.6359C79.1762-74.5209 77.2632-77.2849 74.3782-77.8099C71.4932-78.3339 68.7292-76.4209 68.2042-73.5359ZM29.7912-71.6359C34.2472-47.1289 49.6292-29.3949 75.3792-18.8129L79.4152-28.6349C56.8942-37.8899 44.0212-52.7309 40.2392-73.5359L29.7912-71.6359ZM48.8852-86.5739L48.8852-74.3349C48.8852-71.4019 51.2622-69.0249 54.1952-69.0249C57.1272-69.0249 59.5042-71.4019 59.5042-74.3349L59.5042-86.5739C59.5042-89.5059 57.1272-91.8829 54.1952-91.8829C51.2622-91.8829 48.8852-89.5059 48.8852-86.5739Z"/>
  </g>
  <g id="Regular-M" transform="matrix(1 0 0 1 1373.26 1126)">
   <path class="monochrome-0 multicolor-0:tintColor hierarchical-0:primary SFSymbolsPreviewWireframe" d="M84.817 8.72711L107.07-53.1889C106.655-52.0339 105.022-52.0339 104.608-53.1889L126.861 8.72711C127.701 11.0661 130.278 12.2801 132.617 11.4391C134.955 10.5991 136.17 8.02211 135.329 5.68311L113.076-56.2319C110.637-63.0179 101.04-63.0179 98.601-56.2319L76.348 5.68311C75.508 8.02211 76.722 10.5991 79.061 11.4391C81.399 12.2801 83.976 11.0661 84.817 8.72711ZM88.354-8.63889L123.324-8.63889L123.324-17.6379L88.354-17.6379L88.354-8.63889ZM20.164-68.0869L86.606-68.0869C89.091-68.0869 91.105-70.1009 91.105-72.5859C91.105-75.0709 89.091-77.0859 86.606-77.0859L20.164-77.0859C17.679-77.0859 15.664-75.0709 15.664-72.5859C15.664-70.1009 17.679-68.0869 20.164-68.0869ZM68.191-73.3909C63.849-49.5109 47.629-33.2899 18.841-24.4329C16.466-23.7019 15.133-21.1839 15.863-18.8089C16.594-16.4339 19.112-15.1009 21.487-15.8319C53.312-25.6239 72.061-44.3729 77.045-71.7809C77.489-74.2259 75.868-76.5679 73.423-77.0129C70.978-77.4579 68.636-75.8359 68.191-73.3909ZM29.778-71.7809C34.182-47.5559 49.373-30.0429 74.877-19.5619L78.297-27.8859C55.53-37.2419 42.466-52.3039 38.632-73.3909L29.778-71.7809ZM48.885-86.5739L48.885-74.3349C48.885-71.8499 50.9-69.8349 53.385-69.8349C55.87-69.8349 57.884-71.8499 57.884-74.3349L57.884-86.5739C57.884-89.0589 55.87-91.0729 53.385-91.0729C50.9-91.0729 48.885-89.0589 48.885-86.5739Z"/>
  </g>
  <g id="Light-M" transform="matrix(1 0 0 1 1077.6 1126)">
   <path class="monochrome-0 multicolor-0:tintColor hierarchical-0:primary SFSymbolsPreviewWireframe" d="M82.7785 8.37211L105.032-53.5439C104.95-53.3159 104.628-53.3159 104.546-53.5439L126.799 8.37211C127.443 10.1651 129.419 11.0961 131.212 10.4511C133.005 9.80711 133.936 7.83111 133.291 6.03811L111.038-55.8769C108.932-61.7369 100.645-61.7369 98.5385-55.8769L76.2855 6.03811C75.6415 7.83111 76.5725 9.80711 78.3655 10.4511C80.1585 11.0961 82.1335 10.1651 82.7785 8.37211ZM87.3035-9.68889L122.274-9.68889L122.274-16.5879L87.3035-16.5879L87.3035-9.68889ZM19.1135-69.1369L85.5555-69.1369C87.4605-69.1369 89.0045-70.6809 89.0045-72.5859C89.0045-74.4909 87.4605-76.0359 85.5555-76.0359L19.1135-76.0359C17.2085-76.0359 15.6635-74.4909 15.6635-72.5859C15.6635-70.6809 17.2085-69.1369 19.1135-69.1369ZM68.1735-73.2029C63.7565-48.9109 47.2415-32.3959 18.0985-23.4289C16.2785-22.8689 15.2565-20.9389 15.8165-19.1179C16.3765-17.2969 18.3065-16.2749 20.1275-16.8349C51.5985-26.5179 70.0525-44.9719 74.9615-71.9689C75.3025-73.8429 74.0585-75.6389 72.1845-75.9799C70.3105-76.3209 68.5145-75.0779 68.1735-73.2029ZM29.7605-71.9689C34.0985-48.1099 49.0405-30.8829 74.2255-20.5329L76.8475-26.9149C53.7615-36.4019 40.4485-51.7499 36.5485-73.2029L29.7605-71.9689ZM48.8845-86.5739L48.8845-74.3349C48.8845-72.4289 50.4295-70.8849 52.3345-70.8849C54.2395-70.8849 55.7835-72.4289 55.7835-74.3349L55.7835-86.5739C55.7835-88.4789 54.2395-90.0239 52.3345-90.0239C50.4295-90.0239 48.8845-88.4789 48.8845-86.5739Z"/>
  </g>
  <g id="Thin-M" transform="matrix(1 0 0 1 781.936 1126)">
   <path class="monochrome-0 multicolor-0:tintColor hierarchical-0:primary SFSymbolsPreviewWireframe" d="M80.7407 8.01711L102.994-53.8989C103.245-54.5969 104.233-54.5969 104.484-53.8989L126.737 8.01711C127.185 9.26411 128.56 9.91211 129.807 9.46311C131.054 9.01511 131.702 7.64111 131.253 6.39411L109-55.5219C107.227-60.4549 100.25-60.4549 98.4777-55.5219L76.2237 6.39411C75.7757 7.64111 76.4237 9.01511 77.6707 9.46311C78.9177 9.91211 80.2917 9.26411 80.7407 8.01711ZM86.2537-10.7379L121.224-10.7379L121.224-15.5379L86.2537-15.5379L86.2537-10.7379ZM18.0637-70.1859L84.5057-70.1859C85.8307-70.1859 86.9047-71.2609 86.9047-72.5859C86.9047-73.9109 85.8307-74.9859 84.5057-74.9859L18.0637-74.9859C16.7387-74.9859 15.6637-73.9109 15.6637-72.5859C15.6637-71.2609 16.7387-70.1859 18.0637-70.1859ZM68.1567-73.0149C63.6647-48.3119 46.8547-31.5019 17.3577-22.4259C16.0907-22.0359 15.3807-20.6929 15.7697-19.4259C16.1597-18.1599 17.5027-17.4489 18.7697-17.8389C49.8857-27.4129 68.0447-45.5719 72.8787-72.1569C73.1157-73.4609 72.2507-74.7099 70.9467-74.9469C69.6427-75.1839 68.3937-74.3189 68.1567-73.0149ZM29.7437-72.1569C34.0147-48.6639 48.7087-31.7229 73.5747-21.5049L75.3987-25.9439C51.9927-35.5619 38.4327-51.1959 34.4657-73.0149L29.7437-72.1569ZM48.8847-86.5739L48.8847-74.3349C48.8847-73.0089 49.9587-71.9349 51.2847-71.9349C52.6097-71.9349 53.6847-73.0089 53.6847-74.3349L53.6847-86.5739C53.6847-87.8989 52.6097-88.9739 51.2847-88.9739C49.9587-88.9739 48.8847-87.8989 48.8847-86.5739Z"/>
  </g>
  <g id="Ultralight-M" transform="matrix(1 0 0 1 486.275 1126)">
   <path class="monochrome-0 multicolor-0:tintColor hierarchical-0:primary SFSymbolsPreviewWireframe" d="M78.7022 7.66211L100.955-54.2539C101.539-55.8789 103.837-55.8789 104.421-54.2539L126.674 7.66211C126.926 8.36311 127.699 8.72811 128.401 8.47511C129.102 8.22311 129.467 7.45011 129.214 6.74911L106.961-55.1669C105.521-59.1739 99.8552-59.1739 98.4152-55.1669L76.1612 6.74911C75.9092 7.45011 76.2732 8.22311 76.9752 8.47511C77.6762 8.72811 78.4502 8.36311 78.7022 7.66211ZM85.2032-11.7879L120.173-11.7879L120.173-14.4879L85.2032-14.4879L85.2032-11.7879ZM17.0132-71.2359L83.4552-71.2359C84.2002-71.2359 84.8052-71.8409 84.8052-72.5859C84.8052-73.3319 84.2002-73.9359 83.4552-73.9359L17.0132-73.9359C16.2672-73.9359 15.6632-73.3319 15.6632-72.5859C15.6632-71.8409 16.2672-71.2359 17.0132-71.2359ZM68.1392-72.8279C63.5722-47.7129 46.4672-30.6069 16.6162-21.4219C15.9032-21.2029 15.5042-20.4479 15.7232-19.7349C15.9422-19.0229 16.6972-18.6229 17.4102-18.8419C48.1722-28.3069 66.0362-46.1709 70.7952-72.3449C70.9282-73.0779 70.4422-73.7809 69.7082-73.9139C68.9752-74.0479 68.2722-73.5609 68.1392-72.8279ZM29.7262-72.3449C33.9312-49.2179 48.3772-32.5629 72.9232-22.4759L73.9492-24.9729C50.2242-34.7229 36.4162-50.6419 32.3822-72.8279L29.7262-72.3449ZM48.8842-86.5739L48.8842-74.3349C48.8842-73.5889 49.4882-72.9849 50.2342-72.9849C50.9792-72.9849 51.5842-73.5889 51.5842-74.3349L51.5842-86.5739C51.5842-87.3189 50.9792-87.9239 50.2342-87.9239C49.4882-87.9239 48.8842-87.3189 48.8842-86.5739Z"/>
  </g>
  <g id="Black-S" transform="matrix(1 0 0 1 2866.65 696)">
   <path class="monochrome-0 multicolor-0:tintColor hierarchical-0:primary SFSymbolsPreviewWireframe" d="M75.9659 0.260466L93.3909-48.2195C92.0599-44.5175 86.8249-44.5175 85.4949-48.2195L102.919 0.260466C104.17 3.73947 108.003 5.54647 111.483 4.29647C114.962 3.04547 116.768-0.788534 115.518-4.26753L98.0939-52.7475C95.1779-60.8585 83.7069-60.8585 80.7919-52.7475L63.3679-4.26753C62.1169-0.788534 63.9239 3.04547 67.4029 4.29647C70.8819 5.54647 74.7159 3.73947 75.9659 0.260466ZM75.7519-11.2385L103.133-11.2385L103.133-24.6255L75.7519-24.6255L75.7519-11.2385ZM22.3589-57.7855L74.3829-57.7855C78.0799-57.7855 81.0769-60.7825 81.0769-64.4795C81.0769-68.1765 78.0799-71.1735 74.3829-71.1735L22.3589-71.1735C18.6619-71.1735 15.6649-68.1765 15.6649-64.4795C15.6649-60.7825 18.6619-57.7855 22.3589-57.7855ZM56.8449-65.6775C53.6709-48.2215 41.8619-36.4125 20.3909-29.8065C16.8569-28.7185 14.8739-24.9735 15.9609-21.4395C17.0489-17.9065 20.7939-15.9235 24.3279-17.0105C50.3169-25.0075 65.8889-40.5785 70.0169-63.2825C70.6779-66.9195 68.2659-70.4045 64.6279-71.0655C60.9909-71.7265 57.5059-69.3145 56.8449-65.6775ZM26.7679-63.2825C30.4169-43.2085 43.0599-28.6325 63.9939-20.0295L69.0829-32.4125C52.2209-39.3415 42.7399-50.2715 39.9389-65.6775L26.7679-63.2825ZM41.6769-75.4325L41.6769-65.8485C41.6769-62.1515 44.6739-59.1545 48.3709-59.1545C52.0679-59.1545 55.0649-62.1515 55.0649-65.8485L55.0649-75.4325C55.0649-79.1295 52.0679-82.1265 48.3709-82.1265C44.6739-82.1265 41.6769-79.1295 41.6769-75.4325Z"/>
  </g>
  <g id="Heavy-S" transform="matrix(1 0 0 1 2570.58 696)">
   <path class="monochrome-0 multicolor-0:tintColor hierarchical-0:primary SFSymbolsPreviewWireframe" d="M74.7351 0.0464658L92.1591-48.4335C91.0301-45.2915 86.5861-45.2915 85.4571-48.4335L102.881 0.0464658C104.013 3.19547 107.484 4.83147 110.633 3.69947C113.782 2.56747 115.418-0.903534 114.286-4.05253L96.8621-52.5325C94.1481-60.0845 83.4681-60.0845 80.7541-52.5325L63.3291-4.05253C62.1981-0.903534 63.8331 2.56747 66.9821 3.69947C70.1321 4.83147 73.6031 3.19547 74.7351 0.0464658ZM75.1171-11.8725L102.498-11.8725L102.498-23.9915L75.1171-23.9915L75.1171-11.8725ZM21.7241-58.4195L73.7481-58.4195C77.0951-58.4195 79.8081-61.1335 79.8081-64.4795C79.8081-67.8265 77.0951-70.5395 73.7481-70.5395L21.7241-70.5395C18.3781-70.5395 15.6651-67.8265 15.6651-64.4795C15.6651-61.1335 18.3781-58.4195 21.7241-58.4195ZM56.8341-65.5635C53.6151-47.8595 41.6271-35.8725 19.9421-29.1995C16.7441-28.2155 14.9481-24.8245 15.9331-21.6265C16.9171-18.4275 20.3081-16.6325 23.5061-17.6165C49.2821-25.5475 64.6751-40.9405 68.7581-63.3955C69.3561-66.6885 67.1731-69.8435 63.8801-70.4415C60.5871-71.0405 57.4331-68.8565 56.8341-65.5635ZM26.7561-63.3955C30.3661-43.5425 42.8591-29.1395 63.6001-20.6155L68.2071-31.8255C51.1521-38.8345 41.5221-49.9375 38.6801-65.5635L26.7561-63.3955ZM41.6771-75.4325L41.6771-65.8485C41.6771-62.5025 44.3901-59.7895 47.7361-59.7895C51.0831-59.7895 53.7961-62.5025 53.7961-65.8485L53.7961-75.4325C53.7961-78.7785 51.0831-81.4915 47.7361-81.4915C44.3901-81.4915 41.6771-78.7785 41.6771-75.4325Z"/>
  </g>
  <g id="Bold-S" transform="matrix(1 0 0 1 2274.5 696)">
   <path class="monochrome-0 multicolor-0:tintColor hierarchical-0:primary SFSymbolsPreviewWireframe" d="M73.5035-0.168534L90.9275-48.6485C89.9995-46.0655 86.3475-46.0655 85.4185-48.6485L102.843-0.168534C103.856 2.65147 106.964 4.11647 109.784 3.10247C112.603 2.08947 114.068-1.01853 113.054-3.83853L95.6305-52.3185C93.1175-59.3105 83.2295-59.3105 80.7165-52.3185L63.2915-3.83853C62.2785-1.01853 63.7425 2.08947 66.5625 3.10247C69.3825 4.11647 72.4895 2.65147 73.5035-0.168534ZM74.4825-12.5065L101.863-12.5065L101.863-23.3575L74.4825-23.3575L74.4825-12.5065ZM21.0895-59.0545L73.1135-59.0545C76.1105-59.0545 78.5395-61.4835 78.5395-64.4795C78.5395-67.4765 76.1105-69.9055 73.1135-69.9055L21.0895-69.9055C18.0935-69.9055 15.6645-67.4765 15.6645-64.4795C15.6645-61.4835 18.0935-59.0545 21.0895-59.0545ZM56.8235-65.4505C53.5595-47.4975 41.3935-35.3325 19.4945-28.5935C16.6305-27.7125 15.0235-24.6765 15.9045-21.8125C16.7855-18.9485 19.8215-17.3415 22.6855-18.2225C48.2465-26.0875 63.4615-41.3025 67.4995-63.5095C68.0355-66.4575 66.0805-69.2815 63.1315-69.8175C60.1835-70.3535 57.3595-68.3985 56.8235-65.4505ZM26.7455-63.5095C30.3155-43.8775 42.6585-29.6465 63.2065-21.2025L67.3315-31.2395C50.0835-38.3275 40.3035-49.6025 37.4215-65.4505L26.7455-63.5095ZM41.6765-75.4325L41.6765-65.8485C41.6765-62.8525 44.1055-60.4235 47.1015-60.4235C50.0985-60.4235 52.5275-62.8525 52.5275-65.8485L52.5275-75.4325C52.5275-78.4285 50.0985-80.8575 47.1015-80.8575C44.1055-80.8575 41.6765-78.4285 41.6765-75.4325Z"/>
  </g>
  <g id="Semibold-S" transform="matrix(1 0 0 1 1978.42 696)">
   <path class="monochrome-0 multicolor-0:tintColor hierarchical-0:primary SFSymbolsPreviewWireframe" d="M72.2723-0.382534L89.6963-48.8625C88.9693-46.8395 86.1083-46.8395 85.3813-48.8625L102.805-0.382534C103.7 2.10747 106.445 3.40047 108.935 2.50547C111.425 1.61047 112.719-1.13353 111.823-3.62353L94.3993-52.1035C92.0873-58.5365 82.9903-58.5365 80.6783-52.1035L63.2543-3.62353C62.3593-1.13353 63.6523 1.61047 66.1423 2.50547C68.6333 3.40047 71.3773 2.10747 72.2723-0.382534ZM73.8483-13.1405L101.229-13.1405L101.229-22.7235L73.8483-22.7235L73.8483-13.1405ZM20.4553-59.6885L72.4793-59.6885C75.1263-59.6885 77.2713-61.8335 77.2713-64.4795C77.2713-67.1255 75.1263-69.2715 72.4793-69.2715L20.4553-69.2715C17.8093-69.2715 15.6643-67.1255 15.6643-64.4795C15.6643-61.8335 17.8093-59.6885 20.4553-59.6885ZM56.8133-65.3365C53.5033-47.1355 41.1593-34.7915 19.0463-27.9875C16.5173-27.2095 15.0983-24.5285 15.8763-21.9995C16.6543-19.4695 19.3353-18.0505 21.8643-18.8285C47.2123-26.6275 62.2493-41.6645 66.2413-63.6225C66.7143-66.2265 64.9873-68.7205 62.3843-69.1935C59.7803-69.6675 57.2863-67.9405 56.8133-65.3365ZM26.7353-63.6225C30.2643-44.2115 42.4583-30.1545 62.8133-21.7895L66.4563-30.6525C49.0153-37.8195 39.0853-49.2685 36.1643-65.3365L26.7353-63.6225ZM41.6763-75.4325L41.6763-65.8485C41.6763-63.2025 43.8213-61.0575 46.4673-61.0575C49.1143-61.0575 51.2593-63.2025 51.2593-65.8485L51.2593-75.4325C51.2593-78.0785 49.1143-80.2235 46.4673-80.2235C43.8213-80.2235 41.6763-78.0785 41.6763-75.4325Z"/>
  </g>
  <g id="Medium-S" transform="matrix(1 0 0 1 1682.35 696)">
   <path class="monochrome-0 multicolor-0:tintColor hierarchical-0:primary SFSymbolsPreviewWireframe" d="M71.0411-0.597534L88.4661-49.0775C87.9401-47.6135 85.8701-47.6135 85.3441-49.0775L102.768-0.597534C103.545 1.56347 105.926 2.68547 108.087 1.90947C110.247 1.13247 111.369-1.24853 110.593-3.40953L93.1681-51.8895C91.0581-57.7625 82.7521-57.7625 80.6411-51.8895L63.2171-3.40953C62.4401-1.24853 63.5621 1.13247 65.7231 1.90947C67.8841 2.68547 70.2651 1.56347 71.0411-0.597534ZM73.2141-13.7745L100.595-13.7745L100.595-22.0895L73.2141-22.0895L73.2141-13.7745ZM19.8211-60.3225L71.8451-60.3225C74.1411-60.3225 76.0031-62.1835 76.0031-64.4795C76.0031-66.7755 74.1411-68.6365 71.8451-68.6365L19.8211-68.6365C17.5251-68.6365 15.6641-66.7755 15.6641-64.4795C15.6641-62.1835 17.5251-60.3225 19.8211-60.3225ZM56.8031-65.2235C53.4481-46.7735 40.9261-34.2515 18.5991-27.3815C16.4041-26.7065 15.1731-24.3805 15.8481-22.1855C16.5231-19.9915 18.8491-18.7595 21.0441-19.4345C46.1771-27.1685 61.0361-42.0265 64.9831-63.7365C65.3941-65.9945 63.8951-68.1595 61.6371-68.5695C59.3781-68.9805 57.2131-67.4825 56.8031-65.2235ZM26.7251-63.7365C30.2141-44.5465 42.2581-30.6615 62.4201-22.3755L65.5811-30.0665C47.9471-37.3125 37.8671-48.9335 34.9061-65.2235L26.7251-63.7365ZM41.6761-75.4325L41.6761-65.8485C41.6761-63.5525 43.5371-61.6915 45.8331-61.6915C48.1291-61.6915 49.9911-63.5525 49.9911-65.8485L49.9911-75.4325C49.9911-77.7285 48.1291-79.5895 45.8331-79.5895C43.5371-79.5895 41.6761-77.7285 41.6761-75.4325Z"/>
  </g>
  <g id="Regular-S" transform="matrix(1 0 0 1 1386.27 696)">
   <path class="monochrome-0 multicolor-0:tintColor hierarchical-0:primary SFSymbolsPreviewWireframe" d="M69.8108-0.811534L87.2348-49.2915C86.9098-48.3875 85.6318-48.3875 85.3068-49.2915L102.731-0.811534C103.389 1.01947 105.407 1.97047 107.238 1.31247C109.069 0.654466 110.02-1.36353 109.362-3.19453L91.9378-51.6745C90.0278-56.9885 82.5138-56.9885 80.6038-51.6745L63.1798-3.19453C62.5208-1.36353 63.4718 0.654466 65.3028 1.31247C67.1348 1.97047 69.1518 1.01947 69.8108-0.811534ZM72.5798-14.4085L99.9608-14.4085L99.9608-21.4555L72.5798-21.4555L72.5798-14.4085ZM19.1868-60.9565L71.2108-60.9565C73.1568-60.9565 74.7338-62.5335 74.7338-64.4795C74.7338-66.4255 73.1568-68.0025 71.2108-68.0025L19.1868-68.0025C17.2418-68.0025 15.6638-66.4255 15.6638-64.4795C15.6638-62.5335 17.2418-60.9565 19.1868-60.9565ZM56.7928-65.1095C53.3928-46.4115 40.6918-33.7115 18.1508-26.7755C16.2918-26.2035 15.2478-24.2315 15.8198-22.3725C16.3918-20.5125 18.3638-19.4685 20.2228-20.0405C45.1428-27.7085 59.8228-42.3885 63.7248-63.8495C64.0728-65.7635 62.8028-67.5975 60.8888-67.9455C58.9748-68.2945 57.1408-67.0245 56.7928-65.1095ZM26.7148-63.8495C30.1638-44.8815 42.0578-31.1685 62.0268-22.9625L64.7058-29.4795C46.8788-36.8055 36.6498-48.5985 33.6478-65.1095L26.7148-63.8495ZM41.6758-75.4325L41.6758-65.8485C41.6758-63.9035 43.2538-62.3255 45.1988-62.3255C47.1448-62.3255 48.7218-63.9035 48.7218-65.8485L48.7218-75.4325C48.7218-77.3775 47.1448-78.9555 45.1988-78.9555C43.2538-78.9555 41.6758-77.3775 41.6758-75.4325Z"/>
  </g>
  <g id="Light-S" transform="matrix(1 0 0 1 1090.38 696)">
   <path class="monochrome-0 multicolor-0:tintColor hierarchical-0:primary SFSymbolsPreviewWireframe" d="M68.2145-1.08953L85.6385-49.5695C85.5745-49.3915 85.3225-49.3915 85.2575-49.5695L102.683-1.08953C103.187 0.314466 104.734 1.04347 106.138 0.538466C107.542 0.0344658 108.271-1.51253 107.766-2.91653L90.3415-51.3965C88.6925-55.9845 82.2045-55.9845 80.5555-51.3965L63.1305-2.91653C62.6265-1.51253 63.3555 0.0344658 64.7585 0.538466C66.1625 1.04347 67.7095 0.314466 68.2145-1.08953ZM71.7575-15.2305L99.1385-15.2305L99.1385-20.6335L71.7575-20.6335L71.7575-15.2305ZM18.3645-61.7785L70.3885-61.7785C71.8805-61.7785 73.0895-62.9875 73.0895-64.4795C73.0895-65.9715 71.8805-67.1805 70.3885-67.1805L18.3645-67.1805C16.8735-67.1805 15.6635-65.9715 15.6635-64.4795C15.6635-62.9875 16.8735-61.7785 18.3645-61.7785ZM56.7785-64.9625C53.3205-45.9425 40.3895-33.0105 17.5705-25.9895C16.1445-25.5515 15.3445-24.0395 15.7835-22.6135C16.2215-21.1885 17.7335-20.3875 19.1595-20.8265C43.8005-28.4085 58.2505-42.8585 62.0935-63.9965C62.3605-65.4645 61.3875-66.8705 59.9195-67.1375C58.4515-67.4045 57.0455-66.4305 56.7785-64.9625ZM26.7015-63.9965C30.0985-45.3145 41.7975-31.8265 61.5175-23.7225L63.5705-28.7195C45.4945-36.1475 35.0705-48.1655 32.0165-64.9625L26.7015-63.9965ZM41.6755-75.4325L41.6755-65.8485C41.6755-64.3575 42.8855-63.1475 44.3765-63.1475C45.8685-63.1475 47.0775-64.3575 47.0775-65.8485L47.0775-75.4325C47.0775-76.9235 45.8685-78.1335 44.3765-78.1335C42.8855-78.1335 41.6755-76.9235 41.6755-75.4325Z"/>
  </g>
  <g id="Thin-S" transform="matrix(1 0 0 1 794.492 696)">
   <path class="monochrome-0 multicolor-0:tintColor hierarchical-0:primary SFSymbolsPreviewWireframe" d="M66.6187-1.36753L84.0437-49.8475C84.2397-50.3945 85.0127-50.3945 85.2097-49.8475L102.634-1.36753C102.985-0.391534 104.061 0.116466 105.038-0.234534C106.015-0.585534 106.522-1.66253 106.171-2.63853L88.7457-51.1185C87.3577-54.9815 81.8947-54.9815 80.5067-51.1185L63.0827-2.63853C62.7317-1.66253 63.2387-0.585534 64.2157-0.234534C65.1917 0.116466 66.2677-0.391534 66.6187-1.36753ZM70.9357-16.0535L98.3167-16.0535L98.3167-19.8105L70.9357-19.8105L70.9357-16.0535ZM17.5427-62.6005L69.5667-62.6005C70.6047-62.6005 71.4457-63.4415 71.4457-64.4795C71.4457-65.5175 70.6047-66.3585 69.5667-66.3585L17.5427-66.3585C16.5057-66.3585 15.6637-65.5175 15.6637-64.4795C15.6637-63.4415 16.5057-62.6005 17.5427-62.6005ZM56.7657-64.8155C53.2487-45.4735 40.0867-32.3105 16.9907-25.2045C15.9987-24.8985 15.4417-23.8475 15.7467-22.8555C16.0527-21.8635 17.1037-21.3075 18.0957-21.6125C42.4597-29.1095 56.6787-43.3275 60.4637-64.1435C60.6487-65.1645 59.9717-66.1425 58.9507-66.3285C57.9297-66.5145 56.9517-65.8365 56.7657-64.8155ZM26.6887-64.1435C30.0327-45.7485 41.5387-32.4835 61.0077-24.4825L62.4367-27.9585C44.1097-35.4905 33.4917-47.7315 30.3857-64.8155L26.6887-64.1435ZM41.6757-75.4325L41.6757-65.8485C41.6757-64.8115 42.5177-63.9695 43.5547-63.9695C44.5927-63.9695 45.4337-64.8115 45.4337-65.8485L45.4337-75.4325C45.4337-76.4695 44.5927-77.3115 43.5547-77.3115C42.5177-77.3115 41.6757-76.4695 41.6757-75.4325Z"/>
  </g>
  <g id="Ultralight-S" transform="matrix(1 0 0 1 498.604 696)">
   <path class="monochrome-0 multicolor-0:tintColor hierarchical-0:primary SFSymbolsPreviewWireframe" d="M65.0232-1.64553L82.4472-50.1255C82.9042-51.3975 84.7032-51.3975 85.1612-50.1255L102.585-1.64553C102.782-1.09653 103.388-0.811534 103.937-1.00853C104.486-1.20553 104.772-1.81153 104.574-2.36053L87.1502-50.8405C86.0222-53.9775 81.5852-53.9775 80.4582-50.8405L63.0332-2.36053C62.8362-1.81153 63.1212-1.20553 63.6712-1.00853C64.2202-0.811534 64.8252-1.09653 65.0232-1.64553ZM70.1132-16.8755L97.4942-16.8755L97.4942-18.9885L70.1132-18.9885L70.1132-16.8755ZM16.7202-63.4225L68.7442-63.4225C69.3282-63.4225 69.8012-63.8955 69.8012-64.4795C69.8012-65.0635 69.3282-65.5365 68.7442-65.5365L16.7202-65.5365C16.1372-65.5365 15.6632-65.0635 15.6632-64.4795C15.6632-63.8955 16.1372-63.4225 16.7202-63.4225ZM56.7522-64.6685C53.1762-45.0035 39.7832-31.6105 16.4102-24.4185C15.8522-24.2465 15.5392-23.6555 15.7102-23.0975C15.8822-22.5395 16.4732-22.2265 17.0312-22.3985C41.1182-29.8095 55.1062-43.7965 58.8322-64.2905C58.9362-64.8645 58.5552-65.4155 57.9812-65.5195C57.4072-65.6245 56.8562-65.2435 56.7522-64.6685ZM26.6752-64.2905C29.9672-46.1825 41.2782-33.1415 60.4982-25.2435L61.3012-27.1985C42.7252-34.8325 31.9132-47.2975 28.7542-64.6685L26.6752-64.2905ZM41.6752-75.4325L41.6752-65.8485C41.6752-65.2655 42.1492-64.7915 42.7322-64.7915C43.3162-64.7915 43.7892-65.2655 43.7892-65.8485L43.7892-75.4325C43.7892-76.0155 43.3162-76.4895 42.7322-76.4895C42.1492-76.4895 41.6752-76.0155 41.6752-75.4325Z"/>
  </g>
 </g>
</svg>
