<svg width="48" height="48" viewBox="0 0 48 48" fill="none" xmlns="http://www.w3.org/2000/svg">
<path fill-rule="evenodd" clip-rule="evenodd" d="M31.25 6.75C31.25 5.64543 30.3546 4.75 29.25 4.75H27.25H17.75C16.6454 4.75 15.75 5.64543 15.75 6.75V11.75H23.5931C24.654 11.75 25.6714 12.1714 26.4216 12.9216L32.0784 18.5784C32.8286 19.3286 33.25 20.346 33.25 21.4069V35.25H38.25C39.3546 35.25 40.25 34.3546 40.25 33.25V17.75V15.75C40.25 14.6454 39.3546 13.75 38.25 13.75H33.25C32.1454 13.75 31.25 12.8546 31.25 11.75V6.75Z" fill="black" fill-opacity="0.15"/>
<path d="M15.75 11.75H15V12.5H15.75V11.75ZM26.4216 12.9216L25.8912 13.4519H25.8912L26.4216 12.9216ZM32.0784 18.5784L32.6088 18.0481V18.0481L32.0784 18.5784ZM33.25 35.25H32.5V36H33.25V35.25ZM29.25 5.5C29.9404 5.5 30.5 6.05964 30.5 6.75H32C32 5.23122 30.7688 4 29.25 4V5.5ZM27.25 5.5H29.25V4H27.25V5.5ZM17.75 5.5H27.25V4H17.75V5.5ZM16.5 6.75C16.5 6.05964 17.0596 5.5 17.75 5.5V4C16.2312 4 15 5.23122 15 6.75H16.5ZM16.5 11.75V6.75H15V11.75H16.5ZM15.75 12.5H23.5931V11H15.75V12.5ZM23.5931 12.5C24.4551 12.5 25.2817 12.8424 25.8912 13.4519L26.9519 12.3912C26.0611 11.5004 24.8529 11 23.5931 11V12.5ZM25.8912 13.4519L31.5481 19.1088L32.6088 18.0481L26.9519 12.3912L25.8912 13.4519ZM31.5481 19.1088C32.1576 19.7183 32.5 20.5449 32.5 21.4069H34C34 20.1471 33.4996 18.9389 32.6088 18.0481L31.5481 19.1088ZM32.5 21.4069V35.25H34V21.4069H32.5ZM38.25 34.5H33.25V36H38.25V34.5ZM39.5 33.25C39.5 33.9404 38.9404 34.5 38.25 34.5V36C39.7688 36 41 34.7688 41 33.25H39.5ZM39.5 17.75V33.25H41V17.75H39.5ZM39.5 15.75V17.75H41V15.75H39.5ZM38.25 14.5C38.9404 14.5 39.5 15.0596 39.5 15.75H41C41 14.2312 39.7688 13 38.25 13V14.5ZM33.25 14.5H38.25V13H33.25V14.5ZM30.5 11.75C30.5 13.2688 31.7312 14.5 33.25 14.5V13C32.5596 13 32 12.4404 32 11.75H30.5ZM30.5 6.75V11.75H32V6.75H30.5Z" fill="black"/>
<path fill-rule="evenodd" clip-rule="evenodd" d="M16.5 6.75C16.5 6.05964 17.0596 5.5 17.75 5.5H30.5931C31.4551 5.5 32.2817 5.84241 32.8912 6.4519L38.5481 12.1088C39.1576 12.7183 39.5 13.5449 39.5 14.4069V33.25C39.5 33.9404 38.9404 34.5 38.25 34.5H33.25V36H38.25C39.7688 36 41 34.7688 41 33.25V14.4069C41 13.1471 40.4996 11.9389 39.6088 11.0481L33.9519 5.39124C33.0611 4.50045 31.8529 4 30.5931 4H17.75C16.2312 4 15 5.23122 15 6.75V11.75H16.5V6.75Z" fill="black"/>
<path d="M8.75 13.75C8.75 12.6454 9.64543 11.75 10.75 11.75H23.5931C24.654 11.75 25.6714 12.1714 26.4216 12.9216L32.0784 18.5784C32.8286 19.3286 33.25 20.346 33.25 21.4069V40.25C33.25 41.3546 32.3546 42.25 31.25 42.25H10.75C9.64543 42.25 8.75 41.3546 8.75 40.25V13.75Z" stroke="black" stroke-width="1.5"/>
<path fill-rule="evenodd" clip-rule="evenodd" d="M22.25 11.75C23.3546 11.75 24.25 12.6454 24.25 13.75V18.75C24.25 19.8546 25.1454 20.75 26.25 20.75H31.25C32.3546 20.75 33.25 21.6454 33.25 22.75V24.75V40.25C33.25 41.3546 32.3546 42.25 31.25 42.25H10.75C9.64543 42.25 8.75 41.3546 8.75 40.25V13.75C8.75 12.6454 9.64543 11.75 10.75 11.75H20.25H22.25Z" fill="black" fill-opacity="0.15"/>
<path d="M25 13.75C25 12.2312 23.7688 11 22.25 11V12.5C22.9404 12.5 23.5 13.0596 23.5 13.75H25ZM25 18.75V13.75H23.5V18.75H25ZM26.25 20C25.5596 20 25 19.4404 25 18.75H23.5C23.5 20.2688 24.7312 21.5 26.25 21.5V20ZM31.25 20H26.25V21.5H31.25V20ZM34 22.75C34 21.2312 32.7688 20 31.25 20V21.5C31.9404 21.5 32.5 22.0596 32.5 22.75H34ZM32.5 22.75V24.75H34V22.75H32.5ZM32.5 24.75V40.25H34V24.75H32.5ZM32.5 40.25C32.5 40.9404 31.9404 41.5 31.25 41.5V43C32.7688 43 34 41.7688 34 40.25H32.5ZM31.25 41.5H10.75V43H31.25V41.5ZM10.75 41.5C10.0596 41.5 9.5 40.9404 9.5 40.25H8C8 41.7688 9.23122 43 10.75 43V41.5ZM9.5 40.25V13.75H8V40.25H9.5ZM9.5 13.75C9.5 13.0596 10.0596 12.5 10.75 12.5V11C9.23122 11 8 12.2312 8 13.75H9.5ZM10.75 12.5H20.25V11H10.75V12.5ZM20.25 12.5H22.25V11H20.25V12.5Z" fill="black"/>
<path d="M14.2055 37.9976L14.3526 37.9619C15.1603 37.6194 15.938 37.234 16.6859 36.8058C17.4338 36.3776 18.0844 35.8709 18.6378 35.2857C19.1912 34.7005 19.64 34.0296 19.984 33.2731C20.328 32.5167 20.5 31.6388 20.5 30.6397C20.5 30.183 20.4252 29.7333 20.2756 29.2909C20.1261 28.8484 19.9017 28.4559 19.6026 28.1133C19.3034 27.7708 18.937 27.4996 18.5032 27.2997C18.0694 27.0999 17.5833 27 17.0449 27C16.2671 27 15.609 27.2498 15.0705 27.7494C14.5321 28.2489 14.2628 28.8555 14.2628 29.5692C14.2628 30.3685 14.4722 30.968 14.891 31.3676C15.3098 31.7673 15.8034 31.9671 16.3718 31.9671C16.8205 31.9671 17.1795 31.91 17.4487 31.7958C17.7479 31.6817 17.8974 31.753 17.8974 32.0099C17.8974 32.6094 17.7703 33.1518 17.516 33.6371C17.2618 34.1224 16.9327 34.5577 16.5288 34.9431C16.125 35.3285 15.6763 35.6782 15.1827 35.9922C14.6891 36.3062 14.188 36.6202 13.6795 36.9343C13.5598 37.0199 13.5 37.1198 13.5 37.234C13.5 37.3767 13.5374 37.5123 13.6122 37.6408C13.687 37.7692 13.7917 37.8692 13.9263 37.9405C14.0609 38.0119 14.203 38.019 14.3526 37.9619L14.2055 37.9976Z" fill="black"/>
<path d="M22.2055 37.9976L22.3526 37.9619C23.1603 37.6194 23.938 37.234 24.6859 36.8058C25.4338 36.3776 26.0844 35.8709 26.6378 35.2857C27.1912 34.7005 27.64 34.0296 27.984 33.2731C28.328 32.5167 28.5 31.6388 28.5 30.6397C28.5 30.183 28.4252 29.7333 28.2756 29.2909C28.1261 28.8484 27.9017 28.4559 27.6026 28.1133C27.3034 27.7708 26.937 27.4996 26.5032 27.2997C26.0694 27.0999 25.5833 27 25.0449 27C24.2671 27 23.609 27.2498 23.0705 27.7494C22.5321 28.2489 22.2628 28.8555 22.2628 29.5692C22.2628 30.3685 22.4722 30.968 22.891 31.3676C23.3098 31.7673 23.8034 31.9671 24.3718 31.9671C24.8205 31.9671 25.1795 31.91 25.4487 31.7958C25.7479 31.6817 25.8974 31.753 25.8974 32.0099C25.8974 32.6094 25.7703 33.1518 25.516 33.6371C25.2618 34.1224 24.9327 34.5577 24.5288 34.9431C24.125 35.3285 23.6763 35.6782 23.1827 35.9922C22.6891 36.3062 22.188 36.6202 21.6795 36.9343C21.5598 37.0199 21.5 37.1198 21.5 37.234C21.5 37.3767 21.5374 37.5123 21.6122 37.6408C21.687 37.7692 21.7917 37.8692 21.9263 37.9405C22.0609 38.0119 22.203 38.019 22.3526 37.9619L22.2055 37.9976Z" fill="black"/>
</svg>
