<?xml version="1.0" encoding="UTF-8"?>
<!--Generator: Apple Native CoreSVG 341-->
<!DOCTYPE svg
PUBLIC "-//W3C//DTD SVG 1.1//EN"
       "http://www.w3.org/Graphics/SVG/1.1/DTD/svg11.dtd">
<svg version="1.1" xmlns="http://www.w3.org/2000/svg" xmlns:xlink="http://www.w3.org/1999/xlink" viewBox="0 0 3300 2200">
 <!--glyph: "", point size: 100.0, font version: "20.0d10e1", template writer version: "138.0.0"-->
 <style>.monochrome-0 {-sfsymbols-motion-group:0;-sfsymbols-layer-tags:-6bdc5309c1407a3b}

.multicolor-0:tintColor {-sfsymbols-motion-group:0;-sfsymbols-layer-tags:-6bdc5309c1407a3b}

.hierarchical-0:primary {-sfsymbols-motion-group:0;-sfsymbols-layer-tags:-6bdc5309c1407a3b}

.SFSymbolsPreviewWireframe {fill:none;opacity:1.0;stroke:black;stroke-width:0.5}
</style>
 <g id="Notes">
  <rect height="2200" id="artboard" style="fill:white;opacity:1" width="3300" x="0" y="0"/>
  <line style="fill:none;stroke:black;opacity:1;stroke-width:0.5;" x1="263" x2="3036" y1="292" y2="292"/>
  <text style="stroke:none;fill:black;font-family:sans-serif;font-size:13;font-weight:bold;" transform="matrix(1 0 0 1 263 322)">Weight/Scale Variations</text>
  <text style="stroke:none;fill:black;font-family:sans-serif;font-size:13;text-anchor:middle;" transform="matrix(1 0 0 1 559.711 322)">Ultralight</text>
  <text style="stroke:none;fill:black;font-family:sans-serif;font-size:13;text-anchor:middle;" transform="matrix(1 0 0 1 856.422 322)">Thin</text>
  <text style="stroke:none;fill:black;font-family:sans-serif;font-size:13;text-anchor:middle;" transform="matrix(1 0 0 1 1153.13 322)">Light</text>
  <text style="stroke:none;fill:black;font-family:sans-serif;font-size:13;text-anchor:middle;" transform="matrix(1 0 0 1 1449.84 322)">Regular</text>
  <text style="stroke:none;fill:black;font-family:sans-serif;font-size:13;text-anchor:middle;" transform="matrix(1 0 0 1 1746.56 322)">Medium</text>
  <text style="stroke:none;fill:black;font-family:sans-serif;font-size:13;text-anchor:middle;" transform="matrix(1 0 0 1 2043.27 322)">Semibold</text>
  <text style="stroke:none;fill:black;font-family:sans-serif;font-size:13;text-anchor:middle;" transform="matrix(1 0 0 1 2339.98 322)">Bold</text>
  <text style="stroke:none;fill:black;font-family:sans-serif;font-size:13;text-anchor:middle;" transform="matrix(1 0 0 1 2636.69 322)">Heavy</text>
  <text style="stroke:none;fill:black;font-family:sans-serif;font-size:13;text-anchor:middle;" transform="matrix(1 0 0 1 2933.4 322)">Black</text>
  <line style="fill:none;stroke:black;opacity:1;stroke-width:0.5;" x1="263" x2="3036" y1="1903" y2="1903"/>
  <g transform="matrix(0.2 0 0 0.2 263 1933)">
   <path d="m46.2402 4.15039c21.7773 0 39.4531-17.627 39.4531-39.4043s-17.6758-39.4043-39.4531-39.4043c-21.7285 0-39.4043 17.627-39.4043 39.4043s17.6758 39.4043 39.4043 39.4043Zm0-7.42188c-17.6758 0-31.9336-14.3066-31.9336-31.9824s14.2578-31.9824 31.9336-31.9824 31.9824 14.3066 31.9824 31.9824-14.3066 31.9824-31.9824 31.9824Zm-17.9688-31.9824c0 2.14844 1.51367 3.61328 3.75977 3.61328h10.498v10.5957c0 2.19727 1.46484 3.71094 3.61328 3.71094 2.24609 0 3.71094-1.51367 3.71094-3.71094v-10.5957h10.5957c2.19727 0 3.71094-1.46484 3.71094-3.61328 0-2.19727-1.51367-3.71094-3.71094-3.71094h-10.5957v-10.5469c0-2.24609-1.46484-3.75977-3.71094-3.75977-2.14844 0-3.61328 1.51367-3.61328 3.75977v10.5469h-10.498c-2.24609 0-3.75977 1.51367-3.75977 3.71094Z"/>
  </g>
  <g transform="matrix(0.2 0 0 0.2 281.506 1933)">
   <path d="m58.5449 14.5508c27.4902 0 49.8047-22.3145 49.8047-49.8047s-22.3145-49.8047-49.8047-49.8047-49.8047 22.3145-49.8047 49.8047 22.3145 49.8047 49.8047 49.8047Zm0-8.30078c-22.9492 0-41.5039-18.5547-41.5039-41.5039s18.5547-41.5039 41.5039-41.5039 41.5039 18.5547 41.5039 41.5039-18.5547 41.5039-41.5039 41.5039Zm-22.6562-41.5039c0 2.39258 1.66016 4.00391 4.15039 4.00391h14.3555v14.4043c0 2.44141 1.66016 4.15039 4.05273 4.15039 2.44141 0 4.15039-1.66016 4.15039-4.15039v-14.4043h14.4043c2.44141 0 4.15039-1.61133 4.15039-4.00391 0-2.44141-1.70898-4.15039-4.15039-4.15039h-14.4043v-14.3555c0-2.49023-1.70898-4.19922-4.15039-4.19922-2.39258 0-4.05273 1.70898-4.05273 4.19922v14.3555h-14.3555c-2.49023 0-4.15039 1.70898-4.15039 4.15039Z"/>
  </g>
  <g transform="matrix(0.2 0 0 0.2 304.924 1933)">
   <path d="m74.8535 28.3203c35.1074 0 63.623-28.4668 63.623-63.5742s-28.5156-63.623-63.623-63.623-63.5742 28.5156-63.5742 63.623 28.4668 63.5742 63.5742 63.5742Zm0-9.08203c-30.127 0-54.4922-24.3652-54.4922-54.4922s24.3652-54.4922 54.4922-54.4922 54.4922 24.3652 54.4922 54.4922-24.3652 54.4922-54.4922 54.4922Zm-28.8574-54.4922c0 2.58789 1.85547 4.39453 4.58984 4.39453h19.7266v19.7754c0 2.68555 1.85547 4.58984 4.44336 4.58984 2.68555 0 4.54102-1.85547 4.54102-4.58984v-19.7754h19.7754c2.68555 0 4.58984-1.80664 4.58984-4.39453 0-2.73438-1.85547-4.58984-4.58984-4.58984h-19.7754v-19.7266c0-2.73438-1.85547-4.63867-4.54102-4.63867-2.58789 0-4.44336 1.9043-4.44336 4.63867v19.7266h-19.7266c-2.73438 0-4.58984 1.85547-4.58984 4.58984Z"/>
  </g>
  <text style="stroke:none;fill:black;font-family:sans-serif;font-size:13;font-weight:bold;" transform="matrix(1 0 0 1 263 1953)">Design Variations</text>
  <text style="stroke:none;fill:black;font-family:sans-serif;font-size:13;" transform="matrix(1 0 0 1 263 1971)">Symbols are supported in up to nine weights and three scales.</text>
  <text style="stroke:none;fill:black;font-family:sans-serif;font-size:13;" transform="matrix(1 0 0 1 263 1989)">For optimal layout with text and other symbols, vertically align</text>
  <text style="stroke:none;fill:black;font-family:sans-serif;font-size:13;" transform="matrix(1 0 0 1 263 2007)">symbols with the adjacent text.</text>
  <line style="fill:none;stroke:#00AEEF;stroke-width:0.5;opacity:1.0;" x1="776" x2="776" y1="1919" y2="1933"/>
  <g transform="matrix(0.2 0 0 0.2 776 1933)">
   <path d="m16.5527 0.78125c2.58789 0 3.85742-0.976562 4.78516-3.71094l6.29883-17.2363h28.8086l6.29883 17.2363c0.927734 2.73438 2.19727 3.71094 4.73633 3.71094 2.58789 0 4.24805-1.5625 4.24805-4.00391 0-0.830078-0.146484-1.61133-0.537109-2.63672l-22.9004-60.9863c-1.12305-2.97852-3.125-4.49219-6.25-4.49219-3.02734 0-5.07812 1.46484-6.15234 4.44336l-22.9004 61.084c-0.390625 1.02539-0.537109 1.80664-0.537109 2.63672 0 2.44141 1.5625 3.95508 4.10156 3.95508Zm13.4766-28.3691 11.8652-32.8613h0.244141l11.8652 32.8613Z"/>
  </g>
  <line style="fill:none;stroke:#00AEEF;stroke-width:0.5;opacity:1.0;" x1="792.836" x2="792.836" y1="1919" y2="1933"/>
  <text style="stroke:none;fill:black;font-family:sans-serif;font-size:13;font-weight:bold;" transform="matrix(1 0 0 1 776 1953)">Margins</text>
  <text style="stroke:none;fill:black;font-family:sans-serif;font-size:13;" transform="matrix(1 0 0 1 776 1971)">Leading and trailing margins on the left and right side of each symbol</text>
  <text style="stroke:none;fill:black;font-family:sans-serif;font-size:13;" transform="matrix(1 0 0 1 776 1989)">can be adjusted by modifying the x-location of the margin guidelines.</text>
  <text style="stroke:none;fill:black;font-family:sans-serif;font-size:13;" transform="matrix(1 0 0 1 776 2007)">Modifications are automatically applied proportionally to all</text>
  <text style="stroke:none;fill:black;font-family:sans-serif;font-size:13;" transform="matrix(1 0 0 1 776 2025)">scales and weights.</text>
  <g transform="matrix(0.2 0 0 0.2 1289 1933)">
   <path d="m14.209 9.32617 8.49609 8.54492c4.29688 4.3457 9.22852 4.05273 13.8672-1.07422l53.4668-58.9355-4.83398-4.88281-53.0762 58.3984c-1.75781 2.00195-3.41797 2.49023-5.76172 0.146484l-5.85938-5.81055c-2.34375-2.29492-1.80664-4.00391 0.195312-5.81055l57.373-54.0039-4.88281-4.83398-57.959 54.4434c-4.93164 4.58984-5.32227 9.47266-1.02539 13.8184Zm32.0801-90.9668c-2.09961 2.05078-2.24609 4.93164-1.07422 6.88477 1.17188 1.80664 3.4668 2.97852 6.68945 2.14844 7.32422-1.70898 14.9414-2.00195 22.0703 2.68555l-2.92969 7.27539c-1.70898 4.15039-0.830078 7.08008 1.85547 9.81445l11.4746 11.5723c2.44141 2.44141 4.49219 2.53906 7.32422 2.05078l5.32227-0.976562 3.32031 3.36914-0.195312 2.7832c-0.195312 2.49023 0.439453 4.39453 2.88086 6.78711l3.80859 3.71094c2.39258 2.39258 5.46875 2.53906 7.8125 0.195312l14.5508-14.5996c2.34375-2.34375 2.24609-5.32227-0.146484-7.71484l-3.85742-3.80859c-2.39258-2.39258-4.24805-3.17383-6.64062-2.97852l-2.88086 0.244141-3.22266-3.17383 1.2207-5.61523c0.634766-2.83203-0.146484-5.0293-3.07617-7.95898l-10.9863-10.9375c-16.6992-16.6016-38.8672-16.2109-53.3203-1.75781Zm7.4707 1.85547c12.1582-8.88672 28.6133-7.37305 39.7461 3.75977l12.1582 12.0605c1.17188 1.17188 1.36719 2.09961 1.02539 3.80859l-1.61133 7.42188 7.51953 7.42188 4.93164-0.292969c1.26953-0.0488281 1.66016 0.0488281 2.63672 1.02539l2.88086 2.88086-12.207 12.207-2.88086-2.88086c-0.976562-0.976562-1.12305-1.36719-1.07422-2.68555l0.341797-4.88281-7.4707-7.42188-7.61719 1.26953c-1.61133 0.341797-2.34375 0.195312-3.56445-0.976562l-10.0098-10.0098c-1.26953-1.17188-1.41602-2.00195-0.634766-3.85742l4.39453-10.4492c-7.8125-7.27539-17.9688-10.4004-28.125-7.42188-0.78125 0.195312-1.07422-0.439453-0.439453-0.976562Z"/>
  </g>
  <text style="stroke:none;fill:black;font-family:sans-serif;font-size:13;font-weight:bold;" transform="matrix(1 0 0 1 1289 1953)">Exporting</text>
  <text style="stroke:none;fill:black;font-family:sans-serif;font-size:13;" transform="matrix(1 0 0 1 1289 1971)">Symbols should be outlined when exporting to ensure the</text>
  <text style="stroke:none;fill:black;font-family:sans-serif;font-size:13;" transform="matrix(1 0 0 1 1289 1989)">design is preserved when submitting to Xcode.</text>
  <text id="template-version" style="stroke:none;fill:black;font-family:sans-serif;font-size:13;text-anchor:end;" transform="matrix(1 0 0 1 3036 1933)">Template v.6.0</text>
  <text style="stroke:none;fill:black;font-family:sans-serif;font-size:13;text-anchor:end;" transform="matrix(1 0 0 1 3036 1951)">Requires Xcode 16 or greater</text>
  <text id="descriptive-name" style="stroke:none;fill:black;font-family:sans-serif;font-size:13;text-anchor:end;" transform="matrix(1 0 0 1 3036 1969)">Generated from poedit.update</text>
  <text style="stroke:none;fill:black;font-family:sans-serif;font-size:13;text-anchor:end;" transform="matrix(1 0 0 1 3036 1987)">Typeset at 100.0 points</text>
  <text style="stroke:none;fill:black;font-family:sans-serif;font-size:13;" transform="matrix(1 0 0 1 263 726)">Small</text>
  <text style="stroke:none;fill:black;font-family:sans-serif;font-size:13;" transform="matrix(1 0 0 1 263 1156)">Medium</text>
  <text style="stroke:none;fill:black;font-family:sans-serif;font-size:13;" transform="matrix(1 0 0 1 263 1586)">Large</text>
 </g>
 <g id="Guides">
  <g id="H-reference" style="fill:#27AAE1;stroke:none;" transform="matrix(1 0 0 1 339 696)">
   <path d="M0.993654 0L3.63775 0L29.3281-67.1323L30.0303-67.1323L30.0303-70.459L28.1226-70.459ZM11.6885-24.4799L46.9815-24.4799L46.2315-26.7285L12.4385-26.7285ZM55.1196 0L57.7637 0L30.6382-70.459L29.4326-70.459L29.4326-67.1323Z"/>
  </g>
  <line id="Baseline-S" style="fill:none;stroke:#27AAE1;opacity:1;stroke-width:0.5;" x1="263" x2="3036" y1="696" y2="696"/>
  <line id="Capline-S" style="fill:none;stroke:#27AAE1;opacity:1;stroke-width:0.5;" x1="263" x2="3036" y1="625.541" y2="625.541"/>
  <g id="H-reference" style="fill:#27AAE1;stroke:none;" transform="matrix(1 0 0 1 339 1126)">
   <path d="M0.993654 0L3.63775 0L29.3281-67.1323L30.0303-67.1323L30.0303-70.459L28.1226-70.459ZM11.6885-24.4799L46.9815-24.4799L46.2315-26.7285L12.4385-26.7285ZM55.1196 0L57.7637 0L30.6382-70.459L29.4326-70.459L29.4326-67.1323Z"/>
  </g>
  <line id="Baseline-M" style="fill:none;stroke:#27AAE1;opacity:1;stroke-width:0.5;" x1="263" x2="3036" y1="1126" y2="1126"/>
  <line id="Capline-M" style="fill:none;stroke:#27AAE1;opacity:1;stroke-width:0.5;" x1="263" x2="3036" y1="1055.54" y2="1055.54"/>
  <g id="H-reference" style="fill:#27AAE1;stroke:none;" transform="matrix(1 0 0 1 339 1556)">
   <path d="M0.993654 0L3.63775 0L29.3281-67.1323L30.0303-67.1323L30.0303-70.459L28.1226-70.459ZM11.6885-24.4799L46.9815-24.4799L46.2315-26.7285L12.4385-26.7285ZM55.1196 0L57.7637 0L30.6382-70.459L29.4326-70.459L29.4326-67.1323Z"/>
  </g>
  <line id="Baseline-L" style="fill:none;stroke:#27AAE1;opacity:1;stroke-width:0.5;" x1="263" x2="3036" y1="1556" y2="1556"/>
  <line id="Capline-L" style="fill:none;stroke:#27AAE1;opacity:1;stroke-width:0.5;" x1="263" x2="3036" y1="1485.54" y2="1485.54"/>
  <line id="right-margin-Regular-M" style="fill:none;stroke:#00AEEF;stroke-width:0.5;opacity:1.0;" x1="1526.43" x2="1526.43" y1="1030.79" y2="1150.12"/>
  <line id="left-margin-Regular-M" style="fill:none;stroke:#00AEEF;stroke-width:0.5;opacity:1.0;" x1="1373.26" x2="1373.26" y1="1030.79" y2="1150.12"/>
 </g>
 <g id="Symbols">
  <g id="Black-L" transform="matrix(1 0 0 1 2835.34 1556)">
   <path class="monochrome-0 multicolor-0:tintColor hierarchical-0:primary SFSymbolsPreviewWireframe" d="M39.281 5.9359L39.281 6.2159C39.281 17.4239 39.498 20.0779 41.883 24.7589C44.172 29.2509 47.823 32.9029 52.315 35.1919C56.996 37.5769 59.65 37.7939 70.859 37.7939L125.263 37.7939C136.472 37.7939 139.126 37.5769 143.807 35.1919C148.299 32.9029 151.951 29.2509 154.239 24.7589C156.624 20.0789 156.841 17.4239 156.841 6.2159L156.841 5.9359L134.785 5.9359L134.785 6.2159C134.785 10.8059 134.76 12.3579 134.646 13.7529C134.598 14.3419 134.541 14.7339 134.488 14.9619C134.485 14.9729 134.518 14.8809 134.587 14.7459C134.413 15.0879 134.135 15.3649 133.793 15.5389C133.929 15.4699 134.021 15.4379 134.01 15.4399C133.782 15.4939 133.39 15.5509 132.801 15.5989C131.406 15.7129 129.854 15.7369 125.263 15.7369L70.859 15.7369C66.268 15.7369 64.716 15.7129 63.321 15.5989C62.732 15.5509 62.34 15.4939 62.112 15.4399C62.101 15.4379 62.194 15.4699 62.328 15.5389C61.987 15.3649 61.709 15.0869 61.535 14.7449C61.604 14.8809 61.637 14.9729 61.634 14.9619C61.581 14.7349 61.524 14.3419 61.476 13.7529C61.362 12.3579 61.337 10.8069 61.337 6.2159L61.337 5.9359L39.281 5.9359ZM61.337-24.4481L61.337-76.6751C61.337-81.2661 61.362-82.8181 61.476-84.2131C61.524-84.8021 61.581-85.1941 61.634-85.4221C61.637-85.4331 61.604-85.3411 61.535-85.2061C61.709-85.5471 61.987-85.8251 62.329-85.9991C62.194-85.9301 62.101-85.8971 62.112-85.9001C62.34-85.9531 62.732-86.0101 63.321-86.0581C64.716-86.1721 66.268-86.1971 70.859-86.1971L93.727-86.1971C97.044-86.1971 97.759-86.1641 97.97-86.1121C98.277-86.0371 98.571-85.9141 98.839-85.7461C99.023-85.6311 99.546-85.1421 101.862-82.7681L131.555-52.3301C133.793-50.0361 134.252-49.5211 134.361-49.3401C134.519-49.0771 134.635-48.7911 134.706-48.4931C134.754-48.2891 134.785-47.5991 134.785-44.3941L134.785-24.4481L156.841-24.4481L156.841-44.3941C156.841-49.6011 156.779-50.9911 156.172-53.5621C155.577-56.0781 154.597-58.4861 153.267-60.7011C151.905-62.9661 150.978-64.0061 147.343-67.7321L117.651-98.1691C113.89-102.025 112.84-103.006 110.526-104.451C108.264-105.865 105.79-106.908 103.198-107.54C100.548-108.187 99.113-108.253 93.727-108.253L70.859-108.253C59.65-108.253 56.996-108.036 52.315-105.652C47.823-103.363 44.172-99.7111 41.883-95.2191C39.498-90.5381 39.281-87.8841 39.281-76.6751L39.281-24.4481L61.337-24.4481ZM87.646-97.0601L87.646-59.0241C87.646-52.3681 87.775-50.7971 89.472-47.4651C91.079-44.3131 93.642-41.7501 96.794-40.1441C100.126-38.4461 101.697-38.3171 108.352-38.3171L146.389-38.3171L146.389-58.6531L108.352-58.6531C106.143-58.6531 105.396-58.6651 104.855-58.7091C104.762-58.7171 104.778-58.7141 104.902-58.6851C105.236-58.6061 105.623-58.4681 106.026-58.2631C106.7-57.9191 107.248-57.3721 107.592-56.6981C107.797-56.2941 107.935-55.9071 108.014-55.5731C108.043-55.4491 108.046-55.4331 108.038-55.5261C107.994-56.0671 107.982-56.8141 107.982-59.0241L107.982-97.0601L87.646-97.0601ZM31.373 1.6539L164.749 1.6539C170.797 1.6539 175.699-3.2481 175.699-9.2961C175.699-15.3431 170.797-20.2461 164.749-20.2461L31.373-20.2461C25.326-20.2461 20.423-15.3431 20.423-9.2961C20.423-3.2481 25.326 1.6539 31.373 1.6539Z"/>
  </g>
  <g id="Heavy-L" transform="matrix(1 0 0 1 2539.66 1556)">
   <path class="monochrome-0 multicolor-0:tintColor hierarchical-0:primary SFSymbolsPreviewWireframe" d="M39.289 5.9359L39.289 6.2159C39.289 17.2139 39.502 19.8199 41.777 24.2849C43.965 28.5799 47.457 32.0719 51.752 34.2609C56.218 36.5359 58.824 36.7489 69.822 36.7489L124.226 36.7489C135.225 36.7489 137.83 36.5359 142.296 34.2609C146.591 32.0719 150.083 28.5799 152.272 24.2849C154.547 19.8199 154.76 17.2139 154.76 6.2159L154.76 5.9359L134.793 5.9359L134.793 6.2159C134.793 10.8399 134.768 12.4029 134.651 13.8379C134.567 14.8669 134.486 15.2099 134.481 15.2199C134.207 15.7579 133.769 16.1959 133.231 16.4699C133.221 16.4749 132.878 16.5559 131.849 16.6399C130.414 16.7569 128.851 16.7819 124.226 16.7819L69.822 16.7819C65.197 16.7819 63.635 16.7569 62.199 16.6399C61.17 16.5559 60.827 16.4749 60.817 16.4699C60.279 16.1959 59.842 15.7579 59.567 15.2199C59.562 15.2099 59.482 14.8669 59.397 13.8379C59.28 12.4029 59.256 10.8399 59.256 6.2159L59.256 5.9359L39.289 5.9359ZM59.256-24.4481L59.256-76.6751C59.256-81.3001 59.28-82.8631 59.397-84.2981C59.482-85.3271 59.562-85.6701 59.567-85.6801C59.842-86.2181 60.279-86.6561 60.818-86.9301C60.827-86.9351 61.17-87.0161 62.199-87.1001C63.635-87.2171 65.197-87.2421 69.822-87.2421L92.69-87.2421C94.905-87.2421 95.653-87.2351 96.348-87.2021C96.866-87.1781 97.081-87.1511 97.18-87.1271C97.596-87.0261 97.993-86.8591 98.355-86.6321C98.442-86.5781 98.612-86.4431 98.991-86.0891C99.499-85.6131 100.027-85.0821 101.573-83.4971L131.266-53.0601C132.759-51.5291 133.26-51.0061 133.708-50.5041C134.041-50.1301 134.168-49.9631 134.22-49.8781C134.433-49.5231 134.59-49.1361 134.685-48.7331C134.708-48.6371 134.733-48.4291 134.756-47.9291C134.786-47.2571 134.793-46.5341 134.793-44.3941L134.793-24.4481L154.76-24.4481L154.76-44.3941C154.76-49.5061 154.698-50.8631 154.118-53.3221C153.548-55.7331 152.609-58.0401 151.334-60.1621C150.032-62.3291 149.127-63.3441 145.558-67.0021L115.866-97.4401C112.174-101.225 111.148-102.183 108.936-103.565C106.768-104.92 104.397-105.919 101.914-106.525C99.379-107.144 97.978-107.209 92.69-107.209L69.822-107.209C58.824-107.209 56.218-106.996 51.753-104.721C47.457-102.532 43.965-99.0401 41.777-94.7451C39.502-90.2791 39.289-87.6741 39.289-76.6751L39.289-24.4481L59.256-24.4481ZM87.573-97.0601L87.573-59.0241C87.573-52.5621 87.697-51.0361 89.294-47.9031C90.808-44.9311 93.223-42.5161 96.194-41.0021C99.328-39.4051 100.854-39.2811 107.315-39.2811L145.352-39.2811L145.352-57.6901L107.315-57.6901C105.075-57.6901 104.317-57.7021 103.739-57.7491C103.602-57.7601 103.572-57.7651 103.644-57.7481C103.906-57.6861 104.22-57.5741 104.552-57.4041C105.045-57.1531 105.445-56.7531 105.696-56.2601C105.866-55.9281 105.978-55.6141 106.039-55.3521C106.056-55.2801 106.052-55.3101 106.041-55.4471C105.994-56.0261 105.982-56.7831 105.982-59.0241L105.982-97.0601L87.573-97.0601ZM30.336 0.6169L163.712 0.6169C169.187 0.6169 173.625-3.8211 173.625-9.2961C173.625-14.7701 169.187-19.2081 163.712-19.2081L30.336-19.2081C24.861-19.2081 20.423-14.7701 20.423-9.2961C20.423-3.8211 24.861 0.6169 30.336 0.6169Z"/>
  </g>
  <g id="Bold-L" transform="matrix(1 0 0 1 2243.99 1556)">
   <path class="monochrome-0 multicolor-0:tintColor hierarchical-0:primary SFSymbolsPreviewWireframe" d="M39.296 5.9359L39.296 6.2159C39.296 17.0039 39.504 19.5609 41.669 23.8099C43.758 27.9089 47.09 31.2409 51.189 33.3299C55.438 35.4949 57.996 35.7039 68.784 35.7039L123.188 35.7039C133.977 35.7039 136.534 35.4949 140.783 33.3299C144.882 31.2409 148.214 27.9089 150.303 23.8099C152.468 19.5609 152.677 17.0039 152.677 6.2159L152.677 5.9359L134.799 5.9359L134.799 6.2159C134.799 10.8739 134.775 12.4479 134.654 13.9229C134.56 15.0759 134.449 15.5459 134.374 15.6939C133.999 16.4289 133.402 17.0269 132.667 17.4009C132.519 17.4759 132.049 17.5869 130.896 17.6809C129.42 17.8019 127.846 17.8269 123.188 17.8269L68.784 17.8269C64.126 17.8269 62.552 17.8019 61.076 17.6809C59.923 17.5869 59.453 17.4759 59.305 17.4009C58.57 17.0269 57.973 16.4289 57.598 15.6939C57.523 15.5469 57.412 15.0769 57.318 13.9229C57.198 12.4479 57.173 10.8739 57.173 6.2159L57.173 5.9359L39.296 5.9359ZM57.173-24.4481L57.173-76.6751C57.173-81.3331 57.198-82.9081 57.318-84.3831C57.412-85.5361 57.523-86.0061 57.598-86.1541C57.973-86.8891 58.57-87.4861 59.305-87.8611C59.453-87.9361 59.923-88.0471 61.076-88.1411C62.552-88.2621 64.126-88.2861 68.784-88.2861L91.652-88.2861C95.165-88.2861 95.948-88.2501 96.39-88.1421C96.914-88.0141 97.414-87.8041 97.871-87.5181C98.257-87.2771 98.83-86.7421 101.283-84.2271L130.976-53.7891C133.346-51.3591 133.85-50.7941 134.077-50.4161C134.346-49.9691 134.544-49.4821 134.664-48.9731C134.765-48.5451 134.799-47.7891 134.799-44.3941L134.799-24.4481L152.677-24.4481L152.677-44.3941C152.677-49.4111 152.617-50.7351 152.063-53.0821C151.518-55.3881 150.62-57.5941 149.4-59.6241C148.158-61.6921 147.275-62.6821 143.772-66.2731L114.08-96.7101C110.456-100.425 109.456-101.36 107.344-102.679C105.271-103.975 103.004-104.93 100.628-105.51C98.209-106.1 96.842-106.164 91.652-106.164L68.784-106.164C57.996-106.164 55.438-105.955 51.189-103.79C47.09-101.701 43.758-98.3691 41.67-94.2711C39.504-90.0211 39.296-87.4641 39.296-76.6751L39.296-24.4481L57.173-24.4481ZM87.498-97.0601L87.498-59.0241C87.498-52.7561 87.619-51.2741 89.114-48.3401C90.536-45.5501 92.804-43.2821 95.594-41.8601C98.528-40.3651 100.01-40.2441 106.277-40.2441L144.314-40.2441L144.314-56.7261L106.277-56.7261C104.006-56.7261 103.238-56.7391 102.623-56.7891C102.441-56.8041 102.364-56.8151 102.385-56.8101C102.574-56.7651 102.816-56.6791 103.077-56.5461C103.388-56.3871 103.641-56.1341 103.8-55.8231C103.933-55.5621 104.019-55.3201 104.064-55.1311C104.069-55.1101 104.058-55.1871 104.043-55.3691C103.993-55.9841 103.98-56.7521 103.98-59.0241L103.98-97.0601L87.498-97.0601ZM29.298-0.4201L162.674-0.4201C167.576-0.4201 171.549-4.3941 171.549-9.2961C171.549-14.1971 167.576-18.1711 162.674-18.1711L29.298-18.1711C24.396-18.1711 20.423-14.1971 20.423-9.2961C20.423-4.3941 24.396-0.4201 29.298-0.4201Z"/>
  </g>
  <g id="Semibold-L" transform="matrix(1 0 0 1 1948.32 1556)">
   <path class="monochrome-0 multicolor-0:tintColor hierarchical-0:primary SFSymbolsPreviewWireframe" d="M39.303 5.9359L39.303 6.2159C39.303 16.7939 39.508 19.3019 41.563 23.3359C43.552 27.2379 46.724 30.4109 50.626 32.3989C54.66 34.4539 57.169 34.6589 67.747 34.6589L122.151 34.6589C132.73 34.6589 135.238 34.4539 139.272 32.3989C143.174 30.4109 146.347 27.2379 148.335 23.3359C150.39 19.3029 150.595 16.7939 150.595 6.2159L150.595 5.9359L134.807 5.9359L134.807 6.2159C134.807 13.6199 134.662 15.3939 134.268 16.1689C133.793 17.0999 133.036 17.8569 132.104 18.3319C131.33 18.7259 129.556 18.8709 122.151 18.8709L67.747 18.8709C60.343 18.8709 58.568 18.7259 57.794 18.3319C56.862 17.8569 56.105 17.0999 55.63 16.1689C55.236 15.3949 55.091 13.6199 55.091 6.2159L55.091 5.9359L39.303 5.9359ZM55.091-24.4481L55.091-76.6751C55.091-84.0801 55.236-85.8541 55.631-86.6291C56.105-87.5601 56.862-88.3171 57.794-88.7921C58.568-89.1861 60.343-89.3311 67.747-89.3311L90.615-89.3311C94.226-89.3311 95.043-89.2931 95.601-89.1571C96.233-89.0031 96.836-88.7491 97.388-88.4041C97.875-88.1001 98.472-87.5411 100.994-84.9561L130.686-54.5191C133.123-52.0211 133.649-51.4311 133.936-50.9541C134.26-50.4141 134.499-49.8271 134.644-49.2131C134.772-48.6731 134.807-47.8841 134.807-44.3941L134.807-24.4481L150.595-24.4481L150.595-44.3941C150.595-49.3161 150.537-50.6071 150.009-52.8421C149.489-55.0431 148.632-57.1491 147.468-59.0861C146.285-61.0551 145.424-62.0211 141.988-65.5431L112.295-95.9811C108.74-99.6261 107.764-100.537 105.753-101.793C103.775-103.03 101.611-103.942 99.343-104.495C97.04-105.057 95.707-105.119 90.615-105.119L67.747-105.119C57.169-105.119 54.66-104.914 50.626-102.859C46.724-100.87 43.552-97.6981 41.564-93.7961C39.508-89.7621 39.303-87.2541 39.303-76.6751L39.303-24.4481L55.091-24.4481ZM87.424-97.0601L87.424-59.0241C87.424-52.9491 87.541-51.5131 88.935-48.7771C90.265-46.1681 92.385-44.0481 94.994-42.7181C97.73-41.3241 99.166-41.2071 105.24-41.2071L143.277-41.2071L143.277-55.7631L105.24-55.7631C102.938-55.7631 102.16-55.7751 101.507-55.8291C101.28-55.8471 101.157-55.8651 101.127-55.8721C101.244-55.8451 101.413-55.7841 101.603-55.6881C101.733-55.6221 101.838-55.5161 101.905-55.3861C102.001-55.1961 102.062-55.0271 102.089-54.9101C102.082-54.9401 102.064-55.0631 102.046-55.2901C101.992-55.9431 101.98-56.7211 101.98-59.0241L101.98-97.0601L87.424-97.0601ZM28.261-1.4581L161.637-1.4581C165.966-1.4581 169.475-4.9671 169.475-9.2961C169.475-13.6241 165.966-17.1341 161.637-17.1341L28.261-17.1341C23.932-17.1341 20.423-13.6241 20.423-9.2961C20.423-4.9671 23.932-1.4581 28.261-1.4581Z"/>
  </g>
  <g id="Medium-L" transform="matrix(1 0 0 1 1652.64 1556)">
   <path class="monochrome-0 multicolor-0:tintColor hierarchical-0:primary SFSymbolsPreviewWireframe" d="M39.31 5.9359L39.31 6.2159C39.31 16.5839 39.511 19.0439 41.456 22.8619C43.345 26.5669 46.357 29.5799 50.062 31.4679C53.881 33.4129 56.341 33.6139 66.709 33.6139L121.113 33.6139C131.482 33.6139 133.942 33.4129 137.76 31.4679C141.465 29.5799 144.478 26.5669 146.366 22.8619C148.311 19.0439 148.512 16.5839 148.512 6.2159L148.512 5.9359L134.814 5.9359L134.814 6.2159C134.814 13.8299 134.665 15.6529 134.161 16.6429C133.586 17.7709 132.669 18.6879 131.541 19.2629C130.551 19.7669 128.728 19.9159 121.113 19.9159L66.709 19.9159C59.095 19.9159 57.271 19.7669 56.281 19.2629C55.153 18.6879 54.236 17.7709 53.661 16.6429C53.157 15.6529 53.008 13.8299 53.008 6.2159L53.008 5.9359L39.31 5.9359ZM53.008-24.4481L53.008-76.6751C53.008-84.2901 53.157-86.1131 53.662-87.1031C54.236-88.2311 55.153-89.1481 56.282-89.7231C57.271-90.2271 59.095-90.3761 66.709-90.3761L89.577-90.3761C93.286-90.3761 94.138-90.3361 94.81-90.1721C95.551-89.9921 96.257-89.6941 96.903-89.2901C97.491-88.9231 98.114-88.3411 100.704-85.6861L130.396-55.2481C132.899-52.6831 133.447-52.0681 133.793-51.4921C134.173-50.8601 134.453-50.1721 134.623-49.4541C134.777-48.8011 134.814-47.9791 134.814-44.3941L134.814-24.4481L148.512-24.4481L148.512-44.3941C148.512-49.2221 148.456-50.4791 147.954-52.6021C147.459-54.6971 146.643-56.7031 145.534-58.5481C144.41-60.4181 143.572-61.3591 140.202-64.8141L110.509-95.2511C107.022-98.8261 106.072-99.7141 104.162-100.907C102.277-102.085 100.217-102.953 98.058-103.48C95.87-104.014 94.571-104.074 89.577-104.074L66.709-104.074C56.341-104.074 53.881-103.873 50.063-101.928C46.357-100.04 43.345-97.0271 41.456-93.3221C39.511-89.5041 39.31-87.0441 39.31-76.6751L39.31-24.4481L53.008-24.4481ZM87.349-97.0601L87.349-59.0241C87.349-53.1431 87.463-51.7511 88.756-49.2151C89.992-46.7871 91.966-44.8141 94.393-43.5771C96.93-42.2841 98.322-42.1701 104.202-42.1701L142.239-42.1701L142.239-54.8001L104.202-54.8001C101.869-54.8001 101.081-54.8121 100.391-54.8691C100.119-54.8911 99.95-54.9151 99.868-54.9351C99.912-54.9241 100.009-54.8901 100.127-54.8301C100.076-54.8561 100.035-54.8971 100.008-54.9481C100.069-54.8301 100.103-54.7331 100.114-54.6891C100.094-54.7711 100.07-54.9401 100.048-55.2121C99.991-55.9021 99.979-56.6901 99.979-59.0241L99.979-97.0601L87.349-97.0601ZM27.223-2.4951L160.599-2.4951C164.355-2.4951 167.4-5.5401 167.4-9.2961C167.4-13.0511 164.355-16.0961 160.599-16.0961L27.223-16.0961C23.467-16.0961 20.423-13.0511 20.423-9.2961C20.423-5.5401 23.467-2.4951 27.223-2.4951Z"/>
  </g>
  <g id="Regular-L" transform="matrix(1 0 0 1 1356.97 1556)">
   <path class="monochrome-0 multicolor-0:tintColor hierarchical-0:primary SFSymbolsPreviewWireframe" d="M39.318 5.9359L39.318 6.2159C39.318 16.3739 39.515 18.7849 41.35 22.3879C43.138 25.8969 45.991 28.7489 49.5 30.5369C53.102 32.3729 55.514 32.5699 65.672 32.5699L120.076 32.5699C130.235 32.5699 132.646 32.3729 136.248 30.5369C139.757 28.7489 142.61 25.8959 144.398 22.3879C146.233 18.7849 146.43 16.3739 146.43 6.2159L146.43 5.9359L134.822 5.9359L134.822 6.2159C134.822 14.0399 134.669 15.9119 134.054 17.1169C133.38 18.4419 132.303 19.5189 130.978 20.1939C129.773 20.8079 127.901 20.9609 120.076 20.9609L65.672 20.9609C57.848 20.9609 55.976 20.8079 54.77 20.1939C53.446 19.5189 52.369 18.4419 51.694 17.1169C51.079 15.9119 50.927 14.0399 50.927 6.2159L50.927 5.9359L39.318 5.9359ZM50.927-24.4481L50.927-76.6751C50.927-84.5001 51.079-86.3721 51.694-87.5771C52.369-88.9021 53.446-89.9791 54.77-90.6541C55.976-91.2681 57.848-91.4211 65.672-91.4211L88.54-91.4211C92.347-91.4211 93.233-91.3801 94.021-91.1871C94.87-90.9801 95.679-90.6391 96.42-90.1761C97.108-89.7461 97.756-89.1411 100.415-86.4151L130.107-55.9781C132.676-53.3451 133.246-52.7051 133.652-52.0311C134.087-51.3061 134.408-50.5171 134.603-49.6941C134.783-48.9291 134.822-48.0731 134.822-44.3941L134.822-24.4481L146.43-24.4481L146.43-44.3941C146.43-49.1271 146.375-50.3511 145.9-52.3621C145.43-54.3521 144.655-56.2571 143.602-58.0101C142.537-59.7811 141.721-60.6971 138.417-64.0841L108.725-94.5221C105.306-98.0261 104.38-98.8911 102.571-100.021C100.781-101.14 98.824-101.965 96.773-102.465C94.701-102.971 93.436-103.029 88.54-103.029L65.672-103.029C55.514-103.029 53.102-102.832 49.5-100.997C45.991-99.2091 43.138-96.3561 41.35-92.8481C39.515-89.2451 39.318-86.8341 39.318-76.6751L39.318-24.4481L50.927-24.4481ZM87.276-97.0601L87.276-59.0241C87.276-53.3371 87.386-51.9901 88.577-49.6521C89.721-47.4061 91.548-45.5791 93.794-44.4351C96.132-43.2441 97.479-43.1341 103.165-43.1341L141.202-43.1341L141.202-53.8371L103.165-53.8371C99.63-53.8371 98.781-53.9061 98.653-53.9711C98.421-54.0901 98.232-54.2791 98.113-54.5111C98.048-54.6391 97.979-55.4881 97.979-59.0241L97.979-97.0601L87.276-97.0601ZM26.186-3.5321L159.562-3.5321C162.745-3.5321 165.325-6.1131 165.325-9.2961C165.325-12.4791 162.745-15.0591 159.562-15.0591L26.186-15.0591C23.003-15.0591 20.423-12.4791 20.423-9.2961C20.423-6.1131 23.003-3.5321 26.186-3.5321Z"/>
  </g>
  <g id="Light-L" transform="matrix(1 0 0 1 1061.6 1556)">
   <path class="monochrome-0 multicolor-0:tintColor hierarchical-0:primary SFSymbolsPreviewWireframe" d="M39.327 5.9359L39.327 6.2159C39.327 16.1019 39.519 18.4499 41.212 21.7729C42.87 25.0269 45.516 27.6719 48.77 29.3299C52.092 31.0229 54.441 31.2149 64.327 31.2149L118.731 31.2149C128.617 31.2149 130.966 31.0229 134.288 29.3309C137.543 27.6719 140.188 25.0269 141.846 21.7729C143.539 18.4499 143.731 16.1019 143.731 6.2159L143.731 5.9359L134.831 5.9359L134.831 6.2159C134.831 14.3119 134.673 16.2469 133.916 17.7319C133.111 19.3119 131.827 20.5959 130.248 21.4009C128.763 22.1569 126.828 22.3149 118.731 22.3149L64.327 22.3149C56.23 22.3149 54.295 22.1569 52.81 21.4009C51.231 20.5959 49.947 19.3119 49.142 17.7319C48.385 16.2469 48.227 14.3119 48.227 6.2159L48.227 5.9359L39.327 5.9359ZM48.227-24.4481L48.227-76.6751C48.227-84.7721 48.385-86.7071 49.142-88.1921C49.947-89.7711 51.231-91.0551 52.81-91.8601C54.295-92.6171 56.23-92.7751 64.327-92.7751L87.195-92.7751C91.129-92.7751 92.059-92.7321 92.997-92.5031C93.986-92.2621 94.93-91.8641 95.793-91.3251C96.612-90.8131 97.292-90.1771 100.039-87.3611L129.732-56.9241C132.386-54.2021 132.985-53.5311 133.467-52.7281C133.975-51.8831 134.349-50.9651 134.576-50.0051C134.791-49.0951 134.831-48.1961 134.831-44.3941L134.831-24.4481L143.731-24.4481L143.731-44.3941C143.731-49.0041 143.678-50.1851 143.237-52.0511C142.799-53.9051 142.077-55.6801 141.096-57.3121C140.108-58.9561 139.321-59.8391 136.102-63.1381L106.41-93.5761C103.08-96.9901 102.187-97.8241 100.509-98.8731C98.841-99.9151 97.018-100.683 95.107-101.149C93.184-101.618 91.964-101.675 87.195-101.675L64.327-101.675C54.441-101.675 52.092-101.483 48.77-99.7901C45.516-98.1321 42.87-95.4871 41.212-92.2331C39.519-88.9101 39.327-86.5611 39.327-76.6751L39.327-24.4481L48.227-24.4481ZM87.179-97.0601L87.179-59.0241C87.179-53.5881 87.285-52.2991 88.344-50.2191C89.369-48.2071 91.004-46.5721 93.016-45.5481C95.096-44.4881 96.385-44.3821 101.82-44.3821L139.857-44.3821L139.857-52.5881L101.82-52.5881C98.034-52.5881 97.127-52.6621 96.741-52.8591C96.274-53.0971 95.894-53.4771 95.656-53.9441C95.459-54.3301 95.385-55.2371 95.385-59.0241L95.385-97.0601L87.179-97.0601ZM24.841-4.8771L158.217-4.8771C160.657-4.8771 162.636-6.8551 162.636-9.2961C162.636-11.7361 160.657-13.7141 158.217-13.7141L24.841-13.7141C22.401-13.7141 20.423-11.7361 20.423-9.2961C20.423-6.8551 22.401-4.8771 24.841-4.8771Z"/>
  </g>
  <g id="Thin-L" transform="matrix(1 0 0 1 766.237 1556)">
   <path class="monochrome-0 multicolor-0:tintColor hierarchical-0:primary SFSymbolsPreviewWireframe" d="M39.338 5.9359L39.338 6.2159C39.338 15.8289 39.524 18.1149 41.075 21.1579C42.603 24.1569 45.041 26.5949 48.04 28.1239C51.084 29.6739 53.369 29.8609 62.983 29.8609L117.387 29.8609C127.001 29.8609 129.287 29.6739 132.33 28.1239C135.329 26.5949 137.767 24.1569 139.295 21.1579C140.846 18.1149 141.033 15.8289 141.033 6.2159L141.033 5.9359L134.841 5.9359L134.841 6.2159C134.841 14.5839 134.678 16.5819 133.779 18.3469C132.844 20.1809 131.353 21.6729 129.519 22.6069C127.754 23.5059 125.756 23.6699 117.387 23.6699L62.983 23.6699C54.614 23.6699 52.616 23.5059 50.851 22.6069C49.017 21.6729 47.526 20.1809 46.591 18.3469C45.692 16.5819 45.529 14.5849 45.529 6.2159L45.529 5.9359L39.338 5.9359ZM45.529-24.4481L45.529-76.6751C45.529-85.0441 45.692-87.0421 46.591-88.8071C47.526-90.6411 49.017-92.1321 50.851-93.0671C52.616-93.9661 54.614-94.1291 62.983-94.1291L85.851-94.1291C89.913-94.1291 90.886-94.0841 91.974-93.8191C93.103-93.5431 94.181-93.0891 95.166-92.4731C96.116-91.8801 96.829-91.2141 99.665-88.3071L129.357-57.8691C132.098-55.0601 132.725-54.3561 133.284-53.4261C133.864-52.4611 134.291-51.4121 134.55-50.3161C134.799-49.2611 134.841-48.3191 134.841-44.3941L134.841-24.4481L141.033-24.4481L141.033-44.3941C141.033-48.8811 140.981-50.0191 140.575-51.7391C140.169-53.4571 139.5-55.1021 138.591-56.6151C137.68-58.1301 136.921-58.9821 133.789-62.1931L104.097-92.6301C100.855-95.9531 99.995-96.7571 98.447-97.7241C96.902-98.6891 95.212-99.4021 93.442-99.8341C91.669-100.266 90.493-100.321 85.851-100.321L62.983-100.321C53.369-100.321 51.084-100.134 48.041-98.5841C45.041-97.0551 42.603-94.6171 41.075-91.6181C39.524-88.5751 39.338-86.2891 39.338-76.6751L39.338-24.4481L45.529-24.4481ZM87.084-97.0601L87.084-59.0241C87.084-53.8391 87.185-52.6081 88.113-50.7861C89.018-49.0091 90.462-47.5651 92.239-46.6601C94.061-45.7321 95.292-45.6311 100.476-45.6311L138.513-45.6311L138.513-51.3391L100.476-51.3391C96.439-51.3391 95.474-51.4181 94.83-51.7461C94.128-52.1041 93.557-52.6751 93.199-53.3771C92.871-54.0211 92.792-54.9861 92.792-59.0241L92.792-97.0601L87.084-97.0601ZM23.497-6.2221L156.873-6.2221C158.571-6.2221 159.947-7.5981 159.947-9.2961C159.947-10.9931 158.571-12.3691 156.873-12.3691L23.497-12.3691C21.8-12.3691 20.423-10.9931 20.423-9.2961C20.423-7.5981 21.8-6.2221 23.497-6.2221Z"/>
  </g>
  <g id="Ultralight-L" transform="matrix(1 0 0 1 470.871 1556)">
   <path class="monochrome-0 multicolor-0:tintColor hierarchical-0:primary SFSymbolsPreviewWireframe" d="M39.347 5.9359L39.347 6.2159C39.347 15.5569 39.528 17.7799 40.936 20.5429C42.335 23.2869 44.566 25.5189 47.31 26.9169C50.074 28.3249 52.297 28.5069 61.638 28.5069L116.042 28.5069C125.384 28.5069 127.606 28.3249 130.37 26.9169C133.114 25.5189 135.345 23.2869 136.744 20.5429C138.152 17.7799 138.333 15.5569 138.333 6.2159L138.333 5.9359L134.851 5.9359L134.851 6.2159C134.851 14.8569 134.682 16.9179 133.641 18.9619C132.576 21.0509 130.878 22.7489 128.789 23.8139C126.744 24.8559 124.684 25.0239 116.042 25.0239L61.638 25.0239C52.997 25.0239 50.936 24.8559 48.891 23.8139C46.802 22.7489 45.104 21.0509 44.039 18.9619C42.998 16.9179 42.829 14.8569 42.829 6.2159L42.829 5.9359L39.347 5.9359ZM42.829-24.4481L42.829-76.6751C42.829-85.3171 42.998-87.3771 44.039-89.4221C45.104-91.5111 46.802-93.2091 48.892-94.2741C50.936-95.3151 52.997-95.4841 61.638-95.4841L84.506-95.4841C88.695-95.4841 89.712-95.4371 90.95-95.1341C92.22-94.8251 93.431-94.3141 94.539-93.6221C95.62-92.9471 96.365-92.2511 99.289-89.2531L128.982-58.8151C131.808-55.9181 132.464-55.1821 133.1-54.1231C133.752-53.0391 134.232-51.8591 134.523-50.6281C134.806-49.4261 134.851-48.4421 134.851-44.3941L134.851-24.4481L138.333-24.4481L138.333-44.3941C138.333-48.7581 138.284-49.8531 137.912-51.4281C137.539-53.0101 136.922-54.5241 136.085-55.9171C135.251-57.3051 134.521-58.1241 131.474-61.2471L101.782-91.6841C98.629-94.9161 97.801-95.6901 96.384-96.5751C94.962-97.4641 93.406-98.1201 91.776-98.5181C90.153-98.9141 89.021-98.9661 84.506-98.9661L61.638-98.9661C52.297-98.9661 50.074-98.7851 47.31-97.3771C44.566-95.9781 42.335-93.7471 40.936-91.0031C39.528-88.2391 39.347-86.0171 39.347-76.6751L39.347-24.4481L42.829-24.4481ZM86.988-97.0601L86.988-59.0241C86.988-54.0901 87.084-52.9171 87.881-51.3531C88.666-49.8111 89.919-48.5581 91.46-47.7731C93.025-46.9761 94.198-46.8801 99.131-46.8801L137.168-46.8801L137.168-50.0911L99.131-50.0911C94.843-50.0911 93.82-50.1741 92.918-50.6341C91.981-51.1111 91.219-51.8731 90.741-52.8101C90.282-53.7121 90.199-54.7351 90.199-59.0241L90.199-97.0601L86.988-97.0601ZM22.152-7.5671L155.528-7.5671C156.483-7.5671 157.257-8.3411 157.257-9.2961C157.257-10.2511 156.483-11.0251 155.528-11.0251L22.152-11.0251C21.197-11.0251 20.423-10.2511 20.423-9.2961C20.423-8.3411 21.197-7.5671 22.152-7.5671Z"/>
  </g>
  <g id="Black-M" transform="matrix(1 0 0 1 2852.79 1126)">
   <path class="monochrome-0 multicolor-0:tintColor hierarchical-0:primary SFSymbolsPreviewWireframe" d="M35.042-3.31889L35.042-3.10189C35.042 5.58711 35.21 7.64411 37.059 11.2731C38.833 14.7551 41.664 17.5861 45.146 19.3601C48.775 21.2091 50.832 21.3771 59.521 21.3771L101.695 21.3771C110.384 21.3771 112.441 21.2091 116.07 19.3601C119.552 17.5861 122.383 14.7551 124.157 11.2731C126.006 7.64511 126.174 5.58711 126.174-3.10189L126.174-3.31889L109.076-3.31889L109.076-3.10189C109.076 0.457105 109.057 1.66011 108.969 2.74111C108.931 3.19811 108.887 3.50211 108.846 3.67811C108.844 3.68711 108.869 3.61511 108.923 3.51111C108.787 3.77611 108.572 3.99111 108.307 4.12611C108.412 4.07211 108.484 4.04711 108.475 4.04911C108.299 4.09111 107.995 4.13511 107.538 4.17211C106.457 4.26011 105.254 4.27911 101.695 4.27911L59.521 4.27911C55.962 4.27911 54.759 4.26011 53.678 4.17211C53.221 4.13511 52.917 4.09111 52.741 4.04911C52.732 4.04711 52.804 4.07211 52.908 4.12611C52.644 3.99111 52.428 3.77611 52.293 3.51011C52.347 3.61611 52.372 3.68711 52.37 3.67811C52.329 3.50211 52.284 3.19811 52.247 2.74111C52.159 1.66011 52.14 0.457105 52.14-3.10189L52.14-3.31889L35.042-3.31889ZM52.14-26.8719L52.14-67.3579C52.14-70.9169 52.159-72.1199 52.247-73.2009C52.284-73.6579 52.329-73.9619 52.37-74.1389C52.372-74.1469 52.347-74.0759 52.293-73.9709C52.428-74.2359 52.644-74.4509 52.909-74.5859C52.804-74.5329 52.732-74.5069 52.741-74.5089C52.917-74.5509 53.221-74.5949 53.678-74.6319C54.759-74.7199 55.962-74.7389 59.521-74.7389L77.248-74.7389C79.82-74.7389 80.374-74.7139 80.537-74.6739C80.776-74.6159 81.003-74.5199 81.211-74.3899C81.354-74.3009 81.759-73.9219 83.555-72.0809L106.572-48.4859C108.307-46.7079 108.663-46.3079 108.747-46.1679C108.87-45.9639 108.96-45.7429 109.014-45.5109C109.052-45.3529 109.076-44.8189 109.076-42.3339L109.076-26.8719L126.174-26.8719L126.174-42.3339C126.174-46.3699 126.125-47.4479 125.655-49.4409C125.194-51.3909 124.434-53.2579 123.403-54.9749C122.347-56.7309 121.629-57.5369 118.811-60.4259L95.794-84.0199C92.878-87.0089 92.064-87.7699 90.271-88.8899C88.517-89.9859 86.6-90.7939 84.59-91.2839C82.536-91.7859 81.424-91.8369 77.248-91.8369L59.521-91.8369C50.832-91.8369 48.775-91.6689 45.146-89.8209C41.664-88.0459 38.833-85.2149 37.059-81.7339C35.21-78.1049 35.042-76.0469 35.042-67.3579L35.042-26.8719L52.14-26.8719ZM72.534-83.1609L72.534-53.6749C72.534-48.5159 72.634-47.2979 73.95-44.7149C75.195-42.2709 77.182-40.2839 79.626-39.0389C82.209-37.7229 83.427-37.6229 88.586-37.6229L118.072-37.6229L118.072-53.3879L88.586-53.3879C86.873-53.3879 86.294-53.3969 85.874-53.4309C85.802-53.4369 85.815-53.4349 85.911-53.4119C86.17-53.3509 86.47-53.2439 86.783-53.0849C87.305-52.8189 87.73-52.3939 87.996-51.8719C88.155-51.5589 88.262-51.2589 88.323-50.9999C88.346-50.9039 88.348-50.8909 88.342-50.9629C88.308-51.3829 88.299-51.9619 88.299-53.6749L88.299-83.1609L72.534-83.1609ZM28.912-6.63789L132.304-6.63789C136.992-6.63789 140.792-10.4379 140.792-15.1259C140.792-19.8139 136.992-23.6139 132.304-23.6139L28.912-23.6139C24.224-23.6139 20.423-19.8139 20.423-15.1259C20.423-10.4379 24.224-6.63789 28.912-6.63789Z"/>
  </g>
  <g id="Heavy-M" transform="matrix(1 0 0 1 2556.89 1126)">
   <path class="monochrome-0 multicolor-0:tintColor hierarchical-0:primary SFSymbolsPreviewWireframe" d="M35.047-3.31889L35.047-3.10189C35.047 5.42411 35.212 7.44411 36.975 10.9051C38.672 14.2351 41.379 16.9421 44.708 18.6391C48.17 20.4021 50.19 20.5671 58.716 20.5671L100.89 20.5671C109.416 20.5671 111.436 20.4021 114.897 18.6391C118.227 16.9421 120.934 14.2351 122.63 10.9051C124.394 7.44411 124.559 5.42411 124.559-3.10189L124.559-3.31889L109.081-3.31889L109.081-3.10189C109.081 0.483105 109.062 1.69511 108.971 2.80711C108.906 3.60511 108.843 3.87111 108.839 3.87811C108.626 4.29611 108.287 4.63511 107.87 4.84811C107.863 4.85111 107.597 4.91411 106.799 4.97911C105.686 5.07011 104.475 5.08911 100.89 5.08911L58.716 5.08911C55.131 5.08911 53.919 5.07011 52.807 4.97911C52.009 4.91411 51.743 4.85111 51.736 4.84711C51.318 4.63511 50.979 4.29611 50.766 3.87811C50.763 3.87111 50.7 3.60511 50.635 2.80711C50.544 1.69511 50.525 0.483105 50.525-3.10189L50.525-3.31889L35.047-3.31889ZM50.525-26.8719L50.525-67.3579C50.525-70.9429 50.544-72.1549 50.635-73.2669C50.7-74.0649 50.763-74.3309 50.767-74.3389C50.979-74.7559 51.318-75.0949 51.736-75.3079C51.743-75.3109 52.009-75.3739 52.807-75.4389C53.919-75.5299 55.131-75.5489 58.716-75.5489L76.443-75.5489C78.16-75.5489 78.74-75.5439 79.279-75.5189C79.68-75.4999 79.847-75.4789 79.924-75.4609C80.246-75.3819 80.554-75.2519 80.835-75.0769C80.902-75.0349 81.034-74.9299 81.327-74.6559C81.722-74.2869 82.131-73.8749 83.329-72.6469L106.347-49.0519C107.505-47.8649 107.893-47.4599 108.24-47.0699C108.498-46.7809 108.597-46.6509 108.637-46.5849C108.802-46.3099 108.924-46.0099 108.998-45.6979C109.015-45.6229 109.035-45.4619 109.052-45.0739C109.076-44.5529 109.081-43.9929 109.081-42.3339L109.081-26.8719L124.559-26.8719L124.559-42.3339C124.559-46.2969 124.512-47.3489 124.062-49.2549C123.62-51.1239 122.892-52.9119 121.904-54.5579C120.894-56.2369 120.193-57.0239 117.426-59.8599L94.409-83.4549C91.547-86.3889 90.752-87.1319 89.037-88.2029C87.356-89.2529 85.519-90.0279 83.593-90.4979C81.629-90.9769 80.543-91.0269 76.443-91.0269L58.716-91.0269C50.19-91.0269 48.17-90.8619 44.709-89.0989C41.379-87.4019 38.672-84.6949 36.976-81.3659C35.212-77.9039 35.047-75.8839 35.047-67.3579L35.047-26.8719L50.525-26.8719ZM72.476-83.1609L72.476-53.6749C72.476-48.6659 72.573-47.4829 73.81-45.0539C74.984-42.7509 76.857-40.8779 79.16-39.7039C81.589-38.4669 82.772-38.3699 87.781-38.3699L117.267-38.3699L117.267-52.6409L87.781-52.6409C86.044-52.6409 85.457-52.6499 85.008-52.6869C84.902-52.6949 84.878-52.6989 84.934-52.6859C85.137-52.6379 85.381-52.5509 85.639-52.4199C86.021-52.2249 86.331-51.9149 86.526-51.5329C86.657-51.2749 86.744-51.0319 86.792-50.8279C86.805-50.7719 86.801-50.7959 86.793-50.9019C86.756-51.3509 86.747-51.9379 86.747-53.6749L86.747-83.1609L72.476-83.1609ZM28.107-7.44189L131.499-7.44189C135.743-7.44189 139.183-10.8819 139.183-15.1259C139.183-19.3699 135.743-22.8099 131.499-22.8099L28.107-22.8099C23.863-22.8099 20.423-19.3699 20.423-15.1259C20.423-10.8819 23.863-7.44189 28.107-7.44189Z"/>
  </g>
  <g id="Bold-M" transform="matrix(1 0 0 1 2260.98 1126)">
   <path class="monochrome-0 multicolor-0:tintColor hierarchical-0:primary SFSymbolsPreviewWireframe" d="M35.053-3.31889L35.053-3.10189C35.053 5.26111 35.215 7.24411 36.893 10.5381C38.512 13.7151 41.095 16.2981 44.272 17.9171C47.567 19.5951 49.549 19.7571 57.912 19.7571L100.086 19.7571C108.449 19.7571 110.431 19.5951 113.725 17.9171C116.903 16.2981 119.486 13.7151 121.105 10.5381C122.783 7.24411 122.945 5.26111 122.945-3.10189L122.945-3.31889L109.087-3.31889L109.087-3.10189C109.087 0.509105 109.068 1.72911 108.974 2.87311C108.901 3.76711 108.815 4.13111 108.757 4.24611C108.466 4.81611 108.003 5.27911 107.434 5.56911C107.319 5.62811 106.955 5.71311 106.061 5.78611C104.917 5.88011 103.697 5.89911 100.086 5.89911L57.912 5.89911C54.301 5.89911 53.081 5.88011 51.937 5.78611C51.043 5.71311 50.679 5.62811 50.564 5.56911C49.994 5.27911 49.531 4.81611 49.241 4.24611C49.183 4.13111 49.097 3.76711 49.024 2.87311C48.93 1.72911 48.911 0.509105 48.911-3.10189L48.911-3.31889L35.053-3.31889ZM48.911-26.8719L48.911-67.3579C48.911-70.9689 48.93-72.1889 49.024-73.3329C49.097-74.2269 49.183-74.5919 49.241-74.7059C49.531-75.2759 49.994-75.7389 50.564-76.0289C50.679-76.0879 51.043-76.1739 51.937-76.2469C53.081-76.3399 54.301-76.3589 57.912-76.3589L75.639-76.3589C78.363-76.3589 78.97-76.3309 79.312-76.2469C79.718-76.1479 80.106-75.9849 80.46-75.7639C80.759-75.5769 81.203-75.1619 83.105-73.2119L106.123-49.6169C107.96-47.7339 108.35-47.2959 108.527-47.0019C108.735-46.6549 108.889-46.2779 108.982-45.8839C109.06-45.5519 109.087-44.9659 109.087-42.3339L109.087-26.8719L122.945-26.8719L122.945-42.3339C122.945-46.2229 122.899-47.2499 122.469-49.0689C122.047-50.8559 121.351-52.5669 120.405-54.1399C119.442-55.7429 118.758-56.5109 116.043-59.2939L93.025-82.8889C90.216-85.7689 89.441-86.4939 87.803-87.5159C86.196-88.5209 84.439-89.2609 82.597-89.7109C80.722-90.1679 79.663-90.2179 75.639-90.2179L57.912-90.2179C49.549-90.2179 47.567-90.0559 44.273-88.3769C41.095-86.7579 38.512-84.1749 36.893-80.9979C35.215-77.7039 35.053-75.7209 35.053-67.3579L35.053-26.8719L48.911-26.8719ZM72.419-83.1609L72.419-53.6749C72.419-48.8159 72.513-47.6679 73.672-45.3929C74.774-43.2299 76.532-41.4719 78.695-40.3699C80.97-39.2109 82.118-39.1169 86.977-39.1169L116.463-39.1169L116.463-51.8939L86.977-51.8939C85.216-51.8939 84.621-51.9029 84.144-51.9419C84.002-51.9539 83.943-51.9629 83.959-51.9589C84.106-51.9239 84.294-51.8569 84.496-51.7539C84.737-51.6309 84.933-51.4349 85.056-51.1939C85.159-50.9919 85.226-50.8039 85.261-50.6569C85.265-50.6409 85.256-50.6999 85.244-50.8419C85.205-51.3189 85.196-51.9139 85.196-53.6749L85.196-83.1609L72.419-83.1609ZM27.303-8.24589L130.695-8.24589C134.495-8.24589 137.575-11.3259 137.575-15.1259C137.575-18.9259 134.495-22.0059 130.695-22.0059L27.303-22.0059C23.503-22.0059 20.423-18.9259 20.423-15.1259C20.423-11.3259 23.503-8.24589 27.303-8.24589Z"/>
  </g>
  <g id="Semibold-M" transform="matrix(1 0 0 1 1965.07 1126)">
   <path class="monochrome-0 multicolor-0:tintColor hierarchical-0:primary SFSymbolsPreviewWireframe" d="M35.059-3.31889L35.059-3.10189C35.059 5.09811 35.217 7.04311 36.811 10.1701C38.352 13.1951 40.811 15.6541 43.836 17.1951C46.963 18.7891 48.908 18.9471 57.108 18.9471L99.282 18.9471C107.482 18.9471 109.427 18.7891 112.554 17.1951C115.579 15.6541 118.038 13.1951 119.579 10.1701C121.172 7.04311 121.331 5.09911 121.331-3.10189L121.331-3.31889L109.093-3.31889L109.093-3.10189C109.093 2.63811 108.98 4.01411 108.674 4.61411C108.306 5.33611 107.72 5.92311 106.997 6.29111C106.397 6.59711 105.022 6.70911 99.282 6.70911L57.108 6.70911C51.368 6.70911 49.992 6.59711 49.392 6.29111C48.67 5.92311 48.083 5.33611 47.715 4.61411C47.41 4.01411 47.297 2.63811 47.297-3.10189L47.297-3.31889L35.059-3.31889ZM47.297-26.8719L47.297-67.3579C47.297-73.0979 47.41-74.4739 47.715-75.0739C48.083-75.7959 48.67-76.3829 49.392-76.7509C49.992-77.0569 51.368-77.1689 57.108-77.1689L74.835-77.1689C77.635-77.1689 78.268-77.1399 78.7-77.0339C79.19-76.9149 79.658-76.7179 80.085-76.4499C80.463-76.2149 80.926-75.7819 82.881-73.7779L105.898-50.1829C107.787-48.2469 108.195-47.7889 108.417-47.4189C108.668-47.0009 108.854-46.5459 108.966-46.0699C109.065-45.6509 109.093-45.0389 109.093-42.3339L109.093-26.8719L121.331-26.8719L121.331-42.3339C121.331-46.1499 121.286-47.1499 120.877-48.8829C120.474-50.5889 119.81-52.2209 118.907-53.7229C117.99-55.2499 117.323-55.9979 114.659-58.7289L91.642-82.3239C88.885-85.1489 88.129-85.8559 86.57-86.8299C85.036-87.7879 83.359-88.4949 81.601-88.9239C79.816-89.3599 78.783-89.4079 74.835-89.4079L57.108-89.4079C48.908-89.4079 46.963-89.2489 43.836-87.6559C40.811-86.1139 38.352-83.6549 36.811-80.6299C35.217-77.5029 35.059-75.5589 35.059-67.3579L35.059-26.8719L47.297-26.8719ZM72.362-83.1609L72.362-53.6749C72.362-48.9659 72.453-47.8519 73.533-45.7319C74.563-43.7099 76.208-42.0659 78.23-41.0349C80.35-39.9549 81.464-39.8639 86.173-39.8639L115.659-39.8639L115.659-51.1469L86.173-51.1469C84.388-51.1469 83.785-51.1569 83.279-51.1979C83.103-51.2129 83.008-51.2259 82.984-51.2319C83.074-51.2109 83.206-51.1639 83.353-51.0889C83.454-51.0379 83.536-50.9559 83.587-50.8549C83.662-50.7079 83.709-50.5769 83.73-50.4859C83.724-50.5099 83.711-50.6049 83.696-50.7809C83.655-51.2869 83.645-51.8899 83.645-53.6749L83.645-83.1609L72.362-83.1609ZM26.499-9.04989L129.891-9.04989C133.247-9.04989 135.967-11.7699 135.967-15.1259C135.967-18.4819 133.247-21.2019 129.891-21.2019L26.499-21.2019C23.143-21.2019 20.423-18.4819 20.423-15.1259C20.423-11.7699 23.143-9.04989 26.499-9.04989Z"/>
  </g>
  <g id="Medium-M" transform="matrix(1 0 0 1 1669.16 1126)">
   <path class="monochrome-0 multicolor-0:tintColor hierarchical-0:primary SFSymbolsPreviewWireframe" d="M35.065-3.31889L35.065-3.10189C35.065 4.93611 35.22 6.84311 36.728 9.80211C38.192 12.6751 40.527 15.0101 43.4 16.4741C46.36 17.9821 48.267 18.1381 56.304 18.1381L98.478 18.1381C106.515 18.1381 108.422 17.9821 111.382 16.4741C114.255 15.0101 116.59 12.6751 118.053 9.80211C119.561 6.84311 119.717 4.93611 119.717-3.10189L119.717-3.31889L109.099-3.31889L109.099-3.10189C109.099 2.80111 108.983 4.21411 108.592 4.98111C108.146 5.85611 107.436 6.56711 106.561 7.01211C105.794 7.40311 104.38 7.51911 98.478 7.51911L56.304 7.51911C50.401 7.51911 48.988 7.40311 48.22 7.01211C47.346 6.56711 46.635 5.85611 46.19 4.98111C45.799 4.21411 45.683 2.80111 45.683-3.10189L45.683-3.31889L35.065-3.31889ZM45.683-26.8719L45.683-67.3579C45.683-73.2609 45.799-74.6739 46.19-75.4419C46.635-76.3159 47.346-77.0269 48.221-77.4729C48.988-77.8639 50.401-77.9789 56.304-77.9789L74.031-77.9789C76.907-77.9789 77.566-77.9479 78.088-77.8209C78.662-77.6809 79.21-77.4499 79.71-77.1369C80.166-76.8529 80.649-76.4019 82.657-74.3429L105.674-50.7479C107.614-48.7599 108.039-48.2829 108.307-47.8369C108.602-47.3459 108.819-46.8129 108.95-46.2559C109.07-45.7499 109.099-45.1129 109.099-42.3339L109.099-26.8719L119.717-26.8719L119.717-42.3339C119.717-46.0759 119.673-47.0509 119.285-48.6969C118.901-50.3209 118.268-51.8759 117.409-53.3059C116.538-54.7559 115.888-55.4849 113.275-58.1629L90.258-81.7579C87.555-84.5289 86.818-85.2179 85.337-86.1429C83.876-87.0549 82.279-87.7289 80.605-88.1369C78.909-88.5509 77.903-88.5979 74.031-88.5979L56.304-88.5979C48.267-88.5979 46.36-88.4419 43.4-86.9339C40.527-85.4699 38.192-83.1349 36.728-80.2629C35.22-77.3029 35.065-75.3959 35.065-67.3579L35.065-26.8719L45.683-26.8719ZM72.304-83.1609L72.304-53.6749C72.304-49.1159 72.392-48.0369 73.394-46.0709C74.353-44.1889 75.883-42.6589 77.765-41.6999C79.731-40.6979 80.81-40.6099 85.369-40.6099L114.855-40.6099L114.855-50.4009L85.369-50.4009C83.56-50.4009 82.949-50.4099 82.414-50.4539C82.203-50.4709 82.072-50.4899 82.009-50.5049C82.043-50.4969 82.118-50.4699 82.21-50.4239C82.17-50.4439 82.138-50.4759 82.118-50.5159C82.164-50.4239 82.191-50.3489 82.199-50.3149C82.184-50.3779 82.165-50.5089 82.148-50.7199C82.104-51.2549 82.095-51.8659 82.095-53.6749L82.095-83.1609L72.304-83.1609ZM25.695-9.85389L129.087-9.85389C131.999-9.85389 134.359-12.2149 134.359-15.1259C134.359-18.0379 131.999-20.3979 129.087-20.3979L25.695-20.3979C22.783-20.3979 20.423-18.0379 20.423-15.1259C20.423-12.2149 22.783-9.85389 25.695-9.85389Z"/>
  </g>
  <g id="Regular-M" transform="matrix(1 0 0 1 1373.26 1126)">
   <path class="monochrome-0 multicolor-0:tintColor hierarchical-0:primary SFSymbolsPreviewWireframe" d="M35.07-3.31889L35.07-3.10189C35.07 4.77311 35.223 6.64211 36.646 9.43511C38.032 12.1551 40.243 14.3661 42.963 15.7521C45.756 17.1751 47.625 17.3281 55.5 17.3281L97.674 17.3281C105.548 17.3281 107.418 17.1751 110.21 15.7521C112.931 14.3661 115.142 12.1551 116.528 9.43511C117.951 6.64211 118.103 4.77311 118.103-3.10189L118.103-3.31889L109.104-3.31889L109.104-3.10189C109.104 2.96411 108.986 4.41511 108.51 5.34911C107.986 6.37611 107.152 7.21111 106.125 7.73411C105.19 8.21011 103.739 8.32911 97.674 8.32911L55.5 8.32911C49.435 8.32911 47.983 8.21011 47.049 7.73411C46.022 7.21111 45.187 6.37611 44.664 5.34911C44.188 4.41511 44.069 2.96411 44.069-3.10189L44.069-3.31889L35.07-3.31889ZM44.069-26.8719L44.069-67.3579C44.069-73.4239 44.188-74.8749 44.664-75.8089C45.187-76.8359 46.022-77.6709 47.049-78.1939C47.983-78.6699 49.435-78.7889 55.5-78.7889L73.227-78.7889C76.179-78.7889 76.865-78.7569 77.476-78.6079C78.134-78.4469 78.762-78.1829 79.336-77.8239C79.869-77.4909 80.372-77.0209 82.432-74.9089L105.45-51.3139C107.441-49.2729 107.883-48.7769 108.197-48.2539C108.535-47.6919 108.784-47.0809 108.935-46.4419C109.075-45.8489 109.104-45.1859 109.104-42.3339L109.104-26.8719L118.103-26.8719L118.103-42.3339C118.103-46.0029 118.061-46.9519 117.693-48.5109C117.328-50.0539 116.727-51.5299 115.911-52.8889C115.085-54.2619 114.453-54.9719 111.891-57.5979L88.874-81.1929C86.224-83.9089 85.507-84.5799 84.104-85.4559C82.717-86.3229 81.199-86.9619 79.609-87.3499C78.003-87.7419 77.023-87.7879 73.227-87.7879L55.5-87.7879C47.625-87.7879 45.756-87.6349 42.964-86.2119C40.243-84.8259 38.032-82.6149 36.646-79.8949C35.223-77.1019 35.07-75.2329 35.07-67.3579L35.07-26.8719L44.069-26.8719ZM72.247-83.1609L72.247-53.6749C72.247-49.2659 72.332-48.2219 73.256-46.4099C74.143-44.6689 75.559-43.2529 77.3-42.3659C79.112-41.4419 80.156-41.3569 84.565-41.3569L114.051-41.3569L114.051-49.6539L84.565-49.6539C81.824-49.6539 81.166-49.7079 81.067-49.7579C80.887-49.8499 80.74-49.9969 80.648-50.1769C80.598-50.2759 80.544-50.9339 80.544-53.6749L80.544-83.1609L72.247-83.1609ZM24.891-10.6579L128.283-10.6579C130.75-10.6579 132.751-12.6589 132.751-15.1259C132.751-17.5929 130.75-19.5939 128.283-19.5939L24.891-19.5939C22.423-19.5939 20.423-17.5929 20.423-15.1259C20.423-12.6589 22.423-10.6579 24.891-10.6579Z"/>
  </g>
  <g id="Light-M" transform="matrix(1 0 0 1 1077.59 1126)">
   <path class="monochrome-0 multicolor-0:tintColor hierarchical-0:primary SFSymbolsPreviewWireframe" d="M35.077-3.31889L35.077-3.10189C35.077 4.56211 35.226 6.38211 36.538 8.95811C37.824 11.4811 39.875 13.5311 42.397 14.8171C44.973 16.1291 46.793 16.2781 54.457 16.2781L96.631 16.2781C104.294 16.2781 106.115 16.1291 108.691 14.8171C111.213 13.5311 113.264 11.4801 114.549 8.95811C115.862 6.38211 116.011 4.56211 116.011-3.10189L116.011-3.31889L109.111-3.31889L109.111-3.10189C109.111 3.17511 108.989 4.67411 108.402 5.82611C107.778 7.05011 106.783 8.04611 105.558 8.67011C104.407 9.25611 102.907 9.37911 96.631 9.37911L54.457 9.37911C48.18 9.37911 46.681 9.25611 45.529 8.66911C44.305 8.04611 43.31 7.05011 42.686 5.82611C42.099 4.67511 41.977 3.17511 41.977-3.10189L41.977-3.31889L35.077-3.31889ZM41.977-26.8719L41.977-67.3579C41.977-73.6349 42.099-75.1349 42.686-76.2859C43.31-77.5099 44.305-78.5059 45.529-79.1299C46.681-79.7159 48.18-79.8389 54.457-79.8389L72.184-79.8389C75.234-79.8389 75.955-79.8049 76.682-79.6279C77.449-79.4409 78.18-79.1329 78.849-78.7149C79.484-78.3179 80.011-77.8249 82.141-75.6419L105.158-52.0469C107.216-49.9369 107.68-49.4169 108.054-48.7949C108.448-48.1399 108.738-47.4269 108.913-46.6839C109.08-45.9779 109.111-45.2819 109.111-42.3339L109.111-26.8719L116.011-26.8719L116.011-42.3339C116.011-45.9079 115.969-46.8229 115.628-48.2689C115.288-49.7069 114.728-51.0829 113.968-52.3479C113.202-53.6219 112.592-54.3069 110.097-56.8649L87.08-80.4599C84.498-83.1059 83.806-83.7529 82.505-84.5659C81.212-85.3729 79.799-85.9689 78.318-86.3299C76.827-86.6939 75.881-86.7379 72.184-86.7379L54.457-86.7379C46.793-86.7379 44.973-86.5889 42.397-85.2769C39.875-83.9909 37.824-81.9409 36.538-79.4179C35.226-76.8419 35.077-75.0219 35.077-67.3579L35.077-26.8719L41.977-26.8719ZM72.172-83.1609L72.172-53.6749C72.172-49.4609 72.254-48.4619 73.075-46.8489C73.87-45.2899 75.137-44.0229 76.696-43.2279C78.309-42.4069 79.308-42.3249 83.522-42.3249L113.008-42.3249L113.008-48.6859L83.522-48.6859C80.587-48.6859 79.883-48.7429 79.584-48.8959C79.222-49.0799 78.927-49.3749 78.743-49.7369C78.59-50.0359 78.533-50.7399 78.533-53.6749L78.533-83.1609L72.172-83.1609ZM23.848-11.7009L127.24-11.7009C129.132-11.7009 130.665-13.2339 130.665-15.1259C130.665-17.0179 129.132-18.5509 127.24-18.5509L23.848-18.5509C21.956-18.5509 20.423-17.0179 20.423-15.1259C20.423-13.2339 21.956-11.7009 23.848-11.7009Z"/>
  </g>
  <g id="Thin-M" transform="matrix(1 0 0 1 781.92 1126)">
   <path class="monochrome-0 multicolor-0:tintColor hierarchical-0:primary SFSymbolsPreviewWireframe" d="M35.085-3.31889L35.085-3.10189C35.085 4.35111 35.23 6.12211 36.432 8.48111C37.617 10.8061 39.507 12.6971 41.832 13.8811C44.191 15.0831 45.962 15.2281 53.415 15.2281L95.589 15.2281C103.041 15.2281 104.813 15.0831 107.172 13.8811C109.497 12.6961 111.387 10.8061 112.572 8.48111C113.774 6.12211 113.919 4.35111 113.919-3.10189L113.919-3.31889L109.119-3.31889L109.119-3.10189C109.119 3.38611 108.993 4.93411 108.296 6.30211C107.571 7.72411 106.415 8.88011 104.993 9.60511C103.625 10.3021 102.076 10.4281 95.589 10.4281L53.415 10.4281C46.927 10.4281 45.379 10.3021 44.011 9.60511C42.589 8.88011 41.433 7.72411 40.708 6.30211C40.011 4.93411 39.885 3.38611 39.885-3.10189L39.885-3.31889L35.085-3.31889ZM39.885-26.8719L39.885-67.3579C39.885-73.8459 40.011-75.3949 40.708-76.7629C41.433-78.1849 42.589-79.3409 44.011-80.0649C45.379-80.7619 46.927-80.8889 53.415-80.8889L71.142-80.8889C74.291-80.8889 75.045-80.8539 75.889-80.6479C76.764-80.4339 77.599-80.0819 78.363-79.6049C79.1-79.1449 79.652-78.6289 81.85-76.3749L104.868-52.7799C106.992-50.6019 107.479-50.0569 107.912-49.3349C108.362-48.5879 108.692-47.7739 108.893-46.9249C109.086-46.1069 109.119-45.3769 109.119-42.3339L109.119-26.8719L113.919-26.8719L113.919-42.3339C113.919-45.8119 113.879-46.6949 113.564-48.0279C113.249-49.3599 112.731-50.6349 112.026-51.8079C111.32-52.9819 110.732-53.6419 108.303-56.1319L85.286-79.7259C82.773-82.3019 82.106-82.9259 80.906-83.6749C79.709-84.4239 78.399-84.9759 77.027-85.3099C75.652-85.6459 74.741-85.6879 71.142-85.6879L53.415-85.6879C45.962-85.6879 44.191-85.5429 41.832-84.3409C39.507-83.1569 37.617-81.2669 36.432-78.9419C35.23-76.5829 35.085-74.8109 35.085-67.3579L35.085-26.8719L39.885-26.8719ZM72.098-83.1609L72.098-53.6749C72.098-49.6559 72.176-48.7009 72.896-47.2889C73.597-45.9119 74.717-44.7919 76.094-44.0909C77.506-43.3709 78.461-43.2929 82.48-43.2929L111.966-43.2929L111.966-47.7179L82.48-47.7179C79.35-47.7179 78.602-47.7789 78.103-48.0329C77.558-48.3109 77.116-48.7529 76.838-49.2979C76.584-49.7969 76.523-50.5449 76.523-53.6749L76.523-83.1609L72.098-83.1609ZM22.806-12.7429L126.198-12.7429C127.514-12.7429 128.581-13.8099 128.581-15.1259C128.581-16.4419 127.514-17.5089 126.198-17.5089L22.806-17.5089C21.49-17.5089 20.423-16.4419 20.423-15.1259C20.423-13.8099 21.49-12.7429 22.806-12.7429Z"/>
  </g>
  <g id="Ultralight-M" transform="matrix(1 0 0 1 486.252 1126)">
   <path class="monochrome-0 multicolor-0:tintColor hierarchical-0:primary SFSymbolsPreviewWireframe" d="M35.093-3.31889L35.093-3.10189C35.093 4.14011 35.234 5.86311 36.325 8.00511C37.409 10.1321 39.139 11.8621 41.266 12.9461C43.409 14.0371 45.132 14.1781 52.373 14.1781L94.547 14.1781C101.788 14.1781 103.511 14.0371 105.653 12.9461C107.781 11.8621 109.51 10.1321 110.594 8.00511C111.686 5.86311 111.827 4.14011 111.827-3.10189L111.827-3.31889L109.127-3.31889L109.127-3.10189C109.127 3.59711 108.997 5.19411 108.189 6.77911C107.364 8.39911 106.047 9.71511 104.428 10.5401C102.843 11.3481 101.246 11.4781 94.547 11.4781L52.373 11.4781C45.674 11.4781 44.077 11.3481 42.492 10.5401C40.873 9.71511 39.556 8.39911 38.731 6.77911C37.923 5.19411 37.793 3.59711 37.793-3.10189L37.793-3.31889L35.093-3.31889ZM37.793-26.8719L37.793-67.3579C37.793-74.0569 37.923-75.6539 38.731-77.2389C39.556-78.8589 40.873-80.1749 42.492-81.0009C44.077-81.8079 45.674-81.9389 52.373-81.9389L70.1-81.9389C73.347-81.9389 74.136-81.9019 75.096-81.6679C76.08-81.4279 77.019-81.0319 77.878-80.4949C78.715-79.9719 79.293-79.4319 81.56-77.1079L104.577-53.5129C106.768-51.2669 107.277-50.6969 107.77-49.8759C108.275-49.0349 108.647-48.1209 108.873-47.1659C109.093-46.2349 109.127-45.4719 109.127-42.3339L109.127-26.8719L111.827-26.8719L111.827-42.3339C111.827-45.7169 111.789-46.5659 111.5-47.7869C111.211-49.0129 110.733-50.1869 110.084-51.2669C109.438-52.3419 108.872-52.9769 106.51-55.3979L83.493-78.9929C81.049-81.4989 80.407-82.0979 79.308-82.7849C78.205-83.4739 76.999-83.9819 75.736-84.2899C74.478-84.5979 73.6-84.6379 70.1-84.6379L52.373-84.6379C45.132-84.6379 43.409-84.4969 41.266-83.4059C39.139-82.3219 37.409-80.5919 36.325-78.4649C35.234-76.3229 35.093-74.5999 35.093-67.3579L35.093-26.8719L37.793-26.8719ZM72.024-83.1609L72.024-53.6749C72.024-49.8499 72.098-48.9409 72.716-47.7279C73.325-46.5329 74.296-45.5619 75.491-44.9529C76.704-44.3349 77.613-44.2609 81.438-44.2609L110.924-44.2609L110.924-46.7499L81.438-46.7499C78.114-46.7499 77.32-46.8149 76.621-47.1709C75.895-47.5409 75.304-48.1319 74.934-48.8579C74.578-49.5569 74.513-50.3509 74.513-53.6749L74.513-83.1609L72.024-83.1609ZM21.764-13.7859L125.156-13.7859C125.896-13.7859 126.496-14.3859 126.496-15.1259C126.496-15.8659 125.896-16.4659 125.156-16.4659L21.764-16.4659C21.024-16.4659 20.423-15.8659 20.423-15.1259C20.423-14.3859 21.024-13.7859 21.764-13.7859Z"/>
  </g>
  <g id="Black-S" transform="matrix(1 0 0 1 2865.85 696)">
   <path class="monochrome-0 multicolor-0:tintColor hierarchical-0:primary SFSymbolsPreviewWireframe" d="M31.869-10.2435L31.869-10.0735C31.869-3.27053 32.001-1.65953 33.449 1.18147C34.838 3.90847 37.054 6.12547 39.781 7.51447C42.622 8.96147 44.233 9.09347 51.036 9.09347L84.059 9.09347C90.862 9.09347 92.473 8.96147 95.314 7.51447C98.041 6.12447 100.257 3.90847 101.646 1.18147C103.094-1.65853 103.226-3.27053 103.226-10.0735L103.226-10.2435L89.838-10.2435L89.838-10.0735C89.838-7.28653 89.823-6.34553 89.754-5.49853C89.725-5.14053 89.69-4.90253 89.658-4.76453C89.656-4.75853 89.676-4.81453 89.718-4.89653C89.612-4.68853 89.444-4.51953 89.236-4.41453C89.318-4.45653 89.374-4.47553 89.368-4.47453C89.229-4.44153 88.991-4.40753 88.634-4.37853C87.787-4.30853 86.845-4.29453 84.059-4.29453L51.036-4.29453C48.25-4.29453 47.308-4.30853 46.461-4.37853C46.104-4.40753 45.866-4.44153 45.728-4.47453C45.721-4.47553 45.777-4.45653 45.859-4.41453C45.651-4.51953 45.483-4.68853 45.377-4.89653C45.419-4.81353 45.439-4.75753 45.437-4.76453C45.405-4.90253 45.37-5.14053 45.341-5.49853C45.272-6.34553 45.257-7.28653 45.257-10.0735L45.257-10.2435L31.869-10.2435ZM45.257-28.6855L45.257-60.3865C45.257-63.1725 45.272-64.1145 45.341-64.9615C45.37-65.3195 45.405-65.5575 45.437-65.6955C45.439-65.7015 45.419-65.6465 45.377-65.5645C45.483-65.7715 45.651-65.9405 45.859-66.0455C45.777-66.0035 45.721-65.9835 45.728-65.9855C45.866-66.0175 46.104-66.0525 46.461-66.0815C47.308-66.1505 48.25-66.1655 51.036-66.1655L64.917-66.1655C66.93-66.1655 67.364-66.1455 67.492-66.1145C67.679-66.0685 67.857-65.9935 68.02-65.8925C68.131-65.8225 68.449-65.5255 69.855-64.0845L87.877-45.6095C89.236-44.2165 89.515-43.9045 89.581-43.7945C89.676-43.6345 89.747-43.4615 89.79-43.2805C89.819-43.1565 89.838-42.7375 89.838-40.7925L89.838-28.6855L103.226-28.6855L103.226-40.7925C103.226-43.9525 103.188-44.7965 102.819-46.3575C102.459-47.8845 101.864-49.3455 101.056-50.6905C100.23-52.0655 99.667-52.6965 97.461-54.9575L79.438-73.4325C77.155-75.7725 76.518-76.3685 75.114-77.2455C73.741-78.1035 72.239-78.7365 70.666-79.1205C69.057-79.5135 68.186-79.5535 64.917-79.5535L51.036-79.5535C44.233-79.5535 42.622-79.4215 39.781-77.9745C37.054-76.5845 34.838-74.3685 33.449-71.6425C32.001-68.8005 31.869-67.1895 31.869-60.3865L31.869-28.6855L45.257-28.6855ZM61.226-72.7595L61.226-49.6725C61.226-45.6325 61.304-44.6795 62.334-42.6565C63.309-40.7435 64.865-39.1875 66.778-38.2125C68.801-37.1815 69.755-37.1035 73.794-37.1035L96.882-37.1035L96.882-49.4475L73.794-49.4475C72.453-49.4475 72-49.4545 71.671-49.4815C71.615-49.4855 71.625-49.4845 71.7-49.4665C71.903-49.4185 72.138-49.3355 72.382-49.2105C72.791-49.0015 73.124-48.6695 73.332-48.2605C73.457-48.0155 73.541-47.7805 73.589-47.5775C73.606-47.5025 73.608-47.4925 73.603-47.5485C73.576-47.8775 73.569-48.3315 73.569-49.6725L73.569-72.7595L61.226-72.7595ZM27.069-12.8425L108.026-12.8425C111.696-12.8425 114.672-15.8175 114.672-19.4885C114.672-23.1595 111.696-26.1345 108.026-26.1345L27.069-26.1345C23.399-26.1345 20.423-23.1595 20.423-19.4885C20.423-15.8175 23.399-12.8425 27.069-12.8425Z"/>
  </g>
  <g id="Heavy-S" transform="matrix(1 0 0 1 2569.77 696)">
   <path class="monochrome-0 multicolor-0:tintColor hierarchical-0:primary SFSymbolsPreviewWireframe" d="M31.874-10.2435L31.874-10.0735C31.874-3.39753 32.003-1.81653 33.384 0.894466C34.712 3.50147 36.832 5.62047 39.439 6.94947C42.149 8.33047 43.731 8.45947 50.406 8.45947L83.429 8.45947C90.104 8.45947 91.686 8.33047 94.396 6.94947C97.004 5.62047 99.123 3.50147 100.451 0.894466C101.832-1.81553 101.962-3.39753 101.962-10.0735L101.962-10.2435L89.842-10.2435L89.842-10.0735C89.842-7.26653 89.827-6.31753 89.756-5.44653C89.705-4.82253 89.656-4.61453 89.653-4.60853C89.486-4.28153 89.221-4.01553 88.894-3.84953C88.888-3.84653 88.68-3.79753 88.055-3.74653C87.184-3.67453 86.236-3.66053 83.429-3.66053L50.406-3.66053C47.599-3.66053 46.651-3.67453 45.78-3.74653C45.155-3.79753 44.947-3.84653 44.941-3.84953C44.614-4.01553 44.349-4.28153 44.182-4.60853C44.179-4.61353 44.13-4.82253 44.079-5.44653C44.008-6.31753 43.993-7.26653 43.993-10.0735L43.993-10.2435L31.874-10.2435ZM43.993-28.6855L43.993-60.3865C43.993-63.1935 44.008-64.1415 44.079-65.0135C44.13-65.6375 44.179-65.8465 44.182-65.8525C44.349-66.1785 44.614-66.4445 44.941-66.6105C44.947-66.6135 45.155-66.6625 45.78-66.7135C46.651-66.7845 47.599-66.7995 50.406-66.7995L64.287-66.7995C65.631-66.7995 66.085-66.7955 66.507-66.7765C66.822-66.7615 66.952-66.7455 67.012-66.7305C67.265-66.6685 67.505-66.5675 67.726-66.4295C67.778-66.3965 67.881-66.3145 68.111-66.1005C68.42-65.8115 68.74-65.4895 69.679-64.5275L87.701-46.0525C88.608-45.1235 88.912-44.8055 89.184-44.5005C89.386-44.2745 89.463-44.1725 89.494-44.1205C89.624-43.9055 89.719-43.6705 89.777-43.4265C89.791-43.3675 89.806-43.2415 89.82-42.9375C89.838-42.5295 89.842-42.0915 89.842-40.7925L89.842-28.6855L101.962-28.6855L101.962-40.7925C101.962-43.8955 101.924-44.7185 101.572-46.2115C101.226-47.6745 100.656-49.0755 99.882-50.3635C99.092-51.6785 98.543-52.2945 96.377-54.5155L78.354-72.9895C76.113-75.2875 75.491-75.8685 74.148-76.7085C72.832-77.5305 71.393-78.1365 69.885-78.5045C68.347-78.8795 67.497-78.9195 64.287-78.9195L50.406-78.9195C43.731-78.9195 42.149-78.7905 39.439-77.4095C36.832-76.0805 34.712-73.9615 33.384-71.3545C32.003-68.6435 31.874-67.0625 31.874-60.3865L31.874-28.6855L43.993-28.6855ZM61.181-72.7595L61.181-49.6725C61.181-45.7505 61.256-44.8235 62.225-42.9215C63.144-41.1185 64.611-39.6525 66.414-38.7335C68.316-37.7645 69.242-37.6885 73.164-37.6885L96.252-37.6885L96.252-48.8625L73.164-48.8625C71.804-48.8625 71.344-48.8695 70.993-48.8985C70.91-48.9055 70.892-48.9075 70.936-48.8975C71.094-48.8605 71.285-48.7925 71.487-48.6895C71.786-48.5365 72.029-48.2935 72.181-47.9955C72.284-47.7935 72.352-47.6025 72.39-47.4435C72.4-47.3995 72.397-47.4185 72.391-47.5015C72.362-47.8525 72.355-48.3125 72.355-49.6725L72.355-72.7595L61.181-72.7595ZM26.439-13.4715L107.396-13.4715C110.719-13.4715 113.412-16.1655 113.412-19.4885C113.412-22.8115 110.719-25.5055 107.396-25.5055L26.439-25.5055C23.116-25.5055 20.423-22.8115 20.423-19.4885C20.423-16.1655 23.116-13.4715 26.439-13.4715Z"/>
  </g>
  <g id="Bold-S" transform="matrix(1 0 0 1 2273.69 696)">
   <path class="monochrome-0 multicolor-0:tintColor hierarchical-0:primary SFSymbolsPreviewWireframe" d="M31.879-10.2435L31.879-10.0735C31.879-3.52553 32.005-1.97353 33.32 0.606466C34.587 3.09447 36.61 5.11647 39.098 6.38447C41.677 7.69847 43.229 7.82547 49.777 7.82547L82.8 7.82547C89.348 7.82547 90.9 7.69847 93.479 6.38447C95.967 5.11647 97.99 3.09347 99.257 0.606466C100.572-1.97253 100.698-3.52553 100.698-10.0735L100.698-10.2435L89.847-10.2435L89.847-10.0735C89.847-7.24653 89.832-6.29053 89.759-5.39553C89.702-4.69553 89.635-4.41053 89.589-4.32053C89.362-3.87353 88.999-3.51153 88.553-3.28453C88.463-3.23853 88.178-3.17153 87.478-3.11453C86.582-3.04053 85.627-3.02553 82.8-3.02553L49.777-3.02553C46.95-3.02553 45.995-3.04053 45.099-3.11453C44.399-3.17153 44.114-3.23853 44.024-3.28453C43.578-3.51153 43.215-3.87453 42.988-4.32053C42.942-4.40953 42.875-4.69553 42.818-5.39553C42.745-6.29053 42.73-7.24653 42.73-10.0735L42.73-10.2435L31.879-10.2435ZM42.73-28.6855L42.73-60.3865C42.73-63.2135 42.745-64.1695 42.818-65.0645C42.875-65.7645 42.942-66.0505 42.988-66.1395C43.215-66.5855 43.578-66.9485 44.024-67.1755C44.114-67.2215 44.399-67.2885 45.099-67.3455C45.995-67.4195 46.95-67.4345 49.777-67.4345L63.658-67.4345C65.79-67.4345 66.266-67.4115 66.534-67.3465C66.852-67.2685 67.155-67.1415 67.433-66.9675C67.667-66.8215 68.015-66.4965 69.504-64.9695L87.526-46.4955C88.965-45.0205 89.271-44.6775 89.409-44.4475C89.572-44.1755 89.692-43.8805 89.765-43.5715C89.827-43.3115 89.847-42.8535 89.847-40.7925L89.847-28.6855L100.698-28.6855L100.698-40.7925C100.698-43.8375 100.662-44.6415 100.326-46.0655C99.995-47.4655 99.45-48.8045 98.71-50.0365C97.956-51.2915 97.42-51.8935 95.294-54.0725L77.271-72.5475C75.072-74.8025 74.464-75.3695 73.183-76.1705C71.924-76.9565 70.548-77.5365 69.106-77.8885C67.638-78.2465 66.808-78.2855 63.658-78.2855L49.777-78.2855C43.229-78.2855 41.677-78.1585 39.098-76.8445C36.61-75.5765 34.587-73.5535 33.32-71.0665C32.005-68.4865 31.879-66.9345 31.879-60.3865L31.879-28.6855L42.73-28.6855ZM61.136-72.7595L61.136-49.6725C61.136-45.8675 61.21-44.9685 62.117-43.1875C62.98-41.4935 64.357-40.1175 66.05-39.2545C67.832-38.3465 68.731-38.2735 72.535-38.2735L95.623-38.2735L95.623-48.2775L72.535-48.2775C71.157-48.2775 70.69-48.2855 70.317-48.3155C70.206-48.3245 70.16-48.3315 70.172-48.3285C70.287-48.3015 70.434-48.2495 70.592-48.1685C70.782-48.0725 70.935-47.9185 71.031-47.7295C71.112-47.5715 71.165-47.4245 71.192-47.3095C71.195-47.2965 71.188-47.3435 71.179-47.4535C71.148-47.8275 71.141-48.2935 71.141-49.6725L71.141-72.7595L61.136-72.7595ZM25.81-14.1015L106.767-14.1015C109.742-14.1015 112.154-16.5135 112.154-19.4885C112.154-22.4635 109.742-24.8755 106.767-24.8755L25.81-24.8755C22.835-24.8755 20.423-22.4635 20.423-19.4885C20.423-16.5135 22.835-14.1015 25.81-14.1015Z"/>
  </g>
  <g id="Semibold-S" transform="matrix(1 0 0 1 1977.61 696)">
   <path class="monochrome-0 multicolor-0:tintColor hierarchical-0:primary SFSymbolsPreviewWireframe" d="M31.883-10.2435L31.883-10.0735C31.883-3.65253 32.007-2.13053 33.255 0.318466C34.462 2.68647 36.387 4.61247 38.755 5.81947C41.204 7.06647 42.727 7.19147 49.147 7.19147L82.17 7.19147C88.59 7.19147 90.113 7.06647 92.561 5.81947C94.93 4.61247 96.856 2.68647 98.062 0.318466C99.31-2.12953 99.434-3.65253 99.434-10.0735L99.434-10.2435L89.851-10.2435L89.851-10.0735C89.851-5.57953 89.763-4.50253 89.524-4.03253C89.236-3.46653 88.776-3.00753 88.211-2.71953C87.741-2.47953 86.664-2.39153 82.17-2.39153L49.147-2.39153C44.653-2.39153 43.576-2.47953 43.106-2.71953C42.541-3.00753 42.081-3.46653 41.793-4.03253C41.554-4.50253 41.466-5.57953 41.466-10.0735L41.466-10.2435L31.883-10.2435ZM41.466-28.6855L41.466-60.3865C41.466-64.8805 41.554-65.9575 41.793-66.4275C42.081-66.9935 42.541-67.4525 43.106-67.7405C43.576-67.9805 44.653-68.0685 49.147-68.0685L63.028-68.0685C65.22-68.0685 65.716-68.0455 66.054-67.9625C66.438-67.8685 66.804-67.7145 67.139-67.5055C67.434-67.3205 67.797-66.9815 69.328-65.4125L87.35-46.9375C88.829-45.4215 89.148-45.0635 89.322-44.7745C89.519-44.4465 89.664-44.0895 89.752-43.7175C89.83-43.3895 89.851-42.9105 89.851-40.7925L89.851-28.6855L99.434-28.6855L99.434-40.7925C99.434-43.7805 99.399-44.5635 99.079-45.9205C98.763-47.2555 98.243-48.5345 97.536-49.7105C96.818-50.9055 96.296-51.4915 94.21-53.6295L76.187-72.1045C74.029-74.3165 73.437-74.8695 72.216-75.6325C71.015-76.3825 69.702-76.9365 68.326-77.2725C66.928-77.6135 66.119-77.6505 63.028-77.6505L49.147-77.6505C42.727-77.6505 41.204-77.5265 38.756-76.2795C36.387-75.0725 34.462-73.1465 33.255-70.7785C32.007-68.3295 31.883-66.8075 31.883-60.3865L31.883-28.6855L41.466-28.6855ZM61.091-72.7595L61.091-49.6725C61.091-45.9855 61.162-45.1135 62.008-43.4525C62.815-41.8695 64.102-40.5825 65.686-39.7755C67.346-38.9295 68.218-38.8575 71.905-38.8575L94.993-38.8575L94.993-47.6935L71.905-47.6935C70.508-47.6935 70.035-47.7005 69.639-47.7325C69.502-47.7445 69.427-47.7555 69.408-47.7595C69.479-47.7425 69.582-47.7065 69.697-47.6475C69.776-47.6075 69.84-47.5435 69.88-47.4645C69.939-47.3495 69.976-47.2465 69.992-47.1755C69.988-47.1935 69.977-47.2685 69.966-47.4065C69.934-47.8025 69.926-48.2745 69.926-49.6725L69.926-72.7595L61.091-72.7595ZM25.18-14.7315L106.137-14.7315C108.764-14.7315 110.894-16.8615 110.894-19.4885C110.894-22.1155 108.764-24.2455 106.137-24.2455L25.18-24.2455C22.553-24.2455 20.423-22.1155 20.423-19.4885C20.423-16.8615 22.553-14.7315 25.18-14.7315Z"/>
  </g>
  <g id="Medium-S" transform="matrix(1 0 0 1 1681.53 696)">
   <path class="monochrome-0 multicolor-0:tintColor hierarchical-0:primary SFSymbolsPreviewWireframe" d="M31.887-10.2435L31.887-10.0735C31.887-3.78053 32.009-2.28753 33.19 0.0304658C34.336 2.27947 36.164 4.10847 38.413 5.25447C40.731 6.43447 42.224 6.55647 48.517 6.55647L81.54 6.55647C87.833 6.55647 89.326 6.43447 91.644 5.25447C93.893 4.10847 95.721 2.27947 96.867 0.0304658C98.048-2.28653 98.17-3.78053 98.17-10.0735L98.17-10.2435L89.856-10.2435L89.856-10.0735C89.856-5.45153 89.765-4.34553 89.459-3.74453C89.11-3.05953 88.554-2.50253 87.869-2.15453C87.268-1.84753 86.161-1.75753 81.54-1.75753L48.517-1.75753C43.896-1.75753 42.789-1.84753 42.188-2.15453C41.504-2.50253 40.947-3.05953 40.598-3.74453C40.292-4.34553 40.201-5.45153 40.201-10.0735L40.201-10.2435L31.887-10.2435ZM40.201-28.6855L40.201-60.3865C40.201-65.0085 40.292-66.1145 40.598-66.7155C40.947-67.4005 41.504-67.9565 42.188-68.3055C42.789-68.6115 43.896-68.7025 48.517-68.7025L62.398-68.7025C64.649-68.7025 65.166-68.6785 65.574-68.5785C66.024-68.4695 66.453-68.2885 66.845-68.0435C67.201-67.8205 67.58-67.4675 69.152-65.8555L87.174-47.3805C88.693-45.8235 89.026-45.4505 89.236-45.1005C89.467-44.7165 89.637-44.2995 89.74-43.8635C89.833-43.4675 89.856-42.9685 89.856-40.7925L89.856-28.6855L98.17-28.6855L98.17-40.7925C98.17-43.7225 98.136-44.4855 97.831-45.7745C97.531-47.0465 97.036-48.2635 96.363-49.3835C95.68-50.5185 95.172-51.0895 93.126-53.1865L75.103-71.6615C72.987-73.8315 72.41-74.3705 71.25-75.0945C70.107-75.8095 68.856-76.3365 67.546-76.6565C66.217-76.9805 65.429-77.0165 62.398-77.0165L48.517-77.0165C42.224-77.0165 40.731-76.8945 38.414-75.7145C36.164-74.5675 34.336-72.7395 33.19-70.4905C32.009-68.1725 31.887-66.6795 31.887-60.3865L31.887-28.6855L40.201-28.6855ZM61.046-72.7595L61.046-49.6725C61.046-46.1025 61.115-45.2575 61.899-43.7185C62.65-42.2445 63.848-41.0475 65.321-40.2965C66.861-39.5115 67.706-39.4425 71.275-39.4425L94.363-39.4425L94.363-47.1085L71.275-47.1085C69.859-47.1085 69.38-47.1165 68.962-47.1505C68.797-47.1635 68.694-47.1785 68.644-47.1905C68.671-47.1835 68.73-47.1635 68.802-47.1265C68.771-47.1425 68.745-47.1675 68.73-47.1985C68.766-47.1265 68.787-47.0685 68.793-47.0415C68.782-47.0905 68.767-47.1935 68.753-47.3585C68.719-47.7775 68.712-48.2555 68.712-49.6725L68.712-72.7595L61.046-72.7595ZM24.55-15.3605L105.507-15.3605C107.786-15.3605 109.634-17.2085 109.634-19.4885C109.634-21.7685 107.786-23.6165 105.507-23.6165L24.55-23.6165C22.271-23.6165 20.423-21.7685 20.423-19.4885C20.423-17.2085 22.271-15.3605 24.55-15.3605Z"/>
  </g>
  <g id="Regular-S" transform="matrix(1 0 0 1 1385.45 696)">
   <path class="monochrome-0 multicolor-0:tintColor hierarchical-0:primary SFSymbolsPreviewWireframe" d="M31.892-10.2435L31.892-10.0735C31.892-3.90753 32.012-2.44453 33.126-0.257534C34.211 1.87247 35.943 3.60347 38.072 4.68947C40.259 5.80347 41.723 5.92247 47.888 5.92247L80.911 5.92247C87.076 5.92247 88.54 5.80347 90.727 4.68947C92.857 3.60347 94.588 1.87247 95.673-0.257534C96.787-2.44353 96.907-3.90753 96.907-10.0735L96.907-10.2435L89.861-10.2435L89.861-10.0735C89.861-5.32453 89.768-4.18853 89.395-3.45653C88.985-2.65253 88.332-1.99853 87.528-1.58853C86.796-1.21653 85.66-1.12353 80.911-1.12353L47.888-1.12353C43.139-1.12353 42.003-1.21653 41.271-1.58953C40.467-1.99853 39.814-2.65253 39.404-3.45653C39.031-4.18853 38.938-5.32453 38.938-10.0735L38.938-10.2435L31.892-10.2435ZM38.938-28.6855L38.938-60.3865C38.938-65.1355 39.031-66.2715 39.404-67.0035C39.814-67.8075 40.467-68.4615 41.271-68.8705C42.003-69.2435 43.139-69.3365 47.888-69.3365L61.769-69.3365C64.08-69.3365 64.617-69.3115 65.096-69.1945C65.611-69.0695 66.102-68.8615 66.552-68.5815C66.97-68.3195 67.363-67.9525 68.977-66.2985L86.999-47.8235C88.558-46.2255 88.904-45.8365 89.151-45.4275C89.415-44.9875 89.61-44.5085 89.728-44.0095C89.837-43.5445 89.861-43.0255 89.861-40.7925L89.861-28.6855L96.907-28.6855L96.907-40.7925C96.907-43.6655 96.873-44.4085 96.585-45.6285C96.3-46.8365 95.829-47.9935 95.19-49.0565C94.544-50.1325 94.048-50.6885 92.043-52.7435L74.02-71.2185C71.945-73.3455 71.384-73.8705 70.285-74.5565C69.199-75.2355 68.011-75.7365 66.766-76.0405C65.508-76.3475 64.741-76.3825 61.769-76.3825L47.888-76.3825C41.723-76.3825 40.259-76.2635 38.072-75.1495C35.943-74.0635 34.211-72.3325 33.126-70.2025C32.012-68.0155 31.892-66.5525 31.892-60.3865L31.892-28.6855L38.938-28.6855ZM61.001-72.7595L61.001-49.6725C61.001-46.2205 61.068-45.4025 61.791-43.9835C62.486-42.6205 63.594-41.5115 64.958-40.8175C66.377-40.0945 67.194-40.0275 70.646-40.0275L93.734-40.0275L93.734-46.5235L70.646-46.5235C68.5-46.5235 67.985-46.5655 67.907-46.6055C67.766-46.6775 67.651-46.7925 67.58-46.9335C67.54-47.0105 67.498-47.5265 67.498-49.6725L67.498-72.7595L61.001-72.7595ZM23.921-15.9905L104.878-15.9905C106.81-15.9905 108.376-17.5565 108.376-19.4885C108.376-21.4205 106.81-22.9865 104.878-22.9865L23.921-22.9865C21.99-22.9865 20.423-21.4205 20.423-19.4885C20.423-17.5565 21.99-15.9905 23.921-15.9905Z"/>
  </g>
  <g id="Light-S" transform="matrix(1 0 0 1 1089.55 696)">
   <path class="monochrome-0 multicolor-0:tintColor hierarchical-0:primary SFSymbolsPreviewWireframe" d="M31.897-10.2435L31.897-10.0735C31.897-4.07253 32.014-2.64753 33.041-0.630534C34.048 1.34447 35.653 2.95047 37.629 3.95647C39.645 4.98447 41.071 5.10047 47.071 5.10047L80.094 5.10047C86.094 5.10047 87.52 4.98447 89.536 3.95647C91.512 2.95047 93.117 1.34447 94.124-0.630534C95.151-2.64753 95.268-4.07253 95.268-10.0735L95.268-10.2435L89.866-10.2435L89.866-10.0735C89.866-5.15953 89.77-3.98453 89.311-3.08353C88.822-2.12453 88.043-1.34553 87.084-0.856534C86.183-0.397534 85.008-0.301534 80.094-0.301534L47.071-0.301534C42.157-0.301534 40.983-0.397534 40.081-0.856534C39.122-1.34553 38.343-2.12453 37.854-3.08353C37.395-3.98453 37.299-5.15953 37.299-10.0735L37.299-10.2435L31.897-10.2435ZM37.299-28.6855L37.299-60.3865C37.299-65.3005 37.395-66.4755 37.855-67.3765C38.343-68.3355 39.122-69.1145 40.081-69.6035C40.983-70.0625 42.157-70.1585 47.071-70.1585L60.952-70.1585C63.34-70.1585 63.904-70.1325 64.474-69.9935C65.074-69.8465 65.647-69.6055 66.17-69.2785C66.668-68.9675 67.081-68.5815 68.748-66.8725L86.771-48.3975C88.382-46.7455 88.745-46.3385 89.038-45.8515C89.346-45.3385 89.573-44.7805 89.711-44.1985C89.841-43.6455 89.866-43.1005 89.866-40.7925L89.866-28.6855L95.268-28.6855L95.268-40.7925C95.268-43.5905 95.236-44.3075 94.968-45.4395C94.702-46.5655 94.264-47.6425 93.668-48.6335C93.069-49.6315 92.591-50.1675 90.637-52.1695L72.615-70.6445C70.594-72.7165 70.052-73.2235 69.033-73.8595C68.021-74.4925 66.914-74.9585 65.754-75.2415C64.587-75.5265 63.847-75.5605 60.952-75.5605L47.071-75.5605C41.071-75.5605 39.645-75.4445 37.629-74.4165C35.653-73.4105 34.048-71.8045 33.041-69.8295C32.014-67.8125 31.897-66.3865 31.897-60.3865L31.897-28.6855L37.299-28.6855ZM60.942-72.7595L60.942-49.6725C60.942-46.3725 61.006-45.5905 61.65-44.3275C62.272-43.1075 63.264-42.1145 64.485-41.4925C65.747-40.8495 66.53-40.7855 69.829-40.7855L92.917-40.7855L92.917-45.7655L69.829-45.7655C67.531-45.7655 66.98-45.8105 66.746-45.9305C66.462-46.0745 66.232-46.3055 66.087-46.5895C65.968-46.8235 65.923-47.3745 65.923-49.6725L65.923-72.7595L60.942-72.7595ZM23.104-16.8065L104.061-16.8065C105.542-16.8065 106.743-18.0075 106.743-19.4885C106.743-20.9695 105.542-22.1705 104.061-22.1705L23.104-22.1705C21.623-22.1705 20.423-20.9695 20.423-19.4885C20.423-18.0075 21.623-16.8065 23.104-16.8065Z"/>
  </g>
  <g id="Thin-S" transform="matrix(1 0 0 1 793.656 696)">
   <path class="monochrome-0 multicolor-0:tintColor hierarchical-0:primary SFSymbolsPreviewWireframe" d="M31.903-10.2435L31.903-10.0735C31.903-4.23853 32.017-2.85053 32.958-1.00353C33.885 0.816466 35.365 2.29647 37.186 3.22447C39.033 4.16547 40.42 4.27847 46.255 4.27847L79.278 4.27847C85.113 4.27847 86.5 4.16547 88.347 3.22447C90.168 2.29647 91.648 0.816466 92.575-1.00353C93.517-2.85053 93.63-4.23853 93.63-10.0735L93.63-10.2435L89.872-10.2435L89.872-10.0735C89.872-4.99353 89.773-3.78153 89.227-2.70953C88.66-1.59653 87.755-0.691534 86.641-0.124534C85.57 0.421466 84.357 0.520466 79.278 0.520466L46.255 0.520466C41.176 0.520466 39.963 0.421466 38.892-0.124534C37.779-0.691534 36.873-1.59653 36.306-2.71053C35.76-3.78153 35.661-4.99353 35.661-10.0735L35.661-10.2435L31.903-10.2435ZM35.661-28.6855L35.661-60.3865C35.661-65.4665 35.76-66.6785 36.306-67.7495C36.873-68.8635 37.779-69.7685 38.892-70.3355C39.963-70.8815 41.176-70.9805 46.255-70.9805L60.136-70.9805C62.601-70.9805 63.192-70.9535 63.853-70.7925C64.538-70.6245 65.192-70.3495 65.79-69.9755C66.367-69.6155 66.799-69.2115 68.52-67.4465L86.543-48.9715C88.206-47.2665 88.587-46.8395 88.927-46.2745C89.279-45.6885 89.538-45.0525 89.695-44.3875C89.846-43.7465 89.872-43.1745 89.872-40.7925L89.872-28.6855L93.63-28.6855L93.63-40.7925C93.63-43.5155 93.599-44.2065 93.352-45.2505C93.106-46.2935 92.7-47.2915 92.148-48.2105C91.595-49.1295 91.134-49.6465 89.233-51.5955L71.211-70.0705C69.243-72.0875 68.721-72.5755 67.781-73.1625C66.843-73.7485 65.818-74.1805 64.743-74.4425C63.667-74.7055 62.954-74.7385 60.136-74.7385L46.255-74.7385C40.42-74.7385 39.033-74.6255 37.186-73.6845C35.365-72.7565 33.885-71.2765 32.958-69.4565C32.017-67.6085 31.903-66.2215 31.903-60.3865L31.903-28.6855L35.661-28.6855ZM60.884-72.7595L60.884-49.6725C60.884-46.5255 60.945-45.7775 61.509-44.6715C62.058-43.5935 62.935-42.7175 64.013-42.1675C65.119-41.6045 65.866-41.5435 69.013-41.5435L92.101-41.5435L92.101-45.0075L69.013-45.0075C66.563-45.0075 65.977-45.0555 65.586-45.2545C65.16-45.4725 64.813-45.8185 64.596-46.2445C64.397-46.6355 64.349-47.2215 64.349-49.6725L64.349-72.7595L60.884-72.7595ZM22.288-17.6225L103.245-17.6225C104.275-17.6225 105.11-18.4585 105.11-19.4885C105.11-20.5185 104.275-21.3545 103.245-21.3545L22.288-21.3545C21.258-21.3545 20.423-20.5185 20.423-19.4885C20.423-18.4585 21.258-17.6225 22.288-17.6225Z"/>
  </g>
  <g id="Ultralight-S" transform="matrix(1 0 0 1 497.761 696)">
   <path class="monochrome-0 multicolor-0:tintColor hierarchical-0:primary SFSymbolsPreviewWireframe" d="M31.909-10.2435L31.909-10.0735C31.909-4.40353 32.02-3.05453 32.874-1.37753C33.723 0.288466 35.077 1.64247 36.743 2.49147C38.42 3.34647 39.769 3.45647 45.439 3.45647L78.462 3.45647C84.132 3.45647 85.481 3.34647 87.158 2.49147C88.824 1.64247 90.178 0.288466 91.027-1.37753C91.882-3.05453 91.992-4.40353 91.992-10.0735L91.992-10.2435L89.878-10.2435L89.878-10.0735C89.878-4.82853 89.776-3.57753 89.143-2.33653C88.497-1.06853 87.466-0.0375342 86.198 0.608466C84.958 1.24047 83.707 1.34247 78.462 1.34247L45.439 1.34247C40.194 1.34247 38.944 1.24047 37.703 0.608466C36.435-0.0375342 35.404-1.06853 34.758-2.33653C34.125-3.57753 34.023-4.82853 34.023-10.0735L34.023-10.2435L31.909-10.2435ZM34.023-28.6855L34.023-60.3865C34.023-65.6315 34.125-66.8825 34.758-68.1235C35.404-69.3915 36.435-70.4225 37.703-71.0685C38.944-71.7005 40.194-71.8025 45.439-71.8025L59.32-71.8025C61.862-71.8025 62.48-71.7735 63.231-71.5905C64.002-71.4025 64.737-71.0925 65.41-70.6725C66.066-70.2625 66.518-69.8405 68.293-68.0205L86.315-49.5455C88.031-47.7875 88.429-47.3405 88.815-46.6975C89.211-46.0395 89.502-45.3235 89.679-44.5765C89.851-43.8465 89.878-43.2495 89.878-40.7925L89.878-28.6855L91.992-28.6855L91.992-40.7925C91.992-43.4415 91.962-44.1055 91.736-45.0615C91.509-46.0225 91.135-46.9415 90.627-47.7865C90.121-48.6285 89.678-49.1265 87.829-51.0215L69.806-69.4965C67.892-71.4585 67.39-71.9275 66.53-72.4655C65.666-73.0045 64.722-73.4025 63.733-73.6445C62.747-73.8845 62.06-73.9165 59.32-73.9165L45.439-73.9165C39.769-73.9165 38.42-73.8065 36.743-72.9515C35.077-72.1025 33.723-70.7485 32.874-69.0825C32.02-67.4055 31.909-66.0565 31.909-60.3865L31.909-28.6855L34.023-28.6855ZM60.826-72.7595L60.826-49.6725C60.826-46.6775 60.884-45.9655 61.368-45.0165C61.845-44.0805 62.605-43.3195 63.541-42.8435C64.491-42.3595 65.203-42.3015 68.197-42.3015L91.285-42.3015L91.285-44.2505L68.197-44.2505C65.594-44.2505 64.973-44.3005 64.426-44.5795C63.857-44.8695 63.395-45.3315 63.105-45.9005C62.826-46.4475 62.775-47.0695 62.775-49.6725L62.775-72.7595L60.826-72.7595ZM21.472-18.4395L102.429-18.4395C103.008-18.4395 103.478-18.9085 103.478-19.4885C103.478-20.0685 103.008-20.5375 102.429-20.5375L21.472-20.5375C20.893-20.5375 20.423-20.0685 20.423-19.4885C20.423-18.9085 20.893-18.4395 21.472-18.4395Z"/>
  </g>
 </g>
</svg>
