<svg width="16" height="16" viewBox="0 0 16 16" fill="none" xmlns="http://www.w3.org/2000/svg">
<path d="M2.16016 6.61523C2.0553 7.05925 2 7.52285 2 8C2 11.3137 4.68629 14 8 14C9.77578 14 11.3697 13.2271 12.4688 12H10V11H14V15H13V12.8945C11.7297 14.1919 9.96013 15 8 15C4.13401 15 1 11.866 1 8C1 7.44475 1.06492 6.90368 1.1875 6.38477L2.16016 6.61523ZM3 3.10449C4.27027 1.80742 6.04012 1 8 1C11.866 1 15 4.13401 15 8C15 8.55525 14.9351 9.09632 14.8125 9.61523L13.8398 9.38477C13.9447 8.94075 14 8.47715 14 8C14 4.68629 11.3137 2 8 2C6.22422 2 4.63025 2.77285 3.53125 4H6V5H2V1H3V3.10449Z" fill="#808080"/>
</svg>
