<svg width="16" height="16" viewBox="0 0 16 16" fill="none" xmlns="http://www.w3.org/2000/svg">
<path d="M3.00781 11.9999C3.01557 12.3173 3.03104 12.5817 3.06152 12.8085C3.11997 13.2431 3.22568 13.4639 3.38086 13.6191C3.53606 13.7743 3.75678 13.88 4.19141 13.9384C4.64044 13.9988 5.23716 13.9999 6.09961 13.9999H9.90039C10.7628 13.9999 11.3596 13.9988 11.8086 13.9384C12.2432 13.88 12.4639 13.7743 12.6191 13.6191C12.7743 13.4639 12.88 13.2431 12.9385 12.8085C12.969 12.5817 12.9844 12.3173 12.9922 11.9999H13.9912C13.9829 12.3536 13.9666 12.6668 13.9297 12.9413C13.8563 13.4869 13.6981 13.9541 13.3262 14.3261C12.9542 14.6981 12.487 14.8563 11.9414 14.9296C11.4103 15.001 10.7344 14.9999 9.90039 14.9999H6.09961C5.26556 14.9999 4.58969 15.001 4.05859 14.9296C3.51299 14.8563 3.04581 14.6981 2.67383 14.3261C2.30187 13.9541 2.14367 13.4869 2.07031 12.9413C2.03343 12.6668 2.01713 12.3536 2.00879 11.9999H3.00781ZM15.5 10.9999H0.5V9.99993H15.5V10.9999ZM8.00879 0.999928C8.70373 0.999928 9.19073 0.990817 9.63477 1.17473C10.0788 1.35866 10.4168 1.70973 10.9082 2.2011L12.7988 4.09172C13.2902 4.58309 13.6413 4.92118 13.8252 5.36516C14.0091 5.80919 14 6.29622 14 6.99114V8.99993H13V6.99114C13 6.47825 12.9953 6.19555 12.9668 5.99993H9V2.03313C8.80439 2.00463 8.52169 1.99993 8.00879 1.99993H6.09961C5.23716 1.99993 4.64044 2.00108 4.19141 2.06145C3.75681 2.1199 3.53606 2.2256 3.38086 2.38079C3.22567 2.53598 3.11998 2.75675 3.06152 3.19133C3.00115 3.64036 3 4.23713 3 5.09954V8.99993H2V5.09954C2 4.26552 1.99895 3.5896 2.07031 3.05852C2.14367 2.51294 2.30186 2.04573 2.67383 1.67376C3.04581 1.30179 3.513 1.14359 4.05859 1.07024C4.58969 0.998873 5.26556 0.999927 6.09961 0.999928H8.00879Z" fill="#808080"/>
</svg>
