<svg width="16" height="16" viewBox="0 0 16 16" fill="none" xmlns="http://www.w3.org/2000/svg">
<path d="M15.6475 14H14.5742L13.7969 12H10.2031L9.42578 14H8.35254L11.5342 5.81836H12.4658L15.6475 14ZM10.5918 11H13.4082L12 7.37891L10.5918 11ZM5 3H9V4H7.41309C7.07223 5.61895 6.37286 7.01004 5.30762 8.15723C5.28414 8.18251 5.25917 8.20642 5.23535 8.23145C6.14638 8.96932 7.28286 9.56997 8.65723 10.0254L8.34277 10.9746C6.82451 10.4715 5.53995 9.78839 4.5 8.91992C3.46005 9.78839 2.17549 10.4715 0.657227 10.9746L0.342773 10.0254C1.71685 9.57007 2.85274 8.9691 3.76367 8.23145C3.74001 8.20658 3.71571 8.18235 3.69238 8.15723C2.62714 7.01004 1.92777 5.61895 1.58691 4H0V3H4V1H5V3ZM2.61035 4C2.93081 5.36623 3.53741 6.52091 4.4248 7.47656C4.44936 7.50301 4.47499 7.52852 4.5 7.55469C4.52501 7.52852 4.55064 7.50301 4.5752 7.47656C5.46259 6.52091 6.06919 5.36623 6.38965 4H2.61035Z" fill="#808080"/>
</svg>
