<svg width="16" height="16" viewBox="0 0 16 16" fill="none" xmlns="http://www.w3.org/2000/svg">
<g clip-path="url(#clip0_264_387)">
<path opacity="0.5" d="M10.5 1.5H13.5C14.6046 1.5 15.5 2.39543 15.5 3.5V12.5C15.5 13.6046 14.6046 14.5 13.5 14.5H10.5V1.5Z" fill="#808080"/>
<path d="M11.9004 1C12.7344 1 13.4103 0.998944 13.9414 1.07031C14.487 1.14367 14.9542 1.30184 15.3262 1.67383C15.6982 2.04582 15.8563 2.51298 15.9297 3.05859C16.0011 3.58969 16 4.26556 16 5.09961V10.9004C16 11.7344 16.0011 12.4103 15.9297 12.9414C15.8563 13.487 15.6982 13.9542 15.3262 14.3262C14.9542 14.6982 14.487 14.8563 13.9414 14.9297C13.4103 15.0011 12.7344 15 11.9004 15H4.09961C3.26556 15 2.58969 15.0011 2.05859 14.9297C1.51298 14.8563 1.04582 14.6982 0.673828 14.3262C0.30184 13.9542 0.143668 13.487 0.0703125 12.9414C-0.00105591 12.4103 -3.29336e-07 11.7344 0 10.9004V5.09961C-3.3074e-07 4.26556 -0.00105603 3.58969 0.0703125 3.05859C0.143668 2.51298 0.30184 2.04582 0.673828 1.67383C1.04582 1.30184 1.51298 1.14367 2.05859 1.07031C2.58969 0.998944 3.26556 1 4.09961 1H11.9004ZM11 14H11.9004C12.7628 14 13.3596 13.9988 13.8086 13.9385C14.2432 13.88 14.4639 13.7743 14.6191 13.6191C14.7743 13.4639 14.88 13.2432 14.9385 12.8086C14.9988 12.3596 15 11.7628 15 10.9004V5.09961C15 4.23716 14.9988 3.64044 14.9385 3.19141C14.88 2.75678 14.7743 2.53606 14.6191 2.38086C14.4639 2.22566 14.2432 2.11997 13.8086 2.06152C13.3596 2.00115 12.7628 2 11.9004 2H11V14ZM4.09961 2C3.23716 2 2.64044 2.00115 2.19141 2.06152C1.75678 2.11997 1.53606 2.22566 1.38086 2.38086C1.22566 2.53606 1.11997 2.75678 1.06152 3.19141C1.00115 3.64044 1 4.23716 1 5.09961V10.9004C1 11.7628 1.00115 12.3596 1.06152 12.8086C1.11997 13.2432 1.22566 13.4639 1.38086 13.6191C1.53606 13.7743 1.75678 13.88 2.19141 13.9385C2.64044 13.9988 3.23716 14 4.09961 14H10V2H4.09961Z" fill="#808080"/>
</g>
<defs>
<clipPath id="clip0_264_387">
<rect width="16" height="16" fill="white"/>
</clipPath>
</defs>
</svg>
