/* XPM */
static char * automatic_xpm[] = {
"16 16 33 1",
" 	c None",
".	c #556C89",
"+	c #838383",
"@	c #EAEAEA",
"#	c #535353",
"$	c #E4E4E4",
"%	c #FDFDFD",
"&	c #FFFFFF",
"*	c #B5B5B5",
"=	c #454545",
"-	c #B8B8B8",
";	c #EFEFEF",
">	c #FBFBFB",
",	c #171717",
"'	c #A3A3A3",
")	c #656565",
"!	c #A1A1A1",
"~	c #717171",
"{	c #F3F3F3",
"]	c #969696",
"^	c #B3B3B3",
"/	c #D1D1D1",
"(	c #5C5C5C",
"_	c #303030",
":	c #BABABA",
"<	c #858585",
"[	c #21262C",
"}	c #8E8E8E",
"|	c #3C3C3C",
"1	c #404040",
"2	c #313C4A",
"3	c #222222",
"4	c #323232",
"                ",
"     ......     ",
"    ........    ",
"   ..........   ",
"  ....+@@#....  ",
" .....$%&*..... ",
" ....=&-;>,.... ",
" ....'&)!&~.... ",
" ....{&]^&/.... ",
" ...(&&&&&&_... ",
" ...:&<[[:&}... ",
"  ..|12..314..  ",
"   ..........   ",
"    ........    ",
"     ......     ",
"                "};
