/* XPM */
static char * automatic_xpm[] = {
"16 16 64 1",
" 	c None",
".	c #000000",
"+	c #2E2E2E",
"@	c #5C5C5C",
"#	c #606060",
"$	c #858585",
"%	c #757575",
"&	c #909090",
"*	c #7E7E7E",
"=	c #464646",
"-	c #ACACAC",
";	c #424242",
">	c #222222",
",	c #212121",
"'	c #1F1F1F",
")	c #8D8D8D",
"!	c #323232",
"~	c #515151",
"{	c #1D1D1D",
"]	c #1A1A1A",
"^	c #191919",
"/	c #181818",
"(	c #171717",
"_	c #080808",
":	c #161616",
"<	c #131313",
"[	c #070707",
"}	c #747474",
"|	c #737373",
"1	c #6F6F6F",
"2	c #6C6C6C",
"3	c #585858",
"4	c #A2A2A2",
"5	c #A6A6A6",
"6	c #0E0E0E",
"7	c #A9A9A9",
"8	c #D6D6D6",
"9	c #A5A5A5",
"0	c #B9B9B9",
"a	c #CACACA",
"b	c #949494",
"c	c #DBDBDB",
"d	c #AEAEAE",
"e	c #B1B1B1",
"f	c #D9D9D9",
"g	c #959595",
"h	c #CBCBCB",
"i	c #3E3E3E",
"j	c #3A3A3A",
"k	c #777777",
"l	c #939393",
"m	c #A0A0A0",
"n	c #A7A7A7",
"o	c #A4A4A4",
"p	c #888888",
"q	c #9C9C9C",
"r	c #717171",
"s	c #4A4A4A",
"t	c #1C1C1C",
"u	c #565656",
"v	c #474747",
"w	c #5E5E5E",
"x	c #4F4F4F",
"y	c #2D2D2D",
"  ............  ",
" .+@########@+. ",
" .$$%%%%%%%%$$. ",
" .&*=-;>>,''*&. ",
" .&)!~>''''')&. ",
" .&)>,'''''')&. ",
" .&)>,'''{]])&. ",
" .&)>'''^/(_)&. ",
" .&*>''^:<[.*&. ",
" .$$}||12###$$. ",
" .345555555543. ",
"..6::::::::::6..",
".@7890abcdefghi.",
".jklm}n1op&qr7s.",
".tuvwxxwvuuvwxy.",
" .............. "};
