/* XPM */
static char * comment_modif_xpm[] = {
"16 16 49 1",
" 	c None",
".	c #000000",
"+	c #542F2F",
"@	c #7B6666",
"#	c #EB9393",
"$	c #603535",
"%	c #C08A8A",
"&	c #FBA7A7",
"*	c #EB7777",
"=	c #542323",
"-	c #848684",
";	c #040404",
">	c #4F454F",
",	c #553C0A",
"'	c #7A6623",
")	c #1A1A11",
"!	c #C06666",
"~	c #7B3333",
"{	c #4F584F",
"]	c #047424",
"^	c #04BE04",
"/	c #948A27",
"(	c #7A6123",
"_	c #FADAFA",
":	c #04992F",
"<	c #54390D",
"[	c #060401",
"}	c #281D05",
"|	c #4F3400",
"1	c #6B5F31",
"2	c #3B3710",
"3	c #3C321E",
"4	c #948D1A",
"5	c #694D15",
"6	c #271A06",
"7	c #020100",
"8	c #977A48",
"9	c #F1DDBA",
"0	c #50493C",
"a	c #3C3222",
"b	c #4E340B",
"c	c #271900",
"d	c #AB8A4F",
"e	c #FBE1B6",
"f	c #F1D5A7",
"g	c #0E0900",
"h	c #60481C",
"i	c #AB8747",
"j	c #977945",
"            .   ",
"           .+.  ",
"          .@#$. ",
"         ..%&*=.",
"      -;>,')!~. ",
"     {]^^;/(..  ",
"    -]_^^:;<.   ",
"    ;^^^^^][    ",
"   .>^^^^:].    ",
"   .};^^:]{.    ",
"  .|12;]]{.     ",
" ..34567...     ",
" 890ab...       ",
"cdef..          ",
"ghij.           ",
".gc             "};
