/* XPM */
static char * modified_xpm[] = {
"16 16 21 1",
" 	c None",
".	c #AEB7C1",
"+	c #EAEAEA",
"@	c #E8E8E8",
"#	c #FFFFFF",
"$	c #4A4A4A",
"%	c #454545",
"&	c #DCDCDC",
"*	c #F8F8F8",
"=	c #868686",
"-	c #858585",
";	c #D4D4D4",
">	c #BFBFBF",
",	c #C4C4C4",
"'	c #7F7F7F",
")	c #FAFAFA",
"!	c #434343",
"~	c #424242",
"{	c #404040",
"]	c #353535",
"^	c #373737",
"                ",
"     ......     ",
"    ........    ",
"   ..........   ",
"  ..++@..@++..  ",
" ...###$%###... ",
" ...#&*=-*&#... ",
" ...#;>,,>;#... ",
" ...#;'))';#... ",
" ...#;!##~;#... ",
" ...#;.)).;#... ",
"  ..{].^^.]{..  ",
"   ..........   ",
"    ........    ",
"     ......     ",
"                "};
