<svg width="1024" height="1024" viewBox="0 0 1024 1024" fill="none" xmlns="http://www.w3.org/2000/svg">
<g id="1 - Layer">
<path id="paper" d="M373 84.0001C358.677 84.0001 344.727 83.9941 330.805 84.0821L330.781 84.0831H330.757C319.052 84.1504 307.72 84.2819 296.568 84.5841L296.569 84.585C271.807 85.2569 250.415 86.6605 230.817 90.1837L230.813 90.1847C211.628 93.6326 195.217 98.9582 179.62 106.897C164.094 114.8 149.852 125.148 137.502 137.498L137.498 137.502C125.151 149.849 114.803 164.09 106.898 179.618C98.9588 195.216 93.6327 211.627 90.1847 230.813L90.1837 230.817C86.6606 250.414 85.2568 271.807 84.586 296.566V296.573C84.283 307.721 84.1504 319.051 84.0831 330.757V330.781L84.0821 330.805C83.9941 344.727 84.0001 358.677 84.0001 373V651C84.0001 663.533 83.9959 675.78 84.0538 687.973L84.0821 693.195L84.0831 693.219V693.243C84.142 703.486 84.2512 713.441 84.4806 723.237L84.586 727.427V727.435C85.2568 752.194 86.6606 773.586 90.1837 793.183L90.1847 793.188C93.6325 812.372 98.9587 828.782 106.897 844.378C114.801 859.907 125.149 874.149 137.498 886.498L137.502 886.502C149.466 898.466 163.206 908.551 178.169 916.355L179.621 917.103L179.622 917.104C195.216 925.041 211.626 930.368 230.816 933.817C250.415 937.34 271.807 938.743 296.569 939.415C307.721 939.717 319.052 939.85 330.757 939.917L330.781 939.918H330.805C344.727 940.006 358.677 940 373 940H651C665.323 940 679.273 940.006 693.195 939.918H693.219L693.243 939.917C704.948 939.85 716.28 939.717 727.431 939.415L732.035 939.28C754.861 938.56 774.812 937.119 793.188 933.816C812.375 930.367 828.785 925.041 844.379 917.104L844.381 917.103C859.907 909.2 874.149 898.852 886.501 886.5C898.852 874.149 909.2 859.907 917.103 844.381L917.104 844.379C925.041 828.785 930.368 812.374 933.817 793.185C937.34 773.586 938.743 752.192 939.415 727.431C939.717 716.28 939.85 704.948 939.917 693.243L939.918 693.219V693.195C940.006 679.273 940 665.323 940 651V373C940 358.677 940.006 344.727 939.918 330.805V330.781L939.917 330.757C939.85 319.052 939.717 307.721 939.415 296.569L939.28 291.966C938.56 269.141 937.12 249.19 933.817 230.816L933.488 229.025C930.032 210.602 924.793 194.729 917.104 179.622L917.103 179.621C909.199 164.094 898.852 149.851 886.501 137.5C874.149 125.148 859.907 114.8 844.381 106.898C828.784 98.9588 812.372 93.6327 793.188 90.1847L793.185 90.1837C773.586 86.6604 752.194 85.2569 727.431 84.585C716.28 84.2829 704.948 84.1504 693.243 84.0831H693.219L693.195 84.0821C679.273 83.9941 665.323 84.0001 651 84.0001H373Z" fill="white"/>
</g>
</svg>
