<svg width="1024" height="1024" viewBox="0 0 1024 1024" fill="none" xmlns="http://www.w3.org/2000/svg">
<g id="3 - Layer">
<path id="character 1" fill-rule="evenodd" clip-rule="evenodd" d="M241.324 177.108C241.119 177.108 240.923 177.145 240.727 177.21C236.635 178.598 231.722 180.069 225.252 181.829C224.441 182.053 223.872 182.789 223.872 183.627V208.13C223.872 208.94 224.413 209.657 225.187 209.899C225.373 209.965 225.56 209.993 225.746 209.993C226.343 209.993 226.921 209.704 227.275 209.182L233.736 199.878C234.174 199.245 234.864 198.826 235.619 198.705H235.815C236.747 198.705 237.297 198.91 237.772 199.282L247.654 207.124C247.99 207.385 248.4 207.534 248.81 207.534C249.09 207.534 249.36 207.469 249.621 207.348C250.264 207.031 250.675 206.379 250.675 205.662V182.556C250.675 181.848 250.936 181.178 251.42 180.665C251.97 180.06 252.073 179.175 251.653 178.467C251.318 177.881 250.703 177.536 250.05 177.536C249.91 177.536 249.77 177.555 249.631 177.583C248.764 177.778 247.822 177.881 246.824 177.881C245.277 177.881 243.627 177.648 241.8 177.173C241.641 177.126 241.483 177.108 241.324 177.108V177.108ZM225.746 220.032C224.711 220.032 223.872 220.87 223.872 221.895V232.13C223.872 232.959 224.422 233.676 225.205 233.918C235.376 236.991 242.853 241.164 247.412 246.314C247.775 246.724 248.288 246.947 248.81 246.947C249.034 246.947 249.258 246.91 249.472 246.826C250.199 246.556 250.675 245.858 250.675 245.085V221.55C250.675 221.001 250.432 220.479 250.003 220.125C249.668 219.846 249.248 219.688 248.81 219.688C248.708 219.688 248.586 219.706 248.484 219.725C247.113 219.976 245.706 220.032 244.335 220.032H225.746ZM275.743 196.628C274.717 196.628 273.878 197.466 273.878 198.491V282.943C273.878 283.967 274.717 284.805 275.743 284.805H297.819C298.844 284.805 299.683 283.967 299.683 282.943V198.491C299.683 197.466 298.844 196.628 297.819 196.628H275.743ZM203.81 316.107C202.263 316.107 201.014 314.859 201.014 313.313V267.054C201.014 266.254 200.491 265.536 199.727 265.285C199.531 265.22 199.335 265.192 199.149 265.192C198.562 265.192 198.002 265.471 197.639 265.965C191.271 274.682 183.841 282.673 175.554 289.723C175.05 290.151 174.407 290.393 173.736 290.393C172.953 290.393 172.216 290.067 171.685 289.49L169.69 287.339C168.804 286.37 168.702 284.899 169.466 283.827C180.308 268.479 189.379 246.631 195.01 222.314C195.14 221.764 195.01 221.178 194.656 220.74C194.301 220.293 193.761 220.032 193.192 220.032H173.568C172.281 220.032 171.172 219.166 170.855 217.918L170.025 214.593C169.82 213.755 170.007 212.88 170.538 212.2C171.07 211.52 171.871 211.129 172.748 211.129H199.149C200.174 211.129 201.014 210.291 201.014 209.266V189.68C201.014 189.131 200.762 188.6 200.342 188.246C199.997 187.967 199.578 187.818 199.149 187.818C199.028 187.818 198.925 187.827 198.804 187.846C190.554 189.364 181.818 190.677 173.559 191.636H173.512C171.983 191.636 170.93 190.845 170.566 189.68L169.895 187.52C169.457 186.067 170.231 184.549 171.666 184.065C191.402 177.331 216.983 164.74 229.904 155.399C230.389 155.054 230.957 154.868 231.545 154.868C232.188 154.868 232.794 155.082 233.297 155.482L253.229 171.408C253.844 171.902 254.227 172.647 254.273 173.438C254.32 174.23 254.021 175.003 253.453 175.562C253.164 175.86 252.847 176.13 252.502 176.353C251.831 176.819 251.532 177.657 251.765 178.439C251.998 179.212 252.707 179.753 253.527 179.762C253.891 179.771 254.245 179.846 254.581 179.995L272.135 187.576L298.471 187.725C299.059 187.725 299.618 187.445 299.972 186.98L305.883 179.054C306.414 178.346 307.234 177.937 308.129 177.937C308.726 177.937 309.295 178.123 309.77 178.467L329.049 192.577C330.261 193.462 330.55 195.138 329.72 196.377C328.714 197.885 326.877 199.171 324.248 200.186C323.521 200.456 323.045 201.154 323.045 201.918V302.035C323.045 305.62 314.254 309.634 302.48 309.634C300.932 309.634 299.683 308.386 299.683 306.85V295.571C299.683 294.547 298.844 293.709 297.819 293.709H275.743C274.717 293.709 273.878 294.547 273.878 295.571V303.031C273.878 305.09 270.42 312.792 253.471 312.792C251.933 312.792 250.675 311.544 250.675 309.998V269.103C250.675 268.396 250.274 267.753 249.64 267.436C249.379 267.306 249.09 267.241 248.81 267.241C248.409 267.241 248.008 267.371 247.682 267.632C245.808 269.057 243.562 269.811 241.184 269.811C238.136 269.811 235.153 268.442 232.561 265.844C232.132 265.415 231.852 264.857 231.769 264.251C231.265 260.675 229.755 256.428 227.387 251.976C227.061 251.352 226.417 250.98 225.746 250.98C225.597 250.98 225.439 250.999 225.289 251.036C224.46 251.241 223.872 251.995 223.872 252.843V308.34C223.332 312.363 215.417 316.107 206.961 316.107H203.81Z" fill="#C057EA"/>
</g>
</svg>
