<svg width="1024" height="1024" viewBox="0 0 1024 1024" fill="none" xmlns="http://www.w3.org/2000/svg">
<g id="3 - Layer">
<path id="character 2" fill-rule="evenodd" clip-rule="evenodd" d="M276.17 458.165C269.287 458.165 263.522 461.291 259.034 467.439C253.421 475.803 250.82 490.174 250.82 512.72C250.82 532.16 253.743 547.986 259.034 557.269C263.227 563.455 269.493 566.938 276.331 566.938C293.52 566.938 301.52 549.657 301.52 512.551C301.52 489.93 298.991 475.559 293.565 467.336C289.024 461.3 283.035 458.165 276.17 458.165M276.009 580.257C245.215 580.257 227.338 558.386 225.666 518.672C225.63 517.667 224.835 516.869 223.878 516.869H211.033C210.05 516.869 209.246 517.714 209.246 518.756V554.538C209.246 562.085 209.827 563.371 210.47 564.131C211.257 564.863 212.356 565.426 218.193 565.426C219.677 565.426 220.875 566.694 220.875 568.242V574.935C220.875 576.484 219.677 577.751 218.193 577.751H174.876C173.392 577.751 172.195 576.484 172.195 574.935V568.242C172.195 566.694 173.392 565.426 174.876 565.426C183.797 565.426 184.619 564.516 184.619 554.538V470.574C184.619 462.999 184.056 461.76 183.377 461.009C182.617 460.258 181.464 459.667 174.876 459.667C173.392 459.667 172.195 458.409 172.195 456.851V450.168C172.195 448.61 173.392 447.352 174.876 447.352H218.193C219.677 447.352 220.875 448.61 220.875 450.168V456.851C220.875 458.409 219.677 459.667 218.193 459.667C212.419 459.667 211.302 460.193 210.658 460.728C209.791 461.77 209.246 463.074 209.246 470.574V501.175C209.246 502.207 210.05 503.052 211.033 503.052H224.218C225.148 503.052 225.916 502.301 225.997 501.334C228.973 465.43 247.262 444.846 276.17 444.846C308.439 444.846 326.951 469.514 326.951 512.551C326.951 535.427 322.178 552.923 312.774 564.544C303.791 574.813 291.071 580.257 276.009 580.257" fill="#1595E0"/>
</g>
</svg>
