<svg width="1024" height="1024" viewBox="0 0 1024 1024" fill="none" xmlns="http://www.w3.org/2000/svg">
<g id="3 - Layer">
<path id="character 3" fill-rule="evenodd" clip-rule="evenodd" d="M263.043 735.556C262.755 735.556 262.459 735.503 262.163 735.398L213.494 717.995C212.056 717.479 210.993 716.673 210.27 715.553C209.59 714.502 209.25 713.198 209.25 711.684C209.25 711.053 209.293 710.511 209.407 710.02C209.477 709.705 209.886 708.716 210.052 708.453L213.024 703.105C213.817 701.792 214.715 700.785 215.743 700.076C216.867 699.27 218.166 698.868 219.5 698.868C219.726 698.868 220.633 698.973 220.868 699.034C221.295 699.139 221.748 699.305 222.184 699.533L266.791 725.707C267.967 726.399 268.42 727.905 267.81 729.139L265.387 734.094C264.952 734.987 264.036 735.556 263.043 735.556V735.556ZM248.209 770.379C247.494 770.388 246.858 770.843 246.605 771.526L234.543 804.598C234.351 805.123 234.429 805.727 234.752 806.191C235.083 806.664 235.615 806.944 236.181 806.944H261.605C262.18 806.944 262.729 806.655 263.052 806.165C263.374 805.692 263.435 805.071 263.226 804.537L249.856 771.473C249.595 770.808 248.95 770.379 248.244 770.379H248.209ZM273.676 860.107C268.185 860.107 264.908 859.503 263.052 858.172C261.003 856.684 259.966 854.189 259.966 850.74C259.966 846.626 261.796 844.56 263.33 843.545C265.248 842.275 268.412 841.662 273.022 841.662H275.21C275.785 841.662 276.325 841.374 276.657 840.883C276.979 840.411 277.04 839.789 276.822 839.255L271.331 825.739C271.061 825.082 270.425 824.645 269.719 824.645H228.346C227.614 824.645 226.951 825.1 226.707 825.8L221.835 839.316C221.644 839.85 221.722 840.446 222.044 840.918C222.367 841.382 222.907 841.662 223.474 841.662H226.315C230.969 841.662 234.168 842.266 236.12 843.536C238.395 845.006 239.554 847.431 239.554 850.74C239.554 855.021 237.872 857.148 236.46 858.172C234.63 859.485 231.344 860.107 226.123 860.107H201.606C196.882 860.107 193.963 859.503 192.132 858.146C190.119 856.667 189.108 854.172 189.108 850.74C189.108 846.617 190.764 844.56 192.159 843.562C193.771 842.398 196.351 841.785 200.037 841.68C200.743 841.654 201.371 841.207 201.615 840.542L230.028 764.96C230.228 764.426 230.159 763.822 229.828 763.358C229.505 762.877 228.973 762.597 228.398 762.597H221.094C216.667 762.597 213.669 761.966 211.655 760.609C209.381 759.069 208.221 756.574 208.221 753.239C208.221 749.851 209.293 747.286 211.316 745.815C212.64 744.852 215.168 743.872 223.796 743.872H250.362C254.449 743.872 257.151 744.476 258.868 745.745C260.489 746.962 261.849 748.958 263.043 751.856L298.42 840.586C298.672 841.225 299.282 841.662 299.971 841.689C303.239 841.811 305.575 842.433 307.126 843.588C309.053 845.05 310.038 847.449 310.038 850.74C310.038 854.119 309.114 856.579 307.301 858.067C305.601 859.459 302.978 860.107 299.03 860.107H273.676Z" fill="#E3450D"/>
</g>
</svg>
