<?xml version="1.0" encoding="UTF-8"?>
<!--Generator: Apple Native CoreSVG 341-->
<!DOCTYPE svg
PUBLIC "-//W3C//DTD SVG 1.1//EN"
       "http://www.w3.org/Graphics/SVG/1.1/DTD/svg11.dtd">
<svg version="1.1" xmlns="http://www.w3.org/2000/svg" xmlns:xlink="http://www.w3.org/1999/xlink" viewBox="0 0 3300 2200">
 <!--glyph: "", point size: 100.0, font version: "20.0d10e1", template writer version: "138.0.0"-->
 <style>.monochrome-0 {-sfsymbols-motion-group:0;-sfsymbols-layer-tags:48b2cb0ad367846c}

.multicolor-0:tintColor {-sfsymbols-motion-group:0;-sfsymbols-layer-tags:48b2cb0ad367846c}

.hierarchical-0:primary {-sfsymbols-motion-group:0;-sfsymbols-layer-tags:48b2cb0ad367846c}

.SFSymbolsPreviewWireframe {fill:none;opacity:1.0;stroke:black;stroke-width:0.5}
</style>
 <g id="Notes">
  <rect height="2200" id="artboard" style="fill:white;opacity:1" width="3300" x="0" y="0"/>
  <line style="fill:none;stroke:black;opacity:1;stroke-width:0.5;" x1="263" x2="3036" y1="292" y2="292"/>
  <text style="stroke:none;fill:black;font-family:sans-serif;font-size:13;font-weight:bold;" transform="matrix(1 0 0 1 263 322)">Weight/Scale Variations</text>
  <text style="stroke:none;fill:black;font-family:sans-serif;font-size:13;text-anchor:middle;" transform="matrix(1 0 0 1 559.711 322)">Ultralight</text>
  <text style="stroke:none;fill:black;font-family:sans-serif;font-size:13;text-anchor:middle;" transform="matrix(1 0 0 1 856.422 322)">Thin</text>
  <text style="stroke:none;fill:black;font-family:sans-serif;font-size:13;text-anchor:middle;" transform="matrix(1 0 0 1 1153.13 322)">Light</text>
  <text style="stroke:none;fill:black;font-family:sans-serif;font-size:13;text-anchor:middle;" transform="matrix(1 0 0 1 1449.84 322)">Regular</text>
  <text style="stroke:none;fill:black;font-family:sans-serif;font-size:13;text-anchor:middle;" transform="matrix(1 0 0 1 1746.56 322)">Medium</text>
  <text style="stroke:none;fill:black;font-family:sans-serif;font-size:13;text-anchor:middle;" transform="matrix(1 0 0 1 2043.27 322)">Semibold</text>
  <text style="stroke:none;fill:black;font-family:sans-serif;font-size:13;text-anchor:middle;" transform="matrix(1 0 0 1 2339.98 322)">Bold</text>
  <text style="stroke:none;fill:black;font-family:sans-serif;font-size:13;text-anchor:middle;" transform="matrix(1 0 0 1 2636.69 322)">Heavy</text>
  <text style="stroke:none;fill:black;font-family:sans-serif;font-size:13;text-anchor:middle;" transform="matrix(1 0 0 1 2933.4 322)">Black</text>
  <line style="fill:none;stroke:black;opacity:1;stroke-width:0.5;" x1="263" x2="3036" y1="1903" y2="1903"/>
  <g transform="matrix(0.2 0 0 0.2 263 1933)">
   <path d="m46.2402 4.15039c21.7773 0 39.4531-17.627 39.4531-39.4043s-17.6758-39.4043-39.4531-39.4043c-21.7285 0-39.4043 17.627-39.4043 39.4043s17.6758 39.4043 39.4043 39.4043Zm0-7.42188c-17.6758 0-31.9336-14.3066-31.9336-31.9824s14.2578-31.9824 31.9336-31.9824 31.9824 14.3066 31.9824 31.9824-14.3066 31.9824-31.9824 31.9824Zm-17.9688-31.9824c0 2.14844 1.51367 3.61328 3.75977 3.61328h10.498v10.5957c0 2.19727 1.46484 3.71094 3.61328 3.71094 2.24609 0 3.71094-1.51367 3.71094-3.71094v-10.5957h10.5957c2.19727 0 3.71094-1.46484 3.71094-3.61328 0-2.19727-1.51367-3.71094-3.71094-3.71094h-10.5957v-10.5469c0-2.24609-1.46484-3.75977-3.71094-3.75977-2.14844 0-3.61328 1.51367-3.61328 3.75977v10.5469h-10.498c-2.24609 0-3.75977 1.51367-3.75977 3.71094Z"/>
  </g>
  <g transform="matrix(0.2 0 0 0.2 281.506 1933)">
   <path d="m58.5449 14.5508c27.4902 0 49.8047-22.3145 49.8047-49.8047s-22.3145-49.8047-49.8047-49.8047-49.8047 22.3145-49.8047 49.8047 22.3145 49.8047 49.8047 49.8047Zm0-8.30078c-22.9492 0-41.5039-18.5547-41.5039-41.5039s18.5547-41.5039 41.5039-41.5039 41.5039 18.5547 41.5039 41.5039-18.5547 41.5039-41.5039 41.5039Zm-22.6562-41.5039c0 2.39258 1.66016 4.00391 4.15039 4.00391h14.3555v14.4043c0 2.44141 1.66016 4.15039 4.05273 4.15039 2.44141 0 4.15039-1.66016 4.15039-4.15039v-14.4043h14.4043c2.44141 0 4.15039-1.61133 4.15039-4.00391 0-2.44141-1.70898-4.15039-4.15039-4.15039h-14.4043v-14.3555c0-2.49023-1.70898-4.19922-4.15039-4.19922-2.39258 0-4.05273 1.70898-4.05273 4.19922v14.3555h-14.3555c-2.49023 0-4.15039 1.70898-4.15039 4.15039Z"/>
  </g>
  <g transform="matrix(0.2 0 0 0.2 304.924 1933)">
   <path d="m74.8535 28.3203c35.1074 0 63.623-28.4668 63.623-63.5742s-28.5156-63.623-63.623-63.623-63.5742 28.5156-63.5742 63.623 28.4668 63.5742 63.5742 63.5742Zm0-9.08203c-30.127 0-54.4922-24.3652-54.4922-54.4922s24.3652-54.4922 54.4922-54.4922 54.4922 24.3652 54.4922 54.4922-24.3652 54.4922-54.4922 54.4922Zm-28.8574-54.4922c0 2.58789 1.85547 4.39453 4.58984 4.39453h19.7266v19.7754c0 2.68555 1.85547 4.58984 4.44336 4.58984 2.68555 0 4.54102-1.85547 4.54102-4.58984v-19.7754h19.7754c2.68555 0 4.58984-1.80664 4.58984-4.39453 0-2.73438-1.85547-4.58984-4.58984-4.58984h-19.7754v-19.7266c0-2.73438-1.85547-4.63867-4.54102-4.63867-2.58789 0-4.44336 1.9043-4.44336 4.63867v19.7266h-19.7266c-2.73438 0-4.58984 1.85547-4.58984 4.58984Z"/>
  </g>
  <text style="stroke:none;fill:black;font-family:sans-serif;font-size:13;font-weight:bold;" transform="matrix(1 0 0 1 263 1953)">Design Variations</text>
  <text style="stroke:none;fill:black;font-family:sans-serif;font-size:13;" transform="matrix(1 0 0 1 263 1971)">Symbols are supported in up to nine weights and three scales.</text>
  <text style="stroke:none;fill:black;font-family:sans-serif;font-size:13;" transform="matrix(1 0 0 1 263 1989)">For optimal layout with text and other symbols, vertically align</text>
  <text style="stroke:none;fill:black;font-family:sans-serif;font-size:13;" transform="matrix(1 0 0 1 263 2007)">symbols with the adjacent text.</text>
  <line style="fill:none;stroke:#00AEEF;stroke-width:0.5;opacity:1.0;" x1="776" x2="776" y1="1919" y2="1933"/>
  <g transform="matrix(0.2 0 0 0.2 776 1933)">
   <path d="m16.5527 0.78125c2.58789 0 3.85742-0.976562 4.78516-3.71094l6.29883-17.2363h28.8086l6.29883 17.2363c0.927734 2.73438 2.19727 3.71094 4.73633 3.71094 2.58789 0 4.24805-1.5625 4.24805-4.00391 0-0.830078-0.146484-1.61133-0.537109-2.63672l-22.9004-60.9863c-1.12305-2.97852-3.125-4.49219-6.25-4.49219-3.02734 0-5.07812 1.46484-6.15234 4.44336l-22.9004 61.084c-0.390625 1.02539-0.537109 1.80664-0.537109 2.63672 0 2.44141 1.5625 3.95508 4.10156 3.95508Zm13.4766-28.3691 11.8652-32.8613h0.244141l11.8652 32.8613Z"/>
  </g>
  <line style="fill:none;stroke:#00AEEF;stroke-width:0.5;opacity:1.0;" x1="792.836" x2="792.836" y1="1919" y2="1933"/>
  <text style="stroke:none;fill:black;font-family:sans-serif;font-size:13;font-weight:bold;" transform="matrix(1 0 0 1 776 1953)">Margins</text>
  <text style="stroke:none;fill:black;font-family:sans-serif;font-size:13;" transform="matrix(1 0 0 1 776 1971)">Leading and trailing margins on the left and right side of each symbol</text>
  <text style="stroke:none;fill:black;font-family:sans-serif;font-size:13;" transform="matrix(1 0 0 1 776 1989)">can be adjusted by modifying the x-location of the margin guidelines.</text>
  <text style="stroke:none;fill:black;font-family:sans-serif;font-size:13;" transform="matrix(1 0 0 1 776 2007)">Modifications are automatically applied proportionally to all</text>
  <text style="stroke:none;fill:black;font-family:sans-serif;font-size:13;" transform="matrix(1 0 0 1 776 2025)">scales and weights.</text>
  <g transform="matrix(0.2 0 0 0.2 1289 1933)">
   <path d="m14.209 9.32617 8.49609 8.54492c4.29688 4.3457 9.22852 4.05273 13.8672-1.07422l53.4668-58.9355-4.83398-4.88281-53.0762 58.3984c-1.75781 2.00195-3.41797 2.49023-5.76172 0.146484l-5.85938-5.81055c-2.34375-2.29492-1.80664-4.00391 0.195312-5.81055l57.373-54.0039-4.88281-4.83398-57.959 54.4434c-4.93164 4.58984-5.32227 9.47266-1.02539 13.8184Zm32.0801-90.9668c-2.09961 2.05078-2.24609 4.93164-1.07422 6.88477 1.17188 1.80664 3.4668 2.97852 6.68945 2.14844 7.32422-1.70898 14.9414-2.00195 22.0703 2.68555l-2.92969 7.27539c-1.70898 4.15039-0.830078 7.08008 1.85547 9.81445l11.4746 11.5723c2.44141 2.44141 4.49219 2.53906 7.32422 2.05078l5.32227-0.976562 3.32031 3.36914-0.195312 2.7832c-0.195312 2.49023 0.439453 4.39453 2.88086 6.78711l3.80859 3.71094c2.39258 2.39258 5.46875 2.53906 7.8125 0.195312l14.5508-14.5996c2.34375-2.34375 2.24609-5.32227-0.146484-7.71484l-3.85742-3.80859c-2.39258-2.39258-4.24805-3.17383-6.64062-2.97852l-2.88086 0.244141-3.22266-3.17383 1.2207-5.61523c0.634766-2.83203-0.146484-5.0293-3.07617-7.95898l-10.9863-10.9375c-16.6992-16.6016-38.8672-16.2109-53.3203-1.75781Zm7.4707 1.85547c12.1582-8.88672 28.6133-7.37305 39.7461 3.75977l12.1582 12.0605c1.17188 1.17188 1.36719 2.09961 1.02539 3.80859l-1.61133 7.42188 7.51953 7.42188 4.93164-0.292969c1.26953-0.0488281 1.66016 0.0488281 2.63672 1.02539l2.88086 2.88086-12.207 12.207-2.88086-2.88086c-0.976562-0.976562-1.12305-1.36719-1.07422-2.68555l0.341797-4.88281-7.4707-7.42188-7.61719 1.26953c-1.61133 0.341797-2.34375 0.195312-3.56445-0.976562l-10.0098-10.0098c-1.26953-1.17188-1.41602-2.00195-0.634766-3.85742l4.39453-10.4492c-7.8125-7.27539-17.9688-10.4004-28.125-7.42188-0.78125 0.195312-1.07422-0.439453-0.439453-0.976562Z"/>
  </g>
  <text style="stroke:none;fill:black;font-family:sans-serif;font-size:13;font-weight:bold;" transform="matrix(1 0 0 1 1289 1953)">Exporting</text>
  <text style="stroke:none;fill:black;font-family:sans-serif;font-size:13;" transform="matrix(1 0 0 1 1289 1971)">Symbols should be outlined when exporting to ensure the</text>
  <text style="stroke:none;fill:black;font-family:sans-serif;font-size:13;" transform="matrix(1 0 0 1 1289 1989)">design is preserved when submitting to Xcode.</text>
  <text id="template-version" style="stroke:none;fill:black;font-family:sans-serif;font-size:13;text-anchor:end;" transform="matrix(1 0 0 1 3036 1933)">Template v.6.0</text>
  <text style="stroke:none;fill:black;font-family:sans-serif;font-size:13;text-anchor:end;" transform="matrix(1 0 0 1 3036 1951)">Requires Xcode 16 or greater</text>
  <text id="descriptive-name" style="stroke:none;fill:black;font-family:sans-serif;font-size:13;text-anchor:end;" transform="matrix(1 0 0 1 3036 1969)">Generated from poedit.sync</text>
  <text style="stroke:none;fill:black;font-family:sans-serif;font-size:13;text-anchor:end;" transform="matrix(1 0 0 1 3036 1987)">Typeset at 100.0 points</text>
  <text style="stroke:none;fill:black;font-family:sans-serif;font-size:13;" transform="matrix(1 0 0 1 263 726)">Small</text>
  <text style="stroke:none;fill:black;font-family:sans-serif;font-size:13;" transform="matrix(1 0 0 1 263 1156)">Medium</text>
  <text style="stroke:none;fill:black;font-family:sans-serif;font-size:13;" transform="matrix(1 0 0 1 263 1586)">Large</text>
 </g>
 <g id="Guides">
  <g id="H-reference" style="fill:#27AAE1;stroke:none;" transform="matrix(1 0 0 1 339 696)">
   <path d="M0.993654 0L3.63775 0L29.3281-67.1323L30.0303-67.1323L30.0303-70.459L28.1226-70.459ZM11.6885-24.4799L46.9815-24.4799L46.2315-26.7285L12.4385-26.7285ZM55.1196 0L57.7637 0L30.6382-70.459L29.4326-70.459L29.4326-67.1323Z"/>
  </g>
  <line id="Baseline-S" style="fill:none;stroke:#27AAE1;opacity:1;stroke-width:0.5;" x1="263" x2="3036" y1="696" y2="696"/>
  <line id="Capline-S" style="fill:none;stroke:#27AAE1;opacity:1;stroke-width:0.5;" x1="263" x2="3036" y1="625.541" y2="625.541"/>
  <g id="H-reference" style="fill:#27AAE1;stroke:none;" transform="matrix(1 0 0 1 339 1126)">
   <path d="M0.993654 0L3.63775 0L29.3281-67.1323L30.0303-67.1323L30.0303-70.459L28.1226-70.459ZM11.6885-24.4799L46.9815-24.4799L46.2315-26.7285L12.4385-26.7285ZM55.1196 0L57.7637 0L30.6382-70.459L29.4326-70.459L29.4326-67.1323Z"/>
  </g>
  <line id="Baseline-M" style="fill:none;stroke:#27AAE1;opacity:1;stroke-width:0.5;" x1="263" x2="3036" y1="1126" y2="1126"/>
  <line id="Capline-M" style="fill:none;stroke:#27AAE1;opacity:1;stroke-width:0.5;" x1="263" x2="3036" y1="1055.54" y2="1055.54"/>
  <g id="H-reference" style="fill:#27AAE1;stroke:none;" transform="matrix(1 0 0 1 339 1556)">
   <path d="M0.993654 0L3.63775 0L29.3281-67.1323L30.0303-67.1323L30.0303-70.459L28.1226-70.459ZM11.6885-24.4799L46.9815-24.4799L46.2315-26.7285L12.4385-26.7285ZM55.1196 0L57.7637 0L30.6382-70.459L29.4326-70.459L29.4326-67.1323Z"/>
  </g>
  <line id="Baseline-L" style="fill:none;stroke:#27AAE1;opacity:1;stroke-width:0.5;" x1="263" x2="3036" y1="1556" y2="1556"/>
  <line id="Capline-L" style="fill:none;stroke:#27AAE1;opacity:1;stroke-width:0.5;" x1="263" x2="3036" y1="1485.54" y2="1485.54"/>
  <line id="right-margin-Regular-M" style="fill:none;stroke:#00AEEF;stroke-width:0.5;opacity:1.0;" x1="1526.43" x2="1526.43" y1="1030.79" y2="1150.12"/>
  <line id="left-margin-Regular-M" style="fill:none;stroke:#00AEEF;stroke-width:0.5;opacity:1.0;" x1="1373.26" x2="1373.26" y1="1030.79" y2="1150.12"/>
 </g>
 <g id="Symbols">
  <g id="Black-L" transform="matrix(1 0 0 1 2833.57 1556)">
   <path class="SFSymbolsPreviewWireframe" d="M120.269-4.6111L143.274-4.6111C139.071-4.6111 136.783-9.5221 139.487-12.7401L127.984 0.9539C129.961-1.3991 133.582-1.3991 135.559 0.9539L124.056-12.7401C126.76-9.5221 124.472-4.6111 120.269-4.6111ZM120.269-10.4131C119.542-10.4131 119.147-9.5641 119.614-9.0081L131.117 4.6859C131.458 5.0929 132.085 5.0929 132.426 4.6859L143.929-9.0081C144.396-9.5641 144.001-10.4131 143.274-10.4131L120.269-10.4131ZM58.027-9.8631C62.23-9.8631 64.518-4.9531 61.814-1.7351L73.317-15.4291C71.34-13.0761 67.719-13.0761 65.742-15.4291L77.244-1.7351C74.541-4.9531 76.829-9.8631 81.032-9.8631L58.027-9.8631ZM58.027-4.0621C57.3-4.0621 56.905-4.9101 57.372-5.4671L68.875-19.1611C69.216-19.5671 69.842-19.5671 70.184-19.1611L81.687-5.4671C82.154-4.9101 81.759-4.0621 81.032-4.0621L58.027-4.0621Z"/>
   <path class="monochrome-0 multicolor-0:tintColor hierarchical-0:primary SFSymbolsPreviewWireframe" d="M49.191-15.8451C41.462-18.7401 36.233-26.1501 36.233-34.5441C36.233-45.5671 45.169-54.5021 56.192-54.5021C57.6-54.5021 58.982-54.3581 60.329-54.0751C66.186-52.8451 71.946-56.5451 73.262-62.3841C76.036-74.6911 87.032-83.5921 99.827-83.5921C114.795-83.5921 126.955-71.5101 127.058-56.5531C127.109-49.0271 134.561-43.7951 141.656-46.3031C143.383-46.9141 145.212-47.2301 147.099-47.2301C156.113-47.2301 163.421-39.9221 163.421-30.9081C163.421-24.1801 159.315-18.2171 153.177-15.7521L161.34 4.5699C175.708-1.2011 185.321-15.1611 185.321-30.9081C185.321-52.0171 168.208-69.1301 147.099-69.1301C142.717-69.1301 138.421-68.3881 134.358-66.9521L138.007-56.6281L148.957-56.7021C148.773-83.6941 126.834-105.492 99.827-105.492C76.737-105.492 56.911-89.4431 51.898-67.1991L62.58-64.7911L64.831-75.5071C62.007-76.1011 59.115-76.4021 56.192-76.4021C33.074-76.4021 14.333-57.6621 14.333-34.5441C14.333-16.9451 25.295-1.4111 41.507 4.6629L49.191-15.8451ZM59.897-7.2371C59.897 15.2699 78.143 33.5159 100.65 33.5159C109.748 33.5159 118.416 30.5149 125.482 25.0799C129.884 21.6939 130.708 15.3799 127.321 10.9779C123.935 6.5759 117.621 5.7519 113.219 9.1379C109.639 11.8929 105.273 13.4039 100.65 13.4039C89.25 13.4039 80.009 4.1629 80.009-7.2371C80.009-12.7911 75.507-17.2931 69.953-17.2931C64.399-17.2931 59.897-12.7911 59.897-7.2371ZM141.404-7.2371C141.404-29.7451 123.158-47.9911 100.65-47.9911C91.347-47.9911 82.495-44.8521 75.35-39.1881C70.998-35.7381 70.266-29.4131 73.716-25.0611C77.166-20.7091 83.491-19.9771 87.843-23.4271C91.465-26.2981 95.923-27.8791 100.65-27.8791C112.051-27.8791 121.292-18.6371 121.292-7.2371C121.292-1.6841 125.794 2.8189 131.348 2.8189C136.902 2.8189 141.404-1.6841 141.404-7.2371ZM58.027 1.7399L81.032 1.7399C86.688 1.7399 89.767-4.8681 86.129-9.1991L74.626-22.8921C71.966-26.0591 67.093-26.0591 64.432-22.8921L52.93-9.1981C49.291-4.8681 52.371 1.7399 58.027 1.7399ZM120.269-16.2151C114.613-16.2151 111.534-9.6071 115.172-5.2761L126.674 8.4169C129.335 11.5839 134.208 11.5839 136.868 8.4179L148.371-5.2771C152.01-9.6071 148.93-16.2151 143.274-16.2151L120.269-16.2151Z"/>
  </g>
  <g id="Heavy-L" transform="matrix(1 0 0 1 2537.9 1556)">
   <path class="SFSymbolsPreviewWireframe" d="M119.231-5.1611L142.236-5.1611C138.5-5.1611 136.466-9.5261 138.87-12.3871L127.367 1.3079C129.124-0.7841 132.343-0.7841 134.1 1.3079L122.598-12.3861C125.001-9.5261 122.967-5.1611 119.231-5.1611ZM119.231-10.4131C118.504-10.4131 118.109-9.5641 118.576-9.0081L130.079 4.6859C130.42 5.0929 131.047 5.0929 131.388 4.6859L142.891-9.0081C143.358-9.5641 142.963-10.4131 142.236-10.4131L119.231-10.4131ZM56.989-9.3141C60.725-9.3141 62.759-4.9491 60.355-2.0881L71.858-15.7831C70.101-13.6911 66.882-13.6911 65.125-15.7821L76.627-2.0891C74.224-4.9491 76.258-9.3141 79.994-9.3141L56.989-9.3141ZM56.989-4.0621C56.262-4.0621 55.867-4.9101 56.334-5.4671L67.837-19.1611C68.178-19.5671 68.804-19.5671 69.146-19.1611L80.649-5.4671C81.116-4.9101 80.721-4.0621 79.994-4.0621L56.989-4.0621Z"/>
   <path class="monochrome-0 multicolor-0:tintColor hierarchical-0:primary SFSymbolsPreviewWireframe" d="M47.789-14.8731C39.658-17.9191 34.158-25.7141 34.158-34.5441C34.158-46.1391 43.558-55.5401 55.154-55.5401C56.633-55.5401 58.088-55.3881 59.504-55.0901C64.806-53.9761 70.021-57.3261 71.212-62.6121C74.092-75.3901 85.506-84.6301 98.789-84.6301C114.328-84.6301 126.951-72.0871 127.057-56.5601C127.103-49.7471 133.85-45.0111 140.273-47.2821C142.11-47.9311 144.055-48.2671 146.061-48.2671C155.648-48.2671 163.421-40.4951 163.421-30.9081C163.421-23.7531 159.053-17.4111 152.526-14.7891L159.916 3.6079C173.894-2.0071 183.246-15.5881 183.246-30.9081C183.246-51.4441 166.597-68.0921 146.061-68.0921C141.797-68.0921 137.618-67.3701 133.666-65.9741L136.969-56.6281L146.882-56.6951C146.701-83.1171 125.226-104.455 98.789-104.455C76.187-104.455 56.779-88.7441 51.872-66.9711L61.542-64.7911L63.58-74.4921C60.826-75.0711 58.005-75.3651 55.154-75.3651C32.609-75.3651 14.333-57.0891 14.333-34.5441C14.333-17.3811 25.023-2.2321 40.833 3.6919L47.789-14.8731ZM59.811-7.2371C59.811 14.7439 77.631 32.5639 99.612 32.5639C108.498 32.5639 116.962 29.6329 123.863 24.3249C127.848 21.2589 128.594 15.5439 125.528 11.5589C122.463 7.5739 116.747 6.8279 112.762 9.8929C109.016 12.7749 104.447 14.3569 99.612 14.3569C87.686 14.3569 78.018 4.6889 78.018-7.2371C78.018-12.2651 73.943-16.3411 68.915-16.3411C63.887-16.3411 59.811-12.2651 59.811-7.2371ZM139.414-7.2371C139.414-29.2191 121.594-47.0381 99.612-47.0381C90.525-47.0381 81.882-43.9731 74.904-38.4421C70.964-35.3191 70.302-29.5931 73.425-25.6531C76.548-21.7131 82.274-21.0501 86.214-24.1741C90.002-27.1771 94.669-28.8311 99.612-28.8311C111.539-28.8311 121.207-19.1641 121.207-7.2371C121.207-2.2101 125.282 1.8659 130.31 1.8659C135.338 1.8659 139.414-2.2101 139.414-7.2371ZM56.989 1.1899L79.994 1.1899C85.183 1.1899 88.008-4.8721 84.67-8.8451L73.168-22.5391C70.727-25.4441 66.256-25.4441 63.815-22.5391L52.312-8.8451C48.975-4.8721 51.8 1.1899 56.989 1.1899ZM119.231-15.6651C114.042-15.6651 111.217-9.6031 114.555-5.6301L126.057 8.0639C128.498 10.9689 132.969 10.9689 135.41 8.0639L146.912-5.6301C150.25-9.6031 147.425-15.6651 142.236-15.6651L119.231-15.6651Z"/>
  </g>
  <g id="Bold-L" transform="matrix(1 0 0 1 2242.23 1556)">
   <path class="SFSymbolsPreviewWireframe" d="M118.194-5.7111L141.199-5.7111C137.93-5.7111 136.151-9.5301 138.254-12.0331L126.751 1.6609C128.288-0.1691 131.105-0.1691 132.642 1.6609L121.14-12.0331C123.242-9.5301 121.463-5.7111 118.194-5.7111ZM118.194-10.4131C117.467-10.4131 117.072-9.5641 117.539-9.0081L129.042 4.6859C129.383 5.0929 130.01 5.0929 130.351 4.6859L141.854-9.0081C142.321-9.5641 141.926-10.4131 141.199-10.4131L118.194-10.4131ZM55.952-8.7641C59.221-8.7641 61-4.9451 58.897-2.4421L70.4-16.1361C68.863-14.3061 66.046-14.3061 64.509-16.1361L76.011-2.4421C73.908-4.9451 75.688-8.7641 78.957-8.7641L55.952-8.7641ZM55.952-4.0621C55.225-4.0621 54.83-4.9101 55.297-5.4671L66.8-19.1611C67.141-19.5671 67.767-19.5671 68.109-19.1611L79.612-5.4671C80.079-4.9101 79.684-4.0621 78.957-4.0621L55.952-4.0621Z"/>
   <path class="monochrome-0 multicolor-0:tintColor hierarchical-0:primary SFSymbolsPreviewWireframe" d="M46.388-13.9021C37.856-17.0991 32.084-25.2781 32.084-34.5441C32.084-46.7121 41.948-56.5771 54.117-56.5771C55.668-56.5771 57.194-56.4181 58.68-56.1061C63.428-55.1081 68.097-58.1081 69.163-62.8401C72.149-76.0891 83.981-85.6671 97.752-85.6671C113.861-85.6671 126.947-72.6641 127.057-56.5671C127.099-50.4671 133.139-46.2271 138.89-48.2601C140.838-48.9481 142.9-49.3041 145.024-49.3041C155.184-49.3041 163.421-41.0681 163.421-30.9081C163.421-23.3251 158.793-16.6051 151.876-13.8261L158.492 2.6449C172.08-2.8131 181.171-16.0151 181.171-30.9081C181.171-50.8711 164.988-67.0551 145.024-67.0551C140.878-67.0551 136.816-66.3531 132.974-64.9951L135.932-56.6281L144.807-56.6881C144.631-82.5401 123.619-103.418 97.752-103.418C75.637-103.418 56.647-88.0451 51.847-66.7421L60.505-64.7911L62.33-73.4771C59.645-74.0411 56.897-74.3281 54.117-74.3281C32.145-74.3281 14.333-56.5161 14.333-34.5441C14.333-17.8171 24.752-3.0531 40.16 2.7199L46.388-13.9021ZM59.727-7.2371C59.727 14.2179 77.12 31.6109 98.575 31.6109C107.249 31.6109 115.509 28.7509 122.245 23.5699C125.813 20.8249 126.481 15.7079 123.736 12.1389C120.991 8.5709 115.874 7.9039 112.306 10.6489C108.395 13.6569 103.622 15.3089 98.575 15.3089C86.123 15.3089 76.029 5.2149 76.029-7.2371C76.029-11.7391 72.379-15.3881 67.878-15.3881C63.376-15.3881 59.727-11.7391 59.727-7.2371ZM137.424-7.2371C137.424-28.6931 120.031-46.0861 98.575-46.0861C89.705-46.0861 81.27-43.0941 74.459-37.6951C70.931-34.8991 70.338-29.7721 73.134-26.2451C75.93-22.7171 81.057-22.1241 84.585-24.9201C88.54-28.0551 93.415-29.7841 98.575-29.7841C111.028-29.7841 121.122-19.6901 121.122-7.2371C121.122-2.7361 124.772 0.9129 129.273 0.9129C133.775 0.9129 137.424-2.7361 137.424-7.2371ZM55.952 0.6409L78.957 0.6409C83.679 0.6409 86.25-4.8761 83.212-8.4911L71.71-22.1851C69.489-24.8291 65.42-24.8291 63.199-22.1851L51.696-8.4911C48.659-4.8761 51.23 0.6409 55.952 0.6409ZM118.194-15.1151C113.472-15.1151 110.901-9.5991 113.939-5.9831L125.441 7.7099C127.662 10.3539 131.731 10.3539 133.952 7.7099L145.455-5.9841C148.492-9.5991 145.921-15.1151 141.199-15.1151L118.194-15.1151Z"/>
  </g>
  <g id="Semibold-L" transform="matrix(1 0 0 1 1946.55 1556)">
   <path class="SFSymbolsPreviewWireframe" d="M117.157-6.2601L140.162-6.2601C137.36-6.2601 135.835-9.5341 137.637-11.6791L126.134 2.0149C127.452 0.4459 129.867 0.4459 131.185 2.0149L119.682-11.6791C121.484-9.5341 119.959-6.2601 117.157-6.2601ZM117.157-10.4131C116.43-10.4131 116.035-9.5641 116.502-9.0081L128.005 4.6859C128.346 5.0929 128.973 5.0929 129.314 4.6859L140.817-9.0081C141.284-9.5641 140.889-10.4131 140.162-10.4131L117.157-10.4131ZM54.915-8.2141C57.717-8.2141 59.242-4.9411 57.439-2.7951L68.942-16.4901C67.624-14.9211 65.21-14.9211 63.892-16.4891L75.395-2.7961C73.593-4.9411 75.118-8.2141 77.92-8.2141L54.915-8.2141ZM54.915-4.0621C54.188-4.0621 53.793-4.9101 54.26-5.4671L65.763-19.1611C66.104-19.5671 66.73-19.5671 67.072-19.1611L78.575-5.4671C79.042-4.9101 78.647-4.0621 77.92-4.0621L54.915-4.0621Z"/>
   <path class="monochrome-0 multicolor-0:tintColor hierarchical-0:primary SFSymbolsPreviewWireframe" d="M44.987-12.9301C36.053-16.2781 30.009-24.8421 30.009-34.5441C30.009-47.2851 40.338-57.6141 53.08-57.6141C54.703-57.6141 56.3-57.4481 57.856-57.1211C62.049-56.2401 66.172-58.8891 67.114-63.0681C70.206-76.7871 82.457-86.7041 96.715-86.7041C113.394-86.7041 126.944-73.2421 127.058-56.5741C127.094-51.1871 132.429-47.4421 137.507-49.2381C139.566-49.9651 141.745-50.3421 143.987-50.3421C154.72-50.3421 163.421-41.6411 163.421-30.9081C163.421-22.8981 158.532-15.7991 151.225-12.8641L157.068 1.6819C170.267-3.6191 179.097-16.4421 179.097-30.9081C179.097-50.2981 163.378-66.0181 143.987-66.0181C139.959-66.0181 136.014-65.3361 132.283-64.0171L134.895-56.6281L142.733-56.6811C142.56-81.9631 122.011-102.38 96.715-102.38C75.088-102.38 56.516-87.3471 51.822-66.5141L59.468-64.7911L61.079-72.4621C58.465-73.0111 55.788-73.2901 53.08-73.2901C31.681-73.2901 14.333-55.9431 14.333-34.5441C14.333-18.2531 24.481-3.8741 39.487 1.7489L44.987-12.9301ZM59.643-7.2371C59.643 13.6919 76.609 30.6579 97.538 30.6579C106 30.6579 114.056 27.8689 120.627 22.8139C123.778 20.3909 124.368 15.8709 121.944 12.7199C119.52 9.5689 115.001 8.9799 111.85 11.4039C107.774 14.5389 102.797 16.2619 97.538 16.2619C84.56 16.2619 74.039 5.7409 74.039-7.2371C74.039-11.2131 70.816-14.4351 66.841-14.4351C62.865-14.4351 59.643-11.2131 59.643-7.2371ZM135.434-7.2371C135.434-28.1671 118.468-45.1331 97.538-45.1331C88.885-45.1331 80.658-42.2151 74.013-36.9491C70.898-34.4791 70.374-29.9521 72.844-26.8361C75.313-23.7211 79.841-23.1971 82.956-25.6671C87.078-28.9341 92.161-30.7371 97.538-30.7371C110.517-30.7371 121.038-20.2161 121.038-7.2371C121.038-3.2621 124.261-0.0390996 128.236-0.0390996C132.212-0.0390996 135.434-3.2621 135.434-7.2371ZM54.915 0.0909004L77.92 0.0909004C82.175 0.0909004 84.492-4.8801 81.754-8.1381L70.252-21.8321C68.25-24.2141 64.584-24.2141 62.583-21.8321L51.08-8.1381C48.343-4.8801 50.66 0.0909004 54.915 0.0909004ZM117.157-14.5661C112.902-14.5661 110.585-9.5951 113.322-6.3371L124.825 7.3569C126.826 9.7389 130.493 9.7389 132.494 7.3569L143.997-6.3371C146.734-9.5951 144.417-14.5661 140.162-14.5661L117.157-14.5661Z"/>
  </g>
  <g id="Medium-L" transform="matrix(1 0 0 1 1650.88 1556)">
   <path class="SFSymbolsPreviewWireframe" d="M116.119-6.8101L139.124-6.8101C136.789-6.8101 135.518-9.5381 137.02-11.3261L125.517 2.3679C126.616 1.0609 128.627 1.0609 129.726 2.3679L118.223-11.3261C119.725-9.5381 118.454-6.8101 116.119-6.8101ZM116.119-10.4131C115.392-10.4131 114.997-9.5641 115.464-9.0081L126.967 4.6859C127.308 5.0929 127.935 5.0929 128.276 4.6859L139.779-9.0081C140.246-9.5641 139.851-10.4131 139.124-10.4131L116.119-10.4131ZM53.877-7.6651C56.212-7.6651 57.483-4.9371 55.981-3.1491L67.484-16.8431C66.385-15.5361 64.373-15.5361 63.275-16.8431L74.778-3.1491C73.276-4.9371 74.547-7.6651 76.882-7.6651L53.877-7.6651ZM53.877-4.0621C53.15-4.0621 52.755-4.9101 53.222-5.4671L64.725-19.1611C65.066-19.5671 65.692-19.5671 66.034-19.1611L77.537-5.4671C78.004-4.9101 77.609-4.0621 76.882-4.0621L53.877-4.0621Z"/>
   <path class="monochrome-0 multicolor-0:tintColor hierarchical-0:primary SFSymbolsPreviewWireframe" d="M43.585-11.9591C34.249-15.4571 27.934-24.4061 27.934-34.5441C27.934-47.8581 38.727-58.6521 52.042-58.6521C53.737-58.6521 55.405-58.4781 57.032-58.1361C60.669-57.3721 64.247-59.6701 65.064-63.2961C68.262-77.4861 80.931-87.7421 95.677-87.7421C112.926-87.7421 126.939-73.8191 127.057-56.5811C127.089-51.9071 131.717-48.6581 136.124-50.2161C138.293-50.9821 140.589-51.3791 142.949-51.3791C154.255-51.3791 163.421-42.2141 163.421-30.9081C163.421-22.4711 158.271-14.9931 150.574-11.9011L155.644 0.7199C168.452-4.4251 177.022-16.8691 177.022-30.9081C177.022-49.7251 161.767-64.9801 142.949-64.9801C139.039-64.9801 135.211-64.3191 131.591-63.0391L133.857-56.6281L140.658-56.6741C140.489-81.3861 120.403-101.343 95.677-101.343C74.538-101.343 56.384-86.6481 51.796-66.2861L58.43-64.7911L59.828-71.4471C57.284-71.9811 54.678-72.2531 52.042-72.2531C31.216-72.2531 14.333-55.3701 14.333-34.5441C14.333-18.6891 24.208-4.6941 38.813 0.7769L43.585-11.9591ZM59.557-7.2371C59.557 13.1659 76.097 29.7059 96.5 29.7059C104.75 29.7059 112.603 26.9869 119.008 22.0589C121.742 19.9559 122.254 16.0349 120.151 13.3009C118.048 10.5669 114.127 10.0559 111.393 12.1589C107.152 15.4209 101.971 17.2149 96.5 17.2149C82.996 17.2149 72.048 6.2669 72.048-7.2371C72.048-10.6871 69.252-13.4831 65.803-13.4831C62.354-13.4831 59.557-10.6871 59.557-7.2371ZM133.444-7.2371C133.444-27.6401 116.904-44.1801 96.5-44.1801C88.064-44.1801 80.045-41.3361 73.567-36.2021C70.864-34.0591 70.41-30.1311 72.552-27.4281C74.695-24.7251 78.623-24.2711 81.326-26.4131C85.615-29.8131 90.906-31.6901 96.5-31.6901C110.005-31.6901 120.953-20.7421 120.953-7.2371C120.953-3.7881 123.749-0.9921 127.198-0.9921C130.647-0.9921 133.444-3.7881 133.444-7.2371ZM53.877-0.4591L76.882-0.4591C80.67-0.4591 82.732-4.8841 80.296-7.7841L68.793-21.4781C67.011-23.5991 63.747-23.5991 61.966-21.4781L50.463-7.7841C48.026-4.8841 50.089-0.4591 53.877-0.4591ZM116.119-14.0161C112.331-14.0161 110.269-9.5911 112.705-6.6901L124.208 7.0029C125.99 9.1239 129.253 9.1239 131.035 7.0029L142.538-6.6911C144.975-9.5911 142.912-14.0161 139.124-14.0161L116.119-14.0161Z"/>
  </g>
  <g id="Regular-L" transform="matrix(1 0 0 1 1355.2 1556)">
   <path class="SFSymbolsPreviewWireframe" d="M115.082-7.3601L138.087-7.3601C136.219-7.3601 135.202-9.5421 136.404-10.9721L124.901 2.7219C125.78 1.6759 127.389 1.6759 128.268 2.7219L116.765-10.9721C117.967-9.5421 116.95-7.3601 115.082-7.3601ZM115.082-10.4131C114.355-10.4131 113.96-9.5641 114.427-9.0081L125.93 4.6859C126.271 5.0929 126.898 5.0929 127.239 4.6859L138.742-9.0081C139.209-9.5641 138.814-10.4131 138.087-10.4131L115.082-10.4131ZM52.84-7.1151C54.708-7.1151 55.725-4.9331 54.523-3.5021L66.026-17.1971C65.147-16.1511 63.538-16.1511 62.659-17.1961L74.162-3.5031C72.96-4.9331 73.977-7.1151 75.845-7.1151L52.84-7.1151ZM52.84-4.0621C52.113-4.0621 51.718-4.9101 52.185-5.4671L63.688-19.1611C64.029-19.5671 64.655-19.5671 64.997-19.1611L76.5-5.4671C76.967-4.9101 76.572-4.0621 75.845-4.0621L52.84-4.0621Z"/>
   <path class="monochrome-0 multicolor-0:tintColor hierarchical-0:primary SFSymbolsPreviewWireframe" d="M42.184-10.9881C32.446-14.6361 25.86-23.9701 25.86-34.5441C25.86-48.4311 37.117-59.6891 51.005-59.6891C52.771-59.6891 54.512-59.5081 56.208-59.1511C59.291-58.5041 62.323-60.4511 63.015-63.5241C66.319-78.1851 79.406-88.7791 94.64-88.7791C112.46-88.7791 126.936-74.3961 127.057-56.5881C127.084-52.6271 131.006-49.8741 134.741-51.1941C137.021-52.0001 139.434-52.4161 141.912-52.4161C153.791-52.4161 163.421-42.7871 163.421-30.9081C163.421-22.0441 158.011-14.1871 149.924-10.9391L154.22-0.2431C166.639-5.2311 174.947-17.2971 174.947-30.9081C174.947-49.1521 160.157-63.9431 141.912-63.9431C138.121-63.9431 134.409-63.3021 130.9-62.0611L132.82-56.6281L138.583-56.6671C138.419-80.8091 118.796-100.306 94.64-100.306C73.988-100.306 56.253-85.9491 51.771-66.0581L57.393-64.7911L58.578-70.4311C56.104-70.9511 53.569-71.2151 51.005-71.2151C30.752-71.2151 14.333-54.7971 14.333-34.5441C14.333-19.1251 23.937-5.5151 38.14-0.1941L42.184-10.9881ZM59.473-7.2371C59.473 12.6399 75.587 28.7529 95.463 28.7529C103.501 28.7529 111.15 26.1049 117.391 21.3039C119.707 19.5219 120.141 16.1989 118.359 13.8819C116.576 11.5649 113.253 11.1319 110.937 12.9139C106.53 16.3029 101.146 18.1679 95.463 18.1679C81.433 18.1679 70.059 6.7929 70.059-7.2371C70.059-10.1601 67.689-12.5301 64.766-12.5301C61.843-12.5301 59.473-10.1601 59.473-7.2371ZM131.454-7.2371C131.454-27.1141 115.34-43.2281 95.463-43.2281C87.244-43.2281 79.433-40.4581 73.122-35.4551C70.831-33.6401 70.446-30.3111 72.262-28.0201C74.078-25.7291 77.407-25.3441 79.697-27.1601C84.154-30.6921 89.652-32.6421 95.463-32.6421C109.494-32.6421 120.868-21.2681 120.868-7.2371C120.868-4.3141 123.238-1.9451 126.161-1.9451C129.084-1.9451 131.454-4.3141 131.454-7.2371ZM52.84-1.0081L75.845-1.0081C79.166-1.0081 80.974-4.8881 78.838-7.4311L67.335-21.1241C65.773-22.9841 62.912-22.9841 61.35-21.1251L49.847-7.4311C47.711-4.8881 49.519-1.0081 52.84-1.0081ZM115.082-13.4671C111.761-13.4671 109.953-9.5871 112.089-7.0441L123.592 6.6499C125.154 8.5089 128.015 8.5089 129.577 6.6499L141.08-7.0441C143.216-9.5871 141.408-13.4671 138.087-13.4671L115.082-13.4671Z"/>
  </g>
  <g id="Light-L" transform="matrix(1 0 0 1 1059.84 1556)">
   <path class="SFSymbolsPreviewWireframe" d="M113.737-8.0721L136.742-8.0721C135.48-8.0721 134.792-9.5471 135.605-10.5141L124.102 3.1799C124.696 2.4729 125.783 2.4729 126.377 3.1799L114.875-10.5141C115.687-9.5471 114.999-8.0721 113.737-8.0721ZM113.737-10.4131C113.01-10.4131 112.615-9.5641 113.082-9.0081L124.585 4.6859C124.926 5.0929 125.553 5.0929 125.894 4.6859L137.397-9.0081C137.864-9.5641 137.469-10.4131 136.742-10.4131L113.737-10.4131ZM51.495-6.4031C52.757-6.4031 53.445-4.9281 52.632-3.9611L64.135-17.6551C63.541-16.9481 62.453-16.9481 61.86-17.6551L73.362-3.9611C72.55-4.9281 73.238-6.4031 74.5-6.4031L51.495-6.4031ZM51.495-4.0621C50.768-4.0621 50.373-4.9101 50.84-5.4671L62.343-19.1611C62.684-19.5671 63.31-19.5671 63.652-19.1611L75.155-5.4671C75.622-4.9101 75.227-4.0621 74.5-4.0621L51.495-4.0621Z"/>
   <path class="monochrome-0 multicolor-0:tintColor hierarchical-0:primary SFSymbolsPreviewWireframe" d="M40.367-9.7281C30.109-13.5721 23.17-23.4051 23.17-34.5441C23.17-49.1741 35.03-61.0341 49.66-61.0341C51.52-61.0341 53.352-60.8431 55.139-60.4671C57.503-59.9711 59.827-61.4641 60.358-63.8201C63.8-79.0911 77.429-90.1241 93.295-90.1241C111.854-90.1241 126.93-75.1441 127.057-56.5971C127.078-53.5611 130.085-51.4501 132.948-52.4621C135.371-53.3181 137.936-53.7611 140.567-53.7611C153.189-53.7611 163.421-43.5291 163.421-30.9081C163.421-21.4901 157.672-13.1421 149.08-9.6911L152.374-1.4911C164.287-6.2761 172.258-17.8501 172.258-30.9081C172.258-48.4101 158.069-62.5981 140.567-62.5981C136.929-62.5981 133.369-61.9831 130.003-60.7931L131.475-56.6281L135.894-56.6581C135.734-80.0601 116.712-98.9611 93.295-98.9611C73.275-98.9611 56.083-85.0431 51.738-65.7631L56.048-64.7911L56.956-69.1151C54.573-69.6161 52.131-69.8711 49.66-69.8711C30.149-69.8711 14.333-54.0541 14.333-34.5441C14.333-19.6911 23.585-6.5791 37.267-1.4531L40.367-9.7281ZM59.363-7.2371C59.363 11.9579 74.924 27.5179 94.118 27.5179C101.881 27.5179 109.266 24.9609 115.293 20.3249C117.069 18.9589 117.401 16.4109 116.035 14.6349C114.668 12.8589 112.121 12.5259 110.345 13.8929C105.724 17.4469 100.075 19.4019 94.118 19.4019C79.406 19.4019 67.479 7.4749 67.479-7.2371C67.479-9.4781 65.662-11.2951 63.421-11.2951C61.18-11.2951 59.363-9.4781 59.363-7.2371ZM128.874-7.2371C128.874-26.4321 113.313-41.9931 94.118-41.9931C86.18-41.9931 78.638-39.3181 72.544-34.4881C70.788-33.0951 70.493-30.5431 71.885-28.7871C73.277-27.0311 75.829-26.7361 77.585-28.1281C82.258-31.8311 88.026-33.8771 94.118-33.8771C108.831-33.8771 120.758-21.9501 120.758-7.2371C120.758-4.9961 122.575-3.1801 124.816-3.1801C127.057-3.1801 128.874-4.9961 128.874-7.2371ZM51.495-1.7211L74.5-1.7211C77.216-1.7211 78.694-4.8931 76.947-6.9721L65.445-20.6661C64.167-22.1871 61.827-22.1871 60.55-20.6661L49.047-6.9721C47.301-4.8931 48.779-1.7211 51.495-1.7211ZM113.737-12.7541C111.021-12.7541 109.543-9.5821 111.29-7.5021L122.792 6.1919C124.07 7.7119 126.409 7.7119 127.687 6.1919L139.19-7.5021C140.936-9.5821 139.458-12.7541 136.742-12.7541L113.737-12.7541Z"/>
  </g>
  <g id="Thin-L" transform="matrix(1 0 0 1 764.472 1556)">
   <path class="SFSymbolsPreviewWireframe" d="M112.392-8.7851L135.397-8.7851C134.74-8.7851 134.382-9.5521 134.805-10.0561L123.302 3.6379C123.611 3.2699 124.178 3.2699 124.487 3.6379L112.984-10.0561C113.407-9.5521 113.049-8.7851 112.392-8.7851ZM112.392-10.4131C111.665-10.4131 111.27-9.5641 111.737-9.0081L123.24 4.6859C123.581 5.0929 124.208 5.0929 124.549 4.6859L136.052-9.0081C136.519-9.5641 136.124-10.4131 135.397-10.4131L112.392-10.4131ZM50.15-5.6901C50.807-5.6901 51.165-4.9221 50.742-4.4191L62.245-18.1131C61.935-17.7451 61.369-17.7451 61.06-18.1131L72.563-4.4191C72.14-4.9221 72.498-5.6901 73.155-5.6901L50.15-5.6901ZM50.15-4.0621C49.423-4.0621 49.028-4.9101 49.495-5.4671L60.998-19.1611C61.339-19.5671 61.965-19.5671 62.307-19.1611L73.81-5.4671C74.277-4.9101 73.882-4.0621 73.155-4.0621L50.15-4.0621Z"/>
   <path class="monochrome-0 multicolor-0:tintColor hierarchical-0:primary SFSymbolsPreviewWireframe" d="M38.55-8.4691C27.771-12.5081 20.48-22.8401 20.48-34.5441C20.48-49.9161 32.942-62.3791 48.315-62.3791C50.268-62.3791 52.193-62.1781 54.071-61.7831C55.715-61.4381 57.332-62.4771 57.701-64.1161C61.28-79.9971 75.452-91.4691 91.95-91.4691C111.248-91.4691 126.925-75.8921 127.057-56.6071C127.071-54.4941 129.163-53.0261 131.155-53.7301C133.721-54.6371 136.437-55.1061 139.222-55.1061C152.586-55.1061 163.421-44.2721 163.421-30.9081C163.421-20.9361 157.334-12.0971 148.236-8.4431L150.528-2.7391C161.935-7.3211 169.568-18.4041 169.568-30.9081C169.568-47.6671 155.981-61.2531 139.222-61.2531C135.737-61.2531 132.328-60.6641 129.106-59.5261L130.13-56.6281L133.204-56.6491C133.049-79.3121 114.627-97.6161 91.95-97.6161C72.563-97.6161 55.912-84.1371 51.704-65.4671L54.703-64.7911L55.335-67.7991C53.042-68.2811 50.693-68.5261 48.315-68.5261C29.547-68.5261 14.333-53.3121 14.333-34.5441C14.333-20.2561 23.233-7.6431 36.393-2.7121L38.55-8.4691ZM59.253-7.2371C59.253 11.2749 74.261 26.2829 92.773 26.2829C100.261 26.2829 107.382 23.8179 113.195 19.3459C114.43 18.3959 114.662 16.6239 113.711 15.3879C112.76 14.1519 110.988 13.9209 109.753 14.8719C104.918 18.5899 99.005 20.6369 92.773 20.6369C77.379 20.6369 64.899 8.1579 64.899-7.2371C64.899-8.7961 63.635-10.0601 62.076-10.0601C60.517-10.0601 59.253-8.7961 59.253-7.2371ZM126.294-7.2371C126.294-25.7501 111.286-40.7581 92.773-40.7581C85.116-40.7581 77.844-38.1791 71.966-33.5201C70.745-32.5511 70.539-30.7761 71.508-29.5541C72.476-28.3321 74.251-28.1271 75.473-29.0961C80.362-32.9711 86.4-35.1121 92.773-35.1121C108.168-35.1121 120.648-22.6321 120.648-7.2371C120.648-5.6781 121.912-4.4151 123.471-4.4151C125.03-4.4151 126.294-5.6781 126.294-7.2371ZM50.15-2.4331L73.155-2.4331C75.265-2.4331 76.414-4.8981 75.057-6.5141L63.554-20.2081C62.561-21.3891 60.743-21.3891 59.751-20.2081L48.248-6.5141C46.89-4.8981 48.039-2.4331 50.15-2.4331ZM112.392-12.0421C110.282-12.0421 109.133-9.5761 110.49-7.9611L121.993 5.7329C122.985 6.9149 124.804 6.9149 125.796 5.7329L137.299-7.9611C138.656-9.5761 137.507-12.0421 135.397-12.0421L112.392-12.0421Z"/>
  </g>
  <g id="Ultralight-L" transform="matrix(1 0 0 1 469.105 1556)">
   <path class="SFSymbolsPreviewWireframe" d="M111.048-9.4971L134.053-9.4971C134.001-9.4971 133.973-9.5581 134.007-9.5971L122.504 4.0969C122.528 4.0679 122.573 4.0679 122.597 4.0969L111.094-9.5971C111.128-9.5581 111.1-9.4971 111.048-9.4971ZM111.048-10.4131C110.321-10.4131 109.926-9.5641 110.393-9.0081L121.896 4.6859C122.237 5.0929 122.864 5.0929 123.205 4.6859L134.708-9.0081C135.175-9.5641 134.78-10.4131 134.053-10.4131L111.048-10.4131ZM48.806-4.9781C48.857-4.9781 48.886-4.9171 48.852-4.8771L60.355-18.5711C60.331-18.5421 60.286-18.5421 60.262-18.5711L71.764-4.8771C71.731-4.9171 71.759-4.9781 71.811-4.9781L48.806-4.9781ZM48.806-4.0621C48.079-4.0621 47.684-4.9101 48.151-5.4671L59.654-19.1611C59.995-19.5671 60.621-19.5671 60.963-19.1611L72.466-5.4671C72.933-4.9101 72.538-4.0621 71.811-4.0621L48.806-4.0621Z"/>
   <path class="monochrome-0 multicolor-0:tintColor hierarchical-0:primary SFSymbolsPreviewWireframe" d="M36.735-7.2101C25.434-11.4441 17.791-22.2741 17.791-34.5441C17.791-50.6591 30.855-63.7231 46.971-63.7231C49.017-63.7231 51.035-63.5131 53.003-63.0991C53.928-62.9051 54.838-63.4891 55.046-64.4111C58.762-80.9021 73.476-92.8131 90.606-92.8131C110.643-92.8131 126.921-76.6401 127.057-56.6161C127.065-55.4271 128.242-54.6011 129.362-54.9971C132.073-55.9551 134.94-56.4511 137.878-56.4511C151.985-56.4511 163.421-45.0151 163.421-30.9081C163.421-20.3821 156.996-11.0521 147.393-7.1951L148.682-3.9861C159.585-8.3661 166.879-18.9581 166.879-30.9081C166.879-46.9241 153.895-59.9091 137.878-59.9091C134.546-59.9091 131.289-59.3461 128.21-58.2581L130.515-56.6391C130.366-78.5641 112.544-96.2711 90.606-96.2711C71.851-96.2711 55.742-83.2321 51.672-65.1711L53.714-66.4831C51.512-66.9461 49.256-67.1811 46.971-67.1811C28.946-67.1811 14.333-52.5691 14.333-34.5441C14.333-20.8211 22.881-8.7081 35.521-3.9721L36.735-7.2101ZM59.144-7.2371C59.144 10.5929 73.599 25.0479 91.429 25.0479C98.643 25.0479 105.499 22.6739 111.098 18.3679C111.793 17.8329 111.923 16.8359 111.388 16.1409C110.853 15.4459 109.857 15.3159 109.161 15.8509C104.113 19.7339 97.936 21.8719 91.429 21.8719C75.353 21.8719 62.32 8.8399 62.32-7.2371C62.32-8.1141 61.609-8.8251 60.732-8.8251C59.855-8.8251 59.144-8.1141 59.144-7.2371ZM123.715-7.2371C123.715-25.0681 109.26-39.5231 91.429-39.5231C84.053-39.5231 77.051-37.0401 71.389-32.5521C70.702-32.0071 70.587-31.0091 71.131-30.3211C71.676-29.6341 72.675-29.5191 73.362-30.0631C78.467-34.1101 84.775-36.3471 91.429-36.3471C107.506-36.3471 120.539-23.3141 120.539-7.2371C120.539-6.3601 121.25-5.6501 122.127-5.6501C123.004-5.6501 123.715-6.3601 123.715-7.2371ZM48.806-3.1461L71.811-3.1461C73.316-3.1461 74.135-4.9041 73.167-6.0561L61.664-19.7501C60.957-20.5921 59.66-20.5921 58.952-19.7501L47.449-6.0561C46.481-4.9041 47.301-3.1461 48.806-3.1461ZM111.048-11.3291C109.543-11.3291 108.724-9.5711 109.692-8.4191L121.194 5.2749C121.902 6.1179 123.199 6.1179 123.907 5.2749L135.409-8.4191C136.377-9.5711 135.558-11.3291 134.053-11.3291L111.048-11.3291Z"/>
  </g>
  <g id="Black-M" transform="matrix(1 0 0 1 2852.79 1126)">
   <path class="SFSymbolsPreviewWireframe" d="M96.453-11.4949L114.287-11.4949C111.029-11.4949 109.255-15.3009 111.351-17.7959L102.434-7.17989C103.966-9.00489 106.774-9.00489 108.306-7.18089L99.389-17.7959C101.485-15.3009 99.711-11.4949 96.453-11.4949ZM96.453-15.9919C95.89-15.9919 95.583-15.3339 95.946-14.9029L104.863-4.28789C105.127-3.97189 105.613-3.97189 105.878-4.28789L114.794-14.9029C115.157-15.3339 114.85-15.9919 114.287-15.9919L96.453-15.9919ZM48.203-15.5659C51.461-15.5659 53.235-11.7599 51.139-9.26489L60.056-19.8809C58.524-18.0559 55.717-18.0559 54.184-19.8799L63.101-9.26489C61.005-11.7599 62.779-15.5659 66.037-15.5659L48.203-15.5659ZM48.203-11.0689C47.64-11.0689 47.334-11.7269 47.696-12.1579L56.613-22.7729C56.878-23.0889 57.363-23.0889 57.628-22.7729L66.545-12.1579C66.907-11.7269 66.6-11.0689 66.037-11.0689L48.203-11.0689Z"/>
   <path class="monochrome-0 multicolor-0:tintColor hierarchical-0:primary SFSymbolsPreviewWireframe" d="M41.354-20.2029C35.363-22.4479 31.309-28.1919 31.309-34.6979C31.309-43.2429 38.236-50.1699 46.781-50.1699C47.872-50.1699 48.944-50.0579 49.988-49.8389C54.529-48.8849 58.994-51.7539 60.014-56.2799C62.164-65.8199 70.688-72.7199 80.607-72.7199C92.21-72.7199 101.637-63.3539 101.716-51.7589C101.756-45.9259 107.532-41.8699 113.033-43.8139C114.371-44.2869 115.789-44.5319 117.252-44.5319C124.24-44.5319 129.905-38.8669 129.905-31.8789C129.905-26.6639 126.721-22.0419 121.964-20.1309L128.292-4.37689C139.429-8.85089 146.881-19.6719 146.881-31.8789C146.881-48.2429 133.616-61.5089 117.252-61.5089C113.855-61.5089 110.524-60.9339 107.375-59.8209L110.204-51.8169L118.692-51.8749C118.549-72.7989 101.543-89.6969 80.607-89.6969C62.708-89.6969 47.338-77.2559 43.452-60.0119L51.733-58.1459L53.478-66.4529C51.289-66.9129 49.047-67.1469 46.781-67.1469C28.86-67.1469 14.333-52.6189 14.333-34.6979C14.333-21.0559 22.83-9.01389 35.398-4.30489L41.354-20.2029ZM49.653-13.5299C49.653 3.91711 63.797 18.0621 81.245 18.0621C88.297 18.0621 95.017 15.7351 100.494 11.5221C103.907 8.89711 104.545 4.00211 101.92 0.590105C99.295-2.82289 94.401-3.46089 90.988-0.835895C88.213 1.29911 84.828 2.47111 81.245 2.47111C72.408 2.47111 65.244-4.69289 65.244-13.5299C65.244-17.8359 61.754-21.3259 57.449-21.3259C53.143-21.3259 49.653-17.8359 49.653-13.5299ZM112.837-13.5299C112.837-30.9779 98.693-45.1219 81.245-45.1219C74.033-45.1219 67.171-42.6889 61.632-38.2989C58.259-35.6239 57.691-30.7209 60.366-27.3469C63.04-23.9729 67.943-23.4059 71.317-26.0809C74.125-28.3059 77.581-29.5319 81.245-29.5319C90.082-29.5319 97.246-22.3679 97.246-13.5299C97.246-9.22489 100.737-5.73489 105.042-5.73489C109.347-5.73489 112.837-9.22489 112.837-13.5299ZM48.203-6.57089L66.037-6.57089C70.422-6.57089 72.809-11.6929 69.988-15.0509L61.071-25.6659C59.009-28.1209 55.231-28.1209 53.169-25.6659L44.252-15.0499C41.432-11.6929 43.819-6.57089 48.203-6.57089ZM96.453-20.4899C92.069-20.4899 89.682-15.3669 92.502-12.0099L101.419-1.39489C103.481 1.06011 107.259 1.06011 109.321-1.39489L118.238-12.0099C121.058-15.3669 118.671-20.4899 114.287-20.4899L96.453-20.4899Z"/>
  </g>
  <g id="Heavy-M" transform="matrix(1 0 0 1 2556.89 1126)">
   <path class="SFSymbolsPreviewWireframe" d="M95.649-11.9209L113.483-11.9209C110.587-11.9209 109.01-15.3039 110.873-17.5219L101.956-6.90589C103.318-8.52789 105.814-8.52789 107.176-6.90589L98.259-17.5219C100.122-15.3039 98.545-11.9209 95.649-11.9209ZM95.649-15.9919C95.086-15.9919 94.779-15.3339 95.142-14.9029L104.059-4.28789C104.323-3.97189 104.809-3.97189 105.074-4.28789L113.99-14.9029C114.353-15.3339 114.046-15.9919 113.483-15.9919L95.649-15.9919ZM47.399-15.1399C50.295-15.1399 51.872-11.7569 50.009-9.53889L58.926-20.1549C57.564-18.5329 55.069-18.5329 53.706-20.1539L62.623-9.53889C60.76-11.7569 62.337-15.1399 65.233-15.1399L47.399-15.1399ZM47.399-11.0689C46.836-11.0689 46.53-11.7269 46.892-12.1579L55.809-22.7729C56.074-23.0889 56.559-23.0889 56.824-22.7729L65.741-12.1579C66.103-11.7269 65.796-11.0689 65.233-11.0689L47.399-11.0689Z"/>
   <path class="monochrome-0 multicolor-0:tintColor hierarchical-0:primary SFSymbolsPreviewWireframe" d="M40.268-19.4499C33.965-21.8109 29.701-27.8539 29.701-34.6979C29.701-43.6869 36.988-50.9739 45.977-50.9739C47.124-50.9739 48.251-50.8569 49.349-50.6259C53.46-49.7619 57.502-52.3589 58.425-56.4569C60.658-66.3619 69.506-73.5249 79.803-73.5249C91.848-73.5249 101.634-63.8019 101.716-51.7649C101.752-46.4839 106.982-42.8119 111.961-44.5719C113.385-45.0759 114.893-45.3359 116.448-45.3359C123.88-45.3359 129.905-39.3109 129.905-31.8789C129.905-26.3329 126.519-21.4169 121.459-19.3839L127.188-5.12389C138.023-9.47589 145.273-20.0039 145.273-31.8789C145.273-47.7989 132.368-60.7049 116.448-60.7049C113.142-60.7049 109.902-60.1449 106.839-59.0619L109.4-51.8169L117.084-51.8699C116.944-72.3519 100.296-88.8929 79.803-88.8929C62.282-88.8929 47.237-76.7139 43.433-59.8349L50.929-58.1459L52.509-65.6659C50.374-66.1149 48.188-66.3419 45.977-66.3419C28.5-66.3419 14.333-52.1749 14.333-34.6979C14.333-21.3939 22.62-9.64989 34.876-5.05789L40.268-19.4499ZM49.588-13.5299C49.588 3.51011 63.401 17.3231 80.441 17.3231C87.329 17.3231 93.89 15.0511 99.24 10.9361C102.329 8.56011 102.907 4.12911 100.531 1.04011C98.155-2.04889 93.724-2.62689 90.635-0.250895C87.731 1.98311 84.189 3.20911 80.441 3.20911C71.196 3.20911 63.701-4.28489 63.701-13.5299C63.701-17.4279 60.542-20.5869 56.645-20.5869C52.747-20.5869 49.588-17.4279 49.588-13.5299ZM111.295-13.5299C111.295-30.5699 97.481-44.3839 80.441-44.3839C73.397-44.3839 66.697-42.0079 61.287-37.7199C58.233-35.2989 57.72-30.8599 60.141-27.8059C62.562-24.7519 67-24.2379 70.054-26.6589C72.991-28.9869 76.609-30.2699 80.441-30.2699C89.686-30.2699 97.181-22.7759 97.181-13.5299C97.181-9.63289 100.34-6.47389 104.238-6.47389C108.135-6.47389 111.295-9.63289 111.295-13.5299ZM47.399-6.99689L65.233-6.99689C69.256-6.99689 71.446-11.6969 68.858-14.7769L59.941-25.3919C58.049-27.6439 54.583-27.6439 52.691-25.3919L43.774-14.7759C41.187-11.6969 43.377-6.99689 47.399-6.99689ZM95.649-20.0639C91.627-20.0639 89.437-15.3639 92.024-12.2839L100.941-1.66889C102.833 0.583105 106.299 0.583105 108.191-1.66889L117.108-12.2849C119.695-15.3639 117.505-20.0639 113.483-20.0639L95.649-20.0639Z"/>
  </g>
  <g id="Bold-M" transform="matrix(1 0 0 1 2260.98 1126)">
   <path class="SFSymbolsPreviewWireframe" d="M94.845-12.3469L112.679-12.3469C110.145-12.3469 108.765-15.3069 110.395-17.2479L101.478-6.63189C102.67-8.05089 104.854-8.05089 106.046-6.63189L97.129-17.2479C98.759-15.3069 97.379-12.3469 94.845-12.3469ZM94.845-15.9919C94.282-15.9919 93.975-15.3339 94.338-14.9029L103.255-4.28789C103.519-3.97189 104.005-3.97189 104.27-4.28789L113.186-14.9029C113.549-15.3339 113.242-15.9919 112.679-15.9919L94.845-15.9919ZM46.595-14.7139C49.129-14.7139 50.509-11.7529 48.879-9.81289L57.796-20.4289C56.604-19.0099 54.421-19.0099 53.229-20.4289L62.145-9.81289C60.515-11.7529 61.895-14.7139 64.429-14.7139L46.595-14.7139ZM46.595-11.0689C46.032-11.0689 45.726-11.7269 46.088-12.1579L55.005-22.7729C55.27-23.0889 55.755-23.0889 56.02-22.7729L64.937-12.1579C65.299-11.7269 64.992-11.0689 64.429-11.0689L46.595-11.0689Z"/>
   <path class="monochrome-0 multicolor-0:tintColor hierarchical-0:primary SFSymbolsPreviewWireframe" d="M39.182-18.6969C32.568-21.1749 28.093-27.5159 28.093-34.6979C28.093-44.1309 35.74-51.7779 45.173-51.7779C46.376-51.7779 47.558-51.6549 48.711-51.4129C52.391-50.6399 56.01-52.9649 56.837-56.6329C59.151-66.9029 68.324-74.3289 78.999-74.3289C91.486-74.3289 101.631-64.2489 101.716-51.7699C101.748-47.0419 106.431-43.7549 110.889-45.3309C112.399-45.8639 113.997-46.1409 115.644-46.1409C123.52-46.1409 129.905-39.7559 129.905-31.8789C129.905-26.0019 126.317-20.7919 120.955-18.6379L126.084-5.86989C136.618-10.1009 143.665-20.3349 143.665-31.8789C143.665-47.3549 131.119-59.9009 115.644-59.9009C112.43-59.9009 109.281-59.3569 106.303-58.3039L108.596-51.8169L115.476-51.8639C115.339-71.9049 99.05-88.0889 78.999-88.0889C61.856-88.0889 47.135-76.1719 43.413-59.6579L50.125-58.1459L51.54-64.8789C49.459-65.3159 47.328-65.5379 45.173-65.5379C28.141-65.5379 14.333-51.7309 14.333-34.6979C14.333-21.7319 22.41-10.2869 34.354-5.81089L39.182-18.6969ZM49.522-13.5299C49.522 3.10211 63.005 16.5851 79.637 16.5851C86.361 16.5851 92.764 14.3681 97.986 10.3511C100.752 8.22311 101.269 4.25611 99.142 1.49011C97.014-1.27589 93.047-1.79289 90.281 0.335105C87.249 2.66711 83.549 3.94811 79.637 3.94811C69.984 3.94811 62.159-3.87789 62.159-13.5299C62.159-17.0199 59.33-19.8489 55.841-19.8489C52.351-19.8489 49.522-17.0199 49.522-13.5299ZM109.752-13.5299C109.752-30.1629 96.269-43.6449 79.637-43.6449C72.761-43.6449 66.222-41.3259 60.942-37.1409C58.207-34.9729 57.748-30.9989 59.915-28.2649C62.083-25.5299 66.057-25.0699 68.792-27.2379C71.858-29.6679 75.637-31.0089 79.637-31.0089C89.29-31.0089 97.115-23.1829 97.115-13.5299C97.115-10.0409 99.944-7.21189 103.434-7.21189C106.923-7.21189 109.752-10.0409 109.752-13.5299ZM46.595-7.42289L64.429-7.42289C68.09-7.42289 70.082-11.6999 67.728-14.5029L58.811-25.1179C57.089-27.1669 53.935-27.1669 52.214-25.1179L43.297-14.5019C40.942-11.6999 42.935-7.42289 46.595-7.42289ZM94.845-19.6369C91.185-19.6369 89.192-15.3609 91.547-12.5579L100.463-1.94289C102.185 0.106105 105.339 0.106105 107.061-1.94289L115.978-12.5589C118.332-15.3609 116.339-19.6369 112.679-19.6369L94.845-19.6369Z"/>
  </g>
  <g id="Semibold-M" transform="matrix(1 0 0 1 1965.07 1126)">
   <path class="SFSymbolsPreviewWireframe" d="M94.041-12.7729L111.875-12.7729C109.703-12.7729 108.52-15.3109 109.918-16.9739L101.001-6.35789C102.022-7.57389 103.894-7.57389 104.915-6.35789L95.999-16.9739C97.396-15.3109 96.213-12.7729 94.041-12.7729ZM94.041-15.9919C93.478-15.9919 93.171-15.3339 93.534-14.9029L102.451-4.28789C102.715-3.97189 103.201-3.97189 103.466-4.28789L112.382-14.9029C112.745-15.3339 112.438-15.9919 111.875-15.9919L94.041-15.9919ZM45.791-14.2879C47.963-14.2879 49.146-11.7499 47.749-10.0869L56.666-20.7029C55.644-19.4859 53.773-19.4859 52.751-20.7029L61.668-10.0869C60.271-11.7499 61.453-14.2879 63.625-14.2879L45.791-14.2879ZM45.791-11.0689C45.228-11.0689 44.922-11.7269 45.284-12.1579L54.201-22.7729C54.466-23.0889 54.951-23.0889 55.216-22.7729L64.133-12.1579C64.495-11.7269 64.188-11.0689 63.625-11.0689L45.791-11.0689Z"/>
   <path class="monochrome-0 multicolor-0:tintColor hierarchical-0:primary SFSymbolsPreviewWireframe" d="M38.096-17.9439C31.17-20.5389 26.485-27.1779 26.485-34.6979C26.485-44.5749 34.492-52.5819 44.369-52.5819C45.627-52.5819 46.866-52.4529 48.072-52.1999C51.322-51.5169 54.518-53.5699 55.248-56.8099C57.645-67.4449 67.142-75.1329 78.195-75.1329C91.124-75.1329 101.628-64.6969 101.716-51.7759C101.745-47.5999 105.88-44.6969 109.817-46.0889C111.412-46.6529 113.102-46.9449 114.84-46.9449C123.16-46.9449 129.905-40.1999 129.905-31.8789C129.905-25.6709 126.115-20.1669 120.451-17.8919L124.98-6.61589C135.212-10.7259 142.057-20.6659 142.057-31.8789C142.057-46.9109 129.871-59.0959 114.84-59.0959C111.717-59.0959 108.659-58.5679 105.767-57.5459L107.792-51.8169L113.868-51.8589C113.734-71.4569 97.804-87.2849 78.195-87.2849C61.43-87.2849 47.033-75.6309 43.394-59.4819L49.321-58.1459L50.57-64.0919C48.544-64.5179 46.468-64.7339 44.369-64.7339C27.781-64.7339 14.333-51.2869 14.333-34.6979C14.333-22.0699 22.199-10.9229 33.832-6.56389L38.096-17.9439ZM49.457-13.5299C49.457 2.69411 62.609 15.8461 78.833 15.8461C85.392 15.8461 91.638 13.6841 96.731 9.76611C99.174 7.88711 99.631 4.38311 97.752 1.94111C95.873-0.501895 92.37-0.958895 89.927 0.920105C86.768 3.35011 82.909 4.68611 78.833 4.68611C68.772 4.68611 60.616-3.46989 60.616-13.5299C60.616-16.6119 58.118-19.1099 55.037-19.1099C51.955-19.1099 49.457-16.6119 49.457-13.5299ZM108.21-13.5299C108.21-29.7549 95.057-42.9069 78.833-42.9069C72.125-42.9069 65.748-40.6449 60.597-36.5619C58.182-34.6479 57.776-31.1389 59.69-28.7229C61.604-26.3079 65.114-25.9029 67.529-27.8169C70.725-30.3499 74.665-31.7469 78.833-31.7469C88.894-31.7469 97.05-23.5909 97.05-13.5299C97.05-10.4489 99.548-7.95089 102.63-7.95089C105.712-7.95089 108.21-10.4489 108.21-13.5299ZM45.791-7.84989L63.625-7.84989C66.924-7.84989 68.719-11.7029 66.597-14.2289L57.681-24.8439C56.129-26.6909 53.287-26.6909 51.736-24.8439L42.819-14.2279C40.697-11.7029 42.493-7.84989 45.791-7.84989ZM94.041-19.2109C90.743-19.2109 88.947-15.3579 91.069-12.8319L99.986-2.21689C101.537-0.369895 104.379-0.369895 105.93-2.21689L114.847-12.8329C116.969-15.3579 115.173-19.2109 111.875-19.2109L94.041-19.2109Z"/>
  </g>
  <g id="Medium-M" transform="matrix(1 0 0 1 1669.16 1126)">
   <path class="SFSymbolsPreviewWireframe" d="M93.237-13.1989L111.071-13.1989C109.261-13.1989 108.275-15.3139 109.44-16.6999L100.523-6.08389C101.374-7.09789 102.934-7.09789 103.785-6.08389L94.868-16.6999C96.033-15.3139 95.047-13.1989 93.237-13.1989ZM93.237-15.9919C92.674-15.9919 92.367-15.3339 92.73-14.9029L101.647-4.28789C101.911-3.97189 102.397-3.97189 102.662-4.28789L111.578-14.9029C111.941-15.3339 111.634-15.9919 111.071-15.9919L93.237-15.9919ZM44.987-13.8619C46.797-13.8619 47.783-11.7469 46.618-10.3609L55.535-20.9769C54.684-19.9629 53.124-19.9629 52.273-20.9769L61.19-10.3609C60.026-11.7469 61.011-13.8619 62.821-13.8619L44.987-13.8619ZM44.987-11.0689C44.424-11.0689 44.118-11.7269 44.48-12.1579L53.397-22.7729C53.662-23.0889 54.147-23.0889 54.412-22.7729L63.329-12.1579C63.691-11.7269 63.384-11.0689 62.821-11.0689L44.987-11.0689Z"/>
   <path class="monochrome-0 multicolor-0:tintColor hierarchical-0:primary SFSymbolsPreviewWireframe" d="M37.009-17.1909C29.772-19.9019 24.877-26.8399 24.877-34.6979C24.877-45.0189 33.244-53.3869 43.565-53.3869C44.879-53.3869 46.173-53.2519 47.433-52.9869C50.253-52.3939 53.026-54.1759 53.66-56.9869C56.139-67.9869 65.96-75.9369 77.391-75.9369C90.762-75.9369 101.625-65.1439 101.716-51.7809C101.741-48.1579 105.329-45.6399 108.745-46.8469C110.426-47.4409 112.206-47.7489 114.036-47.7489C122.8-47.7489 129.905-40.6439 129.905-31.8789C129.905-25.3389 125.913-19.5429 119.947-17.1459L123.877-7.36189C133.806-11.3499 140.449-20.9969 140.449-31.8789C140.449-46.4669 128.623-58.2919 114.036-58.2919C111.005-58.2919 108.037-57.7799 105.231-56.7879L106.988-51.8169L112.26-51.8529C112.129-71.0099 96.558-86.4809 77.391-86.4809C61.004-86.4809 46.931-75.0889 43.374-59.3049L48.517-58.1459L49.601-63.3049C47.629-63.7189 45.609-63.9299 43.565-63.9299C27.421-63.9299 14.333-50.8419 14.333-34.6979C14.333-22.4079 21.989-11.5589 33.31-7.31689L37.009-17.1909ZM49.391-13.5299C49.391 2.28611 62.213 15.1081 78.029 15.1081C84.424 15.1081 90.511 13.0001 95.477 9.18011C97.597 7.55011 97.993 4.51011 96.363 2.39111C94.733 0.272105 91.693-0.124895 89.574 1.50511C86.286 4.03411 82.27 5.42511 78.029 5.42511C67.56 5.42511 59.074-3.06189 59.074-13.5299C59.074-16.2039 56.906-18.3719 54.233-18.3719C51.559-18.3719 49.391-16.2039 49.391-13.5299ZM106.667-13.5299C106.667-29.3469 93.846-42.1679 78.029-42.1679C71.489-42.1679 65.273-39.9639 60.251-35.9839C58.156-34.3229 57.804-31.2779 59.465-29.1819C61.126-27.0869 64.171-26.7349 66.266-28.3959C69.591-31.0309 73.693-32.4859 78.029-32.4859C88.498-32.4859 96.984-23.9989 96.984-13.5299C96.984-10.8569 99.152-8.68889 101.826-8.68889C104.5-8.68889 106.667-10.8569 106.667-13.5299ZM44.987-8.27589L62.821-8.27589C65.758-8.27589 67.356-11.7059 65.467-13.9539L56.55-24.5699C55.169-26.2139 52.639-26.2139 51.258-24.5699L42.341-13.9539C40.452-11.7059 42.051-8.27589 44.987-8.27589ZM93.237-18.7849C90.301-18.7849 88.702-15.3549 90.591-13.1059L99.508-2.49089C100.889-0.846895 103.419-0.846895 104.8-2.49089L113.717-13.1069C115.606-15.3549 114.007-18.7849 111.071-18.7849L93.237-18.7849Z"/>
  </g>
  <g id="Regular-M" transform="matrix(1 0 0 1 1373.26 1126)">
   <path class="SFSymbolsPreviewWireframe" d="M92.433-13.6249L110.267-13.6249C108.819-13.6249 108.03-15.3169 108.962-16.4259L100.045-5.80989C100.726-6.62089 101.974-6.62089 102.655-5.80989L93.738-16.4259C94.67-15.3169 93.881-13.6249 92.433-13.6249ZM92.433-15.9919C91.87-15.9919 91.563-15.3339 91.926-14.9029L100.843-4.28789C101.107-3.97189 101.593-3.97189 101.858-4.28789L110.774-14.9029C111.137-15.3339 110.83-15.9919 110.267-15.9919L92.433-15.9919ZM44.183-13.4359C45.631-13.4359 46.42-11.7439 45.488-10.6349L54.405-21.2509C53.724-20.4399 52.476-20.4399 51.795-21.2509L60.712-10.6349C59.781-11.7439 60.569-13.4359 62.017-13.4359L44.183-13.4359ZM44.183-11.0689C43.62-11.0689 43.314-11.7269 43.676-12.1579L52.593-22.7729C52.858-23.0889 53.343-23.0889 53.608-22.7729L62.525-12.1579C62.887-11.7269 62.58-11.0689 62.017-11.0689L44.183-11.0689Z"/>
   <path class="monochrome-0 multicolor-0:tintColor hierarchical-0:primary SFSymbolsPreviewWireframe" d="M35.923-16.4379C28.375-19.2659 23.269-26.5019 23.269-34.6979C23.269-45.4639 31.996-54.1909 42.761-54.1909C44.131-54.1909 45.48-54.0499 46.795-53.7739C49.184-53.2719 51.535-54.7819 52.071-57.1639C54.633-68.5289 64.778-76.7409 76.587-76.7409C90.4-76.7409 101.622-65.5909 101.716-51.7869C101.737-48.7169 104.778-46.5819 107.673-47.6049C109.44-48.2299 111.311-48.5529 113.232-48.5529C122.44-48.5529 129.905-41.0879 129.905-31.8789C129.905-25.0079 125.711-18.9179 119.442-16.3999L122.773-8.10789C132.4-11.9749 138.841-21.3279 138.841-31.8789C138.841-46.0229 127.375-57.4879 113.232-57.4879C110.293-57.4879 107.415-56.9909 104.695-56.0299L106.184-51.8169L110.651-51.8479C110.524-70.5619 95.312-85.6759 76.587-85.6759C60.578-85.6759 46.83-74.5469 43.355-59.1279L47.713-58.1459L48.632-62.5179C46.714-62.9209 44.749-63.1259 42.761-63.1259C27.061-63.1259 14.333-50.3979 14.333-34.6979C14.333-22.7459 21.778-12.1959 32.788-8.06989L35.923-16.4379ZM49.326-13.5299C49.326 1.87811 61.817 14.3691 77.225 14.3691C83.456 14.3691 89.385 12.3161 94.223 8.59511C96.019 7.21311 96.355 4.63711 94.973 2.84111C93.592 1.04511 91.016 0.709105 89.22 2.09111C85.804 4.71811 81.63 6.16311 77.225 6.16311C66.349 6.16311 57.531-2.65389 57.531-13.5299C57.531-15.7959 55.695-17.6329 53.429-17.6329C51.163-17.6329 49.326-15.7959 49.326-13.5299ZM105.125-13.5299C105.125-28.9389 92.634-41.4299 77.225-41.4299C70.853-41.4299 64.798-39.2829 59.906-35.4049C58.13-33.9969 57.832-31.4169 59.24-29.6409C60.647-27.8649 63.228-27.5669 65.003-28.9739C68.458-31.7119 72.72-33.2239 77.225-33.2239C88.102-33.2239 96.919-24.4069 96.919-13.5299C96.919-11.2649 98.756-9.42789 101.022-9.42789C103.288-9.42789 105.125-11.2649 105.125-13.5299ZM44.183-8.70189L62.017-8.70189C64.592-8.70189 65.993-11.7089 64.337-13.6799L55.42-24.2959C54.209-25.7369 51.991-25.7369 50.78-24.2959L41.863-13.6799C40.207-11.7089 41.609-8.70189 44.183-8.70189ZM92.433-18.3589C89.859-18.3589 88.457-15.3519 90.113-13.3809L99.03-2.76489C100.241-1.32389 102.459-1.32389 103.67-2.76489L112.587-13.3809C114.243-15.3519 112.841-18.3589 110.267-18.3589L92.433-18.3589Z"/>
  </g>
  <g id="Light-M" transform="matrix(1 0 0 1 1077.59 1126)">
   <path class="SFSymbolsPreviewWireframe" d="M91.39-14.1769L109.224-14.1769C108.245-14.1769 107.712-15.3209 108.342-16.0699L99.425-5.45489C99.885-6.00289 100.729-6.00289 101.189-5.45489L92.272-16.0699C92.902-15.3209 92.369-14.1769 91.39-14.1769ZM91.39-15.9919C90.827-15.9919 90.52-15.3339 90.883-14.9029L99.8-4.28789C100.064-3.97189 100.55-3.97189 100.815-4.28789L109.731-14.9029C110.094-15.3339 109.787-15.9919 109.224-15.9919L91.39-15.9919ZM43.14-12.8829C44.119-12.8829 44.652-11.7399 44.022-10.9899L52.939-21.6059C52.479-21.0579 51.636-21.0579 51.175-21.6059L60.092-10.9909C59.463-11.7399 59.995-12.8829 60.974-12.8829L43.14-12.8829ZM43.14-11.0689C42.577-11.0689 42.271-11.7269 42.633-12.1579L51.55-22.7729C51.815-23.0889 52.3-23.0889 52.565-22.7729L61.482-12.1579C61.844-11.7269 61.537-11.0689 60.974-11.0689L43.14-11.0689Z"/>
   <path class="monochrome-0 multicolor-0:tintColor hierarchical-0:primary SFSymbolsPreviewWireframe" d="M34.514-15.4609C26.562-18.4409 21.183-26.0629 21.183-34.6979C21.183-46.0389 30.377-55.2329 41.718-55.2329C43.16-55.2329 44.581-55.0849 45.966-54.7939C47.798-54.4089 49.6-55.5669 50.011-57.3929C52.679-69.2309 63.245-77.7839 75.544-77.7839C89.931-77.7839 101.618-66.1709 101.716-51.7939C101.732-49.4399 104.063-47.8039 106.282-48.5879C108.161-49.2519 110.149-49.5949 112.189-49.5949C121.973-49.5949 129.905-41.6639 129.905-31.8789C129.905-24.5789 125.449-18.1079 118.788-15.4319L121.341-9.07589C130.576-12.7849 136.755-21.7579 136.755-31.8789C136.755-45.4469 125.756-56.4459 112.189-56.4459C109.368-56.4459 106.609-55.9689 103.999-55.0469L105.141-51.8169L108.566-51.8409C108.442-69.9819 93.696-84.6339 75.544-84.6339C60.025-84.6339 46.697-73.8449 43.329-58.8989L46.67-58.1459L47.374-61.4979C45.527-61.8859 43.634-62.0829 41.718-62.0829C26.594-62.0829 14.333-49.8229 14.333-34.6979C14.333-23.1839 21.505-13.0199 32.111-9.04689L34.514-15.4609ZM49.24-13.5299C49.24 1.34911 61.302 13.4121 76.182 13.4121C82.2 13.4121 87.924 11.4301 92.596 7.83611C93.973 6.77711 94.231 4.80211 93.172 3.42511C92.112 2.04811 90.137 1.79011 88.761 2.84911C85.179 5.60511 80.8 7.12111 76.182 7.12111C64.777 7.12111 55.531-2.12489 55.531-13.5299C55.531-15.2679 54.123-16.6759 52.386-16.6759C50.648-16.6759 49.24-15.2679 49.24-13.5299ZM103.124-13.5299C103.124-28.4099 91.062-40.4729 76.182-40.4729C70.028-40.4729 64.182-38.3989 59.458-34.6549C58.096-33.5759 57.868-31.5969 58.947-30.2359C60.026-28.8739 62.004-28.6449 63.366-29.7249C66.988-32.5959 71.46-34.1819 76.182-34.1819C87.588-34.1819 96.833-24.9359 96.833-13.5299C96.833-11.7929 98.242-10.3849 99.979-10.3849C101.716-10.3849 103.124-11.7929 103.124-13.5299ZM43.14-9.25389L60.974-9.25389C63.079-9.25389 64.225-11.7129 62.871-13.3249L53.954-23.9399C52.964-25.1189 51.15-25.1189 50.16-23.9409L41.243-13.3249C39.889-11.7129 41.035-9.25389 43.14-9.25389ZM91.39-17.8069C89.285-17.8069 88.139-15.3479 89.493-13.7359L98.41-3.11989C99.4-1.94189 101.214-1.94189 102.204-3.11989L111.121-13.7359C112.475-15.3479 111.329-17.8069 109.224-17.8069L91.39-17.8069Z"/>
  </g>
  <g id="Thin-M" transform="matrix(1 0 0 1 781.92 1126)">
   <path class="SFSymbolsPreviewWireframe" d="M90.348-14.7299L108.182-14.7299C107.672-14.7299 107.395-15.3249 107.723-15.7149L98.806-5.09989C99.046-5.38489 99.484-5.38489 99.724-5.09989L90.807-15.7149C91.135-15.3249 90.858-14.7299 90.348-14.7299ZM90.348-15.9919C89.785-15.9919 89.478-15.3339 89.841-14.9029L98.758-4.28789C99.022-3.97189 99.508-3.97189 99.773-4.28789L108.689-14.9029C109.052-15.3339 108.745-15.9919 108.182-15.9919L90.348-15.9919ZM42.098-12.3309C42.608-12.3309 42.885-11.7359 42.557-11.3459L51.474-21.9609C51.235-21.6759 50.796-21.6759 50.556-21.9609L59.473-11.3459C59.145-11.7359 59.423-12.3309 59.932-12.3309L42.098-12.3309ZM42.098-11.0689C41.535-11.0689 41.229-11.7269 41.591-12.1579L50.508-22.7729C50.773-23.0889 51.258-23.0889 51.523-22.7729L60.44-12.1579C60.802-11.7269 60.495-11.0689 59.932-11.0689L42.098-11.0689Z"/>
   <path class="monochrome-0 multicolor-0:tintColor hierarchical-0:primary SFSymbolsPreviewWireframe" d="M33.107-14.4849C24.75-17.6159 19.099-25.6249 19.099-34.6979C19.099-46.6149 28.759-56.2759 40.676-56.2759C42.19-56.2759 43.683-56.1199 45.138-55.8139C46.413-55.5459 47.666-56.3519 47.953-57.6219C50.727-69.9329 61.713-78.8259 74.502-78.8259C89.462-78.8259 101.614-66.7509 101.716-51.8009C101.727-50.1639 103.349-49.0249 104.893-49.5709C106.883-50.2739 108.988-50.6379 111.147-50.6379C121.507-50.6379 129.905-42.2389 129.905-31.8789C129.905-24.1499 125.187-17.2979 118.135-14.4649L119.911-10.0429C128.754-13.5949 134.671-22.1869 134.671-31.8789C134.671-44.8709 124.139-55.4029 111.147-55.4029C108.445-55.4029 105.803-54.9469 103.305-54.0639L104.099-51.8169L106.482-51.8339C106.362-69.4019 92.081-83.5909 74.502-83.5909C59.473-83.5909 46.565-73.1429 43.304-58.6699L45.628-58.1459L46.118-60.4779C44.341-60.8509 42.52-61.0409 40.676-61.0409C26.127-61.0409 14.333-49.2469 14.333-34.6979C14.333-23.6219 21.233-13.8449 31.435-10.0229L33.107-14.4849ZM49.155-13.5299C49.155 0.821105 60.789 12.4541 75.14 12.4541C80.945 12.4541 86.465 10.5431 90.971 7.07711C91.928 6.34011 92.108 4.96611 91.371 4.00911C90.634 3.05111 89.26 2.87111 88.302 3.60811C84.555 6.49111 79.971 8.07811 75.14 8.07811C63.206 8.07811 53.532-1.59589 53.532-13.5299C53.532-14.7389 52.552-15.7189 51.344-15.7189C50.135-15.7189 49.155-14.7389 49.155-13.5299ZM101.125-13.5299C101.125-27.8819 89.491-39.5149 75.14-39.5149C69.204-39.5149 63.567-37.5159 59.011-33.9039C58.064-33.1539 57.904-31.7769 58.655-30.8299C59.406-29.8829 60.782-29.7239 61.729-30.4749C65.519-33.4789 70.2-35.1389 75.14-35.1389C87.074-35.1389 96.749-25.4639 96.749-13.5299C96.749-12.3219 97.728-11.3419 98.937-11.3419C100.145-11.3419 101.125-12.3219 101.125-13.5299ZM42.098-9.80589L59.932-9.80589C61.568-9.80589 62.459-11.7169 61.406-12.9699L52.489-23.5849C51.72-24.5009 50.31-24.5009 49.541-23.5849L40.624-12.9699C39.572-11.7169 40.463-9.80589 42.098-9.80589ZM90.348-17.2549C88.712-17.2549 87.822-15.3439 88.874-14.0909L97.791-3.47589C98.56-2.55989 99.97-2.55989 100.739-3.47589L109.656-14.0909C110.708-15.3439 109.818-17.2549 108.182-17.2549L90.348-17.2549Z"/>
  </g>
  <g id="Ultralight-M" transform="matrix(1 0 0 1 486.252 1126)">
   <path class="SFSymbolsPreviewWireframe" d="M89.305-15.2819L107.139-15.2819C107.099-15.2819 107.077-15.3289 107.103-15.3599L98.186-4.74389C98.205-4.76689 98.239-4.76689 98.258-4.74389L89.341-15.3599C89.367-15.3289 89.345-15.2819 89.305-15.2819ZM89.305-15.9919C88.742-15.9919 88.435-15.3339 88.798-14.9029L97.715-4.28789C97.979-3.97189 98.465-3.97189 98.73-4.28789L107.646-14.9029C108.009-15.3339 107.702-15.9919 107.139-15.9919L89.305-15.9919ZM41.055-11.7789C41.096-11.7789 41.117-11.7319 41.092-11.7009L50.008-22.3159C49.99-22.2939 49.955-22.2939 49.936-22.3159L58.853-11.7009C58.827-11.7319 58.849-11.7789 58.889-11.7789L41.055-11.7789ZM41.055-11.0689C40.492-11.0689 40.186-11.7269 40.548-12.1579L49.465-22.7729C49.73-23.0889 50.215-23.0889 50.48-22.7729L59.397-12.1579C59.759-11.7269 59.452-11.0689 58.889-11.0689L41.055-11.0689Z"/>
   <path class="monochrome-0 multicolor-0:tintColor hierarchical-0:primary SFSymbolsPreviewWireframe" d="M31.698-13.5089C22.938-16.7909 17.013-25.1869 17.013-34.6979C17.013-47.1909 27.141-57.3179 39.633-57.3179C41.219-57.3179 42.784-57.1549 44.31-56.8339C45.027-56.6839 45.732-57.1369 45.893-57.8509C48.774-70.6349 60.18-79.8689 73.459-79.8689C88.992-79.8689 101.61-67.3309 101.716-51.8079C101.722-50.8869 102.634-50.2469 103.503-50.5539C105.603-51.2959 107.826-51.6799 110.104-51.6799C121.039-51.6799 129.905-42.8149 129.905-31.8789C129.905-23.7199 124.924-16.4879 117.48-13.4979L118.479-11.0099C126.931-14.4049 132.585-22.6159 132.585-31.8789C132.585-44.2959 122.52-54.3609 110.104-54.3609C107.521-54.3609 104.996-53.9249 102.609-53.0809L104.396-51.8269C104.28-68.8229 90.465-82.5489 73.459-82.5489C58.92-82.5489 46.433-72.4409 43.278-58.4409L44.861-59.4579C43.154-59.8159 41.405-59.9989 39.633-59.9989C25.66-59.9989 14.333-48.6709 14.333-34.6979C14.333-24.0599 20.959-14.6699 30.757-10.9989L31.698-13.5089ZM49.07-13.5299C49.07 0.292105 60.275 11.4971 74.097 11.4971C79.689 11.4971 85.004 9.65711 89.344 6.31811C89.883 5.90411 89.983 5.13111 89.569 4.59211C89.155 4.05311 88.382 3.95311 87.843 4.36711C83.93 7.37711 79.141 9.03511 74.097 9.03511C61.634 9.03511 51.531-1.06789 51.531-13.5299C51.531-14.2099 50.98-14.7609 50.301-14.7609C49.621-14.7609 49.07-14.2099 49.07-13.5299ZM99.125-13.5299C99.125-27.3529 87.92-38.5579 74.097-38.5579C68.379-38.5579 62.951-36.6329 58.562-33.1539C58.03-32.7319 57.94-31.9579 58.362-31.4249C58.785-30.8919 59.559-30.8029 60.091-31.2249C64.049-34.3619 68.939-36.0959 74.097-36.0959C86.56-36.0959 96.663-25.9929 96.663-13.5299C96.663-12.8509 97.214-12.2999 97.894-12.2999C98.574-12.2999 99.125-12.8509 99.125-13.5299ZM41.055-10.3589L58.889-10.3589C60.056-10.3589 60.691-11.7209 59.94-12.6149L51.024-23.2299C50.475-23.8829 49.47-23.8829 48.921-23.2299L40.004-12.6149C39.254-11.7209 39.889-10.3589 41.055-10.3589ZM89.305-16.7019C88.139-16.7019 87.504-15.3399 88.254-14.4459L97.171-3.83089C97.719-3.17789 98.725-3.17789 99.273-3.83089L108.19-14.4459C108.941-15.3399 108.305-16.7019 107.139-16.7019L89.305-16.7019Z"/>
  </g>
  <g id="Black-S" transform="matrix(1 0 0 1 2867.17 696)">
   <path class="SFSymbolsPreviewWireframe" d="M78.633-16.6455L92.597-16.6455C90.046-16.6455 88.657-19.6255 90.298-21.5795L83.316-13.2675C84.516-14.6955 86.714-14.6955 87.914-13.2675L80.932-21.5785C82.573-19.6255 81.184-16.6455 78.633-16.6455ZM78.633-20.1665C78.192-20.1665 77.952-19.6515 78.236-19.3135L85.218-11.0025C85.425-10.7555 85.805-10.7555 86.012-11.0025L92.994-19.3135C93.278-19.6515 93.038-20.1665 92.597-20.1665L78.633-20.1665ZM40.854-19.8335C43.405-19.8335 44.794-16.8525 43.152-14.8995L50.135-23.2115C48.935-21.7825 46.736-21.7825 45.537-23.2115L52.518-14.8995C50.877-16.8525 52.266-19.8335 54.817-19.8335L40.854-19.8335ZM40.854-16.3115C40.413-16.3115 40.173-16.8265 40.456-17.1645L47.438-25.4765C47.646-25.7235 48.026-25.7235 48.233-25.4765L55.215-17.1645C55.498-16.8265 55.258-16.3115 54.817-16.3115L40.854-16.3115Z"/>
   <path class="monochrome-0 multicolor-0:tintColor hierarchical-0:primary SFSymbolsPreviewWireframe" d="M35.49-23.4635C30.799-25.2215 27.626-29.7185 27.626-34.8135C27.626-41.5045 33.049-46.9275 39.74-46.9275C40.594-46.9275 41.434-46.8405 42.251-46.6685C45.806-45.9215 49.303-48.1675 50.101-51.7115C51.785-59.1815 58.459-64.5845 66.226-64.5845C75.311-64.5845 82.692-57.2515 82.754-48.1725C82.785-43.6045 87.308-40.4295 91.615-41.9515C92.663-42.3215 93.773-42.5135 94.918-42.5135C100.39-42.5135 104.826-38.0775 104.826-32.6065C104.826-28.5225 102.333-24.9035 98.608-23.4075L103.563-11.0725C112.284-14.5755 118.118-23.0485 118.118-32.6065C118.118-45.4195 107.731-55.8065 94.918-55.8065C92.259-55.8065 89.651-55.3555 87.185-54.4845L89.4-48.2175L96.046-48.2635C95.934-64.6465 82.618-77.8775 66.226-77.8775C52.21-77.8775 40.176-68.1355 37.134-54.6345L43.617-53.1735L44.984-59.6775C43.27-60.0375 41.514-60.2205 39.74-60.2205C25.708-60.2205 14.333-48.8455 14.333-34.8135C14.333-24.1315 20.986-14.7025 30.827-11.0155L35.49-23.4635ZM41.989-18.2395C41.989-4.57753 53.064 6.49747 66.725 6.49747C72.247 6.49747 77.508 4.67547 81.797 1.37647C84.469-0.678534 84.969-4.51153 82.914-7.18253C80.859-9.85453 77.026-10.3545 74.354-8.29953C72.181-6.62753 69.531-5.71053 66.725-5.71053C59.806-5.71053 54.196-11.3195 54.196-18.2395C54.196-21.6105 51.464-24.3425 48.093-24.3425C44.722-24.3425 41.989-21.6105 41.989-18.2395ZM91.462-18.2395C91.462-31.9005 80.387-42.9755 66.725-42.9755C61.078-42.9755 55.706-41.0705 51.369-37.6325C48.727-35.5385 48.283-31.6995 50.377-29.0575C52.471-26.4155 56.31-25.9715 58.952-28.0655C61.15-29.8085 63.856-30.7685 66.725-30.7685C73.645-30.7685 79.254-25.1585 79.254-18.2395C79.254-14.8685 81.987-12.1355 85.358-12.1355C88.729-12.1355 91.462-14.8685 91.462-18.2395ZM40.854-12.7905L54.817-12.7905C58.25-12.7905 60.12-16.8005 57.911-19.4295L50.929-27.7415C49.315-29.6635 46.356-29.6635 44.742-27.7415L37.76-19.4295C35.551-16.8005 37.421-12.7905 40.854-12.7905ZM78.633-23.6885C75.2-23.6885 73.331-19.6775 75.54-17.0485L82.521-8.73753C84.136-6.81453 87.094-6.81453 88.709-8.73653L95.691-17.0495C97.899-19.6775 96.03-23.6885 92.597-23.6885L78.633-23.6885Z"/>
  </g>
  <g id="Heavy-S" transform="matrix(1 0 0 1 2571.09 696)">
   <path class="SFSymbolsPreviewWireframe" d="M78.004-16.9785L91.968-16.9785C89.7-16.9785 88.466-19.6285 89.925-21.3645L82.942-13.0525C84.009-14.3225 85.963-14.3225 87.03-13.0525L80.048-21.3645C81.506-19.6285 80.272-16.9785 78.004-16.9785ZM78.004-20.1665C77.563-20.1665 77.323-19.6515 77.607-19.3135L84.589-11.0025C84.796-10.7555 85.176-10.7555 85.383-11.0025L92.365-19.3135C92.649-19.6515 92.409-20.1665 91.968-20.1665L78.004-20.1665ZM40.225-19.4995C42.492-19.4995 43.727-16.8505 42.268-15.1135L49.25-23.4255C48.183-22.1565 46.23-22.1565 45.163-23.4255L52.145-15.1135C50.686-16.8505 51.921-19.4995 54.188-19.4995L40.225-19.4995ZM40.225-16.3115C39.784-16.3115 39.544-16.8265 39.827-17.1645L46.809-25.4765C47.017-25.7235 47.397-25.7235 47.604-25.4765L54.586-17.1645C54.869-16.8265 54.629-16.3115 54.188-16.3115L40.225-16.3115Z"/>
   <path class="monochrome-0 multicolor-0:tintColor hierarchical-0:primary SFSymbolsPreviewWireframe" d="M34.641-22.8735C29.706-24.7225 26.367-29.4545 26.367-34.8135C26.367-41.8515 32.073-47.5575 39.111-47.5575C40.009-47.5575 40.892-47.4655 41.751-47.2845C44.97-46.6085 48.135-48.6415 48.858-51.8505C50.606-59.6065 57.534-65.2145 65.597-65.2145C75.028-65.2145 82.69-57.6015 82.754-48.1765C82.783-44.0415 86.877-41.1665 90.776-42.5455C91.891-42.9395 93.072-43.1435 94.289-43.1435C100.109-43.1435 104.826-38.4255 104.826-32.6065C104.826-28.2635 102.176-24.4145 98.214-22.8225L102.699-11.6565C111.183-15.0645 116.86-23.3075 116.86-32.6065C116.86-45.0715 106.755-55.1765 94.289-55.1765C91.701-55.1765 89.165-54.7385 86.766-53.8905L88.771-48.2175L94.788-48.2585C94.678-64.2965 81.643-77.2485 65.597-77.2485C51.877-77.2485 40.097-67.7115 37.119-54.4955L42.988-53.1735L44.225-59.0615C42.554-59.4125 40.842-59.5905 39.111-59.5905C25.427-59.5905 14.333-48.4975 14.333-34.8135C14.333-24.3965 20.822-15.2005 30.419-11.6055L34.641-22.8735ZM41.938-18.2395C41.938-4.89653 52.754 5.91947 66.096 5.91947C71.489 5.91947 76.627 4.14047 80.816 0.918466C83.235-0.942534 83.687-4.41153 81.827-6.83053C79.966-9.24953 76.497-9.70153 74.078-7.84153C71.804-6.09253 69.031-5.13253 66.096-5.13253C58.857-5.13253 52.989-11.0005 52.989-18.2395C52.989-21.2905 50.515-23.7645 47.464-23.7645C44.412-23.7645 41.938-21.2905 41.938-18.2395ZM90.255-18.2395C90.255-31.5815 79.439-42.3975 66.096-42.3975C60.581-42.3975 55.334-40.5365 51.099-37.1795C48.707-35.2835 48.305-31.8085 50.201-29.4165C52.097-27.0255 55.572-26.6235 57.964-28.5195C60.263-30.3415 63.096-31.3465 66.096-31.3465C73.335-31.3465 79.204-25.4785 79.204-18.2395C79.204-15.1875 81.677-12.7135 84.729-12.7135C87.781-12.7135 90.255-15.1875 90.255-18.2395ZM40.225-13.1235L54.188-13.1235C57.338-13.1235 59.053-16.8035 57.027-19.2145L50.045-27.5265C48.563-29.2905 45.85-29.2905 44.368-27.5265L37.386-19.2145C35.36-16.8035 37.075-13.1235 40.225-13.1235ZM78.004-23.3545C74.855-23.3545 73.14-19.6755 75.166-17.2635L82.148-8.95153C83.629-7.18853 86.343-7.18853 87.824-8.95153L94.806-17.2635C96.832-19.6755 95.118-23.3545 91.968-23.3545L78.004-23.3545Z"/>
  </g>
  <g id="Bold-S" transform="matrix(1 0 0 1 2275.01 696)">
   <path class="SFSymbolsPreviewWireframe" d="M77.374-17.3125L91.338-17.3125C89.354-17.3125 88.274-19.6305 89.55-21.1495L82.568-12.8375C83.501-13.9485 85.211-13.9485 86.144-12.8375L79.162-21.1495C80.439-19.6305 79.358-17.3125 77.374-17.3125ZM77.374-20.1665C76.933-20.1665 76.693-19.6515 76.977-19.3135L83.959-11.0025C84.166-10.7555 84.546-10.7555 84.753-11.0025L91.735-19.3135C92.019-19.6515 91.779-20.1665 91.338-20.1665L77.374-20.1665ZM39.595-19.1655C41.579-19.1655 42.659-16.8475 41.383-15.3285L48.365-23.6405C47.431-22.5295 45.722-22.5295 44.788-23.6405L51.77-15.3285C50.494-16.8475 51.574-19.1655 53.558-19.1655L39.595-19.1655ZM39.595-16.3115C39.154-16.3115 38.914-16.8265 39.197-17.1645L46.179-25.4765C46.387-25.7235 46.767-25.7235 46.974-25.4765L53.956-17.1645C54.239-16.8265 53.999-16.3115 53.558-16.3115L39.595-16.3115Z"/>
   <path class="monochrome-0 multicolor-0:tintColor hierarchical-0:primary SFSymbolsPreviewWireframe" d="M33.79-22.2845C28.611-24.2245 25.107-29.1895 25.107-34.8135C25.107-42.1995 31.095-48.1875 38.481-48.1875C39.423-48.1875 40.349-48.0905 41.251-47.9015C44.132-47.2955 46.966-49.1165 47.614-51.9885C49.426-60.0305 56.608-65.8445 64.967-65.8445C74.744-65.8445 82.687-57.9515 82.754-48.1815C82.779-44.4785 86.446-41.9045 89.936-43.1385C91.119-43.5565 92.37-43.7725 93.659-43.7725C99.827-43.7725 104.826-38.7735 104.826-32.6065C104.826-28.0045 102.017-23.9255 97.818-22.2385L101.834-12.2405C110.082-15.5535 115.6-23.5665 115.6-32.6065C115.6-44.7235 105.777-54.5465 93.659-54.5465C91.143-54.5465 88.677-54.1215 86.346-53.2965L88.141-48.2175L93.528-48.2545C93.421-63.9465 80.667-76.6185 64.967-76.6185C51.543-76.6185 40.017-67.2875 37.103-54.3575L42.358-53.1735L43.466-58.4455C41.837-58.7875 40.168-58.9615 38.481-58.9615C25.144-58.9615 14.333-48.1495 14.333-34.8135C14.333-24.6605 20.657-15.6995 30.009-12.1955L33.79-22.2845ZM41.886-18.2395C41.886-5.21653 52.443 5.34047 65.466 5.34047C70.731 5.34047 75.745 3.60547 79.833 0.459466C81.999-1.20553 82.404-4.31253 80.738-6.47753C79.072-8.64353 75.966-9.04853 73.8-7.38253C71.427-5.55653 68.529-4.55353 65.466-4.55353C57.908-4.55353 51.781-10.6805 51.781-18.2395C51.781-20.9715 49.566-23.1865 46.834-23.1865C44.101-23.1865 41.886-20.9715 41.886-18.2395ZM89.046-18.2395C89.046-31.2625 78.489-41.8195 65.466-41.8195C60.082-41.8195 54.962-40.0035 50.828-36.7265C48.687-35.0295 48.327-31.9175 50.024-29.7765C51.721-27.6345 54.833-27.2745 56.974-28.9725C59.375-30.8755 62.334-31.9245 65.466-31.9245C73.025-31.9245 79.152-25.7975 79.152-18.2395C79.152-15.5065 81.367-13.2915 84.099-13.2915C86.831-13.2915 89.046-15.5065 89.046-18.2395ZM39.595-13.4575L53.558-13.4575C56.425-13.4575 57.985-16.8055 56.141-19.0005L49.159-27.3125C47.811-28.9165 45.342-28.9165 43.994-27.3125L37.012-19.0005C35.168-16.8055 36.728-13.4575 39.595-13.4575ZM77.374-23.0205C74.508-23.0205 72.948-19.6725 74.791-17.4775L81.773-9.16653C83.121-7.56153 85.591-7.56153 86.939-9.16653L93.921-17.4785C95.765-19.6725 94.204-23.0205 91.338-23.0205L77.374-23.0205Z"/>
  </g>
  <g id="Semibold-S" transform="matrix(1 0 0 1 1978.93 696)">
   <path class="SFSymbolsPreviewWireframe" d="M76.744-17.6465L90.708-17.6465C89.007-17.6465 88.081-19.6335 89.175-20.9355L82.193-12.6235C82.993-13.5755 84.459-13.5755 85.259-12.6235L78.277-20.9355C79.371-19.6335 78.445-17.6465 76.744-17.6465ZM76.744-20.1665C76.303-20.1665 76.063-19.6515 76.347-19.3135L83.329-11.0025C83.536-10.7555 83.916-10.7555 84.123-11.0025L91.105-19.3135C91.389-19.6515 91.149-20.1665 90.708-20.1665L76.744-20.1665ZM38.965-18.8325C40.665-18.8325 41.591-16.8455 40.497-15.5425L47.479-23.8545C46.679-22.9025 45.214-22.9025 44.414-23.8545L51.396-15.5435C50.302-16.8455 51.228-18.8325 52.928-18.8325L38.965-18.8325ZM38.965-16.3115C38.524-16.3115 38.284-16.8265 38.567-17.1645L45.549-25.4765C45.757-25.7235 46.137-25.7235 46.344-25.4765L53.326-17.1645C53.609-16.8265 53.369-16.3115 52.928-16.3115L38.965-16.3115Z"/>
   <path class="monochrome-0 multicolor-0:tintColor hierarchical-0:primary SFSymbolsPreviewWireframe" d="M32.939-21.6945C27.516-23.7265 23.848-28.9245 23.848-34.8135C23.848-42.5475 30.117-48.8165 37.851-48.8165C38.836-48.8165 39.806-48.7155 40.75-48.5175C43.295-47.9825 45.798-49.5905 46.369-52.1275C48.246-60.4545 55.682-66.4735 64.337-66.4735C74.46-66.4735 82.685-58.3025 82.754-48.1855C82.776-44.9155 86.014-42.6425 89.096-43.7325C90.346-44.1735 91.669-44.4025 93.029-44.4025C99.544-44.4025 104.826-39.1215 104.826-32.6065C104.826-27.7445 101.858-23.4355 97.423-21.6545L100.97-12.8255C108.981-16.0425 114.341-23.8265 114.341-32.6065C114.341-44.3765 104.799-53.9175 93.029-53.9175C90.585-53.9175 88.19-53.5035 85.926-52.7035L87.511-48.2175L92.268-48.2505C92.164-63.5955 79.691-75.9885 64.337-75.9885C51.209-75.9885 39.937-66.8635 37.087-54.2185L41.728-53.1735L42.707-57.8285C41.12-58.1625 39.495-58.3315 37.851-58.3315C24.862-58.3315 14.333-47.8025 14.333-34.8135C14.333-24.9255 20.492-16.1975 29.6-12.7845L32.939-21.6945ZM41.835-18.2395C41.835-5.53553 52.133 4.76247 64.836 4.76247C69.972 4.76247 74.862 3.06947 78.851 0.00146582C80.763-1.46953 81.121-4.21253 79.65-6.12553C78.179-8.03753 75.436-8.39553 73.523-6.92453C71.049-5.02153 68.028-3.97553 64.836-3.97553C56.959-3.97553 50.573-10.3615 50.573-18.2395C50.573-20.6525 48.617-22.6085 46.204-22.6085C43.791-22.6085 41.835-20.6525 41.835-18.2395ZM87.838-18.2395C87.838-30.9425 77.54-41.2405 64.836-41.2405C59.584-41.2405 54.59-39.4695 50.557-36.2735C48.666-34.7745 48.348-32.0265 49.847-30.1355C51.346-28.2445 54.094-27.9265 55.985-29.4255C58.487-31.4085 61.572-32.5025 64.836-32.5025C72.714-32.5025 79.1-26.1165 79.1-18.2395C79.1-15.8265 81.056-13.8705 83.469-13.8705C85.882-13.8705 87.838-15.8265 87.838-18.2395ZM38.965-13.7905L52.928-13.7905C55.511-13.7905 56.917-16.8085 55.256-18.7855L48.274-27.0975C47.059-28.5435 44.834-28.5435 43.619-27.0975L36.637-18.7855C34.976-16.8085 36.382-13.7905 38.965-13.7905ZM76.744-22.6875C74.161-22.6875 72.755-19.6705 74.417-17.6925L81.399-9.38053C82.613-7.93453 84.839-7.93453 86.053-9.38053L93.035-17.6925C94.697-19.6705 93.291-22.6875 90.708-22.6875L76.744-22.6875Z"/>
  </g>
  <g id="Medium-S" transform="matrix(1 0 0 1 1682.85 696)">
   <path class="SFSymbolsPreviewWireframe" d="M76.115-17.9795L90.079-17.9795C88.662-17.9795 87.89-19.6355 88.802-20.7205L81.82-12.4085C82.486-13.2025 83.708-13.2025 84.374-12.4085L77.392-20.7205C78.304-19.6355 77.532-17.9795 76.115-17.9795ZM76.115-20.1665C75.674-20.1665 75.434-19.6515 75.718-19.3135L82.7-11.0025C82.907-10.7555 83.287-10.7555 83.494-11.0025L90.476-19.3135C90.76-19.6515 90.52-20.1665 90.079-20.1665L76.115-20.1665ZM38.336-18.4985C39.753-18.4985 40.524-16.8425 39.613-15.7575L46.595-24.0695C45.928-23.2755 44.707-23.2755 44.04-24.0695L51.022-15.7575C50.111-16.8425 50.882-18.4985 52.299-18.4985L38.336-18.4985ZM38.336-16.3115C37.895-16.3115 37.655-16.8265 37.938-17.1645L44.92-25.4765C45.128-25.7235 45.508-25.7235 45.715-25.4765L52.697-17.1645C52.98-16.8265 52.74-16.3115 52.299-16.3115L38.336-16.3115Z"/>
   <path class="monochrome-0 multicolor-0:tintColor hierarchical-0:primary SFSymbolsPreviewWireframe" d="M32.089-21.1055C26.422-23.2285 22.589-28.6605 22.589-34.8135C22.589-42.8955 29.14-49.4465 37.222-49.4465C38.251-49.4465 39.264-49.3405 40.251-49.1335C42.459-48.6695 44.63-50.0645 45.126-52.2655C47.067-60.8785 54.757-67.1035 63.708-67.1035C74.177-67.1035 82.683-58.6525 82.754-48.1895C82.774-45.3525 85.583-43.3805 88.258-44.3265C89.574-44.7915 90.968-45.0325 92.4-45.0325C99.263-45.0325 104.826-39.4685 104.826-32.6065C104.826-27.4855 101.701-22.9465 97.029-21.0695L100.106-13.4095C107.88-16.5325 113.082-24.0855 113.082-32.6065C113.082-44.0285 103.822-53.2875 92.4-53.2875C90.027-53.2875 87.704-52.8865 85.506-52.1095L86.882-48.2175L91.01-48.2455C90.907-63.2455 78.716-75.3595 63.708-75.3595C50.876-75.3595 39.858-66.4395 37.073-54.0805L41.099-53.1735L41.948-57.2125C40.404-57.5375 38.822-57.7015 37.222-57.7015C24.581-57.7015 14.333-47.4545 14.333-34.8135C14.333-25.1905 20.328-16.6955 29.192-13.3745L32.089-21.1055ZM41.784-18.2395C41.784-5.85453 51.823 4.18447 64.207 4.18447C69.214 4.18447 73.981 2.53447 77.869-0.456534C79.529-1.73353 79.839-4.11353 78.563-5.77253C77.286-7.43253 74.906-7.74253 73.247-6.46653C70.672-4.48553 67.528-3.39753 64.207-3.39753C56.01-3.39753 49.365-10.0425 49.365-18.2395C49.365-20.3325 47.668-22.0295 45.575-22.0295C43.481-22.0295 41.784-20.3325 41.784-18.2395ZM86.631-18.2395C86.631-30.6235 76.592-40.6625 64.207-40.6625C59.086-40.6625 54.219-38.9365 50.287-35.8195C48.647-34.5195 48.371-32.1355 49.671-30.4945C50.972-28.8535 53.356-28.5775 54.997-29.8785C57.6-31.9425 60.812-33.0815 64.207-33.0815C72.404-33.0815 79.049-26.4365 79.049-18.2395C79.049-16.1455 80.746-14.4485 82.84-14.4485C84.934-14.4485 86.631-16.1455 86.631-18.2395ZM38.336-14.1245L52.299-14.1245C54.599-14.1245 55.85-16.8105 54.371-18.5715L47.389-26.8825C46.308-28.1705 44.327-28.1705 43.246-26.8825L36.264-18.5705C34.785-16.8105 36.036-14.1245 38.336-14.1245ZM76.115-22.3535C73.816-22.3535 72.564-19.6675 74.043-17.9075L81.025-9.59553C82.106-8.30853 84.088-8.30853 85.169-9.59553L92.151-17.9075C93.63-19.6675 92.378-22.3535 90.079-22.3535L76.115-22.3535Z"/>
  </g>
  <g id="Regular-S" transform="matrix(1 0 0 1 1386.77 696)">
   <path class="SFSymbolsPreviewWireframe" d="M75.485-18.3135L89.449-18.3135C88.315-18.3135 87.698-19.6375 88.427-20.5065L81.445-12.1945C81.979-12.8285 82.956-12.8285 83.489-12.1945L76.507-20.5065C77.236-19.6375 76.619-18.3135 75.485-18.3135ZM75.485-20.1665C75.044-20.1665 74.804-19.6515 75.088-19.3135L82.07-11.0025C82.277-10.7555 82.657-10.7555 82.864-11.0025L89.846-19.3135C90.13-19.6515 89.89-20.1665 89.449-20.1665L75.485-20.1665ZM37.706-18.1645C38.839-18.1645 39.457-16.8405 38.727-15.9725L45.709-24.2845C45.176-23.6495 44.199-23.6495 43.666-24.2845L50.648-15.9725C49.918-16.8405 50.536-18.1645 51.669-18.1645L37.706-18.1645ZM37.706-16.3115C37.265-16.3115 37.025-16.8265 37.308-17.1645L44.29-25.4765C44.498-25.7235 44.878-25.7235 45.085-25.4765L52.067-17.1645C52.35-16.8265 52.11-16.3115 51.669-16.3115L37.706-16.3115Z"/>
   <path class="monochrome-0 multicolor-0:tintColor hierarchical-0:primary SFSymbolsPreviewWireframe" d="M31.238-20.5155C25.327-22.7295 21.329-28.3955 21.329-34.8135C21.329-43.2425 28.163-50.0765 36.592-50.0765C37.664-50.0765 38.721-49.9655 39.75-49.7495C41.621-49.3565 43.462-50.5385 43.882-52.4045C45.887-61.3025 53.831-67.7335 63.078-67.7335C73.894-67.7335 82.68-59.0025 82.754-48.1935C82.77-45.7895 85.151-44.1185 87.418-44.9195C88.802-45.4085 90.266-45.6615 91.77-45.6615C98.981-45.6615 104.826-39.8165 104.826-32.6065C104.826-27.2265 101.542-22.4575 96.633-20.4855L99.241-13.9935C106.779-17.0215 111.822-24.3445 111.822-32.6065C111.822-43.6805 102.845-52.6585 91.77-52.6585C89.469-52.6585 87.216-52.2685 85.086-51.5155L86.252-48.2175L89.75-48.2415C89.65-62.8955 77.739-74.7295 63.078-74.7295C50.542-74.7295 39.778-66.0155 37.057-53.9425L40.469-53.1735L41.189-56.5965C39.687-56.9115 38.148-57.0725 36.592-57.0725C24.299-57.0725 14.333-47.1065 14.333-34.8135C14.333-25.4545 20.163-17.1935 28.783-13.9635L31.238-20.5155ZM41.732-18.2395C41.732-6.17453 51.512 3.60647 63.577 3.60647C68.456 3.60647 73.099 1.99847 76.887-0.915534C78.293-1.99653 78.556-4.01353 77.474-5.42053C76.392-6.82653 74.375-7.08953 72.969-6.00753C70.295-3.95053 67.026-2.81853 63.577-2.81853C55.061-2.81853 48.157-9.72253 48.157-18.2395C48.157-20.0135 46.719-21.4515 44.945-21.4515C43.17-21.4515 41.732-20.0135 41.732-18.2395ZM85.423-18.2395C85.423-30.3045 75.642-40.0845 63.577-40.0845C58.588-40.0845 53.847-38.4035 50.017-35.3665C48.626-34.2645 48.392-32.2445 49.495-30.8535C50.597-29.4635 52.617-29.2295 54.008-30.3315C56.712-32.4755 60.05-33.6595 63.577-33.6595C72.094-33.6595 78.998-26.7555 78.998-18.2395C78.998-16.4645 80.436-15.0265 82.21-15.0265C83.984-15.0265 85.423-16.4645 85.423-18.2395ZM37.706-14.4585L51.669-14.4585C53.685-14.4585 54.783-16.8135 53.486-18.3565L46.504-26.6685C45.556-27.7965 43.819-27.7965 42.871-26.6685L35.889-18.3565C34.592-16.8135 35.69-14.4585 37.706-14.4585ZM75.485-22.0205C73.469-22.0205 72.372-19.6655 73.669-18.1215L80.651-9.80953C81.599-8.68153 83.336-8.68153 84.284-9.80953L91.266-18.1215C92.562-19.6655 91.465-22.0205 89.449-22.0205L75.485-22.0205Z"/>
  </g>
  <g id="Light-S" transform="matrix(1 0 0 1 1090.87 696)">
   <path class="SFSymbolsPreviewWireframe" d="M74.669-18.7455L88.633-18.7455C87.867-18.7455 87.449-19.6415 87.942-20.2275L80.96-11.9155C81.321-12.3455 81.981-12.3455 82.342-11.9165L75.36-20.2275C75.853-19.6415 75.435-18.7455 74.669-18.7455ZM74.669-20.1665C74.228-20.1665 73.988-19.6515 74.272-19.3135L81.254-11.0025C81.461-10.7555 81.841-10.7555 82.048-11.0025L89.03-19.3135C89.314-19.6515 89.074-20.1665 88.633-20.1665L74.669-20.1665ZM36.89-17.7325C37.656-17.7325 38.073-16.8375 37.58-16.2505L44.562-24.5625C44.202-24.1335 43.541-24.1335 43.181-24.5625L50.163-16.2505C49.67-16.8375 50.087-17.7325 50.853-17.7325L36.89-17.7325ZM36.89-16.3115C36.449-16.3115 36.209-16.8265 36.492-17.1645L43.474-25.4765C43.682-25.7235 44.062-25.7235 44.269-25.4765L51.251-17.1645C51.534-16.8265 51.294-16.3115 50.853-16.3115L36.89-16.3115Z"/>
   <path class="monochrome-0 multicolor-0:tintColor hierarchical-0:primary SFSymbolsPreviewWireframe" d="M30.136-19.7515C23.909-22.0845 19.697-28.0525 19.697-34.8135C19.697-43.6935 26.896-50.8925 35.776-50.8925C36.905-50.8925 38.017-50.7765 39.102-50.5485C40.537-50.2475 41.947-51.1535 42.27-52.5835C44.358-61.8525 52.631-68.5495 62.262-68.5495C73.526-68.5495 82.677-59.4565 82.754-48.1995C82.767-46.3565 84.592-45.0745 86.33-45.6895C87.801-46.2095 89.357-46.4785 90.954-46.4785C98.616-46.4785 104.826-40.2675 104.826-32.6065C104.826-26.8905 101.337-21.8235 96.122-19.7285L98.121-14.7515C105.352-17.6555 110.19-24.6815 110.19-32.6065C110.19-43.2295 101.578-51.8415 90.954-51.8415C88.746-51.8415 86.585-51.4685 84.542-50.7465L85.436-48.2175L88.118-48.2365C88.021-62.4415 76.475-73.9135 62.262-73.9135C50.11-73.9135 39.674-65.4655 37.037-53.7625L39.653-53.1735L40.205-55.7975C38.758-56.1015 37.276-56.2565 35.776-56.2565C23.934-56.2565 14.333-46.6555 14.333-34.8135C14.333-25.7975 19.949-17.8395 28.254-14.7285L30.136-19.7515ZM41.666-18.2395C41.666-6.58853 51.11 2.85647 62.761 2.85647C67.473 2.85647 71.955 1.30447 75.614-1.50953C76.692-2.33853 76.893-3.88453 76.064-4.96353C75.235-6.04153 73.688-6.24253 72.61-5.41353C69.806-3.25653 66.377-2.06953 62.761-2.06953C53.831-2.06953 46.592-9.30853 46.592-18.2395C46.592-19.5995 45.489-20.7025 44.129-20.7025C42.768-20.7025 41.666-19.5995 41.666-18.2395ZM83.857-18.2395C83.857-29.8905 74.412-39.3345 62.761-39.3345C57.943-39.3345 53.365-37.7115 49.666-34.7795C48.6-33.9345 48.421-32.3855 49.266-31.3195C50.111-30.2535 51.66-30.0745 52.726-30.9195C55.562-33.1675 59.064-34.4085 62.761-34.4085C71.692-34.4085 78.931-27.1695 78.931-18.2395C78.931-16.8785 80.034-15.7765 81.394-15.7765C82.754-15.7765 83.857-16.8785 83.857-18.2395ZM36.89-14.8905L50.853-14.8905C52.502-14.8905 53.399-16.8165 52.339-18.0785L45.357-26.3905C44.582-27.3135 43.161-27.3135 42.386-26.3905L35.404-18.0785C34.344-16.8165 35.241-14.8905 36.89-14.8905ZM74.669-21.5875C73.021-21.5875 72.123-19.6625 73.184-18.3995L80.166-10.0885C80.941-9.16553 82.361-9.16553 83.136-10.0885L90.118-18.4005C91.179-19.6625 90.281-21.5875 88.633-21.5875L74.669-21.5875Z"/>
  </g>
  <g id="Thin-S" transform="matrix(1 0 0 1 794.977 696)">
   <path class="SFSymbolsPreviewWireframe" d="M73.852-19.1785L87.816-19.1785C87.417-19.1785 87.2-19.6445 87.457-19.9495L80.475-11.6375C80.662-11.8615 81.006-11.8615 81.194-11.6375L74.212-19.9495C74.468-19.6445 74.251-19.1785 73.852-19.1785ZM73.852-20.1665C73.411-20.1665 73.171-19.6515 73.455-19.3135L80.437-11.0025C80.644-10.7555 81.024-10.7555 81.231-11.0025L88.213-19.3135C88.497-19.6515 88.257-20.1665 87.816-20.1665L73.852-20.1665ZM36.073-17.3005C36.471-17.3005 36.689-16.8335 36.432-16.5285L43.414-24.8405C43.226-24.6175 42.883-24.6175 42.695-24.8405L49.677-16.5285C49.42-16.8335 49.638-17.3005 50.036-17.3005L36.073-17.3005ZM36.073-16.3115C35.632-16.3115 35.392-16.8265 35.675-17.1645L42.657-25.4765C42.865-25.7235 43.245-25.7235 43.452-25.4765L50.434-17.1645C50.717-16.8265 50.477-16.3115 50.036-16.3115L36.073-16.3115Z"/>
   <path class="monochrome-0 multicolor-0:tintColor hierarchical-0:primary SFSymbolsPreviewWireframe" d="M29.032-18.9865C22.489-21.4385 18.064-27.7095 18.064-34.8135C18.064-44.1445 25.628-51.7085 34.959-51.7085C36.144-51.7085 37.313-51.5865 38.453-51.3475C39.451-51.1375 40.432-51.7685 40.656-52.7625C42.829-62.4025 51.431-69.3655 61.445-69.3655C73.158-69.3655 82.674-59.9115 82.753-48.2055C82.762-46.9225 84.032-46.0315 85.241-46.4585C86.799-47.0095 88.447-47.2945 90.137-47.2945C98.249-47.2945 104.825-40.7185 104.825-32.6065C104.825-26.5535 101.131-21.1885 95.609-18.9705L97-15.5085C103.924-18.2895 108.557-25.0175 108.557-32.6065C108.557-42.7785 100.31-51.0255 90.137-51.0255C88.022-51.0255 85.953-50.6685 83.997-49.9765L84.619-48.2175L86.485-48.2305C86.391-61.9865 75.209-73.0965 61.445-73.0965C49.677-73.0965 39.57-64.9155 37.016-53.5835L38.836-53.1735L39.22-54.9985C37.828-55.2915 36.402-55.4395 34.959-55.4395C23.567-55.4395 14.333-46.2055 14.333-34.8135C14.333-26.1415 19.735-18.4855 27.723-15.4925L29.032-18.9865ZM41.598-18.2395C41.598-7.00253 50.707 2.10647 61.944 2.10647C66.489 2.10647 70.811 0.610466 74.339-2.10353C75.09-2.68053 75.23-3.75653 74.653-4.50653C74.076-5.25653 73-5.39653 72.25-4.81953C69.316-2.56253 65.727-1.31953 61.944-1.31953C52.6-1.31953 45.025-8.89453 45.025-18.2395C45.025-19.1855 44.258-19.9525 43.312-19.9525C42.365-19.9525 41.598-19.1855 41.598-18.2395ZM82.29-18.2395C82.29-29.4765 73.181-38.5855 61.944-38.5855C57.296-38.5855 52.883-37.0195 49.315-34.1915C48.573-33.6045 48.449-32.5265 49.036-31.7845C49.624-31.0435 50.702-30.9185 51.443-31.5065C54.411-33.8585 58.076-35.1585 61.944-35.1585C71.289-35.1585 78.864-27.5835 78.864-18.2395C78.864-17.2925 79.631-16.5255 80.577-16.5255C81.523-16.5255 82.29-17.2925 82.29-18.2395ZM36.073-15.3235L50.036-15.3235C51.317-15.3235 52.015-16.8195 51.191-17.8005L44.209-26.1115C43.606-26.8295 42.503-26.8295 41.9-26.1125L34.918-17.8005C34.094-16.8195 34.792-15.3235 36.073-15.3235ZM73.852-21.1555C72.571-21.1555 71.874-19.6585 72.698-18.6785L79.68-10.3665C80.282-9.64953 81.386-9.64953 81.988-10.3665L88.97-18.6785C89.794-19.6585 89.097-21.1555 87.816-21.1555L73.852-21.1555Z"/>
  </g>
  <g id="Ultralight-S" transform="matrix(1 0 0 1 499.082 696)">
   <path class="SFSymbolsPreviewWireframe" d="M73.036-19.6105L87-19.6105C86.969-19.6105 86.951-19.6475 86.972-19.6715L79.99-11.3595C80.005-11.3775 80.032-11.3775 80.046-11.3595L73.065-19.6715C73.085-19.6475 73.068-19.6105 73.036-19.6105ZM73.036-20.1665C72.595-20.1665 72.355-19.6515 72.639-19.3135L79.621-11.0025C79.828-10.7555 80.208-10.7555 80.415-11.0025L87.397-19.3135C87.681-19.6515 87.441-20.1665 87-20.1665L73.036-20.1665ZM35.257-16.8675C35.288-16.8675 35.305-16.8305 35.285-16.8065L42.267-25.1185C42.252-25.1005 42.225-25.1005 42.21-25.1185L49.192-16.8065C49.172-16.8305 49.189-16.8675 49.22-16.8675L35.257-16.8675ZM35.257-16.3115C34.816-16.3115 34.576-16.8265 34.859-17.1645L41.841-25.4765C42.049-25.7235 42.429-25.7235 42.636-25.4765L49.618-17.1645C49.901-16.8265 49.661-16.3115 49.22-16.3115L35.257-16.3115Z"/>
   <path class="monochrome-0 multicolor-0:tintColor hierarchical-0:primary SFSymbolsPreviewWireframe" d="M27.93-18.2225C21.071-20.7925 16.432-27.3665 16.432-34.8135C16.432-44.5955 24.361-52.5245 34.143-52.5245C35.385-52.5245 36.61-52.3975 37.805-52.1465C38.366-52.0285 38.918-52.3825 39.044-52.9425C41.3-62.9525 50.231-70.1815 60.629-70.1815C72.791-70.1815 82.671-60.3655 82.754-48.2105C82.759-47.4895 83.473-46.9885 84.153-47.2285C85.798-47.8095 87.538-48.1105 89.321-48.1105C97.884-48.1105 104.826-41.1695 104.826-32.6065C104.826-26.2175 100.926-20.5545 95.097-18.2135L95.879-16.2655C102.497-18.9245 106.925-25.3535 106.925-32.6065C106.925-42.3285 99.043-50.2095 89.321-50.2095C87.299-50.2095 85.322-49.8675 83.453-49.2075L84.852-48.2245C84.762-61.5325 73.944-72.2805 60.629-72.2805C49.244-72.2805 39.467-64.3655 36.997-53.4035L38.236-54.2005C36.9-54.4805 35.53-54.6235 34.143-54.6235C23.202-54.6235 14.333-45.7545 14.333-34.8135C14.333-26.4845 19.521-19.1315 27.193-16.2565L27.93-18.2225ZM41.532-18.2395C41.532-7.41653 50.305 1.35747 61.128 1.35747C65.506 1.35747 69.668-0.0835342 73.066-2.69753C73.488-3.02253 73.567-3.62753 73.243-4.04953C72.918-4.47053 72.313-4.54953 71.891-4.22553C68.827-1.86853 65.078-0.570534 61.128-0.570534C51.37-0.570534 43.459-8.48053 43.459-18.2395C43.459-18.7715 43.028-19.2025 42.496-19.2025C41.963-19.2025 41.532-18.7715 41.532-18.2395ZM80.725-18.2395C80.725-29.0625 71.951-37.8355 61.128-37.8355C56.651-37.8355 52.401-36.3285 48.964-33.6045C48.547-33.2735 48.477-32.6675 48.808-32.2505C49.139-31.8335 49.745-31.7635 50.162-32.0935C53.261-34.5505 57.089-35.9085 61.128-35.9085C70.887-35.9085 78.797-27.9975 78.797-18.2395C78.797-17.7065 79.229-17.2755 79.761-17.2755C80.293-17.2755 80.725-17.7065 80.725-18.2395ZM35.257-15.7555L49.22-15.7555C50.134-15.7555 50.631-16.8225 50.044-17.5215L43.062-25.8335C42.632-26.3455 41.845-26.3455 41.415-25.8335L34.433-17.5215C33.846-16.8225 34.343-15.7555 35.257-15.7555ZM73.036-20.7225C72.123-20.7225 71.625-19.6555 72.213-18.9565L79.195-10.6445C79.625-10.1335 80.412-10.1335 80.841-10.6445L87.823-18.9565C88.411-19.6555 87.913-20.7225 87-20.7225L73.036-20.7225Z"/>
  </g>
 </g>
</svg>
