<svg id="a7a31df7-fd2c-4d84-ad02-5bfd6abb8a16" data-name="Ebene 1" xmlns="http://www.w3.org/2000/svg" viewBox="0 0 16 16"><defs><style>.baa986fe-9d9d-4d4b-a093-ce65189510eb{fill:#bebebe;}</style></defs><path class="baa986fe-9d9d-4d4b-a093-ce65189510eb" d="M15,11H1a1,1,0,0,1-1-1H0A1,1,0,0,1,1,9H15a1,1,0,0,1,1,1h0A1,1,0,0,1,15,11Zm-3,2H4V12H2v2a1,1,0,0,0,1,1H13a1,1,0,0,0,1-1V12H12Zm1.707-8.707-3-3A.9993.9993,0,0,0,10,1H3A1,1,0,0,0,2,2V8H4V3H9V5a1,1,0,0,0,1,1h2V8h2V5A1,1,0,0,0,13.707,4.293Z"/></svg>