<svg id="Ebene_1" data-name="Ebene 1" xmlns="http://www.w3.org/2000/svg" viewBox="0 0 16 16"><defs><style>.cls-1{fill:#bebebe;}</style></defs><title>Sync</title><path id="b" class="cls-1" d="M7,6H4.53876a4.01443,4.01443,0,0,1,.63263-.82861,4.09666,4.09666,0,0,1,5.65674,0l1.41406-1.41406A5.93838,5.93838,0,0,0,3,4.70776V2H1V8H7Z"/><path id="a" class="cls-1" d="M9,8v2h2.46307a4.01327,4.01327,0,0,1-.63495.82813,4.09474,4.09474,0,0,1-5.65674,0L3.75732,12.24219A5.94235,5.94235,0,0,0,13,11.29327V14h2V8Z"/></svg>