<svg id="Ebene_1" data-name="Ebene 1" xmlns="http://www.w3.org/2000/svg" viewBox="0 0 16 16"><defs><style>.cls-1{fill:#bebebe;}</style></defs><title>PreTranslate</title><path id="b" class="cls-1" d="M7.56451,5H9V3H5V1H3V3H0V5H1.43591A9.18509,9.18509,0,0,0,3.25232,8.85034a10.11733,10.11733,0,0,1-3.076,1.7981l.64746,1.70313a11.89973,11.89973,0,0,0,3.68286-2.17322,11.32264,11.32264,0,0,0,2.35193,1.58228l.64777-1.71973A9.45223,9.45223,0,0,1,5.7644,8.84644,9.13543,9.13543,0,0,0,7.56451,5ZM5.70038,5A7.36425,7.36425,0,0,1,4.50482,7.48651,7.39454,7.39454,0,0,1,3.30072,5Z"/><path id="a" class="cls-1" d="M13.01843,6H11.01337L8,14h2.155l.58807-1.67651h2.48212L13.79089,14H16Zm-1.67926,4.61853.6579-1.86029.63641,1.86029Z"/></svg>